<svg width="620" height="714" viewBox="0 0 620 714" fill="none" xmlns="http://www.w3.org/2000/svg">
<path d="M255.661 481.089C255.891 480.459 256.071 479.939 256.211 479.519C258.531 480.219 259.711 481.609 261.541 484.839C261.231 490.129 260.231 498.219 259.361 505.279C259.161 506.929 258.961 508.529 258.781 510.019C258.121 515.509 255.731 522.379 250.551 526.489C250.501 526.539 250.441 526.579 250.381 526.619C250.341 526.649 250.301 526.679 250.261 526.699C248.071 502.279 253.431 487.279 255.661 481.099V481.089Z" fill="#3D532E"/>
<path d="M359.161 484.839C360.991 481.609 362.171 480.229 364.491 479.519C364.631 479.939 364.811 480.459 365.041 481.089C367.261 487.269 372.631 502.269 370.441 526.689C370.351 526.629 370.251 526.559 370.161 526.479C364.981 522.369 362.591 515.499 361.931 510.009C361.751 508.519 361.551 506.919 361.351 505.269C360.481 498.219 359.481 490.129 359.171 484.829L359.161 484.839Z" fill="#3D532E"/>
<path d="M347.201 490.838C346.891 490.768 346.571 490.688 346.251 490.578C344.061 489.878 341.901 488.538 339.911 486.648C340.181 488.818 339.831 492.558 338.771 501.858C336.061 521.398 337.971 524.048 339.811 526.598L339.841 526.638C340.511 527.578 341.211 528.558 341.701 530.208C341.721 530.258 341.731 530.318 341.751 530.368L342.081 530.098C346.611 526.488 350.491 523.378 349.881 513.688C349.501 507.698 348.531 500.598 347.741 494.838C347.541 493.398 347.361 492.048 347.201 490.818V490.838Z" fill="#3D532E"/>
<path d="M280.781 486.659C278.791 488.549 276.631 489.889 274.441 490.579C274.121 490.689 273.801 490.779 273.481 490.849C273.321 492.079 273.131 493.439 272.941 494.869C272.151 500.639 271.181 507.739 270.801 513.719C270.181 523.409 274.071 526.509 278.601 530.129C278.711 530.219 278.821 530.309 278.931 530.399C278.931 530.389 278.931 530.379 278.941 530.369C278.941 530.349 278.951 530.339 278.961 530.319C278.961 530.289 278.981 530.269 278.981 530.239C279.471 528.579 280.171 527.599 280.851 526.659L280.871 526.629C282.721 524.069 284.621 521.429 281.911 501.879C280.851 492.579 280.501 488.839 280.771 486.669L280.781 486.659Z" fill="#3D532E"/>
<path d="M299.26 93.6091C299.83 93.2192 300.54 92.739 301.82 93.1687C303.42 93.1287 315.751 92.9595 323.421 97.3894C331.06 101.809 337.54 107.48 332.94 128.01C332.85 128.429 332.43 128.699 332 128.599C332.07 128.809 332.13 128.959 332.19 129.079C332.89 128.999 334.03 129.039 335.04 129.829C336.55 131.009 337.17 133.359 336.91 136.829C336.53 141.839 335.54 144.789 333.79 146.099C332.95 146.729 331.94 146.989 330.711 146.899C330.571 148.279 330.19 151.049 329.25 153.019V153.109C329.27 155 329.401 166.299 329.671 169.769C330.531 170.59 333.83 173.689 335.7 174.619C337.03 175.279 340.721 176.819 344.01 178.189L344.14 178.249C344.54 178.419 344.931 178.579 345.301 178.729C347.08 179.469 348.56 180.089 349.32 180.439C350.83 181.129 352.87 182.699 354.35 183.859C354.98 184.349 355.7 184.909 355.89 184.999C356.24 185.159 358.02 185.62 359.57 186.01H359.61C359.77 186.05 359.931 186.089 360.091 186.129C360.42 186.209 360.73 186.289 360.99 186.359C361.56 186.509 362.06 186.629 362.4 186.719C362.48 186.739 362.61 186.759 362.79 186.789C362.85 186.789 362.911 186.809 362.97 186.819C378.47 189.309 384.84 199.889 387.44 208.329C387.76 209.469 388.111 210.319 388.551 211.399C389.501 213.709 390.92 217.19 393.44 226.719C393.63 227.339 393.87 227.729 394.23 228.159L394.26 228.189C394.46 228.419 394.691 228.669 394.97 228.959C397.15 231.229 401.201 235.459 410.171 256.489C411.181 258.919 412.47 260.259 415.03 262.909L415.06 262.939C416.95 264.899 419.53 267.579 423.12 271.869C429.2 279.129 435.331 294.199 440.26 306.319L440.28 306.369C442.3 311.349 444.21 316.049 445.85 319.559C448 323.419 449.1 326.83 450.25 330.429V330.469C451.56 334.529 452.91 338.729 455.94 344.419L456.02 344.589L456.04 344.629L456.15 344.619C458.45 349.099 458.5 349.199 458.61 351.479H458.58C458.62 352.369 458.68 353.619 458.94 355.749C459.82 362.988 459.651 365.529 459.551 367.049V367.149C459.45 368.65 457.48 375.518 457.25 376.289C457.16 376.599 456.89 376.819 456.57 376.849C456.474 376.85 454.308 377.027 452.87 375.489C452.36 374.949 452.03 374.259 451.85 373.459C451.13 373.419 450.05 373.229 449.29 372.449C448.57 371.699 448.31 370.638 448.53 369.299C448.88 367.189 448.76 366.099 448.61 364.709C448.51 363.769 448.4 362.698 448.43 361.169C448.46 359.909 448.09 359.159 447.62 358.229V358.209C446.87 356.739 445.97 354.918 446.36 350.669C446.17 350.429 445.97 350.229 445.79 350.079C445.93 352.689 445.94 357.929 443.961 360.159C443.331 360.869 442.55 361.24 441.65 361.26C437.311 361.329 437.13 357.319 436.93 352.639V352.599C436.88 351.419 436.831 350.189 436.711 348.909C436.231 345.189 435.65 343.31 434.58 342.01C433.07 340.18 431.781 336.149 434.421 332.55C434.591 332.23 434.22 331.209 433.52 329.899C433.5 329.869 433.49 329.839 433.47 329.819C432.75 328.489 431.7 326.859 430.54 325.339C427.01 321.679 424.16 319.519 421.4 317.429H421.39C417.43 314.419 413.67 311.579 408.2 304.8C402.25 297.42 400.531 293.839 398.711 290.039C397.641 287.789 396.53 285.479 394.48 282.199C390.91 277.129 376.331 257.78 374.51 256.109C374.331 255.939 374.131 255.769 373.921 255.579C373.881 255.539 373.83 255.499 373.78 255.459C372.09 253.949 369.46 251.589 367.51 248.099C366.55 252.29 363.76 261.95 356.27 276.249C352.15 284.379 353.31 292.98 354.45 301.3L354.47 301.479C354.77 303.679 355.081 305.939 355.26 308.119C355.55 311.539 356.05 315.999 356.64 320.659V320.849C356.66 321.029 356.691 321.219 356.711 321.409C356.731 321.589 356.76 321.78 356.78 321.969C356.78 321.999 356.79 322.039 356.79 322.069C358.02 331.639 359.56 341.67 360.4 344.969C360.46 345.209 360.55 345.54 360.66 345.969C364.93 361.99 373.06 399.78 367.14 437.389C367.14 437.449 367.14 437.509 367.12 437.569C367.12 437.609 367.101 437.649 367.091 437.689C367.09 437.719 367.08 437.759 367.07 437.789C366.14 443.609 364.87 449.42 363.19 455.139C363.3 463.949 363.88 465.979 364.4 467.769C364.57 468.349 364.741 468.959 364.881 469.739C365.161 471.239 365.211 472.529 365.26 473.769V473.799C365.31 475.179 365.37 476.609 365.74 478.349C365.83 478.759 366.12 479.58 366.49 480.599C369.09 487.86 376 507.15 370.31 539.319C370.01 542.669 369.581 546.199 369.171 549.619L369.14 549.899C368.05 558.939 367.03 567.469 368.03 572.849C368.81 577.479 369.14 579.489 369.22 581.959C369.851 583.829 372.94 588.709 374.81 591.649L375.04 592.01C375.55 592.809 375.98 593.489 376.25 593.929C376.66 594.619 376.89 595.129 377.06 595.539C377.44 596.429 377.651 596.919 379.72 598.569C380.12 598.889 380.541 599.219 380.97 599.549L381 599.569C383.9 601.839 387.51 604.669 389.47 608.959C390.56 611.559 390.17 613.029 389.66 613.809C389.25 614.439 388.61 614.84 387.83 615.01C387.73 615.419 387.53 615.949 387.1 616.369C386.84 616.629 386.4 616.919 385.75 617.019C385.52 617.569 385.05 618.379 384.2 618.869C383.57 619.229 382.86 619.359 382.08 619.239C381.6 619.759 380.63 620.599 379.341 620.749C378.461 620.859 377.6 620.619 376.78 620.059C375.97 620.689 374.31 621.749 372.22 621.749C371.961 621.749 371.7 621.739 371.43 621.699C368.941 621.379 366.69 619.569 364.76 616.319C363.32 615.809 357.49 613.368 357.99 607.209C358.03 605.819 356.59 604.929 353.801 603.359L353.36 603.109C350.01 601.209 348.05 599.538 349.83 589.379C350.13 587.019 349.8 584.449 349.66 583.589C348.92 582.918 347.59 580.837 348.15 574.619C348.82 567.159 349.45 560.119 340.18 530.689C339.74 529.239 339.14 528.399 338.51 527.519C336.491 524.709 334.39 521.809 337.19 501.649C338.86 486.9 338.73 486.699 337.23 484.179V484.159C336.91 483.619 336.51 482.948 336.051 482.049C335.851 481.639 335.62 481.229 335.39 480.829L335.33 480.729V480.719C334.97 480.08 334.59 479.439 334.19 478.779C331.47 474.209 328.08 468.519 327.18 456.899C326.78 451.769 326.091 446.609 325.131 441.449C324.921 440.429 324.73 439.449 324.56 438.51C323.59 433.83 322.4 429.159 320.98 424.519C320.5 422.929 319.69 420.719 318.75 418.149V418.129C315.76 409.969 311.251 397.649 310.631 387.519C310.581 385.909 310.55 384.489 310.52 383.249V383.219C310.48 381.17 310.44 379.309 310.32 378.129C310.21 379.299 310.171 381.149 310.131 383.199V383.219C310.101 384.469 310.07 385.89 310.02 387.479C309.39 397.619 304.89 409.929 301.91 418.089V418.129C300.96 420.698 300.15 422.909 299.66 424.499C298.24 429.129 297.051 433.799 296.091 438.479C295.921 439.429 295.72 440.429 295.51 441.459C294.551 446.609 293.87 451.76 293.47 456.889C292.57 468.509 289.181 474.19 286.461 478.76C286.391 478.879 286.33 478.989 286.26 479.099C285.941 479.649 285.62 480.179 285.33 480.709V480.719L285.24 480.869C285.02 481.259 284.81 481.649 284.61 482.039C284.16 482.939 283.76 483.609 283.43 484.149V484.169C281.911 486.688 281.791 486.89 283.461 501.659C286.251 521.799 284.161 524.7 282.131 527.51V527.529C281.491 528.409 280.891 529.239 280.461 530.669C271.181 560.098 271.82 567.149 272.49 574.599C273.05 580.819 271.73 582.899 270.98 583.569C270.85 584.429 270.52 587.01 270.82 589.389C272.59 599.509 270.63 601.189 267.28 603.089L266.841 603.339C264.061 604.909 262.6 605.799 262.65 607.229C263.16 613.349 257.331 615.789 255.881 616.3C253.941 619.549 251.7 621.359 249.211 621.679C248.941 621.709 248.68 621.729 248.421 621.729C246.321 621.729 244.66 620.669 243.86 620.039C243.04 620.589 242.17 620.829 241.301 620.729C240.011 620.579 239.04 619.739 238.56 619.219C237.78 619.339 237.07 619.219 236.44 618.849C235.59 618.349 235.12 617.549 234.89 616.999C234.241 616.899 233.81 616.609 233.54 616.349C233.11 615.929 232.91 615.409 232.81 614.989C232.03 614.829 231.39 614.419 230.98 613.789C230.47 613.009 230.08 611.538 231.16 608.959C233.13 604.639 236.74 601.809 239.65 599.539H239.66C240.09 599.189 240.51 598.869 240.91 598.549C242.97 596.899 243.18 596.409 243.57 595.529L243.591 595.479C243.761 595.079 243.981 594.579 244.39 593.909C244.7 593.389 245.21 592.589 245.82 591.619C247.68 588.689 250.78 583.81 251.41 581.939C251.49 579.469 251.82 577.448 252.6 572.839C253.6 567.449 252.58 558.918 251.49 549.879L251.44 549.499C251.03 546.109 250.61 542.619 250.31 539.239C244.63 507.14 251.54 487.849 254.14 480.589L254.171 480.499C254.52 479.519 254.801 478.739 254.881 478.339C255.24 476.599 255.3 475.169 255.36 473.789C255.41 472.539 255.46 471.239 255.74 469.729C255.88 468.94 256.061 468.349 256.22 467.76C256.73 465.96 257.32 463.939 257.43 455.119C255.75 449.399 254.491 443.579 253.551 437.769C253.531 437.699 253.52 437.629 253.5 437.549C253.48 437.489 253.48 437.429 253.48 437.369C247.55 399.769 255.691 361.969 259.961 345.949C260.071 345.519 260.16 345.189 260.22 344.949C261.06 341.649 262.6 331.619 263.83 322.05C263.83 322.01 263.831 321.969 263.841 321.929C263.891 321.56 263.94 321.189 263.98 320.819V320.729C263.98 320.709 263.98 320.679 263.99 320.659V320.619C264.58 315.969 265.08 311.509 265.37 308.089C265.56 305.849 265.88 303.529 266.19 301.269C267.32 292.959 268.49 284.359 264.36 276.209C256.88 261.909 254.091 252.259 253.131 248.069C251.181 251.569 248.54 253.929 246.85 255.429L246.76 255.51C246.531 255.709 246.32 255.909 246.12 256.079C244.308 257.751 229.721 277.108 226.131 282.209C224.101 285.459 222.991 287.77 221.921 290.01C220.101 293.809 218.39 297.399 212.43 304.779C206.951 311.569 203.2 314.409 199.23 317.419C196.47 319.509 193.61 321.679 190.08 325.329C187.73 328.379 185.86 331.889 186.22 332.569C188.84 336.139 187.55 340.169 186.04 341.999C184.97 343.299 184.39 345.18 183.91 348.929C183.8 350.139 183.75 351.329 183.7 352.479V352.659C183.5 357.329 183.32 361.309 178.98 361.249C178.08 361.229 177.301 360.859 176.671 360.149C174.691 357.919 174.691 352.689 174.841 350.069C174.651 350.229 174.46 350.419 174.27 350.659C174.66 354.909 173.76 356.729 173.02 358.199C172.54 359.149 172.17 359.889 172.2 361.169C172.23 362.669 172.12 363.719 172.03 364.639V364.709C171.88 366.088 171.76 367.179 172.11 369.299C172.33 370.648 172.07 371.709 171.35 372.449C170.59 373.229 169.51 373.429 168.79 373.459C168.61 374.259 168.27 374.939 167.77 375.489C166.34 377.039 164.16 376.859 164.07 376.849C163.75 376.819 163.48 376.589 163.39 376.289C163.16 375.518 161.18 368.65 161.08 367.149V367.049C160.98 365.529 160.82 362.988 161.69 355.749C161.95 353.649 162.011 352.419 162.051 351.51V351.459C162.161 349.179 162.21 349.088 164.53 344.579V344.559L164.62 344.409C167.65 338.729 169.001 334.519 170.301 330.459C171.45 326.829 172.55 323.419 174.74 319.489C176.34 316.079 178.221 311.449 180.22 306.529L180.29 306.349C185.22 294.21 191.36 279.119 197.45 271.839C201.05 267.549 203.63 264.869 205.52 262.909C208.1 260.239 209.4 258.899 210.41 256.469C219.389 235.431 223.44 231.209 225.62 228.939L225.66 228.889C225.92 228.62 226.14 228.389 226.33 228.169C226.331 228.167 226.341 228.149 226.35 228.139C226.71 227.699 226.95 227.299 227.15 226.659C229.65 217.19 231.08 213.699 232.02 211.399V211.369L232.04 211.349C232.48 210.279 232.83 209.429 233.14 208.319C235.75 199.859 242.11 189.28 257.62 186.8H257.69C257.92 186.75 258.1 186.719 258.19 186.699C258.4 186.639 258.67 186.579 258.99 186.499C259.18 186.449 259.38 186.399 259.6 186.349C259.97 186.259 260.411 186.149 260.881 186.029C260.92 186.019 260.96 186.009 261 185.999C262.549 185.609 264.338 185.149 264.7 184.979C264.88 184.889 265.57 184.359 266.19 183.879L266.24 183.839C267.72 182.689 269.76 181.109 271.27 180.419C272.08 180.059 273.731 179.369 275.68 178.55C275.93 178.44 276.19 178.339 276.45 178.229L276.79 178.089C280.03 176.739 283.59 175.259 284.89 174.619C286.76 173.689 290.07 170.59 290.921 169.769C291.191 166.299 291.321 155 291.341 153.109V153.019C290.411 151.049 290.031 148.279 289.881 146.899C288.651 146.999 287.64 146.729 286.801 146.099C285.061 144.789 284.06 141.839 283.68 136.829C283.42 133.359 284.051 131.009 285.551 129.829C286.08 129.419 286.64 129.209 287.16 129.119C287.11 129.049 287.07 128.969 287.04 128.889V128.869C286.899 128.436 284.93 122.298 284.44 117.119C283.97 112.159 285.72 103.26 289.08 100.689C289.15 100.399 289.2 99.8693 288.81 99.5193C288.28 99.0494 288.11 98.3991 288.37 97.7693C288.83 96.6294 290.54 95.8892 292.54 95.949C292.699 95.949 292.8 95.9493 292.86 95.9294C292.86 95.8995 292.86 95.859 292.87 95.8191C292.87 95.7892 292.871 95.7591 292.881 95.7292C292.921 95.3593 293 94.7486 293.57 94.3386C294.25 93.8587 295.37 93.8094 297.33 94.1892C298.33 94.2392 298.77 93.9386 299.23 93.6287L299.26 93.6091ZM256.19 479.519C256.05 479.949 255.87 480.46 255.64 481.099C253.08 488.27 246.281 507.28 251.89 539.029C252.22 542.579 252.65 546.189 253.08 549.689V549.749C254.19 558.889 255.22 567.509 254.18 573.109C253.401 577.709 253.081 579.669 253.01 582.089C253.01 582.158 253 582.229 252.98 582.289C252.37 584.289 249.26 589.189 247.19 592.449L246.98 592.789C246.47 593.589 246.05 594.259 245.78 594.709C245.43 595.299 245.24 595.719 245.08 596.099L245.06 596.139C244.57 597.279 244.2 597.96 241.94 599.769C241.54 600.099 241.11 600.429 240.68 600.769C237.76 603.059 234.45 605.64 232.65 609.599C231.81 611.629 232.1 612.569 232.35 612.949C232.65 613.409 233.18 613.509 233.58 613.519C234.02 613.519 234.36 613.889 234.35 614.319C234.35 614.489 234.42 614.99 234.7 615.26C234.88 615.429 235.13 615.509 235.48 615.489C235.88 615.469 236.19 615.73 236.27 616.09C236.278 616.118 236.551 617.105 237.29 617.529C237.68 617.749 238.14 617.789 238.69 617.629C239.01 617.539 239.35 617.669 239.54 617.929C239.61 618.03 240.431 619.079 241.52 619.199C242.15 619.269 242.76 619.029 243.4 618.469C243.71 618.19 244.19 618.209 244.48 618.499C244.5 618.519 246.501 620.479 249.051 620.149C251.09 619.879 252.99 618.248 254.69 615.289C254.79 615.109 254.96 614.979 255.16 614.919C255.42 614.849 261.57 613.039 261.1 607.349C261.01 604.87 263.25 603.609 266.08 602.01L266.52 601.76C269.19 600.25 270.96 599.239 269.29 589.649C268.89 586.483 269.478 583.168 269.5 583.019C269.55 582.769 269.71 582.559 269.94 582.449C270.05 582.349 271.5 581.018 270.93 574.769C270.25 567.159 269.601 559.959 278.97 530.239L278.98 530.229C279.48 528.549 280.19 527.569 280.87 526.619H280.86C282.7 524.049 284.61 521.399 281.9 501.859C280.84 492.53 280.481 488.799 280.76 486.639C277.751 489.519 274.34 491.129 271.01 491.129H270.85C267.05 491.069 263.83 488.999 261.77 485.289C259.79 481.739 258.61 480.269 256.19 479.519ZM364.49 479.519C362.08 480.259 360.89 481.739 358.91 485.289C356.85 488.998 353.63 491.079 349.841 491.129H349.68C346.341 491.129 342.94 489.529 339.93 486.649C340.2 488.809 339.84 492.54 338.79 501.849C336.08 521.408 337.99 524.059 339.83 526.619C340.51 527.569 341.22 528.549 341.72 530.239C351.08 559.949 350.44 567.139 349.75 574.749C349.162 581.289 350.771 582.452 350.801 582.459C351.04 582.569 351.15 582.749 351.2 582.999V583.019C351.26 583.351 351.8 586.55 351.421 589.589C349.741 599.218 351.501 600.219 354.18 601.729L354.61 601.979C357.44 603.579 359.68 604.839 359.6 607.289C359.122 613.024 365.438 614.88 365.54 614.899C365.74 614.959 365.91 615.09 366.01 615.26C367.72 618.219 369.61 619.849 371.65 620.119C374.199 620.457 376.184 618.506 376.23 618.469C376.52 618.169 377 618.159 377.31 618.429C377.95 618.989 378.56 619.239 379.19 619.169C380.324 619.049 381.161 617.922 381.18 617.899C381.37 617.639 381.71 617.51 382.03 617.599C382.58 617.749 383.05 617.719 383.43 617.499C384.173 617.073 384.445 616.088 384.45 616.059C384.54 615.699 384.84 615.46 385.24 615.469C385.59 615.489 385.85 615.409 386.02 615.239C386.31 614.969 386.37 614.469 386.37 614.289C386.37 613.859 386.711 613.509 387.14 613.499C387.53 613.499 388.06 613.389 388.37 612.929C388.62 612.549 388.92 611.609 388.06 609.559C386.27 605.629 382.96 603.039 380.04 600.749C379.92 600.649 379.79 600.549 379.671 600.449C379.371 600.209 379.07 599.979 378.78 599.749C376.52 597.929 376.16 597.259 375.66 596.119C375.5 595.739 375.31 595.299 374.94 594.689C374.67 594.239 374.25 593.579 373.74 592.769L373.53 592.429C371.46 589.18 368.35 584.269 367.74 582.269C367.72 582.199 367.7 582.139 367.7 582.069C367.62 579.649 367.3 577.679 366.52 573.069C365.47 567.479 366.52 558.849 367.61 549.719V549.669C368.04 546.169 368.47 542.549 368.79 539.069C374.42 507.249 367.611 488.239 365.051 481.079C365.011 480.949 364.961 480.829 364.921 480.709V480.729C364.751 480.259 364.61 479.859 364.5 479.519H364.49ZM259.01 456.769C258.85 464.439 258.28 466.419 257.77 468.189C257.61 468.759 257.45 469.3 257.32 470.01C257.07 471.419 257.02 472.6 256.97 473.849C256.92 475.119 256.871 476.44 256.591 478.01C259.6 478.91 261.071 480.759 263.171 484.539C264.951 487.739 267.691 489.529 270.89 489.579C275.48 489.619 280.27 486.189 283.77 480.319C283.78 480.299 283.8 480.259 283.82 480.229C283.84 480.189 283.87 480.139 283.89 480.099L283.91 480.059V480.049C284.29 479.369 284.7 478.689 285.12 477.979C287.54 473.909 290.51 468.929 291.66 459.409C289.44 465.609 285.68 472.109 279.65 472.109H279.51C272.801 471.999 271.48 466.279 270.52 462.109C270.1 460.299 269.67 458.429 268.94 458.089C268.67 457.969 268.27 458.029 267.75 458.289C265.23 459.519 263.14 459.679 261.35 458.809C260.44 458.359 259.67 457.669 259.01 456.769ZM361.69 456.76C361.03 457.649 360.26 458.349 359.35 458.799C357.56 459.678 355.47 459.509 352.95 458.279C352.42 458.019 352.02 457.959 351.75 458.079C351.02 458.42 350.59 460.289 350.171 462.089V462.119C349.201 466.289 347.88 471.999 341.18 472.109H341.04C335.01 472.109 331.25 465.618 329.03 459.419C330.18 468.929 333.14 473.909 335.57 477.979L335.6 478.029C336.01 478.729 336.41 479.399 336.79 480.069V480.089L336.85 480.179C336.88 480.239 336.91 480.289 336.94 480.339C340.39 486.118 345.151 489.569 349.671 489.569H349.81C353.01 489.519 355.75 487.739 357.53 484.539C359.64 480.749 361.1 478.899 364.11 477.999C363.83 476.429 363.78 475.108 363.73 473.839V473.809C363.68 472.569 363.631 471.389 363.381 469.999C363.251 469.289 363.1 468.749 362.93 468.179C362.42 466.409 361.85 464.419 361.69 456.76ZM265.29 323.409C264.1 332.498 262.661 341.938 261.801 345.339L261.76 345.489C261.701 345.709 261.63 346 261.53 346.349C257.28 362.31 249.161 400.039 255.14 437.459C255.5 439.099 255.83 440.769 256.15 442.389V442.419C257.52 449.299 258.8 455.799 262.06 457.399C263.37 458.049 265.011 457.878 267.06 456.879C268.04 456.399 268.911 456.329 269.631 456.669C271.05 457.339 271.5 459.29 272.07 461.76C273.01 465.839 274.071 470.448 279.54 470.549H279.65C289.584 470.549 292.826 448.394 292.86 448.149V448.109C293.15 445.999 293.49 443.889 293.87 441.789C293.87 441.749 293.871 441.709 293.881 441.659L293.98 441.159C294.17 440.169 294.36 439.189 294.56 438.199L294.57 438.189C294.59 438.049 294.62 437.909 294.65 437.769C297.12 424.069 295.86 422.559 293.1 419.239C290.22 415.759 285.87 410.519 282.12 390.439C281.11 384.999 280.38 378.459 279.61 371.539C277.45 352.099 275.01 330.139 265.29 323.409ZM355.421 323.399C345.701 330.139 343.26 352.089 341.1 371.529C340.33 378.449 339.601 384.99 338.591 390.429C334.851 410.509 330.49 415.759 327.61 419.229C324.85 422.549 323.6 424.06 326.07 437.769L326.15 438.209C326.35 439.179 326.54 440.149 326.72 441.119L326.83 441.649C326.83 441.655 326.841 441.74 326.841 441.789C327.221 443.899 327.56 445.999 327.85 448.099V448.139C327.885 448.403 331.128 470.538 341.06 470.539H341.171C346.64 470.449 347.7 465.829 348.64 461.76C349.21 459.29 349.66 457.339 351.08 456.669C351.8 456.329 352.67 456.399 353.65 456.879C355.7 457.879 357.33 458.049 358.65 457.399C361.9 455.799 363.191 449.299 364.551 442.419L364.591 442.209C364.901 440.649 365.22 439.039 365.57 437.459C371.56 400.039 363.44 362.32 359.18 346.349C359.07 345.919 358.98 345.579 358.91 345.339V345.329C358.04 341.929 356.601 332.489 355.421 323.399ZM265.77 321.839C276.42 328.689 278.941 351.329 281.171 371.349V371.469C281.951 378.319 282.671 384.789 283.671 390.149C287.341 409.839 291.54 414.889 294.32 418.239C296.21 420.509 297.47 422.029 297.56 426.189C297.77 425.479 297.98 424.769 298.19 424.059C298.66 422.519 299.42 420.429 300.31 418.01L300.48 417.549C303.43 409.479 307.87 397.309 308.48 387.429L308.47 387.419C308.51 385.859 308.55 384.439 308.57 383.199V383.109C308.64 380.079 308.681 378.149 308.921 376.989C302.221 376.069 299.12 367.929 293.65 349.559C287.58 329.179 271.96 323.369 265.77 321.839ZM354.921 321.829C348.73 323.359 333.11 329.169 327.04 349.549C321.57 367.918 318.47 376.059 311.77 376.979C312.01 378.139 312.05 380.07 312.12 383.099V383.199C312.15 384.439 312.18 385.859 312.23 387.439C312.84 397.309 317.3 409.509 320.25 417.579L320.32 417.789C321.24 420.299 322.03 422.459 322.51 424.049C322.73 424.758 322.94 425.469 323.14 426.169L323.15 426.179C323.24 422.03 324.501 420.509 326.381 418.239C329.161 414.889 333.36 409.838 337.03 390.149C338.03 384.779 338.76 378.289 339.52 371.419V371.339C341.75 351.309 344.271 328.679 354.921 321.829ZM334.89 272.499C334.6 280.909 333.79 297.509 333.04 309.279C331.56 332.378 317.151 351.478 310.421 351.479H310.26C303.53 351.479 289.12 332.369 287.64 309.279C286.89 297.499 286.08 280.899 285.79 272.499C284.6 279.059 283.351 286.4 284.341 293.139C286.63 308.599 281.09 315.769 278.61 318.139C276.61 320.039 273.73 321.309 270.68 321.779C278.35 324.739 290.04 331.959 295.15 349.129C301.15 369.258 304.02 375.529 310.25 375.529H310.43C316.67 375.529 319.54 369.258 325.53 349.129C330.64 331.949 342.33 324.739 350 321.779C346.95 321.309 344.07 320.039 342.07 318.139C339.58 315.769 334.051 308.599 336.341 293.139C337.341 286.399 336.08 279.059 334.89 272.499ZM173.95 324.889C173.14 326.899 172.51 328.85 171.87 330.849L171.841 330.949C170.581 334.879 169.16 339.339 166.06 345.129L165.98 345.279C164.501 348.159 163.731 350.239 163.671 351.549C163.631 352.479 163.56 353.759 163.301 355.949C162.441 363.038 162.6 365.499 162.7 366.959V367.059C162.76 368.01 163.92 372.289 164.78 375.289C165.3 375.239 166.1 375.049 166.66 374.429C167.39 373.63 167.59 372.299 167.26 370.469C166.471 366.13 166.67 365.329 167.16 363.389C167.4 362.459 167.68 361.289 167.98 359.289C168.4 357.499 169.061 356.699 169.76 355.849C170.52 354.919 171.39 353.858 172.22 351.089C172.23 351.049 172.25 351.009 172.27 350.969C173.498 348.483 175.485 347.961 175.61 347.929C175.86 347.869 176.12 347.929 176.31 348.099C176.51 348.269 176.6 348.519 176.58 348.769C176.35 350.97 176.141 357.119 177.921 359.109C178.26 359.489 178.63 359.669 179.08 359.679H179.171C181.65 359.679 181.97 357.689 182.19 352.519C182.24 351.32 182.29 350.069 182.41 348.76C182.93 344.66 183.601 342.569 184.881 341.01C186.031 339.61 187.08 336.319 184.99 333.459C184.57 332.839 184.671 331.879 185.051 330.8C184.041 331.079 183.04 331.219 182.091 331.219C180.771 331.219 179.54 330.959 178.461 330.429C176.421 329.419 174.82 327.419 173.95 324.889ZM446.76 324.879C445.89 327.409 444.29 329.409 442.25 330.419C441.18 330.949 439.94 331.209 438.62 331.209C437.67 331.209 436.68 331.069 435.671 330.8C436.04 331.869 436.15 332.82 435.74 333.429C433.631 336.319 434.67 339.599 435.83 340.999C437.11 342.559 437.781 344.649 438.301 348.719C438.42 350.019 438.47 351.229 438.52 352.399V352.51C438.75 357.679 439.071 359.669 441.551 359.669H441.64C442.1 359.669 442.471 359.479 442.801 359.099C444.57 357.11 444.37 350.96 444.14 348.76C444.11 348.51 444.22 348.259 444.41 348.089C444.6 347.919 444.86 347.859 445.11 347.919C445.2 347.939 447.21 348.439 448.45 350.959C448.47 350.989 448.48 351.029 448.5 351.069C449.32 353.849 450.191 354.909 450.961 355.839V355.849C451.661 356.699 452.321 357.5 452.72 359.219C453.03 361.289 453.321 362.45 453.551 363.389C454.03 365.329 454.23 366.13 453.45 370.469C453.12 372.299 453.321 373.63 454.051 374.429C454.61 375.049 455.411 375.239 455.93 375.289C456.79 372.299 457.95 368.01 458.01 367.059V366.949C458.11 365.479 458.27 363.019 457.41 355.929C457.15 353.73 457.09 352.459 457.04 351.529C456.98 350.229 456.21 348.149 454.73 345.269L454.65 345.109C451.57 339.339 450.14 334.889 448.89 330.969L448.87 330.919C448.22 328.879 447.58 326.908 446.76 324.879ZM172.74 354.139C172.12 355.439 171.501 356.199 170.961 356.849C170.311 357.649 169.83 358.23 169.51 359.599C169.221 361.609 168.91 362.869 168.68 363.779C168.23 365.589 168.08 366.199 168.81 370.199C168.92 370.799 168.97 371.369 168.98 371.889C169.42 371.839 169.93 371.699 170.26 371.369C170.62 370.989 170.74 370.388 170.6 369.549C170.22 367.229 170.36 365.928 170.5 364.549C170.6 363.609 170.701 362.639 170.671 361.199C170.631 359.539 171.15 358.509 171.65 357.519C172.08 356.639 172.56 355.699 172.74 354.139ZM447.95 354.129C448.14 355.699 448.611 356.64 449.051 357.51C449.55 358.519 450.07 359.549 450.03 361.199C450 362.629 450.11 363.599 450.2 364.529V364.559C450.35 365.929 450.48 367.229 450.1 369.539C449.97 370.369 450.08 370.979 450.44 371.359C450.76 371.689 451.271 371.839 451.72 371.879C451.72 371.359 451.78 370.789 451.89 370.189C452.62 366.19 452.47 365.569 452.01 363.769L451.99 363.709C451.77 362.799 451.46 361.549 451.16 359.519C450.85 358.219 450.37 357.629 449.72 356.839C449.191 356.189 448.57 355.428 447.95 354.129ZM325.881 240.859C321.131 239.109 315.131 237.879 312.551 239.659C311.661 240.279 311.22 241.24 311.22 242.599C311.22 243.029 310.86 243.379 310.43 243.379H310.27C309.831 243.379 309.481 243.029 309.48 242.599C309.48 241.239 309.04 240.269 308.15 239.659C305.57 237.879 299.57 239.109 294.81 240.859C294.16 241.139 293.5 241.389 292.83 241.629C289.58 242.959 286.3 244.709 285.23 247.109C284.57 248.589 284.93 249.759 285.6 251.879C286.15 253.629 286.87 255.919 287.2 259.279C287.26 259.699 287.29 260.139 287.31 260.609C287.33 260.869 287.34 261.139 287.35 261.419C287.4 262.558 287.371 263.099 287.341 263.829V263.859C287.301 264.659 287.24 265.75 287.27 268.229C287.31 273.23 288.31 294.79 289.23 309.179C290.71 332.289 304.93 349.918 310.27 349.919H310.43C315.771 349.918 329.99 332.289 331.47 309.179C332.39 294.81 333.39 273.24 333.43 268.229V268.219C333.45 265.74 333.4 264.649 333.36 263.849V263.829C333.32 263.089 333.3 262.549 333.35 261.409C333.36 261.129 333.38 260.859 333.39 260.599C333.41 260.14 333.44 259.709 333.5 259.3C333.83 255.93 334.55 253.629 335.1 251.879C335.77 249.769 336.13 248.599 335.47 247.109C334.4 244.719 331.12 242.959 327.87 241.629C327.2 241.399 326.53 241.149 325.881 240.859ZM310.43 314.019C310.87 314.02 311.22 314.37 311.22 314.8V344.38C311.22 344.809 310.86 345.159 310.43 345.159H310.27C309.831 345.159 309.481 344.809 309.48 344.38V314.8C309.48 314.37 309.841 314.02 310.27 314.019H310.43ZM408.44 256.179C411.83 270.029 407.5 274.939 403.95 276.669C402.75 277.259 401.33 277.599 399.72 277.599C397.121 277.599 394.07 276.689 390.78 274.439C392.98 277.399 394.83 279.929 395.81 281.309C397.93 284.699 399.06 287.059 400.16 289.339C401.94 293.059 403.62 296.559 409.45 303.789C414.81 310.429 418.491 313.219 422.381 316.169C425.201 318.299 428.11 320.509 431.74 324.269L431.73 324.279C431.73 324.279 431.77 324.319 431.79 324.349C432.43 325.179 433.78 327.009 434.78 328.859C437.28 329.859 439.731 329.919 441.551 329.019C443.64 327.989 445.23 325.519 445.74 322.539C445.38 321.789 444.99 321.029 444.56 320.249C442.9 316.699 441.01 312.039 439 307.109L438.93 306.939C434.04 294.909 427.96 279.939 422.02 272.849C418.46 268.599 415.9 265.95 414.03 264.01L414.01 263.989C411.401 261.279 409.95 259.779 408.83 257.079C408.7 256.779 408.57 256.479 408.44 256.179ZM211.881 257.079C210.761 259.759 209.32 261.259 206.72 263.959L206.631 264.05C204.761 265.99 202.21 268.63 198.69 272.849C192.76 279.93 186.68 294.879 181.79 306.909V306.939C179.75 311.939 177.831 316.649 176.171 320.199C175.731 320.999 175.33 321.779 174.97 322.539C175.48 325.509 177.07 327.989 179.16 329.019C180.98 329.919 183.431 329.849 185.93 328.849C186.93 327 188.27 325.18 188.91 324.349C188.93 324.329 188.951 324.309 188.97 324.279C192.59 320.529 195.5 318.319 198.31 316.189L198.33 316.169C202.22 313.219 205.901 310.429 211.26 303.789C217.1 296.559 218.78 293.048 220.56 289.339L220.591 289.269V289.289C221.67 287.029 222.801 284.679 224.881 281.359C225.861 279.949 227.721 277.419 229.93 274.439C226.641 276.699 223.59 277.599 220.99 277.599C219.39 277.599 217.96 277.259 216.76 276.669C213.211 274.929 208.881 270.029 212.27 256.179C212.14 256.469 212.01 256.769 211.881 257.079ZM254.961 228.669C256.911 233.089 255.971 238.889 255.551 241.429C255.291 242.989 254.9 244.549 254.39 246.069C254.84 248.48 257.151 258.94 265.841 275.529C270.19 284.109 268.99 292.96 267.83 301.51L267.82 301.489C267.5 303.819 267.2 306.029 267.01 308.229C266.74 311.349 266.26 315.629 265.7 320.199C269.95 320.939 274.73 319.669 277.53 316.999C279.84 314.809 284.97 308.099 282.79 293.359C281.72 286.149 283.12 278.399 284.36 271.569V271.55C285.14 267.28 285.82 263.519 285.73 260.729C285.7 260.289 285.671 259.879 285.631 259.469C285.231 256.759 280.1 252.37 274.16 247.3C269.45 243.27 264.13 238.719 259.57 233.709C258.94 233.069 258.33 232.399 257.75 231.699C256.88 230.659 255.971 229.609 254.961 228.669ZM365.76 228.649C364.751 229.599 363.84 230.63 362.97 231.679C362.391 232.379 361.78 233.049 361.15 233.689C356.58 238.699 351.26 243.249 346.551 247.279L346.52 247.309C340.591 252.379 335.48 256.749 335.08 259.459C335.04 259.859 335 260.279 334.98 260.709C334.89 263.499 335.571 267.259 336.341 271.529C337.581 278.369 338.98 286.119 337.921 293.339C335.741 308.078 340.88 314.779 343.18 316.979C345.98 319.649 350.751 320.919 355.01 320.179C354.441 315.61 353.97 311.339 353.7 308.219C353.51 306.02 353.21 303.809 352.89 301.479V301.459H352.881C351.721 292.909 350.53 284.079 354.87 275.51C363.56 258.91 365.87 248.459 366.32 246.039C365.81 244.519 365.41 242.969 365.16 241.409C364.75 238.869 363.811 233.069 365.76 228.649ZM324.691 302.059H324.701C325.131 302.07 325.47 302.429 325.47 302.859C325.46 303.299 325.08 303.629 324.671 303.63C322.071 303.57 315.211 304.239 312.841 304.769C311.581 305.059 311.231 306.279 311.151 308.149C311.171 308.719 311.171 309.28 311.171 309.809V310.149C311.17 310.579 310.81 310.929 310.381 310.929H310.331C309.901 310.929 309.541 310.579 309.541 310.149V309.809C309.541 309.27 309.54 308.709 309.56 308.149C309.48 306.28 309.13 305.06 307.871 304.769C305.511 304.239 298.671 303.57 296.041 303.63C295.621 303.639 295.241 303.289 295.241 302.859C295.231 302.429 295.581 302.06 296.01 302.059C298.751 302.009 305.72 302.679 308.22 303.239C309.25 303.469 309.91 304.02 310.35 304.75C310.78 304.02 311.451 303.469 312.48 303.239C314.98 302.679 321.941 302.009 324.691 302.059ZM310.411 291.359C310.851 291.359 311.201 291.709 311.201 292.149C311.201 299.318 311.841 299.66 314.26 299.84C317.98 299.94 319.941 299.81 322.401 299.63H322.611L322.621 299.609C324.121 299.509 325.821 299.389 328.22 299.309C328.66 299.31 329.021 299.639 329.041 300.069C329.06 300.499 328.72 300.859 328.281 300.88C325.901 300.97 324.21 301.079 322.73 301.179H322.551C320.651 301.329 319.05 301.439 316.73 301.439C315.981 301.439 315.14 301.429 314.201 301.399C312.111 301.249 310.97 300.579 310.35 299.139C309.74 300.589 308.61 301.239 306.541 301.399C305.581 301.429 304.73 301.439 303.961 301.439C301.631 301.439 300.04 301.329 298.14 301.199C296.611 301.089 294.88 300.97 292.411 300.88C291.981 300.86 291.631 300.499 291.651 300.069C291.671 299.639 292.051 299.299 292.47 299.319C294.97 299.409 296.711 299.529 298.26 299.639C300.73 299.809 302.691 299.95 306.451 299.84C308.84 299.66 309.47 299.318 309.47 292.149C309.471 291.719 309.821 291.359 310.26 291.359H310.411ZM314.301 279.849C318.03 279.809 322.231 280.279 324.751 280.569C325.18 280.619 325.491 281.009 325.441 281.439C325.391 281.869 325.01 282.179 324.571 282.13H324.541C322.061 281.85 317.961 281.38 314.321 281.42C311.651 281.46 311.191 282.779 311.191 286.729C311.191 287.159 310.841 287.509 310.401 287.51H310.241C309.801 287.509 309.451 287.159 309.451 286.729C309.451 282.77 309 281.45 306.321 281.42H306.35C302.721 281.38 298.58 281.85 296.1 282.13C295.661 282.189 295.271 281.869 295.22 281.439C295.171 281.009 295.481 280.619 295.911 280.569C298.421 280.279 302.641 279.809 306.361 279.849C308.551 279.88 309.711 280.72 310.331 281.92C310.951 280.72 312.121 279.889 314.301 279.849ZM310.421 268.059C310.86 268.06 311.211 268.41 311.211 268.84C311.211 269.599 311.181 270.33 311.161 271.04L311.151 271.25V271.319C311.141 271.519 311.131 271.72 311.131 271.92C311.151 272.669 311.171 273.39 311.131 274.059C311.201 275.419 311.481 276.33 312.241 276.76C315.371 278.519 321.592 278.419 328.191 278.309H328.93L328.941 278.319C329.371 278.32 329.73 278.66 329.73 279.09C329.73 279.519 329.39 279.879 328.951 279.88L328.301 279.889H328.151C326.561 279.919 325.021 279.939 323.541 279.939C318.451 279.939 314.18 279.649 311.48 278.13C311.001 277.86 310.641 277.509 310.361 277.09C310.091 277.499 309.721 277.86 309.241 278.13C306.541 279.649 302.26 279.939 297.18 279.939C295.711 279.939 294.17 279.919 292.581 279.889L292.421 279.88H291.77C291.331 279.879 290.991 279.519 290.991 279.09C291.001 278.66 291.351 278.319 291.781 278.319H292.441C299.061 278.429 305.321 278.529 308.451 276.769C309.21 276.339 309.48 275.439 309.56 274.069C309.52 273.399 309.54 272.679 309.56 271.929C309.56 271.73 309.541 271.529 309.541 271.309V271.26C309.511 270.48 309.48 269.679 309.48 268.84C309.48 268.41 309.841 268.06 310.27 268.059H310.421ZM378.961 224.589C375.291 224.479 371.83 224.379 369.33 226.399C364.891 229.989 366.211 238.099 366.711 241.149C366.921 242.429 367.231 243.709 367.631 244.959C367.761 245.049 367.87 245.169 367.93 245.319C369.73 249.709 372.81 252.459 374.85 254.269C374.91 254.319 374.97 254.379 375.03 254.429C375.23 254.609 375.43 254.779 375.6 254.949C376.63 255.899 380.87 261.329 385.26 267.109C392.61 276.019 399.36 277.169 403.23 275.279C407.39 273.239 412.66 266.039 401.14 240.739C397.35 233.619 395.18 231.359 393.91 230.029C393.67 229.769 393.44 229.539 393.23 229.3C391.91 228.42 390.49 227.639 389.02 226.979C387.73 226.409 386.5 225.979 385.35 225.649C385.32 225.649 385.3 225.639 385.28 225.629C382.361 224.799 380.031 224.619 378.961 224.589ZM251.37 226.399C248.88 224.379 245.41 224.479 241.74 224.589C240.67 224.619 238.34 224.789 235.421 225.629H235.4C235.38 225.629 235.36 225.639 235.341 225.649C234.191 225.979 232.96 226.409 231.671 226.979C230.201 227.639 228.79 228.42 227.47 229.3C227.261 229.539 227.03 229.779 226.79 230.029C225.52 231.369 223.35 233.63 219.56 240.739C208.051 266.038 213.31 273.229 217.48 275.269C221.35 277.169 228.1 276.019 235.45 267.109C235.45 267.109 235.451 267.1 235.461 267.099C239.86 261.31 244.089 255.891 245.12 254.939C245.3 254.779 245.49 254.609 245.69 254.419C245.75 254.369 245.81 254.319 245.87 254.26L245.9 254.239C247.93 252.419 251 249.679 252.79 245.309L252.78 245.319C252.84 245.169 252.95 245.049 253.08 244.959C253.47 243.709 253.78 242.439 253.99 241.149C254.49 238.099 255.81 229.989 251.37 226.399ZM314.281 257.659C317.771 257.069 321.881 258.14 324.331 258.79L324.881 258.939C325.3 259.049 325.551 259.47 325.441 259.889C325.331 260.309 324.9 260.549 324.48 260.449L323.921 260.3C321.591 259.69 317.691 258.669 314.541 259.199C311.711 259.679 311.211 261.119 311.211 263.949C311.21 264.379 310.86 264.729 310.421 264.729H310.26C309.821 264.729 309.471 264.379 309.47 263.949C309.47 261.11 308.97 259.669 306.151 259.199C302.991 258.669 299.1 259.69 296.76 260.3L296.781 260.29L296.22 260.439H296.23C295.811 260.549 295.381 260.299 295.27 259.88C295.16 259.47 295.411 259.04 295.831 258.929L296.381 258.79C298.841 258.15 302.941 257.069 306.43 257.659C308.58 258.019 309.731 258.93 310.361 260.09C310.981 258.93 312.141 258.019 314.281 257.659ZM310.451 246.889C310.891 246.89 311.241 247.24 311.241 247.67C311.241 252.187 311.371 255.156 313.188 255.169C319.598 255.051 323.967 256.171 330.39 258.019C330.81 258.139 331.05 258.579 330.93 258.989C330.83 259.329 330.52 259.549 330.171 259.55C330.101 259.55 330.021 259.549 329.951 259.519C323.661 257.699 319.391 256.609 313.191 256.729C311.732 256.729 310.861 255.929 310.361 254.679C309.861 255.929 309.01 256.719 307.541 256.729C301.321 256.609 297.04 257.699 290.76 259.519C290.681 259.539 290.61 259.55 290.541 259.55C290.201 259.549 289.891 259.329 289.791 258.989C289.671 258.579 289.911 258.139 290.331 258.019C296.76 256.159 301.121 255.04 307.571 255.17C309.36 255.169 309.501 252.198 309.501 247.67C309.501 247.24 309.851 246.89 310.291 246.889H310.451ZM268.091 239.919C270.491 242.099 272.9 244.159 275.18 246.109C279.21 249.549 282.711 252.539 284.881 255.099C284.631 254.079 284.36 253.199 284.12 252.439L284.091 252.329C283.401 250.099 282.89 248.489 283.79 246.469C284.377 245.165 285.412 244.057 286.715 243.099C286.716 243.099 286.719 243.1 286.72 243.099L286.73 243.089C286.725 243.092 286.72 243.096 286.715 243.099C285.337 243.279 283.958 243.379 282.58 243.379C277.58 243.379 272.6 242.189 268.091 239.919ZM352.6 239.909C348.09 242.179 343.12 243.369 338.11 243.369C336.73 243.369 335.35 243.269 333.97 243.089C335.28 244.049 336.32 245.159 336.91 246.469L336.9 246.479C337.81 248.499 337.3 250.109 336.6 252.349L336.57 252.439C336.33 253.199 336.06 254.08 335.81 255.099C337.99 252.539 341.481 249.539 345.51 246.099C347.78 244.159 350.2 242.089 352.6 239.909ZM336.25 189.969C334.14 189.349 330.219 188.189 323.25 188.849C311.311 189.97 311.23 197.379 311.23 197.689V219.559C311.23 223.909 312.74 228.069 315.49 231.279C318.53 234.829 322.231 237.559 326.47 239.399L326.461 239.409C327.15 239.669 327.84 239.929 328.53 240.209C339.41 243.969 351.78 240.968 360.01 232.589C360.07 232.519 360.13 232.459 360.19 232.389C360.24 232.34 360.28 232.289 360.33 232.239C360.33 232.239 360.34 232.229 360.35 232.219C360.36 232.219 360.371 232.199 360.381 232.189C360.85 231.699 361.3 231.199 361.73 230.669C364.75 227.039 368.521 223.179 375.22 222.979C374.181 222.549 373.3 222.089 372.591 221.609C366.631 217.599 361.98 212.179 359.74 209.569C357.65 207.119 356.13 205.119 354.79 203.359L354.73 203.289C351.8 199.439 349.87 196.899 345.14 193.919C341.62 191.699 337.21 190.269 336.66 190.089C336.53 190.049 336.4 190.019 336.25 189.969ZM297.461 188.859C290.501 188.199 286.571 189.359 284.461 189.979C284.311 190.019 284.18 190.059 284.051 190.099C283.489 190.28 279.08 191.71 275.56 193.929C270.831 196.909 268.9 199.449 265.98 203.289C264.63 205.079 263.09 207.1 260.99 209.55C258.73 212.18 254.079 217.599 248.12 221.609C247.41 222.089 246.53 222.539 245.49 222.979C252.19 223.169 255.96 227.039 258.98 230.669C259.42 231.199 259.87 231.699 260.33 232.189C260.35 232.199 260.371 232.219 260.381 232.229L260.7 232.569C268.94 240.949 281.3 243.949 292.19 240.189C292.88 239.909 293.571 239.639 294.26 239.389C298.5 237.549 302.2 234.819 305.24 231.269L305.22 231.289C307.97 228.079 309.48 223.919 309.48 219.569V197.709C309.48 197.384 309.396 189.989 297.461 188.859ZM310.35 224.859C309.6 227.599 308.271 230.15 306.421 232.3C304.681 234.329 302.73 236.109 300.6 237.619C303.68 237.049 306.98 236.949 309.06 238.379C309.61 238.759 310.03 239.22 310.36 239.76C310.68 239.22 311.11 238.749 311.66 238.379C313.73 236.949 317.03 237.049 320.11 237.619C317.98 236.109 316.03 234.339 314.29 232.309H314.28C312.43 230.149 311.1 227.609 310.35 224.859ZM359.31 187.55C351.37 185.98 342.98 188.129 339.19 189.339C340.99 190.019 343.64 191.149 345.98 192.619C350.96 195.759 353.07 198.529 355.99 202.369L356.131 202.55C357.441 204.269 358.931 206.21 360.93 208.55C363.14 211.12 367.7 216.429 373.49 220.329C375.04 221.379 377.65 222.359 381.02 223.189C383.12 223.429 386.23 224.039 389.68 225.569C390.43 225.899 391.17 226.279 391.89 226.669C389.471 217.59 388.1 214.229 387.19 212.01C386.73 210.87 386.36 209.979 386.02 208.779C383.55 200.779 377.51 190.739 362.81 188.379H362.73C362.431 188.319 362.221 188.279 362.091 188.249C361.761 188.159 361.26 188.039 360.7 187.899C360.25 187.789 359.81 187.679 359.39 187.569L359.37 187.559H359.31V187.55ZM281.51 189.349C277.72 188.139 269.34 185.989 261.39 187.559H261.33C260.91 187.679 260.47 187.789 260.02 187.899C259.451 188.039 258.961 188.159 258.631 188.249C258.501 188.289 258.25 188.329 257.91 188.379C243.21 190.739 237.17 200.78 234.69 208.8V208.789C234.36 209.979 233.99 210.869 233.53 211.989C232.62 214.219 231.24 217.569 228.82 226.659C229.54 226.269 230.28 225.899 231.03 225.559C234.48 224.029 237.6 223.419 239.69 223.179C243.06 222.359 245.67 221.369 247.22 220.329C253.01 216.429 257.57 211.119 259.77 208.569C261.83 206.169 263.34 204.189 264.66 202.449L264.73 202.359C267.64 198.529 269.751 195.759 274.72 192.629C277.06 191.149 279.711 190.029 281.51 189.349ZM327.75 154.669C325.64 157.409 320.36 162.819 310.48 164.569H310.18C303.191 163.329 298.58 160.269 295.93 157.919C294.56 156.699 293.58 155.569 292.91 154.689C292.88 156.999 292.82 161.1 292.73 164.599L292.75 164.609V180.849C292.75 183.919 291.64 185.879 289.93 187.279C291.98 187.069 294.501 187.019 297.6 187.309C306 188.099 309.161 191.939 310.341 194.729C311.521 191.939 314.68 188.109 323.08 187.309C326.179 187.019 328.7 187.069 330.75 187.279C329.04 185.879 327.931 183.919 327.93 180.849V164.599C327.83 161.079 327.78 156.979 327.75 154.669ZM291.16 171.719C289.74 173.02 287.27 175.199 285.62 176.019C284.229 176.709 280.43 178.29 277.091 179.679C274.901 180.589 272.84 181.449 271.95 181.849V181.859C270.6 182.469 268.66 183.979 267.23 185.089C267.16 185.139 267.1 185.189 267.04 185.239C266.96 185.299 266.88 185.369 266.801 185.419C275.03 185.279 282.36 187.909 283.881 188.499C288.81 186.839 291.16 185.218 291.16 180.839V171.719ZM329.52 180.839C329.52 185.218 331.871 186.839 336.801 188.499C338.321 187.909 345.651 185.279 353.881 185.419C353.801 185.359 353.72 185.299 353.64 185.229C353.58 185.179 353.52 185.129 353.45 185.079L353.33 184.989C351.92 183.899 350.04 182.449 348.73 181.859C347.84 181.459 345.78 180.599 343.6 179.689C340.25 178.299 336.45 176.719 335.06 176.019V176.029C333.41 175.209 330.93 173.039 329.52 171.729V180.839ZM324.77 108.239C324.33 107.939 323.93 107.859 323.51 107.979C314.591 111.549 301.281 112.539 296.18 109.979C295.201 109.489 294.28 109.529 293.381 110.119C291.101 111.599 289.53 116.159 289.7 119.089C289.92 123.008 289.73 128.958 289.7 129.829V129.939C289.7 130.179 289.57 130.379 289.4 130.519C289.2 130.709 288.9 130.789 288.62 130.699C288.536 130.668 287.438 130.371 286.56 131.069C285.83 131.649 285.021 133.099 285.301 136.709C285.641 141.179 286.461 143.849 287.801 144.859C288.47 145.369 289.3 145.489 290.49 145.249H290.48C290.7 145.209 290.93 145.259 291.11 145.399C291.29 145.539 291.401 145.749 291.421 145.979C291.422 146.042 291.683 150.166 292.87 152.51C292.93 152.619 292.95 152.739 292.95 152.869V152.949C292.951 153.038 293.24 152.759 293.24 152.949C294.68 155.079 299.521 160.769 310.35 162.699C321.18 160.769 326.16 154.999 327.6 152.869C327.6 152.59 327.74 152.928 327.74 152.869C327.74 152.749 327.77 152.619 327.82 152.51C329.007 150.156 329.269 146.042 329.27 145.979C329.28 145.759 329.39 145.539 329.58 145.409C329.76 145.269 329.991 145.22 330.211 145.26C331.4 145.489 332.23 145.369 332.9 144.869C334.25 143.859 335.06 141.199 335.4 136.719C335.67 133.099 334.86 131.649 334.14 131.079C333.26 130.379 332.17 130.679 332.08 130.709C331.68 130.828 331.26 130.619 331.12 130.239C330.51 129.419 329.82 127.268 329.14 119.929C328.66 114.689 326.74 109.549 324.77 108.239Z" fill="black"/>
</svg>
