<svg width="620" height="714" viewBox="0 0 620 714" fill="none" xmlns="http://www.w3.org/2000/svg">
<path d="M220.991 277.429C223.771 277.429 226.821 276.349 229.811 274.309C229.891 274.249 229.991 274.269 230.061 274.329C230.131 274.399 230.141 274.499 230.081 274.579C228.301 276.979 226.121 279.919 225.041 281.479C222.951 284.809 221.791 287.229 220.771 289.359L220.731 289.439C218.941 293.169 217.251 296.689 211.411 303.939C206.021 310.609 202.341 313.399 198.441 316.349L198.411 316.369C195.621 318.479 192.731 320.659 189.101 324.429C189.101 324.429 189.081 324.449 189.071 324.459C188.361 325.389 187.051 327.179 186.091 328.959C186.071 328.999 186.041 329.029 185.991 329.049C184.641 329.589 183.311 329.859 182.071 329.859C180.961 329.859 179.941 329.639 179.061 329.209C176.931 328.169 175.291 325.629 174.761 322.599C174.761 322.559 174.761 322.519 174.781 322.479C175.141 321.709 175.551 320.919 175.991 320.119C177.591 316.679 179.471 312.089 181.581 306.879L181.631 306.759C186.511 294.759 192.591 279.829 198.531 272.749C202.041 268.549 204.591 265.909 206.451 263.979L206.531 263.899C209.151 261.179 210.591 259.689 211.691 257.029C211.731 256.929 211.781 256.819 211.821 256.719C211.891 256.539 211.971 256.369 212.041 256.189L212.091 256.079C212.131 255.989 212.231 255.939 212.331 255.969C212.431 255.999 212.481 256.099 212.461 256.199C209.171 269.599 213.021 274.649 216.841 276.519C218.071 277.119 219.461 277.429 220.981 277.429H220.991Z" fill="#3D532E"/>
<path d="M444.721 320.179C445.191 321.009 445.571 321.769 445.901 322.469C445.911 322.509 445.921 322.539 445.911 322.579C445.401 325.609 443.761 328.139 441.631 329.199C440.751 329.639 439.731 329.849 438.621 329.849C437.381 329.849 436.041 329.579 434.701 329.039C434.661 329.019 434.631 328.989 434.601 328.949C433.641 327.169 432.331 325.379 431.631 324.469C431.631 324.469 431.621 324.459 431.611 324.449C431.611 324.439 431.591 324.429 431.591 324.429C427.941 320.639 425.051 318.459 422.251 316.339L422.221 316.319C418.331 313.369 414.651 310.579 409.281 303.929C403.411 296.659 401.731 293.149 399.961 289.429L399.901 289.299C398.821 287.049 397.711 284.739 395.631 281.429C394.711 280.119 392.931 277.689 390.631 274.579C390.581 274.509 390.581 274.399 390.651 274.329C390.721 274.259 390.821 274.249 390.901 274.299C393.881 276.339 396.921 277.419 399.711 277.419C401.221 277.419 402.611 277.109 403.851 276.509C407.661 274.639 411.521 269.609 408.251 256.229C408.221 256.129 408.281 256.029 408.381 255.999C408.481 255.959 408.581 256.019 408.621 256.109C408.691 256.279 408.761 256.459 408.841 256.619C408.901 256.749 408.951 256.879 409.011 256.999C410.131 259.679 411.561 261.169 414.171 263.869L414.331 264.039L414.391 264.109C416.231 266.029 418.751 268.639 422.171 272.729C428.121 279.839 434.221 294.829 439.111 306.859L439.211 307.109C441.201 312.009 443.091 316.639 444.731 320.169L444.721 320.179Z" fill="#3D532E"/>
<path d="M299.261 93.6091C299.831 93.2192 300.541 92.739 301.82 93.1687C303.42 93.1287 315.751 92.9595 323.421 97.3894C331.061 101.809 337.54 107.48 332.94 128.01C332.85 128.429 332.43 128.699 332 128.599C332.07 128.809 332.13 128.959 332.19 129.079C332.89 128.999 334.03 129.039 335.04 129.829C336.55 131.009 337.17 133.359 336.91 136.829C336.53 141.839 335.54 144.789 333.79 146.099C332.95 146.729 331.94 146.989 330.711 146.899C330.571 148.279 330.19 151.049 329.25 153.019V153.109C329.27 155 329.401 166.299 329.671 169.769C330.531 170.59 333.83 173.689 335.7 174.619C337.03 175.279 340.721 176.819 344.011 178.189L344.141 178.249C344.541 178.419 344.931 178.579 345.301 178.729C347.08 179.469 348.56 180.089 349.32 180.439C350.83 181.129 352.871 182.699 354.351 183.859C354.98 184.349 355.7 184.909 355.891 184.999C356.241 185.159 358.02 185.62 359.57 186.01H359.61C359.77 186.05 359.931 186.089 360.091 186.129C360.421 186.209 360.73 186.289 360.99 186.359C361.56 186.509 362.06 186.629 362.4 186.719C362.48 186.739 362.61 186.759 362.79 186.789C362.85 186.789 362.911 186.809 362.971 186.819C378.47 189.309 384.84 199.889 387.44 208.329C387.76 209.469 388.111 210.319 388.551 211.399C389.501 213.709 390.921 217.19 393.44 226.719C393.63 227.339 393.871 227.729 394.23 228.159L394.261 228.189C394.461 228.419 394.691 228.669 394.971 228.959C397.151 231.229 401.201 235.459 410.171 256.489C411.181 258.919 412.47 260.259 415.03 262.909L415.061 262.939C416.95 264.899 419.53 267.579 423.12 271.869C429.2 279.129 435.331 294.199 440.261 306.319L440.28 306.369C442.3 311.349 444.211 316.049 445.851 319.559C448 323.419 449.101 326.83 450.251 330.429V330.469C451.561 334.529 452.911 338.729 455.94 344.419L456.021 344.59L456.04 344.63L456.15 344.619C458.45 349.099 458.5 349.199 458.61 351.479H458.58C458.62 352.369 458.68 353.619 458.94 355.749C459.82 362.989 459.651 365.53 459.551 367.05V367.149C459.451 368.65 457.482 375.517 457.251 376.289C457.161 376.599 456.89 376.819 456.57 376.849C456.474 376.85 454.308 377.027 452.87 375.489C452.36 374.949 452.031 374.259 451.851 373.459C451.131 373.419 450.05 373.229 449.29 372.449C448.57 371.699 448.311 370.639 448.53 369.3C448.88 367.19 448.76 366.099 448.61 364.709C448.51 363.769 448.401 362.698 448.431 361.169C448.461 359.909 448.09 359.159 447.62 358.229V358.209C446.87 356.739 445.97 354.918 446.36 350.669C446.17 350.429 445.97 350.229 445.79 350.079C445.93 352.689 445.941 357.929 443.961 360.159C443.331 360.869 442.55 361.24 441.65 361.26C437.311 361.329 437.131 357.319 436.931 352.639V352.599C436.881 351.419 436.831 350.189 436.711 348.909C436.231 345.189 435.65 343.31 434.58 342.01C433.07 340.18 431.781 336.149 434.421 332.55C434.591 332.23 434.22 331.209 433.521 329.899C433.501 329.869 433.491 329.839 433.471 329.819C432.751 328.489 431.7 326.86 430.54 325.34C427.01 321.68 424.16 319.519 421.4 317.429H421.391C417.431 314.419 413.67 311.579 408.2 304.8C402.25 297.42 400.531 293.839 398.711 290.039C397.641 287.789 396.53 285.479 394.48 282.199C390.91 277.129 376.331 257.78 374.511 256.109C374.331 255.939 374.131 255.769 373.921 255.579C373.881 255.539 373.83 255.499 373.78 255.459C372.09 253.949 369.461 251.589 367.511 248.099C366.551 252.29 363.76 261.949 356.271 276.249C352.151 284.379 353.31 292.98 354.45 301.3L354.471 301.479C354.771 303.679 355.081 305.939 355.261 308.119C355.551 311.539 356.051 315.999 356.641 320.659V320.849C356.661 321.029 356.691 321.219 356.711 321.409C356.731 321.589 356.76 321.78 356.78 321.969C356.78 321.999 356.79 322.039 356.79 322.069C358.02 331.639 359.56 341.67 360.4 344.969C360.46 345.209 360.55 345.54 360.66 345.969C364.93 361.99 373.061 399.78 367.141 437.389C367.141 437.449 367.14 437.509 367.12 437.569C367.12 437.609 367.101 437.649 367.091 437.689C367.091 437.719 367.08 437.759 367.07 437.789C366.14 443.609 364.87 449.42 363.19 455.139C363.3 463.949 363.88 465.979 364.4 467.769C364.57 468.349 364.741 468.959 364.881 469.739C365.161 471.239 365.211 472.529 365.261 473.769V473.8C365.311 475.179 365.37 476.61 365.74 478.349C365.83 478.759 366.12 479.58 366.49 480.599C369.09 487.86 376 507.15 370.311 539.319C370.011 542.669 369.581 546.199 369.171 549.619L369.141 549.899C368.051 558.939 367.03 567.469 368.03 572.849C368.81 577.479 369.141 579.489 369.221 581.959C369.851 583.829 372.941 588.709 374.811 591.649L375.04 592.01C375.55 592.809 375.98 593.489 376.25 593.929C376.66 594.619 376.891 595.129 377.061 595.539C377.441 596.429 377.651 596.919 379.721 598.569C380.121 598.889 380.541 599.22 380.971 599.55L381 599.569C383.9 601.839 387.511 604.669 389.471 608.959C390.561 611.559 390.17 613.029 389.66 613.809C389.25 614.439 388.61 614.84 387.83 615.01C387.73 615.419 387.53 615.949 387.101 616.369C386.841 616.629 386.4 616.919 385.75 617.019C385.52 617.569 385.05 618.379 384.2 618.869C383.57 619.229 382.86 619.359 382.08 619.239C381.6 619.759 380.63 620.599 379.341 620.749C378.461 620.859 377.6 620.619 376.78 620.059C375.97 620.689 374.31 621.749 372.221 621.749C371.961 621.749 371.701 621.739 371.431 621.699C368.941 621.379 366.691 619.569 364.761 616.319C363.321 615.809 357.49 613.368 357.99 607.209C358.03 605.819 356.59 604.929 353.801 603.359L353.36 603.109C350.01 601.209 348.05 599.538 349.83 589.379C350.13 587.019 349.8 584.45 349.66 583.59C348.92 582.92 347.59 580.839 348.15 574.619C348.82 567.159 349.45 560.119 340.181 530.689C339.741 529.239 339.141 528.399 338.511 527.519C336.491 524.709 334.391 521.809 337.19 501.649C338.86 486.9 338.73 486.699 337.23 484.179V484.159C336.911 483.619 336.511 482.949 336.051 482.05C335.851 481.64 335.621 481.229 335.391 480.829L335.33 480.729V480.719C334.97 480.08 334.59 479.439 334.19 478.779C331.47 474.209 328.081 468.519 327.181 456.899C326.781 451.769 326.091 446.609 325.131 441.449C324.921 440.429 324.731 439.449 324.561 438.51C323.591 433.83 322.4 429.159 320.98 424.519C320.5 422.929 319.69 420.719 318.75 418.149V418.129C315.76 409.969 311.251 397.649 310.631 387.519C310.581 385.909 310.551 384.489 310.521 383.249V383.219C310.481 381.17 310.44 379.309 310.32 378.129C310.21 379.299 310.171 381.149 310.131 383.199V383.219C310.101 384.469 310.07 385.89 310.021 387.479C309.39 397.619 304.89 409.93 301.91 418.09V418.129C300.96 420.698 300.15 422.909 299.66 424.499C298.24 429.129 297.051 433.799 296.091 438.479C295.921 439.429 295.721 440.429 295.511 441.459C294.551 446.609 293.871 451.76 293.471 456.889C292.571 468.509 289.181 474.19 286.461 478.76C286.391 478.879 286.331 478.989 286.261 479.099C285.941 479.649 285.62 480.179 285.33 480.709V480.719L285.24 480.869C285.02 481.259 284.81 481.649 284.61 482.039C284.16 482.939 283.761 483.609 283.431 484.149V484.169C281.911 486.688 281.791 486.89 283.461 501.659C286.251 521.799 284.161 524.7 282.131 527.51V527.529C281.491 528.409 280.891 529.239 280.461 530.669C271.181 560.098 271.82 567.149 272.49 574.599C273.05 580.819 271.73 582.899 270.98 583.569C270.85 584.429 270.52 587.01 270.82 589.389C272.59 599.509 270.63 601.19 267.28 603.09L266.841 603.34C264.061 604.909 262.6 605.799 262.65 607.229C263.16 613.349 257.331 615.789 255.881 616.3C253.941 619.549 251.701 621.359 249.211 621.679C248.941 621.709 248.681 621.729 248.421 621.729C246.321 621.729 244.66 620.669 243.86 620.039C243.041 620.589 242.171 620.829 241.301 620.729C240.011 620.579 239.041 619.739 238.561 619.219C237.781 619.339 237.07 619.219 236.44 618.849C235.591 618.349 235.121 617.549 234.891 616.999C234.241 616.899 233.81 616.609 233.54 616.349C233.11 615.929 232.911 615.409 232.811 614.989C232.031 614.829 231.39 614.419 230.98 613.789C230.471 613.009 230.08 611.538 231.16 608.959C233.13 604.639 236.74 601.809 239.65 599.539H239.66C240.09 599.189 240.51 598.869 240.91 598.55C242.97 596.9 243.18 596.409 243.57 595.529L243.591 595.479C243.761 595.079 243.981 594.579 244.391 593.909C244.701 593.389 245.21 592.589 245.82 591.619C247.68 588.689 250.78 583.81 251.41 581.939C251.49 579.469 251.821 577.449 252.601 572.84C253.601 567.45 252.58 558.919 251.49 549.879L251.44 549.499C251.03 546.109 250.611 542.619 250.311 539.239C244.631 507.14 251.54 487.85 254.141 480.59L254.171 480.499C254.521 479.52 254.801 478.74 254.881 478.34C255.241 476.6 255.3 475.169 255.36 473.789C255.41 472.539 255.46 471.239 255.74 469.729C255.88 468.94 256.061 468.349 256.221 467.76C256.731 465.96 257.321 463.939 257.431 455.119C255.751 449.399 254.491 443.579 253.551 437.769C253.531 437.699 253.521 437.629 253.501 437.55C253.481 437.49 253.48 437.429 253.48 437.369C247.551 399.769 255.691 361.969 259.961 345.949C260.071 345.519 260.161 345.189 260.221 344.949C261.061 341.649 262.6 331.619 263.83 322.05C263.83 322.01 263.831 321.969 263.841 321.929C263.891 321.56 263.94 321.189 263.98 320.819V320.729C263.98 320.709 263.98 320.679 263.99 320.659V320.619C264.58 315.969 265.08 311.509 265.37 308.09C265.56 305.85 265.88 303.529 266.19 301.269C267.32 292.959 268.49 284.359 264.36 276.209C256.881 261.909 254.091 252.259 253.131 248.069C251.181 251.569 248.541 253.929 246.851 255.429L246.761 255.51C246.531 255.709 246.32 255.909 246.12 256.079C244.309 257.751 229.721 277.108 226.131 282.209C224.101 285.459 222.991 287.77 221.921 290.01C220.101 293.809 218.39 297.399 212.431 304.779C206.951 311.569 203.2 314.409 199.23 317.419C196.471 319.509 193.61 321.679 190.08 325.329C187.73 328.379 185.861 331.889 186.221 332.569C188.841 336.139 187.55 340.169 186.04 341.999C184.97 343.299 184.39 345.18 183.91 348.929C183.8 350.139 183.75 351.329 183.7 352.479V352.659C183.5 357.329 183.32 361.309 178.98 361.249C178.081 361.229 177.301 360.859 176.671 360.149C174.691 357.919 174.691 352.689 174.841 350.069C174.651 350.229 174.46 350.419 174.271 350.659C174.66 354.909 173.76 356.729 173.021 358.199C172.541 359.149 172.17 359.889 172.2 361.169C172.23 362.669 172.12 363.719 172.03 364.639V364.709C171.88 366.089 171.76 367.18 172.11 369.3C172.33 370.649 172.07 371.709 171.351 372.449C170.591 373.229 169.51 373.429 168.79 373.459C168.61 374.259 168.27 374.939 167.771 375.489C166.341 377.039 164.16 376.859 164.07 376.849C163.751 376.819 163.481 376.589 163.391 376.289C163.16 375.518 161.18 368.65 161.08 367.149V367.05C160.98 365.53 160.82 362.989 161.69 355.749C161.95 353.649 162.011 352.419 162.051 351.51V351.459C162.161 349.179 162.211 349.088 164.53 344.579V344.559L164.62 344.409C167.65 338.729 169.001 334.519 170.301 330.459C171.451 326.829 172.55 323.419 174.74 319.489C176.34 316.079 178.221 311.449 180.221 306.529L180.29 306.349C185.22 294.21 191.36 279.12 197.45 271.84C201.05 267.55 203.631 264.869 205.521 262.909C208.1 260.239 209.4 258.899 210.41 256.469C219.39 235.431 223.44 231.209 225.62 228.939L225.66 228.889C225.92 228.62 226.14 228.389 226.33 228.169C226.331 228.167 226.341 228.149 226.351 228.139C226.711 227.699 226.95 227.299 227.15 226.659C229.65 217.19 231.081 213.699 232.021 211.399V211.369L232.04 211.349C232.48 210.279 232.831 209.429 233.141 208.319C235.751 199.859 242.111 189.28 257.62 186.8H257.69C257.92 186.75 258.1 186.719 258.19 186.699C258.4 186.639 258.67 186.579 258.99 186.499C259.18 186.449 259.381 186.399 259.601 186.349C259.97 186.259 260.411 186.149 260.881 186.029C260.921 186.019 260.961 186.009 261.001 185.999C262.55 185.609 264.339 185.149 264.7 184.979C264.88 184.889 265.571 184.359 266.19 183.879L266.24 183.84C267.72 182.69 269.761 181.109 271.271 180.419C272.081 180.059 273.731 179.369 275.681 178.55C275.93 178.44 276.19 178.339 276.45 178.229L276.79 178.09C280.03 176.74 283.59 175.259 284.891 174.619C286.76 173.689 290.07 170.59 290.921 169.769C291.191 166.299 291.321 155 291.341 153.109V153.019C290.411 151.049 290.031 148.279 289.881 146.899C288.651 146.999 287.641 146.729 286.801 146.099C285.061 144.789 284.061 141.839 283.681 136.829C283.421 133.359 284.051 131.009 285.551 129.829C286.08 129.419 286.64 129.209 287.16 129.119C287.11 129.049 287.07 128.969 287.04 128.889V128.869C286.899 128.436 284.93 122.297 284.44 117.119C283.971 112.159 285.721 103.26 289.08 100.689C289.15 100.399 289.2 99.8693 288.811 99.5193C288.281 99.0494 288.11 98.3991 288.37 97.7693C288.83 96.6294 290.54 95.8892 292.54 95.949C292.7 95.949 292.8 95.9493 292.86 95.9294C292.86 95.8995 292.86 95.859 292.87 95.8191C292.87 95.7892 292.871 95.7591 292.881 95.7292C292.921 95.3594 293.001 94.7496 293.57 94.3396C294.25 93.8596 295.37 93.8093 297.33 94.1892C298.33 94.2392 298.771 93.9386 299.23 93.6287L299.261 93.6091ZM256.19 479.519C256.05 479.949 255.871 480.46 255.641 481.099C253.08 488.27 246.281 507.28 251.891 539.029C252.221 542.579 252.65 546.189 253.08 549.689V549.749C254.19 558.889 255.221 567.509 254.181 573.109C253.401 577.709 253.081 579.67 253.011 582.09C253.011 582.159 253 582.229 252.98 582.289C252.37 584.289 249.26 589.189 247.19 592.449L246.98 592.789C246.471 593.589 246.05 594.259 245.78 594.709C245.43 595.299 245.24 595.719 245.08 596.099L245.061 596.139C244.571 597.279 244.2 597.96 241.94 599.769C241.541 600.099 241.111 600.429 240.681 600.769C237.761 603.059 234.45 605.639 232.65 609.599C231.811 611.629 232.101 612.569 232.351 612.949C232.65 613.409 233.18 613.509 233.58 613.519C234.02 613.519 234.361 613.889 234.351 614.319C234.351 614.489 234.42 614.99 234.7 615.26C234.88 615.429 235.131 615.509 235.48 615.489C235.88 615.469 236.191 615.73 236.271 616.09C236.278 616.117 236.551 617.105 237.29 617.529C237.68 617.749 238.141 617.789 238.69 617.63C239.01 617.54 239.35 617.669 239.54 617.929C239.61 618.03 240.431 619.079 241.521 619.199C242.15 619.269 242.761 619.029 243.4 618.469C243.71 618.19 244.19 618.209 244.48 618.499C244.501 618.519 246.501 620.479 249.051 620.149C251.091 619.879 252.991 618.248 254.69 615.289C254.79 615.109 254.96 614.979 255.16 614.919C255.42 614.849 261.57 613.039 261.101 607.349C261.011 604.87 263.25 603.609 266.08 602.01L266.521 601.76C269.19 600.25 270.96 599.239 269.29 589.649C268.89 586.482 269.48 583.165 269.501 583.019C269.551 582.769 269.711 582.559 269.94 582.449C270.051 582.349 271.5 581.018 270.931 574.769C270.251 567.159 269.601 559.959 278.971 530.239L278.98 530.229C279.48 528.549 280.19 527.569 280.87 526.619H280.86C282.7 524.049 284.61 521.399 281.9 501.859C280.84 492.53 280.481 488.799 280.761 486.639C277.751 489.519 274.341 491.129 271.011 491.129H270.851C267.051 491.069 263.83 488.999 261.771 485.289C259.791 481.739 258.61 480.269 256.19 479.519ZM364.49 479.519C362.081 480.259 360.89 481.739 358.91 485.289C356.85 488.999 353.631 491.079 349.841 491.129H349.681C346.341 491.129 342.941 489.529 339.931 486.649C340.201 488.809 339.84 492.54 338.79 501.849C336.08 521.408 337.99 524.059 339.83 526.619C340.51 527.569 341.221 528.549 341.721 530.239C351.081 559.948 350.44 567.139 349.75 574.749C349.162 581.291 350.772 582.453 350.801 582.459C351.041 582.569 351.15 582.749 351.2 582.999V583.019C351.26 583.351 351.801 586.551 351.421 589.59C349.741 599.219 351.501 600.219 354.181 601.729L354.61 601.979C357.44 603.579 359.68 604.839 359.601 607.289C359.122 613.024 365.439 614.88 365.54 614.899C365.74 614.959 365.911 615.09 366.011 615.26C367.721 618.219 369.611 619.849 371.65 620.119C374.2 620.457 376.184 618.505 376.23 618.469C376.52 618.169 377.001 618.159 377.311 618.429C377.95 618.989 378.561 619.239 379.19 619.169C380.324 619.049 381.161 617.922 381.181 617.899C381.371 617.639 381.71 617.51 382.03 617.599C382.58 617.749 383.051 617.719 383.431 617.499C384.174 617.073 384.445 616.087 384.45 616.059C384.54 615.699 384.84 615.46 385.24 615.469C385.59 615.489 385.851 615.409 386.021 615.239C386.31 614.969 386.37 614.469 386.37 614.289C386.37 613.859 386.711 613.509 387.141 613.499C387.53 613.499 388.06 613.389 388.37 612.929C388.62 612.549 388.92 611.609 388.061 609.559C386.271 605.629 382.96 603.039 380.04 600.749C379.92 600.649 379.791 600.549 379.671 600.449C379.371 600.209 379.07 599.979 378.78 599.749C376.521 597.929 376.16 597.259 375.66 596.119C375.5 595.739 375.31 595.299 374.94 594.689C374.67 594.239 374.25 593.579 373.74 592.769L373.53 592.429C371.46 589.18 368.35 584.269 367.74 582.269C367.72 582.199 367.7 582.139 367.7 582.069C367.62 579.649 367.3 577.679 366.521 573.069C365.471 567.479 366.52 558.849 367.61 549.719V549.669C368.04 546.169 368.47 542.549 368.79 539.069C374.42 507.249 367.611 488.239 365.051 481.079C365.011 480.949 364.961 480.829 364.921 480.709V480.729C364.751 480.259 364.61 479.859 364.5 479.519H364.49ZM259.011 456.769C258.851 464.439 258.28 466.419 257.771 468.189C257.611 468.759 257.45 469.3 257.32 470.01C257.07 471.419 257.021 472.6 256.971 473.849C256.921 475.119 256.871 476.44 256.591 478.01C259.601 478.91 261.071 480.759 263.171 484.539C264.951 487.739 267.691 489.529 270.891 489.579C275.481 489.619 280.271 486.189 283.771 480.319C283.78 480.299 283.8 480.259 283.82 480.229C283.84 480.189 283.871 480.139 283.891 480.099L283.91 480.059V480.05C284.29 479.37 284.7 478.689 285.12 477.979C287.54 473.909 290.51 468.929 291.66 459.409C289.44 465.609 285.68 472.109 279.65 472.109H279.511C272.801 471.999 271.48 466.279 270.521 462.109C270.101 460.299 269.67 458.43 268.94 458.09C268.671 457.97 268.271 458.029 267.751 458.289C265.231 459.519 263.14 459.679 261.351 458.809C260.441 458.359 259.671 457.669 259.011 456.769ZM361.69 456.76C361.031 457.649 360.26 458.35 359.351 458.8C357.561 459.679 355.47 459.509 352.95 458.279C352.42 458.019 352.02 457.959 351.75 458.079C351.02 458.42 350.591 460.29 350.171 462.09V462.119C349.201 466.289 347.88 471.999 341.181 472.109H341.04C335.011 472.109 331.25 465.618 329.03 459.419C330.18 468.929 333.14 473.909 335.57 477.979L335.601 478.029C336.011 478.729 336.41 479.399 336.79 480.069V480.09C336.792 480.093 336.831 480.15 336.851 480.179C336.881 480.239 336.91 480.29 336.94 480.34C340.39 486.119 345.151 489.569 349.671 489.569H349.811C353.01 489.519 355.75 487.739 357.53 484.539C359.64 480.749 361.101 478.899 364.11 477.999C363.83 476.429 363.78 475.109 363.73 473.84V473.809C363.68 472.569 363.631 471.389 363.381 469.999C363.251 469.289 363.101 468.749 362.931 468.179C362.421 466.409 361.85 464.419 361.69 456.76ZM265.29 323.409C264.1 332.499 262.661 341.94 261.801 345.34L261.761 345.489C261.701 345.709 261.63 346 261.53 346.349C257.28 362.31 249.161 400.039 255.141 437.459C255.501 439.099 255.83 440.769 256.15 442.389V442.419C257.52 449.299 258.801 455.799 262.061 457.399C263.37 458.049 265.011 457.879 267.061 456.879C268.04 456.399 268.911 456.329 269.631 456.669C271.051 457.339 271.5 459.29 272.07 461.76C273.01 465.839 274.071 470.449 279.54 470.55H279.65C289.585 470.55 292.827 448.392 292.86 448.149V448.109C293.15 445.999 293.49 443.889 293.87 441.789C293.87 441.749 293.871 441.709 293.881 441.659L293.98 441.159C294.17 440.169 294.361 439.189 294.561 438.199L294.57 438.189C294.59 438.049 294.62 437.909 294.65 437.769C297.12 424.069 295.861 422.559 293.101 419.239C290.221 415.759 285.87 410.519 282.12 390.439C281.11 384.999 280.38 378.459 279.61 371.539C277.45 352.099 275.01 330.139 265.29 323.409ZM355.421 323.399C345.701 330.139 343.261 352.089 341.101 371.529C340.331 378.449 339.601 384.99 338.591 390.429C334.851 410.509 330.49 415.759 327.61 419.229C324.851 422.549 323.6 424.06 326.07 437.769L326.15 438.209C326.35 439.179 326.541 440.149 326.721 441.119L326.83 441.649C326.831 441.654 326.841 441.74 326.841 441.789C327.221 443.899 327.561 445.999 327.851 448.099V448.139C327.885 448.4 331.128 470.538 341.061 470.539H341.171C346.64 470.449 347.701 465.829 348.641 461.76C349.211 459.29 349.66 457.339 351.08 456.669C351.8 456.329 352.671 456.399 353.65 456.879C355.7 457.879 357.33 458.049 358.65 457.399C361.9 455.799 363.191 449.299 364.551 442.419L364.591 442.209C364.901 440.649 365.22 439.038 365.57 437.459C371.56 400.039 363.441 362.32 359.181 346.349C359.071 345.92 358.98 345.58 358.91 345.34V345.329C358.04 341.929 356.601 332.489 355.421 323.399ZM265.771 321.84C276.42 328.69 278.941 351.329 281.171 371.349V371.469C281.951 378.319 282.671 384.789 283.671 390.149C287.341 409.839 291.54 414.889 294.32 418.239C296.21 420.509 297.471 422.029 297.561 426.189C297.77 425.479 297.98 424.769 298.19 424.059C298.66 422.519 299.421 420.429 300.311 418.01L300.48 417.55C303.43 409.48 307.87 397.309 308.48 387.429L308.471 387.419C308.511 385.859 308.55 384.439 308.57 383.199V383.109C308.64 380.079 308.681 378.149 308.921 376.989C302.221 376.069 299.12 367.929 293.65 349.559C287.58 329.179 271.961 323.37 265.771 321.84ZM354.921 321.829C348.731 323.359 333.11 329.17 327.04 349.55C321.57 367.919 318.47 376.059 311.771 376.979C312.01 378.139 312.05 380.07 312.12 383.099V383.199C312.15 384.439 312.18 385.859 312.23 387.439C312.841 397.309 317.3 409.509 320.25 417.579L320.32 417.789C321.24 420.299 322.031 422.46 322.511 424.05C322.731 424.759 322.941 425.469 323.141 426.169L323.15 426.179C323.24 422.03 324.501 420.509 326.381 418.239C329.161 414.889 333.36 409.838 337.03 390.149C338.03 384.779 338.761 378.289 339.521 371.419V371.34C341.75 351.31 344.271 328.679 354.921 321.829ZM334.891 272.499C334.601 280.909 333.79 297.509 333.04 309.279C331.56 332.378 317.151 351.478 310.421 351.479H310.261C303.531 351.479 289.121 332.369 287.641 309.279C286.891 297.499 286.08 280.899 285.79 272.499C284.6 279.059 283.351 286.4 284.341 293.139C286.631 308.599 281.09 315.769 278.61 318.139C276.61 320.039 273.73 321.309 270.681 321.779C278.351 324.739 290.04 331.959 295.15 349.129C301.15 369.258 304.021 375.529 310.25 375.529H310.431C316.671 375.529 319.54 369.258 325.53 349.129C330.64 331.949 342.33 324.739 350 321.779C346.95 321.309 344.07 320.039 342.07 318.139C339.58 315.769 334.051 308.599 336.341 293.139C337.341 286.399 336.081 279.059 334.891 272.499ZM173.95 324.889C173.14 326.899 172.51 328.85 171.87 330.849L171.841 330.949C170.581 334.879 169.16 339.34 166.061 345.13L165.98 345.279C164.501 348.159 163.731 350.24 163.671 351.55C163.631 352.479 163.561 353.76 163.301 355.949C162.441 363.038 162.6 365.499 162.7 366.959V367.059C162.761 368.01 163.92 372.289 164.78 375.289C165.3 375.239 166.1 375.049 166.66 374.429C167.39 373.63 167.591 372.299 167.261 370.469C166.471 366.13 166.67 365.329 167.16 363.389C167.4 362.459 167.68 361.289 167.98 359.289C168.4 357.499 169.061 356.699 169.761 355.849C170.521 354.919 171.391 353.859 172.221 351.09C172.231 351.05 172.251 351.009 172.271 350.969C173.499 348.483 175.485 347.961 175.61 347.929C175.86 347.869 176.121 347.929 176.311 348.099C176.51 348.269 176.6 348.519 176.58 348.769C176.35 350.97 176.141 357.119 177.921 359.109C178.261 359.489 178.63 359.669 179.08 359.679H179.171C181.65 359.679 181.97 357.689 182.19 352.519C182.24 351.319 182.29 350.069 182.41 348.76C182.93 344.66 183.601 342.569 184.881 341.01C186.031 339.61 187.08 336.319 184.99 333.459C184.571 332.839 184.671 331.879 185.051 330.8C184.041 331.079 183.041 331.219 182.091 331.219C180.771 331.219 179.541 330.959 178.461 330.429C176.421 329.419 174.82 327.419 173.95 324.889ZM446.761 324.88C445.891 327.409 444.291 329.409 442.251 330.419C441.181 330.949 439.94 331.209 438.62 331.209C437.67 331.209 436.681 331.069 435.671 330.8C436.041 331.869 436.15 332.82 435.74 333.429C433.631 336.319 434.67 339.599 435.83 340.999C437.11 342.559 437.781 344.65 438.301 348.719C438.421 350.019 438.471 351.229 438.521 352.399V352.51C438.75 357.679 439.071 359.669 441.551 359.669H441.641C442.1 359.669 442.471 359.479 442.801 359.099C444.571 357.11 444.371 350.96 444.141 348.76C444.111 348.51 444.221 348.26 444.41 348.09C444.6 347.92 444.86 347.859 445.11 347.919C445.2 347.939 447.21 348.439 448.45 350.959C448.47 350.989 448.481 351.029 448.501 351.069C449.321 353.849 450.191 354.91 450.961 355.84V355.849C451.661 356.699 452.321 357.5 452.721 359.219C453.031 361.289 453.321 362.449 453.551 363.389C454.031 365.329 454.23 366.13 453.45 370.469C453.12 372.299 453.321 373.63 454.051 374.429C454.611 375.049 455.411 375.239 455.931 375.289C456.791 372.299 457.95 368.01 458.011 367.059V366.949C458.111 365.479 458.27 363.019 457.41 355.929C457.15 353.73 457.09 352.459 457.04 351.529C456.98 350.229 456.21 348.149 454.73 345.269L454.65 345.109C451.571 339.339 450.141 334.889 448.891 330.969L448.87 330.919C448.22 328.879 447.581 326.909 446.761 324.88ZM172.74 354.139C172.12 355.439 171.501 356.199 170.961 356.849C170.311 357.649 169.831 358.23 169.511 359.599C169.221 361.609 168.911 362.869 168.681 363.779C168.231 365.589 168.081 366.199 168.811 370.199C168.921 370.799 168.97 371.369 168.98 371.889C169.42 371.839 169.931 371.699 170.261 371.369C170.62 370.989 170.74 370.389 170.601 369.55C170.221 367.23 170.361 365.929 170.501 364.55C170.601 363.61 170.701 362.639 170.671 361.199C170.631 359.539 171.15 358.509 171.65 357.519C172.08 356.639 172.56 355.699 172.74 354.139ZM447.95 354.129C448.14 355.699 448.611 356.64 449.051 357.51C449.551 358.519 450.07 359.549 450.03 361.199C450 362.629 450.11 363.599 450.2 364.529V364.559C450.35 365.929 450.48 367.229 450.101 369.539C449.971 370.369 450.08 370.979 450.44 371.359C450.76 371.689 451.271 371.839 451.721 371.879C451.721 371.359 451.781 370.789 451.891 370.189C452.621 366.19 452.471 365.569 452.011 363.769L451.99 363.709C451.77 362.799 451.46 361.549 451.16 359.519C450.85 358.22 450.371 357.629 449.721 356.84C449.191 356.19 448.57 355.429 447.95 354.129ZM325.881 240.859C321.131 239.109 315.131 237.879 312.551 239.659C311.661 240.279 311.221 241.24 311.221 242.599C311.22 243.029 310.86 243.38 310.431 243.38H310.271C309.831 243.379 309.481 243.029 309.48 242.599C309.48 241.239 309.04 240.269 308.15 239.659C305.57 237.879 299.57 239.109 294.811 240.859C294.161 241.139 293.5 241.39 292.83 241.63C289.58 242.96 286.3 244.709 285.23 247.109C284.571 248.589 284.931 249.76 285.601 251.88C286.151 253.63 286.87 255.92 287.2 259.279C287.26 259.699 287.291 260.139 287.311 260.609C287.331 260.869 287.341 261.139 287.351 261.419C287.401 262.558 287.371 263.099 287.341 263.829V263.859C287.301 264.659 287.241 265.75 287.271 268.229C287.311 273.23 288.31 294.79 289.23 309.179C290.711 332.289 304.93 349.918 310.271 349.919H310.431C315.771 349.918 329.991 332.289 331.471 309.179C332.391 294.81 333.391 273.24 333.431 268.229V268.219C333.451 265.74 333.4 264.649 333.36 263.849V263.829C333.32 263.089 333.301 262.549 333.351 261.409C333.361 261.129 333.381 260.859 333.391 260.599C333.411 260.14 333.44 259.709 333.5 259.3C333.83 255.93 334.551 253.63 335.101 251.88C335.771 249.77 336.131 248.599 335.471 247.109C334.401 244.719 331.12 242.96 327.87 241.63C327.2 241.4 326.531 241.149 325.881 240.859ZM310.431 314.019C310.871 314.019 311.221 314.37 311.221 314.8V344.38C311.22 344.809 310.86 345.159 310.431 345.159H310.271C309.831 345.159 309.481 344.809 309.48 344.38V314.8C309.48 314.37 309.841 314.02 310.271 314.019H310.431ZM408.44 256.179C411.83 270.029 407.5 274.939 403.95 276.669C402.75 277.259 401.33 277.599 399.721 277.599C397.121 277.599 394.07 276.689 390.78 274.439C392.98 277.399 394.831 279.929 395.811 281.309C397.93 284.699 399.06 287.06 400.16 289.34C401.94 293.059 403.621 296.559 409.45 303.789C414.81 310.429 418.491 313.219 422.381 316.169C425.201 318.299 428.11 320.509 431.74 324.269L431.73 324.279C431.731 324.28 431.77 324.32 431.79 324.349C432.43 325.179 433.78 327.009 434.78 328.859C437.28 329.859 439.731 329.919 441.551 329.019C443.641 327.989 445.23 325.519 445.74 322.539C445.38 321.789 444.99 321.029 444.561 320.249C442.901 316.699 441.011 312.039 439.001 307.109L438.931 306.939C434.041 294.909 427.96 279.939 422.021 272.849C418.461 268.599 415.9 265.95 414.03 264.01L414.011 263.989C411.401 261.279 409.95 259.779 408.83 257.079C408.7 256.779 408.57 256.479 408.44 256.179ZM211.881 257.079C210.761 259.759 209.32 261.259 206.721 263.959L206.631 264.05C204.761 265.99 202.21 268.63 198.69 272.849C192.761 279.93 186.68 294.879 181.79 306.909V306.939C179.75 311.939 177.831 316.649 176.171 320.199C175.731 320.999 175.331 321.779 174.971 322.539C175.481 325.509 177.07 327.989 179.16 329.019C180.98 329.919 183.431 329.849 185.931 328.849C186.93 327 188.27 325.18 188.91 324.349C188.93 324.329 188.951 324.309 188.971 324.279C192.591 320.529 195.501 318.319 198.311 316.189L198.33 316.169C202.22 313.219 205.901 310.429 211.261 303.789C217.1 296.559 218.781 293.049 220.561 289.34L220.591 289.269V289.289C221.671 287.029 222.801 284.679 224.881 281.359C225.861 279.949 227.721 277.419 229.931 274.439C226.641 276.699 223.59 277.599 220.99 277.599C219.39 277.599 217.961 277.259 216.761 276.669C213.211 274.929 208.881 270.029 212.271 256.179C212.141 256.469 212.011 256.769 211.881 257.079ZM254.961 228.669C256.911 233.089 255.971 238.889 255.551 241.429C255.291 242.989 254.901 244.549 254.391 246.069C254.841 248.48 257.151 258.94 265.841 275.529C270.191 284.109 268.99 292.96 267.83 301.51L267.82 301.489C267.5 303.819 267.201 306.029 267.011 308.229C266.741 311.349 266.26 315.629 265.7 320.199C269.95 320.939 274.73 319.669 277.53 316.999C279.84 314.809 284.97 308.099 282.79 293.359C281.72 286.149 283.12 278.399 284.36 271.569V271.55C285.14 267.28 285.82 263.519 285.73 260.729C285.7 260.289 285.671 259.879 285.631 259.469C285.231 256.759 280.1 252.37 274.16 247.3C269.45 243.27 264.13 238.719 259.57 233.709C258.94 233.069 258.331 232.399 257.751 231.699C256.881 230.659 255.971 229.609 254.961 228.669ZM365.761 228.649C364.751 229.599 363.841 230.63 362.971 231.679C362.391 232.379 361.78 233.049 361.15 233.689C356.581 238.699 351.261 243.249 346.551 247.279L346.521 247.309C340.591 252.379 335.48 256.749 335.08 259.459C335.04 259.859 335 260.279 334.98 260.709C334.891 263.499 335.571 267.259 336.341 271.529C337.581 278.369 338.981 286.12 337.921 293.34C335.741 308.079 340.881 314.779 343.181 316.979C345.981 319.649 350.751 320.919 355.011 320.179C354.441 315.61 353.97 311.339 353.7 308.219C353.51 306.02 353.211 303.809 352.891 301.479V301.459H352.881C351.721 292.909 350.531 284.079 354.87 275.51C363.56 258.91 365.87 248.459 366.32 246.039C365.81 244.519 365.41 242.969 365.16 241.409C364.75 238.869 363.811 233.069 365.761 228.649ZM324.69 302.059H324.7C325.13 302.069 325.471 302.429 325.471 302.859C325.46 303.299 325.081 303.629 324.671 303.63C322.071 303.57 315.211 304.239 312.841 304.769C311.581 305.059 311.23 306.279 311.15 308.149C311.17 308.719 311.171 309.279 311.171 309.809V310.149C311.171 310.579 310.811 310.929 310.381 310.929H310.331C309.901 310.929 309.541 310.579 309.541 310.149V309.809C309.541 309.269 309.541 308.709 309.561 308.149C309.481 306.28 309.131 305.06 307.871 304.769C305.511 304.239 298.671 303.57 296.041 303.63C295.621 303.639 295.241 303.289 295.24 302.859C295.23 302.429 295.581 302.059 296.011 302.059C298.751 302.009 305.721 302.679 308.221 303.239C309.251 303.469 309.911 304.02 310.351 304.75C310.781 304.02 311.451 303.469 312.48 303.239C314.98 302.679 321.94 302.009 324.69 302.059ZM310.411 291.359C310.851 291.359 311.2 291.709 311.2 292.149C311.2 299.318 311.841 299.66 314.261 299.84C317.98 299.94 319.941 299.81 322.4 299.63H322.61L322.621 299.609C324.121 299.509 325.821 299.389 328.221 299.309C328.661 299.309 329.021 299.639 329.041 300.069C329.061 300.499 328.72 300.86 328.28 300.88C325.901 300.97 324.21 301.079 322.73 301.179H322.551C320.651 301.329 319.05 301.439 316.73 301.439C315.981 301.439 315.14 301.429 314.2 301.399C312.111 301.249 310.971 300.579 310.351 299.139C309.741 300.589 308.61 301.239 306.541 301.399C305.581 301.429 304.731 301.439 303.961 301.439C301.631 301.439 300.04 301.329 298.141 301.199C296.611 301.089 294.881 300.97 292.411 300.88C291.981 300.86 291.631 300.499 291.65 300.069C291.67 299.639 292.051 299.299 292.471 299.319C294.97 299.409 296.711 299.529 298.261 299.639C300.73 299.809 302.691 299.95 306.45 299.84C308.84 299.66 309.471 299.318 309.471 292.149C309.471 291.719 309.821 291.359 310.261 291.359H310.411ZM314.301 279.849C318.031 279.809 322.231 280.279 324.751 280.569C325.181 280.619 325.49 281.009 325.44 281.439C325.39 281.869 325.01 282.179 324.57 282.13H324.541C322.061 281.85 317.96 281.38 314.32 281.42C311.651 281.46 311.19 282.78 311.19 286.729C311.19 287.159 310.84 287.509 310.4 287.51H310.24C309.801 287.509 309.45 287.159 309.45 286.729C309.45 282.769 309 281.45 306.32 281.42H306.351C302.721 281.38 298.581 281.85 296.101 282.13C295.661 282.189 295.271 281.869 295.221 281.439C295.171 281.009 295.481 280.619 295.911 280.569C298.421 280.279 302.641 279.809 306.36 279.849C308.55 279.879 309.711 280.72 310.331 281.92C310.951 280.72 312.121 279.889 314.301 279.849ZM310.421 268.059C310.861 268.06 311.211 268.41 311.211 268.84C311.211 269.599 311.181 270.33 311.161 271.04L311.15 271.25V271.319C311.14 271.519 311.131 271.72 311.131 271.92C311.151 272.669 311.171 273.39 311.131 274.059C311.201 275.419 311.481 276.329 312.24 276.76C315.37 278.519 321.591 278.419 328.19 278.309H328.931L328.94 278.319C329.37 278.319 329.73 278.66 329.73 279.09C329.73 279.519 329.39 279.88 328.95 279.88L328.301 279.889H328.15C326.561 279.919 325.021 279.939 323.541 279.939C318.451 279.939 314.18 279.649 311.48 278.13C311.001 277.86 310.64 277.509 310.36 277.09C310.09 277.499 309.72 277.86 309.24 278.13C306.54 279.649 302.26 279.939 297.181 279.939C295.711 279.939 294.171 279.919 292.581 279.889L292.421 279.88H291.771C291.331 279.879 290.991 279.519 290.99 279.09C291 278.66 291.351 278.319 291.78 278.319H292.44C299.06 278.429 305.32 278.529 308.45 276.769C309.21 276.339 309.481 275.439 309.561 274.069C309.521 273.399 309.541 272.679 309.561 271.929C309.561 271.73 309.541 271.529 309.541 271.309V271.26C309.511 270.48 309.48 269.679 309.48 268.84C309.48 268.41 309.841 268.06 310.271 268.059H310.421ZM378.961 224.59C375.291 224.48 371.83 224.379 369.33 226.399C364.891 229.989 366.211 238.099 366.711 241.149C366.921 242.429 367.231 243.709 367.631 244.959C367.761 245.049 367.871 245.169 367.931 245.319C369.731 249.709 372.811 252.459 374.851 254.269C374.911 254.319 374.97 254.379 375.03 254.429C375.23 254.609 375.431 254.779 375.601 254.949C376.631 255.899 380.871 261.329 385.261 267.109C392.61 276.019 399.36 277.169 403.23 275.279C407.39 273.239 412.661 266.039 401.141 240.739C397.351 233.619 395.18 231.359 393.91 230.029C393.67 229.769 393.44 229.539 393.23 229.3C391.91 228.42 390.49 227.639 389.021 226.979C387.731 226.409 386.501 225.979 385.351 225.649C385.321 225.649 385.3 225.64 385.28 225.63C382.361 224.8 380.031 224.62 378.961 224.59ZM251.37 226.399C248.88 224.379 245.41 224.48 241.74 224.59C240.67 224.62 238.34 224.79 235.421 225.63H235.4C235.381 225.63 235.361 225.639 235.341 225.649C234.191 225.979 232.961 226.409 231.671 226.979C230.201 227.639 228.791 228.42 227.471 229.3C227.261 229.539 227.03 229.779 226.79 230.029C225.52 231.369 223.35 233.63 219.561 240.739C208.051 266.039 213.311 273.229 217.48 275.269C221.35 277.169 228.1 276.019 235.45 267.109C235.45 267.109 235.451 267.1 235.461 267.099C239.86 261.31 244.089 255.891 245.12 254.939C245.3 254.779 245.491 254.609 245.69 254.419C245.75 254.369 245.81 254.319 245.87 254.26L245.9 254.239C247.93 252.419 251 249.679 252.79 245.309L252.78 245.319C252.84 245.169 252.95 245.049 253.08 244.959C253.47 243.709 253.78 242.439 253.99 241.149C254.49 238.099 255.81 229.989 251.37 226.399ZM314.28 257.659C317.77 257.069 321.881 258.14 324.331 258.79L324.881 258.939C325.301 259.049 325.55 259.47 325.44 259.889C325.33 260.309 324.9 260.549 324.48 260.449L323.921 260.3C321.591 259.69 317.691 258.669 314.541 259.199C311.711 259.679 311.211 261.119 311.211 263.949C311.211 264.379 310.861 264.729 310.421 264.729H310.261C309.821 264.729 309.471 264.379 309.471 263.949C309.471 261.109 308.97 259.669 306.15 259.199C302.991 258.669 299.101 259.69 296.761 260.3L296.78 260.29L296.221 260.439H296.23C295.811 260.549 295.381 260.299 295.271 259.88C295.161 259.47 295.411 259.04 295.831 258.929L296.381 258.79C298.841 258.15 302.941 257.069 306.431 257.659C308.581 258.019 309.73 258.93 310.36 260.09C310.98 258.93 312.141 258.019 314.28 257.659ZM310.451 246.889C310.891 246.89 311.24 247.24 311.24 247.67C311.24 252.186 311.371 255.155 313.188 255.169C319.598 255.051 323.966 256.171 330.391 258.019C330.81 258.139 331.05 258.579 330.931 258.989C330.831 259.329 330.521 259.549 330.171 259.55C330.101 259.55 330.021 259.549 329.951 259.519C323.661 257.699 319.39 256.609 313.19 256.729C311.731 256.729 310.86 255.929 310.36 254.679C309.86 255.929 309.01 256.719 307.541 256.729C301.321 256.609 297.041 257.699 290.761 259.519C290.681 259.539 290.611 259.55 290.541 259.55C290.201 259.549 289.891 259.329 289.791 258.989C289.671 258.579 289.911 258.139 290.331 258.019C296.761 256.159 301.121 255.04 307.57 255.17C309.36 255.169 309.501 252.199 309.501 247.67C309.501 247.24 309.851 246.89 310.291 246.889H310.451ZM268.091 239.919C270.491 242.099 272.901 244.159 275.181 246.109C279.211 249.549 282.711 252.539 284.881 255.099C284.631 254.079 284.36 253.199 284.12 252.439L284.091 252.329C283.401 250.099 282.891 248.489 283.79 246.469C284.378 245.164 285.413 244.057 286.717 243.099C286.718 243.099 286.72 243.099 286.721 243.099L286.73 243.09C286.726 243.093 286.721 243.096 286.717 243.099C285.338 243.279 283.959 243.38 282.58 243.38C277.58 243.38 272.601 242.189 268.091 239.919ZM352.601 239.909C348.091 242.179 343.12 243.369 338.11 243.369C336.731 243.369 335.35 243.27 333.971 243.09C335.281 244.05 336.32 245.16 336.91 246.469L336.9 246.479C337.81 248.499 337.301 250.109 336.601 252.349L336.57 252.439C336.33 253.199 336.061 254.08 335.811 255.099C337.99 252.539 341.481 249.539 345.511 246.099C347.781 244.159 350.201 242.089 352.601 239.909ZM336.25 189.969C334.14 189.349 330.219 188.189 323.25 188.849C311.311 189.97 311.23 197.379 311.23 197.689V219.559C311.231 223.909 312.74 228.069 315.49 231.279C318.53 234.829 322.231 237.559 326.471 239.399L326.461 239.409C327.151 239.669 327.841 239.929 328.53 240.209C339.41 243.969 351.781 240.969 360.011 232.59C360.071 232.52 360.131 232.459 360.19 232.389C360.24 232.34 360.28 232.289 360.33 232.239C360.33 232.239 360.341 232.229 360.351 232.219C360.36 232.219 360.371 232.199 360.381 232.189C360.851 231.699 361.301 231.199 361.73 230.669C364.75 227.039 368.521 223.179 375.221 222.979C374.181 222.549 373.301 222.089 372.591 221.609C366.631 217.599 361.98 212.179 359.74 209.569C357.65 207.119 356.13 205.119 354.79 203.359L354.73 203.289C351.801 199.439 349.871 196.899 345.141 193.919C341.621 191.699 337.21 190.27 336.66 190.09C336.53 190.05 336.4 190.019 336.25 189.969ZM297.461 188.859C290.502 188.199 286.571 189.359 284.461 189.979C284.311 190.019 284.181 190.059 284.051 190.099C283.489 190.28 279.08 191.71 275.561 193.929C270.831 196.909 268.9 199.449 265.98 203.289C264.631 205.079 263.09 207.1 260.99 209.55C258.73 212.18 254.08 217.599 248.12 221.609C247.41 222.089 246.53 222.539 245.49 222.979C252.19 223.169 255.961 227.039 258.98 230.669C259.42 231.199 259.87 231.699 260.33 232.189C260.35 232.199 260.371 232.219 260.381 232.229L260.7 232.569C268.94 240.949 281.301 243.949 292.19 240.189C292.88 239.909 293.571 239.639 294.261 239.389C298.5 237.549 302.2 234.819 305.24 231.269L305.221 231.289C307.97 228.079 309.48 223.919 309.48 219.569V197.709C309.48 197.383 309.396 189.989 297.461 188.859ZM310.351 224.859C309.601 227.599 308.271 230.15 306.421 232.3C304.681 234.329 302.73 236.109 300.601 237.619C303.681 237.049 306.981 236.95 309.061 238.38C309.61 238.76 310.03 239.22 310.36 239.76C310.68 239.22 311.111 238.75 311.66 238.38C313.73 236.95 317.03 237.049 320.11 237.619C317.98 236.109 316.03 234.339 314.29 232.309H314.28C312.43 230.149 311.101 227.609 310.351 224.859ZM359.311 187.55C351.371 185.98 342.98 188.13 339.19 189.34C340.99 190.02 343.641 191.149 345.98 192.619C350.96 195.759 353.07 198.529 355.99 202.369L356.131 202.55C357.441 204.269 358.931 206.21 360.931 208.55C363.141 211.12 367.701 216.429 373.49 220.329C375.04 221.379 377.651 222.359 381.021 223.189C383.12 223.429 386.231 224.039 389.681 225.569C390.431 225.899 391.171 226.279 391.891 226.669C389.471 217.59 388.1 214.229 387.19 212.01C386.73 210.87 386.36 209.979 386.021 208.779C383.55 200.779 377.51 190.739 362.811 188.379H362.73C362.431 188.319 362.221 188.279 362.091 188.249C361.761 188.159 361.26 188.039 360.7 187.899C360.25 187.789 359.81 187.679 359.391 187.569L359.37 187.559H359.311V187.55ZM281.511 189.349C277.721 188.139 269.34 185.989 261.391 187.559H261.33C260.91 187.679 260.47 187.789 260.021 187.899C259.451 188.039 258.961 188.159 258.631 188.249C258.501 188.289 258.25 188.329 257.91 188.379C243.211 190.739 237.17 200.78 234.69 208.8V208.789C234.36 209.979 233.99 210.869 233.53 211.989C232.62 214.219 231.24 217.569 228.82 226.659C229.54 226.269 230.28 225.899 231.03 225.559C234.48 224.029 237.6 223.419 239.69 223.179C243.06 222.359 245.671 221.369 247.221 220.329C253.01 216.429 257.57 211.119 259.771 208.569C261.83 206.169 263.34 204.189 264.66 202.449L264.73 202.359C267.64 198.529 269.751 195.759 274.721 192.629C277.06 191.149 279.711 190.029 281.511 189.349ZM327.75 154.669C325.64 157.409 320.36 162.819 310.48 164.569H310.181C303.191 163.329 298.581 160.269 295.931 157.919C294.561 156.699 293.58 155.569 292.91 154.689C292.88 156.999 292.82 161.1 292.73 164.599L292.75 164.609V180.849C292.75 183.919 291.64 185.879 289.931 187.279C291.981 187.069 294.501 187.019 297.601 187.309C306.001 188.099 309.161 191.939 310.341 194.729C311.521 191.939 314.681 188.109 323.08 187.309C326.18 187.019 328.7 187.069 330.75 187.279C329.04 185.879 327.931 183.919 327.931 180.849V164.599C327.831 161.08 327.78 156.979 327.75 154.669ZM291.16 171.719C289.74 173.02 287.27 175.199 285.62 176.019C284.23 176.709 280.43 178.29 277.091 179.679C274.901 180.589 272.84 181.449 271.95 181.849V181.859C270.6 182.469 268.66 183.98 267.23 185.09C267.161 185.139 267.1 185.189 267.04 185.239C266.96 185.299 266.88 185.369 266.801 185.419C275.03 185.279 282.361 187.909 283.881 188.499C288.81 186.839 291.16 185.219 291.16 180.84V171.719ZM329.521 180.84C329.521 185.219 331.871 186.839 336.801 188.499C338.322 187.908 345.652 185.279 353.881 185.419C353.801 185.359 353.721 185.299 353.641 185.229C353.581 185.179 353.52 185.129 353.45 185.079L353.33 184.989C351.92 183.899 350.04 182.449 348.73 181.859C347.84 181.459 345.78 180.599 343.601 179.689C340.251 178.299 336.451 176.719 335.061 176.019V176.029C333.411 175.209 330.93 173.039 329.521 171.729V180.84ZM324.771 108.239C324.331 107.939 323.931 107.859 323.511 107.979C314.591 111.549 301.281 112.539 296.181 109.979C295.201 109.489 294.281 109.529 293.381 110.119C291.101 111.599 289.53 116.16 289.7 119.09C289.92 123.009 289.73 128.958 289.7 129.829V129.939C289.7 130.179 289.57 130.379 289.4 130.519C289.2 130.709 288.9 130.789 288.62 130.699C288.536 130.668 287.439 130.371 286.561 131.069C285.831 131.649 285.021 133.1 285.301 136.709C285.641 141.179 286.461 143.849 287.801 144.859C288.471 145.369 289.301 145.489 290.49 145.249H290.48C290.7 145.209 290.93 145.259 291.11 145.399C291.29 145.539 291.401 145.749 291.421 145.979C291.422 146.04 291.683 150.165 292.87 152.51C292.93 152.619 292.95 152.739 292.95 152.869V152.949C292.951 153.038 293.24 152.759 293.24 152.949C294.68 155.079 299.521 160.769 310.351 162.699C321.18 160.769 326.16 154.999 327.601 152.869C327.601 152.59 327.74 152.928 327.74 152.869C327.74 152.749 327.771 152.619 327.82 152.51C329.007 150.156 329.269 146.04 329.271 145.979C329.28 145.759 329.39 145.539 329.58 145.409C329.76 145.269 329.991 145.22 330.211 145.26C331.4 145.489 332.231 145.369 332.9 144.869C334.25 143.859 335.06 141.199 335.4 136.719C335.67 133.099 334.861 131.649 334.141 131.079C333.261 130.379 332.17 130.679 332.08 130.709C331.68 130.828 331.26 130.619 331.12 130.239C330.51 129.419 329.821 127.268 329.141 119.929C328.661 114.689 326.741 109.549 324.771 108.239Z" fill="black"/>
</svg>
