<svg width="620" height="714" viewBox="0 0 620 714" fill="none" xmlns="http://www.w3.org/2000/svg">
<path d="M331.661 309.179C332.591 294.719 333.581 273.159 333.621 268.229C333.641 265.769 333.591 264.669 333.551 263.849V263.679C333.511 263.009 333.491 262.479 333.531 261.419C333.531 261.189 333.551 260.959 333.571 260.749C333.571 260.689 333.571 260.639 333.571 260.589C333.591 260.319 333.601 260.049 333.621 259.799L333.641 259.579C333.641 259.479 333.651 259.389 333.671 259.289C333.991 256.029 334.661 253.839 335.211 252.069L335.261 251.909C335.931 249.759 336.301 248.579 335.611 247.049C334.711 245.039 332.331 243.299 328.121 241.549C328.111 241.549 328.091 241.549 328.081 241.539H328.071C327.391 241.289 326.671 241.009 325.941 240.699C325.921 240.699 325.911 240.689 325.881 240.679C321.091 238.929 315.031 237.699 312.401 239.519C311.451 240.179 310.991 241.189 310.991 242.619C310.991 242.949 310.721 243.209 310.381 243.219C310.341 243.209 310.281 243.199 310.241 243.219C309.911 243.219 309.641 242.959 309.641 242.629C309.641 241.209 309.181 240.189 308.221 239.529C307.381 238.949 303.961 237.339 294.771 240.679L294.731 240.699H294.691C293.981 241.019 293.261 241.299 292.531 241.549C292.531 241.549 292.511 241.549 292.511 241.559C288.301 243.299 285.921 245.049 285.031 247.059C284.341 248.609 284.711 249.799 285.391 251.959C285.921 253.639 286.651 255.939 286.981 259.319C287.041 259.699 287.071 260.139 287.081 260.629C287.081 260.669 287.081 260.699 287.081 260.759C287.101 260.979 287.111 261.209 287.121 261.439C287.161 262.569 287.151 263.099 287.101 263.879C287.061 264.679 287.011 265.779 287.031 268.239C287.081 273.329 288.081 294.909 288.991 309.189C290.481 332.399 304.831 350.109 310.251 350.109C310.271 350.109 310.301 350.109 310.331 350.109C310.351 350.109 310.371 350.109 310.391 350.109C315.791 350.109 330.131 332.399 331.631 309.189H331.651L331.661 309.179ZM290.531 259.369C290.261 259.369 290.031 259.199 289.961 258.939C289.871 258.629 290.051 258.309 290.361 258.209C296.781 256.359 301.141 255.239 307.541 255.369C309.521 255.369 309.671 252.319 309.671 247.679C309.671 247.349 309.941 247.089 310.281 247.089C310.321 247.099 310.381 247.109 310.421 247.089C310.751 247.089 311.011 247.349 311.011 247.679C311.011 252.319 311.161 255.359 313.161 255.369C319.541 255.239 323.911 256.359 330.321 258.209C330.481 258.259 330.601 258.359 330.681 258.499C330.761 258.639 330.771 258.789 330.731 258.939C330.641 259.249 330.301 259.429 329.991 259.339C324.011 257.609 319.851 256.539 314.171 256.539C313.841 256.539 313.511 256.539 313.171 256.539C311.901 256.539 311.041 255.899 310.521 254.609C310.461 254.459 310.221 254.459 310.161 254.609C309.641 255.919 308.801 256.539 307.531 256.539C301.301 256.409 297.011 257.499 290.681 259.329C290.641 259.339 290.581 259.349 290.521 259.349L290.531 259.369ZM325.251 259.819C325.211 259.969 325.111 260.109 324.971 260.189C324.841 260.259 324.681 260.289 324.531 260.239L323.961 260.089C321.611 259.479 317.701 258.449 314.511 258.989C311.571 259.489 311.031 261.049 311.031 263.939C311.031 264.269 310.761 264.529 310.421 264.529C310.401 264.529 310.371 264.529 310.341 264.529C310.321 264.529 310.301 264.529 310.281 264.529C309.951 264.529 309.681 264.269 309.681 263.939C309.681 261.049 309.141 259.489 306.191 258.989C302.991 258.449 299.061 259.479 296.721 260.099L296.161 260.239C296.011 260.279 295.851 260.259 295.721 260.189C295.581 260.109 295.481 259.979 295.441 259.819C295.361 259.499 295.551 259.179 295.871 259.099L296.411 258.959C298.851 258.319 302.921 257.239 306.401 257.829C308.271 258.139 309.511 258.899 310.191 260.159C310.261 260.279 310.461 260.279 310.531 260.159C311.211 258.909 312.451 258.149 314.321 257.829C317.781 257.239 321.861 258.319 324.301 258.959L324.841 259.099C325.161 259.179 325.351 259.499 325.261 259.819H325.251ZM291.341 279.509C291.231 279.389 291.171 279.239 291.171 279.089C291.171 278.919 291.241 278.759 291.361 278.659C291.471 278.559 291.621 278.509 291.771 278.519H292.431C299.081 278.639 305.351 278.739 308.531 276.949C309.491 276.409 309.681 275.189 309.741 274.049C309.711 273.379 309.731 272.669 309.741 271.979L309.721 271.259C309.681 270.339 309.661 269.569 309.661 268.849C309.661 268.519 309.931 268.259 310.271 268.259C310.311 268.269 310.371 268.269 310.411 268.259C310.741 268.259 311.011 268.519 311.011 268.849C311.011 269.709 310.971 270.569 310.951 271.279C310.951 271.479 310.941 271.669 310.941 271.869C310.961 272.609 310.981 273.389 310.941 274.139C311.031 275.689 311.391 276.519 312.151 276.949C315.331 278.739 321.611 278.629 328.251 278.519H328.921C329.071 278.499 329.201 278.549 329.321 278.649C329.441 278.759 329.521 278.919 329.521 279.079C329.521 279.409 329.251 279.679 328.931 279.689H328.281C326.941 279.729 325.191 279.749 323.531 279.749C318.971 279.749 314.351 279.529 311.561 277.969C311.121 277.719 310.771 277.389 310.501 276.989C310.461 276.939 310.401 276.899 310.341 276.899C310.281 276.899 310.211 276.939 310.181 276.989C309.931 277.389 309.581 277.709 309.131 277.969C306.351 279.539 301.731 279.749 297.171 279.749C295.511 279.749 293.761 279.719 292.431 279.699H291.771C291.621 279.699 291.461 279.629 291.351 279.509H291.341ZM325.271 281.419C325.251 281.579 325.161 281.729 325.031 281.819C324.911 281.909 324.761 281.949 324.601 281.929H324.521C322.061 281.639 317.941 281.169 314.331 281.219C311.521 281.249 311.021 282.689 311.021 286.719C311.021 287.049 310.751 287.309 310.411 287.309C310.391 287.309 310.361 287.299 310.341 287.299C310.321 287.299 310.301 287.299 310.281 287.299C309.951 287.299 309.691 287.039 309.691 286.709C309.691 282.679 309.191 281.239 306.371 281.209C302.771 281.159 298.671 281.619 296.211 281.899H296.091C295.771 281.949 295.471 281.719 295.431 281.399C295.391 281.069 295.631 280.779 295.951 280.739C298.451 280.449 302.641 279.969 306.381 280.019C308.271 280.049 309.511 280.689 310.191 281.979C310.261 282.109 310.461 282.109 310.531 281.979C311.211 280.689 312.451 280.049 314.341 280.019C318.131 279.969 322.441 280.469 324.771 280.739C325.091 280.779 325.331 281.069 325.291 281.389L325.271 281.419ZM292.011 300.489C291.901 300.379 291.851 300.229 291.851 300.069C291.851 299.909 291.931 299.749 292.051 299.639C292.161 299.539 292.311 299.489 292.461 299.499C294.721 299.579 296.361 299.689 297.811 299.779L298.241 299.809C300.581 299.979 302.601 300.129 306.471 300.009C309.111 299.819 309.681 299.119 309.681 292.129C309.681 291.799 309.951 291.539 310.291 291.529C310.331 291.539 310.391 291.549 310.431 291.529C310.761 291.529 311.021 291.789 311.021 292.119C311.021 299.439 311.741 299.819 314.271 300.009C318.101 300.109 320.111 299.969 322.451 299.799L322.881 299.769C324.331 299.669 325.971 299.559 328.241 299.479C328.381 299.469 328.521 299.519 328.641 299.619C328.771 299.729 328.841 299.889 328.851 300.049C328.851 300.209 328.801 300.349 328.691 300.469C328.581 300.589 328.431 300.649 328.271 300.659C325.811 300.749 324.091 300.869 322.531 300.979C320.671 301.109 319.081 301.219 316.721 301.219C315.801 301.219 315.001 301.209 314.201 301.179C312.181 301.029 311.111 300.409 310.531 299.039C310.501 298.969 310.431 298.919 310.351 298.919C310.271 298.919 310.201 298.959 310.171 299.029C309.581 300.399 308.521 301.019 306.521 301.169C305.701 301.199 304.891 301.209 303.961 301.209C301.601 301.209 299.921 301.089 298.161 300.969C296.611 300.859 294.881 300.739 292.421 300.649C292.261 300.649 292.111 300.579 292.011 300.469V300.489ZM311.021 344.379C311.021 344.709 310.751 344.969 310.431 344.969H310.271C309.941 344.969 309.681 344.709 309.681 344.379V314.809C309.681 314.479 309.941 314.219 310.271 314.219H310.431C310.761 314.219 311.021 314.479 311.021 314.809V344.379ZM310.951 308.159C310.951 308.159 310.951 308.229 310.951 308.269C310.971 308.779 310.971 309.299 310.971 309.789V310.129C310.971 310.459 310.701 310.719 310.371 310.719H310.321C309.991 310.719 309.721 310.459 309.721 310.129V309.789C309.721 309.279 309.721 308.759 309.741 308.239V308.189C309.661 306.249 309.321 304.899 307.901 304.579C305.581 304.059 299.191 303.429 296.371 303.429H296.011C295.871 303.439 295.731 303.389 295.621 303.289C295.501 303.179 295.421 303.019 295.421 302.849C295.421 302.679 295.481 302.539 295.591 302.429C295.701 302.319 295.851 302.249 296.011 302.249C298.751 302.189 305.691 302.869 308.181 303.429C309.081 303.639 309.741 304.099 310.191 304.839C310.231 304.899 310.291 304.929 310.351 304.929C310.411 304.929 310.481 304.889 310.511 304.839C310.951 304.099 311.611 303.639 312.511 303.429C314.971 302.869 321.921 302.209 324.681 302.249C324.841 302.249 324.991 302.319 325.101 302.429C325.211 302.539 325.271 302.689 325.261 302.849C325.261 303.009 325.191 303.169 325.061 303.279C324.951 303.379 324.821 303.429 324.681 303.429H324.641C322.091 303.359 315.221 304.019 312.771 304.579C311.361 304.899 311.011 306.239 310.931 308.159H310.951Z" fill="#4B6738"/>
<path d="M299.261 93.6094C299.831 93.2194 300.541 92.7392 301.82 93.1689C303.42 93.1289 315.75 92.9598 323.42 97.3896C331.06 101.81 337.54 107.479 332.94 128.009C332.85 128.429 332.43 128.7 332 128.6C332.07 128.809 332.13 128.959 332.19 129.079C332.89 128.999 334.03 129.039 335.04 129.829C336.55 131.009 337.17 133.359 336.91 136.829C336.53 141.839 335.54 144.79 333.79 146.1C332.95 146.729 331.94 146.989 330.71 146.899C330.57 148.28 330.19 151.05 329.25 153.02V153.109C329.27 155.001 329.4 166.3 329.67 169.77C330.53 170.589 333.83 173.689 335.7 174.619C337.03 175.279 340.721 176.819 344.011 178.189L344.141 178.249C344.54 178.419 344.931 178.58 345.301 178.729C347.08 179.469 348.56 180.089 349.32 180.439C350.83 181.129 352.871 182.699 354.351 183.859C354.98 184.349 355.7 184.909 355.891 184.999C356.241 185.159 358.021 185.619 359.57 186.009H359.61C359.77 186.049 359.93 186.089 360.09 186.129C360.42 186.209 360.73 186.289 360.99 186.359C361.56 186.509 362.06 186.629 362.4 186.719C362.48 186.739 362.61 186.759 362.79 186.789C362.85 186.789 362.911 186.809 362.971 186.819C378.47 189.309 384.84 199.889 387.44 208.329C387.76 209.469 388.111 210.319 388.551 211.399C389.501 213.709 390.921 217.19 393.44 226.719C393.63 227.339 393.871 227.729 394.23 228.159L394.261 228.189C394.461 228.419 394.691 228.669 394.971 228.959C397.151 231.229 401.2 235.46 410.17 256.489C411.18 258.919 412.47 260.259 415.03 262.909L415.061 262.939C416.951 264.899 419.53 267.579 423.12 271.869C429.2 279.129 435.331 294.199 440.261 306.319L440.28 306.369C442.3 311.349 444.211 316.05 445.851 319.56C448 323.419 449.1 326.83 450.25 330.43V330.469C451.56 334.529 452.911 338.729 455.94 344.419L456.021 344.589L456.04 344.629L456.15 344.619C458.45 349.099 458.5 349.199 458.61 351.479H458.58C458.62 352.369 458.68 353.619 458.94 355.749C459.82 362.988 459.651 365.529 459.551 367.049V367.149C459.45 368.65 457.48 375.519 457.25 376.289C457.16 376.599 456.89 376.82 456.57 376.85C456.476 376.85 454.308 377.027 452.87 375.489C452.36 374.949 452.031 374.259 451.851 373.459C451.131 373.419 450.05 373.229 449.29 372.449C448.57 371.699 448.31 370.639 448.53 369.299C448.88 367.189 448.76 366.099 448.61 364.709C448.51 363.769 448.401 362.699 448.431 361.169C448.461 359.909 448.09 359.159 447.62 358.229V358.209C446.87 356.739 445.97 354.919 446.36 350.669C446.17 350.429 445.97 350.229 445.79 350.079C445.93 352.689 445.94 357.929 443.96 360.159C443.33 360.869 442.55 361.239 441.65 361.259C437.311 361.329 437.131 357.319 436.931 352.64V352.6C436.881 351.42 436.83 350.189 436.71 348.909C436.23 345.189 435.65 343.309 434.58 342.009C433.07 340.179 431.78 336.148 434.42 332.549C434.59 332.229 434.22 331.209 433.521 329.899C433.501 329.87 433.491 329.839 433.471 329.819C432.751 328.489 431.7 326.859 430.54 325.339C427.01 321.679 424.16 319.52 421.4 317.43H421.391C417.431 314.42 413.67 311.579 408.2 304.799C402.25 297.419 400.53 293.839 398.71 290.039C397.64 287.789 396.53 285.479 394.48 282.199C390.911 277.13 376.332 257.781 374.511 256.109C374.331 255.939 374.13 255.769 373.92 255.579C373.88 255.539 373.83 255.499 373.78 255.459C372.09 253.949 369.461 251.589 367.511 248.1C366.551 252.29 363.76 261.95 356.271 276.249C352.151 284.379 353.31 292.979 354.45 301.299L354.471 301.479C354.771 303.679 355.081 305.939 355.261 308.119C355.551 311.539 356.051 315.999 356.641 320.659V320.85C356.661 321.029 356.69 321.219 356.71 321.409C356.73 321.589 356.76 321.779 356.78 321.969C356.78 321.999 356.79 322.039 356.79 322.069C358.02 331.639 359.56 341.668 360.4 344.969C360.46 345.209 360.55 345.539 360.66 345.969C364.93 361.989 373.061 399.78 367.141 437.39C367.141 437.449 367.14 437.51 367.12 437.569C367.12 437.609 367.1 437.65 367.09 437.689C367.09 437.719 367.08 437.759 367.07 437.789C366.14 443.609 364.87 449.42 363.19 455.14C363.3 463.949 363.88 465.98 364.4 467.77C364.57 468.349 364.74 468.959 364.88 469.739C365.16 471.239 365.211 472.53 365.261 473.77V473.799C365.311 475.179 365.37 476.61 365.74 478.35C365.83 478.76 366.12 479.58 366.49 480.6C369.09 487.86 376 507.15 370.311 539.319C370.011 542.669 369.58 546.199 369.17 549.619L369.141 549.899C368.051 558.939 367.03 567.47 368.03 572.85C368.81 577.479 369.141 579.489 369.221 581.959C369.851 583.829 372.941 588.709 374.811 591.649L375.04 592.009C375.55 592.808 375.98 593.489 376.25 593.929C376.66 594.619 376.891 595.129 377.061 595.539C377.441 596.429 377.651 596.919 379.721 598.569C380.121 598.889 380.541 599.219 380.971 599.549L381 599.569C383.9 601.839 387.511 604.669 389.471 608.959C390.561 611.559 390.17 613.03 389.66 613.81C389.25 614.439 388.61 614.839 387.83 615.009C387.73 615.419 387.53 615.949 387.101 616.369C386.841 616.629 386.4 616.92 385.75 617.02C385.52 617.57 385.05 618.379 384.2 618.869C383.57 619.229 382.86 619.359 382.08 619.239C381.6 619.759 380.629 620.599 379.34 620.749C378.46 620.859 377.6 620.619 376.78 620.06C375.97 620.69 374.31 621.749 372.221 621.749C371.961 621.749 371.7 621.739 371.431 621.699C368.941 621.379 366.691 619.569 364.761 616.319C363.32 615.809 357.49 613.368 357.99 607.209C358.03 605.819 356.59 604.929 353.801 603.359L353.36 603.109C350.01 601.209 348.05 599.539 349.83 589.379C350.13 587.019 349.8 584.449 349.66 583.589C348.92 582.919 347.591 580.838 348.15 574.619C348.82 567.159 349.45 560.119 340.181 530.689C339.741 529.24 339.141 528.399 338.511 527.52C336.491 524.71 334.391 521.809 337.19 501.649C338.86 486.899 338.73 486.699 337.23 484.179V484.159C336.91 483.619 336.511 482.949 336.051 482.049C335.851 481.639 335.621 481.229 335.391 480.829L335.33 480.729V480.719C334.97 480.079 334.59 479.439 334.19 478.779C331.47 474.209 328.081 468.519 327.181 456.899C326.781 451.769 326.09 446.609 325.13 441.449C324.92 440.429 324.731 439.449 324.561 438.509C323.591 433.829 322.4 429.159 320.98 424.52C320.5 422.93 319.69 420.719 318.75 418.149V418.129C315.76 409.969 311.25 397.649 310.63 387.52C310.58 385.91 310.551 384.489 310.521 383.249V383.219C310.481 381.169 310.44 379.309 310.32 378.129C310.21 379.299 310.17 381.149 310.13 383.199V383.219C310.1 384.469 310.071 385.89 310.021 387.479C309.39 397.619 304.89 409.929 301.91 418.089V418.129C300.96 420.699 300.15 422.909 299.66 424.499C298.24 429.129 297.05 433.8 296.09 438.479C295.92 439.429 295.721 440.429 295.511 441.459C294.551 446.609 293.871 451.76 293.471 456.89C292.571 468.509 289.18 474.189 286.46 478.759C286.39 478.879 286.331 478.99 286.261 479.1C285.941 479.649 285.62 480.179 285.33 480.709V480.719L285.24 480.869C285.02 481.259 284.81 481.649 284.61 482.039C284.16 482.939 283.761 483.609 283.431 484.149V484.169C281.911 486.689 281.79 486.89 283.46 501.659C286.25 521.799 284.16 524.699 282.13 527.509V527.529C281.49 528.409 280.89 529.239 280.46 530.669C271.18 560.099 271.82 567.15 272.49 574.6C273.05 580.819 271.73 582.899 270.98 583.569C270.85 584.43 270.52 587.01 270.82 589.39C272.59 599.509 270.63 601.189 267.28 603.089L266.84 603.339C264.06 604.909 262.6 605.8 262.65 607.229C263.16 613.349 257.33 615.789 255.88 616.299C253.94 619.549 251.7 621.36 249.21 621.68C248.94 621.71 248.68 621.729 248.42 621.729C246.32 621.729 244.66 620.669 243.86 620.039C243.041 620.589 242.171 620.829 241.301 620.729C240.011 620.579 239.041 619.739 238.561 619.219C237.781 619.339 237.07 619.219 236.44 618.85C235.591 618.35 235.121 617.549 234.891 616.999C234.241 616.899 233.81 616.61 233.54 616.35C233.11 615.93 232.911 615.409 232.811 614.989C232.031 614.829 231.39 614.419 230.98 613.789C230.47 613.009 230.08 611.539 231.16 608.959C233.13 604.639 236.74 601.809 239.65 599.539H239.66C240.09 599.189 240.51 598.869 240.91 598.549C242.97 596.899 243.18 596.409 243.57 595.529L243.59 595.479C243.76 595.08 243.981 594.579 244.391 593.909C244.701 593.389 245.21 592.589 245.82 591.619C247.68 588.689 250.78 583.81 251.41 581.939C251.49 579.47 251.821 577.449 252.601 572.839C253.6 567.449 252.58 558.919 251.49 549.879L251.44 549.499C251.03 546.109 250.611 542.619 250.311 539.239C244.631 507.14 251.541 487.849 254.141 480.589L254.17 480.499C254.52 479.519 254.8 478.739 254.88 478.339C255.24 476.599 255.3 475.169 255.36 473.789C255.41 472.539 255.46 471.239 255.74 469.729C255.88 468.94 256.061 468.349 256.221 467.759C256.731 465.959 257.321 463.938 257.431 455.119C255.751 449.399 254.491 443.579 253.551 437.77C253.531 437.7 253.52 437.629 253.5 437.549C253.48 437.489 253.48 437.429 253.48 437.369C247.551 399.769 255.69 361.969 259.96 345.949C260.07 345.519 260.161 345.189 260.221 344.949C261.061 341.649 262.6 331.619 263.83 322.049C263.83 322.009 263.83 321.969 263.84 321.93C263.89 321.56 263.94 321.189 263.98 320.819V320.729C263.98 320.71 263.98 320.679 263.99 320.659V320.619C264.58 315.969 265.08 311.509 265.37 308.089C265.56 305.849 265.88 303.529 266.19 301.27C267.32 292.96 268.49 284.359 264.36 276.209C256.881 261.909 254.09 252.259 253.13 248.069C251.18 251.569 248.54 253.93 246.851 255.43L246.761 255.509C246.531 255.709 246.32 255.909 246.12 256.079C244.309 257.751 229.72 277.109 226.13 282.209C224.1 285.459 222.99 287.769 221.92 290.009C220.1 293.809 218.39 297.4 212.431 304.779C206.951 311.569 203.2 314.409 199.23 317.419C196.471 319.509 193.61 321.679 190.08 325.329C187.73 328.379 185.861 331.889 186.221 332.569C188.84 336.139 187.55 340.169 186.04 341.999C184.97 343.299 184.39 345.18 183.91 348.93C183.8 350.139 183.75 351.33 183.7 352.479V352.659C183.5 357.329 183.32 361.309 178.98 361.249C178.081 361.229 177.3 360.859 176.67 360.149C174.69 357.919 174.69 352.689 174.84 350.069C174.65 350.229 174.46 350.419 174.271 350.659C174.66 354.909 173.76 356.729 173.021 358.199C172.541 359.149 172.17 359.889 172.2 361.169C172.23 362.669 172.12 363.72 172.03 364.64V364.709C171.88 366.089 171.76 367.179 172.11 369.299C172.33 370.649 172.07 371.709 171.351 372.449C170.591 373.229 169.51 373.429 168.79 373.459C168.61 374.259 168.27 374.939 167.771 375.489C166.341 377.039 164.161 376.86 164.07 376.85C163.75 376.819 163.481 376.589 163.391 376.289C163.161 375.519 161.18 368.65 161.08 367.149V367.049C160.98 365.529 160.821 362.988 161.69 355.749C161.95 353.649 162.011 352.419 162.051 351.509V351.459C162.161 349.179 162.211 349.089 164.53 344.579V344.56L164.62 344.409C167.65 338.729 169.001 334.519 170.301 330.459C171.451 326.829 172.55 323.419 174.74 319.489C176.34 316.079 178.221 311.449 180.221 306.529L180.29 306.35C185.22 294.21 191.36 279.119 197.45 271.839C201.05 267.549 203.631 264.869 205.521 262.909C208.1 260.239 209.4 258.899 210.41 256.469C219.389 235.431 223.44 231.21 225.62 228.939L225.66 228.89C225.92 228.62 226.14 228.389 226.33 228.169C226.331 228.167 226.341 228.149 226.351 228.14C226.711 227.7 226.95 227.299 227.15 226.659C229.65 217.19 231.081 213.699 232.021 211.399V211.369L232.04 211.35C232.48 210.28 232.831 209.429 233.141 208.319C235.751 199.859 242.11 189.279 257.62 186.799H257.69C257.92 186.749 258.1 186.719 258.19 186.699C258.4 186.639 258.67 186.579 258.99 186.499C259.18 186.449 259.381 186.4 259.601 186.35C259.97 186.26 260.41 186.149 260.88 186.029C260.92 186.019 260.96 186.009 261 185.999C262.549 185.609 264.339 185.15 264.7 184.979C264.88 184.89 265.571 184.359 266.19 183.879L266.24 183.839C267.72 182.689 269.761 181.109 271.271 180.419C272.081 180.059 273.731 179.369 275.681 178.549C275.93 178.439 276.191 178.339 276.45 178.229L276.79 178.089C280.03 176.739 283.59 175.259 284.891 174.619C286.76 173.689 290.069 170.59 290.92 169.77C291.19 166.3 291.32 155.001 291.34 153.109V153.02C290.41 151.05 290.03 148.28 289.88 146.899C288.65 146.999 287.641 146.729 286.801 146.1C285.061 144.79 284.061 141.839 283.681 136.829C283.421 133.359 284.051 131.009 285.551 129.829C286.081 129.419 286.64 129.209 287.16 129.119C287.11 129.049 287.07 128.969 287.04 128.89V128.869C286.9 128.438 284.93 122.299 284.44 117.119C283.97 112.159 285.72 103.26 289.08 100.689C289.15 100.4 289.2 99.8695 288.811 99.5195C288.281 99.0497 288.111 98.3993 288.37 97.7695C288.83 96.6296 290.54 95.8894 292.54 95.9492C292.7 95.9492 292.8 95.9495 292.86 95.9297C292.86 95.8998 292.86 95.8592 292.87 95.8193C292.87 95.7896 292.87 95.7593 292.88 95.7295C292.92 95.3596 293.001 94.7489 293.57 94.3389C294.25 93.859 295.371 93.8096 297.33 94.1895C298.33 94.2394 298.771 93.9388 299.23 93.6289L299.261 93.6094ZM256.19 479.52C256.05 479.949 255.871 480.46 255.641 481.1C253.08 488.27 246.281 507.28 251.891 539.029C252.221 542.579 252.65 546.19 253.08 549.689V549.749C254.19 558.889 255.221 567.509 254.181 573.109C253.401 577.709 253.081 579.669 253.011 582.089C253.011 582.159 253 582.229 252.98 582.289C252.37 584.289 249.26 589.189 247.19 592.449L246.98 592.789C246.471 593.589 246.05 594.259 245.78 594.709C245.43 595.299 245.24 595.72 245.08 596.1L245.061 596.14C244.571 597.279 244.2 597.96 241.94 599.77C241.541 600.099 241.111 600.43 240.681 600.77C237.761 603.059 234.45 605.64 232.65 609.6C231.811 611.629 232.101 612.569 232.351 612.949C232.65 613.409 233.18 613.509 233.58 613.52C234.02 613.52 234.361 613.889 234.351 614.319C234.351 614.49 234.421 614.989 234.7 615.259C234.88 615.429 235.131 615.509 235.48 615.489C235.88 615.469 236.19 615.729 236.271 616.089C236.274 616.102 236.545 617.102 237.29 617.529C237.68 617.749 238.141 617.789 238.69 617.629C239.01 617.539 239.35 617.67 239.54 617.93C239.611 618.031 240.431 619.079 241.521 619.199C242.072 619.26 242.608 619.084 243.162 618.664L243.46 618.42C243.769 618.192 244.209 618.227 244.48 618.499C244.5 618.519 246.501 620.479 249.051 620.149C251.091 619.879 252.991 618.249 254.69 615.289C254.79 615.109 254.96 614.979 255.16 614.919C255.42 614.849 261.57 613.039 261.101 607.35C261.011 604.87 263.25 603.609 266.08 602.009L266.521 601.759C269.19 600.249 270.96 599.239 269.29 589.649C268.891 586.484 269.478 583.169 269.5 583.02C269.55 582.77 269.711 582.559 269.94 582.449C270.051 582.349 271.5 581.018 270.931 574.77C270.251 567.16 269.601 559.959 278.971 530.239L278.98 530.229C279.48 528.55 280.19 527.569 280.87 526.619H280.86C282.7 524.049 284.61 521.399 281.9 501.859C280.84 492.53 280.481 488.8 280.761 486.64C277.751 489.519 274.341 491.129 271.011 491.129H270.851C267.051 491.069 263.83 488.999 261.771 485.289C259.791 481.739 258.61 480.27 256.19 479.52ZM364.49 479.52C362.081 480.26 360.89 481.739 358.91 485.289C356.85 488.999 353.63 491.079 349.84 491.129H349.681C346.341 491.129 342.94 489.529 339.931 486.649C340.201 488.809 339.84 492.54 338.79 501.85C336.08 521.409 337.99 524.059 339.83 526.619C340.51 527.569 341.221 528.549 341.721 530.239C351.081 559.949 350.44 567.139 349.75 574.749C349.162 581.287 350.77 582.451 350.801 582.459C351.041 582.569 351.15 582.749 351.2 582.999V583.02C351.261 583.352 351.8 586.55 351.42 589.589C349.74 599.218 351.501 600.22 354.181 601.729L354.61 601.979C357.44 603.579 359.68 604.839 359.601 607.289C359.122 613.027 365.444 614.882 365.54 614.899C365.74 614.959 365.911 615.089 366.011 615.259C367.721 618.219 369.611 619.849 371.65 620.119C374.203 620.458 376.189 618.5 376.23 618.469C376.52 618.169 377.001 618.16 377.311 618.43C377.95 618.989 378.561 619.239 379.19 619.169C380.324 619.05 381.161 617.922 381.181 617.899C381.371 617.64 381.71 617.51 382.03 617.6C382.58 617.75 383.051 617.719 383.431 617.499C384.173 617.073 384.445 616.09 384.45 616.06C384.54 615.7 384.84 615.459 385.24 615.469C385.59 615.489 385.851 615.409 386.021 615.239C386.31 614.969 386.37 614.469 386.37 614.289C386.37 613.859 386.711 613.509 387.141 613.499C387.53 613.499 388.06 613.389 388.37 612.93C388.62 612.55 388.92 611.609 388.061 609.56C386.271 605.63 382.96 603.039 380.04 600.749C379.92 600.649 379.79 600.549 379.67 600.449C379.37 600.209 379.07 599.979 378.78 599.749C376.52 597.929 376.16 597.259 375.66 596.119C375.5 595.739 375.31 595.299 374.94 594.689C374.67 594.239 374.25 593.579 373.74 592.77L373.53 592.429C371.46 589.179 368.351 584.27 367.74 582.27C367.72 582.2 367.7 582.139 367.7 582.069C367.62 579.649 367.3 577.679 366.521 573.069C365.471 567.479 366.52 558.849 367.61 549.719V549.669C368.04 546.169 368.47 542.549 368.79 539.069C374.42 507.25 367.611 488.239 365.051 481.079C365.011 480.949 364.96 480.829 364.92 480.709V480.729C364.75 480.26 364.61 479.859 364.5 479.52H364.49ZM259.011 456.77C258.851 464.439 258.28 466.419 257.771 468.189C257.611 468.759 257.45 469.299 257.32 470.009C257.07 471.419 257.021 472.6 256.971 473.85C256.921 475.119 256.87 476.439 256.59 478.009C259.6 478.909 261.07 480.759 263.17 484.539C264.95 487.739 267.691 489.529 270.891 489.579C275.48 489.619 280.271 486.189 283.771 480.319C283.78 480.299 283.8 480.259 283.82 480.229C283.84 480.19 283.871 480.14 283.891 480.1L283.91 480.06V480.049C284.29 479.369 284.7 478.689 285.12 477.979C287.54 473.91 290.51 468.929 291.66 459.409C289.44 465.609 285.68 472.109 279.65 472.109H279.511C272.801 471.999 271.48 466.279 270.521 462.109C270.101 460.299 269.67 458.429 268.94 458.089C268.67 457.969 268.27 458.029 267.75 458.289C265.23 459.519 263.14 459.679 261.351 458.81C260.441 458.36 259.671 457.669 259.011 456.77ZM361.69 456.759C361.031 457.649 360.26 458.349 359.351 458.799C357.561 459.679 355.47 459.509 352.95 458.279C352.42 458.019 352.02 457.959 351.75 458.079C351.02 458.42 350.59 460.289 350.17 462.089V462.119C349.2 466.289 347.88 471.999 341.181 472.109H341.04C335.01 472.109 331.25 465.619 329.03 459.419C330.18 468.929 333.14 473.91 335.57 477.979L335.601 478.029C336.011 478.729 336.41 479.399 336.79 480.069V480.089C336.79 480.089 336.831 480.149 336.851 480.179C336.881 480.239 336.91 480.289 336.94 480.339C340.39 486.119 345.15 489.569 349.67 489.569H349.811C353.01 489.519 355.75 487.739 357.53 484.539C359.64 480.749 361.101 478.899 364.11 477.999C363.83 476.429 363.78 475.109 363.73 473.839V473.81C363.68 472.57 363.63 471.389 363.38 469.999C363.25 469.289 363.101 468.749 362.931 468.179C362.421 466.409 361.85 464.418 361.69 456.759ZM265.29 323.409C264.1 332.499 262.661 341.939 261.801 345.339L261.761 345.489C261.701 345.709 261.63 346 261.53 346.35C257.28 362.31 249.161 400.04 255.141 437.459C255.501 439.099 255.83 440.77 256.15 442.39V442.419C257.52 449.299 258.801 455.799 262.061 457.399C263.37 458.049 265.011 457.879 267.061 456.879C268.04 456.399 268.91 456.329 269.63 456.669C271.05 457.339 271.5 459.289 272.07 461.759C273.01 465.839 274.071 470.449 279.54 470.549H279.65C289.584 470.549 292.826 448.399 292.86 448.149V448.109C293.15 445.999 293.49 443.889 293.87 441.789C293.87 441.749 293.87 441.709 293.88 441.659C293.9 441.579 293.911 441.489 293.931 441.409C293.951 441.329 293.961 441.239 293.98 441.159C294.17 440.169 294.361 439.189 294.561 438.199L294.57 438.189C294.59 438.05 294.62 437.909 294.65 437.77C297.12 424.07 295.86 422.559 293.101 419.239C290.221 415.759 285.87 410.519 282.12 390.439C281.11 385 280.38 378.459 279.61 371.539C277.45 352.099 275.01 330.139 265.29 323.409ZM355.42 323.399C345.7 330.14 343.261 352.09 341.101 371.529C340.331 378.449 339.6 384.989 338.59 390.429C334.85 410.508 330.49 415.76 327.61 419.229C324.851 422.549 323.6 424.06 326.07 437.77L326.15 438.209C326.35 439.179 326.541 440.149 326.721 441.119L326.83 441.649C326.831 441.656 326.84 441.741 326.84 441.789C327.22 443.899 327.561 446 327.851 448.1V448.14C327.886 448.409 331.13 470.539 341.061 470.539H341.17C346.64 470.449 347.701 465.829 348.641 461.759C349.211 459.289 349.661 457.339 351.08 456.669C351.8 456.329 352.67 456.399 353.65 456.879C355.7 457.879 357.33 458.049 358.65 457.399C361.9 455.799 363.191 449.299 364.551 442.419L364.59 442.209C364.9 440.649 365.22 439.039 365.57 437.459C371.56 400.04 363.441 362.32 359.181 346.35C359.071 345.92 358.98 345.579 358.91 345.339V345.329C358.04 341.929 356.6 332.489 355.42 323.399ZM265.771 321.839C276.421 328.689 278.94 351.33 281.17 371.35V371.469C281.95 378.319 282.67 384.789 283.67 390.149C287.34 409.839 291.54 414.889 294.32 418.239C296.21 420.509 297.471 422.029 297.561 426.189C297.77 425.48 297.98 424.769 298.19 424.06C298.66 422.52 299.421 420.429 300.311 418.009L300.48 417.549C303.43 409.479 307.87 397.309 308.48 387.429L308.471 387.419C308.511 385.859 308.55 384.439 308.57 383.199V383.109C308.64 380.08 308.68 378.149 308.92 376.989C302.22 376.069 299.12 367.929 293.65 349.56C287.58 329.18 271.961 323.369 265.771 321.839ZM354.92 321.829C348.729 323.359 333.11 329.17 327.04 349.549C321.57 367.918 318.47 376.059 311.771 376.979C312.01 378.14 312.05 380.07 312.12 383.1V383.199C312.15 384.439 312.18 385.86 312.23 387.439C312.841 397.309 317.3 409.509 320.25 417.579L320.32 417.789C321.24 420.299 322.031 422.459 322.511 424.049C322.731 424.759 322.941 425.469 323.141 426.169L323.15 426.179C323.24 422.029 324.5 420.509 326.38 418.239C329.16 414.889 333.36 409.839 337.03 390.149C338.03 384.779 338.761 378.289 339.521 371.419V371.339C341.75 351.309 344.27 328.679 354.92 321.829ZM334.891 272.499C334.601 280.909 333.79 297.509 333.04 309.279C331.56 332.379 317.15 351.479 310.42 351.479H310.261C303.531 351.479 289.121 332.369 287.641 309.279C286.891 297.499 286.08 280.899 285.79 272.499C284.6 279.059 283.35 286.4 284.34 293.14C286.63 308.599 281.09 315.77 278.61 318.14C276.61 320.039 273.73 321.309 270.681 321.779C278.351 324.739 290.04 331.959 295.15 349.129C301.15 369.258 304.02 375.529 310.25 375.529H310.431C316.67 375.529 319.54 369.258 325.53 349.129C330.64 331.95 342.33 324.739 350 321.779C346.95 321.309 344.07 320.039 342.07 318.14C339.58 315.77 334.05 308.599 336.34 293.14C337.34 286.4 336.081 279.059 334.891 272.499ZM173.95 324.89C173.14 326.899 172.51 328.85 171.87 330.85L171.84 330.949C170.58 334.879 169.16 339.339 166.061 345.129L165.98 345.279C164.501 348.159 163.73 350.239 163.67 351.549C163.63 352.479 163.561 353.759 163.301 355.949C162.441 363.039 162.6 365.499 162.7 366.959V367.06C162.761 368.011 163.92 372.29 164.78 375.289C165.3 375.239 166.1 375.048 166.66 374.429C167.39 373.629 167.591 372.299 167.261 370.469C166.471 366.13 166.67 365.329 167.16 363.39C167.4 362.46 167.68 361.289 167.98 359.289C168.4 357.499 169.061 356.699 169.761 355.85C170.521 354.92 171.391 353.859 172.221 351.089C172.231 351.049 172.251 351.009 172.271 350.969C173.499 348.482 175.486 347.961 175.61 347.93C175.86 347.87 176.121 347.93 176.311 348.1C176.51 348.27 176.6 348.52 176.58 348.77C176.35 350.97 176.14 357.119 177.92 359.109C178.26 359.489 178.63 359.669 179.08 359.679H179.17C181.65 359.679 181.97 357.689 182.19 352.52C182.24 351.32 182.29 350.069 182.41 348.759C182.93 344.659 183.6 342.569 184.88 341.009C186.03 339.609 187.08 336.319 184.99 333.459C184.57 332.839 184.671 331.879 185.051 330.799C184.041 331.079 183.04 331.219 182.09 331.219C180.77 331.219 179.54 330.96 178.46 330.43C176.42 329.42 174.82 327.419 173.95 324.89ZM446.761 324.879C445.891 327.409 444.29 329.409 442.25 330.419C441.18 330.949 439.94 331.209 438.62 331.209C437.67 331.209 436.68 331.069 435.67 330.799C436.04 331.869 436.15 332.82 435.74 333.43C433.631 336.319 434.67 339.599 435.83 340.999C437.11 342.559 437.781 344.649 438.301 348.719C438.421 350.019 438.471 351.229 438.521 352.399V352.509C438.75 357.678 439.071 359.669 441.551 359.669H441.641C442.1 359.669 442.471 359.479 442.801 359.1C444.571 357.11 444.371 350.959 444.141 348.759C444.111 348.509 444.22 348.259 444.41 348.089C444.6 347.919 444.86 347.859 445.11 347.919C445.2 347.939 447.21 348.439 448.45 350.959C448.47 350.989 448.48 351.029 448.5 351.069C449.32 353.849 450.19 354.909 450.96 355.839V355.85C451.66 356.7 452.321 357.499 452.721 359.219C453.031 361.289 453.321 362.45 453.551 363.39C454.031 365.329 454.23 366.13 453.45 370.469C453.12 372.299 453.321 373.629 454.051 374.429C454.611 375.049 455.411 375.239 455.931 375.289C456.79 372.3 457.95 368.011 458.011 367.06V366.949C458.111 365.479 458.27 363.019 457.41 355.929C457.15 353.729 457.09 352.459 457.04 351.529C456.98 350.229 456.21 348.149 454.73 345.27L454.65 345.109C451.57 339.339 450.141 334.889 448.891 330.969L448.87 330.919C448.22 328.879 447.581 326.909 446.761 324.879ZM172.74 354.14C172.12 355.439 171.5 356.2 170.96 356.85C170.31 357.649 169.831 358.23 169.511 359.6C169.221 361.609 168.911 362.869 168.681 363.779C168.231 365.589 168.081 366.199 168.811 370.199C168.921 370.799 168.97 371.37 168.98 371.89C169.42 371.84 169.931 371.699 170.261 371.369C170.621 370.989 170.741 370.389 170.601 369.549C170.221 367.229 170.36 365.929 170.5 364.549C170.6 363.609 170.7 362.639 170.67 361.199C170.63 359.54 171.15 358.509 171.65 357.52C172.08 356.64 172.56 355.699 172.74 354.14ZM447.95 354.129C448.14 355.699 448.611 356.639 449.051 357.509C449.551 358.519 450.07 359.549 450.03 361.199C450 362.629 450.11 363.599 450.2 364.529V364.56C450.35 365.929 450.48 367.229 450.101 369.539C449.971 370.369 450.081 370.979 450.44 371.359C450.76 371.689 451.271 371.839 451.721 371.879C451.721 371.359 451.781 370.789 451.891 370.189C452.621 366.19 452.471 365.569 452.011 363.77L451.99 363.709C451.77 362.799 451.46 361.549 451.16 359.52C450.85 358.22 450.371 357.629 449.721 356.839C449.191 356.189 448.57 355.429 447.95 354.129ZM325.88 240.859C321.13 239.11 315.131 237.88 312.551 239.659C311.661 240.279 311.221 241.24 311.221 242.6C311.22 243.029 310.86 243.379 310.431 243.379H310.271C309.831 243.379 309.481 243.029 309.48 242.6C309.48 241.24 309.04 240.269 308.15 239.659C305.57 237.879 299.57 239.109 294.811 240.859C294.161 241.139 293.5 241.389 292.83 241.629C289.58 242.959 286.3 244.709 285.23 247.109C284.571 248.589 284.931 249.759 285.601 251.879C286.151 253.629 286.87 255.919 287.2 259.279C287.26 259.699 287.291 260.139 287.311 260.609C287.331 260.869 287.341 261.139 287.351 261.419C287.401 262.559 287.37 263.099 287.34 263.829V263.859C287.3 264.659 287.241 265.75 287.271 268.229C287.311 273.23 288.31 294.79 289.23 309.18C290.711 332.289 304.93 349.918 310.271 349.919H310.431C315.771 349.918 329.99 332.289 331.471 309.18C332.391 294.81 333.391 273.24 333.431 268.229V268.219C333.451 265.74 333.4 264.65 333.36 263.85V263.829C333.32 263.089 333.301 262.549 333.351 261.409C333.361 261.129 333.381 260.859 333.391 260.6C333.411 260.14 333.44 259.709 333.5 259.299C333.83 255.929 334.551 253.629 335.101 251.879C335.77 249.769 336.13 248.599 335.471 247.109C334.401 244.719 331.12 242.959 327.87 241.629C327.2 241.399 326.53 241.149 325.88 240.859ZM310.431 314.02C310.87 314.02 311.221 314.37 311.221 314.8V344.38C311.22 344.809 310.86 345.159 310.431 345.159H310.271C309.831 345.159 309.481 344.809 309.48 344.38V314.8C309.48 314.37 309.841 314.02 310.271 314.02H310.431ZM408.44 256.18C411.83 270.029 407.5 274.939 403.95 276.669C402.75 277.259 401.33 277.6 399.721 277.6C397.121 277.6 394.07 276.689 390.78 274.439C392.98 277.399 394.831 279.93 395.811 281.31C397.93 284.699 399.06 287.059 400.16 289.339C401.94 293.059 403.62 296.559 409.45 303.789C414.81 310.429 418.49 313.219 422.38 316.169C425.2 318.299 428.11 320.51 431.74 324.27L431.73 324.279C431.733 324.282 431.771 324.321 431.79 324.35C432.43 325.18 433.78 327.009 434.78 328.859C437.28 329.859 439.731 329.919 441.551 329.02C443.641 327.989 445.23 325.519 445.74 322.539C445.38 321.789 444.991 321.029 444.561 320.249C442.901 316.699 441.01 312.039 439 307.109L438.931 306.939C434.041 294.91 427.96 279.94 422.021 272.85C418.461 268.6 415.9 265.949 414.03 264.009L414.011 263.989C411.401 261.279 409.95 259.779 408.83 257.079C408.7 256.779 408.57 256.479 408.44 256.18ZM211.88 257.079C210.76 259.759 209.32 261.259 206.721 263.959L206.63 264.049C204.76 265.989 202.21 268.63 198.69 272.85C192.761 279.93 186.68 294.879 181.79 306.909V306.939C179.75 311.939 177.83 316.649 176.17 320.199C175.73 320.999 175.331 321.779 174.971 322.539C175.481 325.509 177.07 327.989 179.16 329.02C180.98 329.919 183.431 329.849 185.931 328.85C186.93 327 188.27 325.18 188.91 324.35C188.93 324.33 188.951 324.309 188.971 324.279C192.591 320.53 195.501 318.319 198.311 316.189L198.33 316.169C202.22 313.219 205.901 310.429 211.261 303.789C217.1 296.559 218.781 293.049 220.561 289.339L220.59 289.27V289.289C221.67 287.029 222.8 284.679 224.88 281.359C225.86 279.949 227.721 277.419 229.931 274.439C226.641 276.699 223.59 277.6 220.99 277.6C219.391 277.6 217.961 277.259 216.761 276.669C213.211 274.929 208.881 270.029 212.271 256.18C212.141 256.469 212.01 256.769 211.88 257.079ZM254.96 228.669C256.91 233.089 255.971 238.89 255.551 241.43C255.291 242.989 254.901 244.55 254.391 246.069C254.841 248.48 257.15 258.94 265.84 275.529C270.19 284.109 268.99 292.959 267.83 301.509L267.82 301.489C267.5 303.819 267.201 306.03 267.011 308.229C266.741 311.349 266.26 315.629 265.7 320.199C269.95 320.939 274.73 319.669 277.53 316.999C279.84 314.809 284.97 308.099 282.79 293.359C281.72 286.15 283.12 278.399 284.36 271.569V271.549C285.14 267.279 285.82 263.519 285.73 260.729C285.7 260.29 285.67 259.879 285.63 259.469C285.229 256.759 280.1 252.369 274.16 247.299C269.45 243.269 264.13 238.719 259.57 233.709C258.94 233.069 258.33 232.399 257.75 231.699C256.88 230.659 255.97 229.609 254.96 228.669ZM365.761 228.649C364.751 229.599 363.841 230.63 362.971 231.68C362.391 232.38 361.78 233.05 361.15 233.689C356.581 238.699 351.261 243.249 346.551 247.279L346.521 247.31C340.591 252.379 335.48 256.749 335.08 259.459C335.04 259.859 335 260.279 334.98 260.709C334.891 263.499 335.57 267.259 336.34 271.529C337.58 278.369 338.98 286.119 337.92 293.339C335.74 308.079 340.881 314.779 343.181 316.979C345.981 319.649 350.751 320.92 355.011 320.18C354.441 315.61 353.97 311.339 353.7 308.219C353.51 306.019 353.211 303.809 352.891 301.479V301.459H352.88C351.72 292.909 350.53 284.079 354.87 275.509C363.56 258.91 365.87 248.46 366.32 246.039C365.81 244.519 365.41 242.969 365.16 241.409C364.75 238.869 363.811 233.069 365.761 228.649ZM324.69 302.06H324.7C325.13 302.07 325.471 302.43 325.471 302.859C325.46 303.299 325.08 303.63 324.67 303.63C322.069 303.57 315.211 304.24 312.841 304.77C311.581 305.06 311.23 306.28 311.15 308.149C311.17 308.719 311.17 309.28 311.17 309.81V310.149C311.17 310.579 310.81 310.929 310.381 310.93H310.33C309.901 310.929 309.54 310.579 309.54 310.149V309.81C309.54 309.27 309.541 308.709 309.561 308.149C309.481 306.28 309.13 305.06 307.87 304.77C305.51 304.24 298.67 303.57 296.04 303.63C295.621 303.639 295.241 303.289 295.24 302.859C295.23 302.43 295.581 302.06 296.011 302.06C298.751 302.01 305.721 302.679 308.221 303.239C309.25 303.469 309.911 304.02 310.351 304.75C310.781 304.02 311.451 303.469 312.48 303.239C314.981 302.679 321.94 302.01 324.69 302.06ZM310.41 291.359C310.85 291.359 311.2 291.71 311.2 292.149C311.2 299.318 311.841 299.66 314.261 299.84C317.98 299.94 319.941 299.81 322.4 299.63H322.61L322.62 299.609C324.12 299.509 325.821 299.39 328.221 299.31C328.66 299.31 329.02 299.64 329.04 300.069C329.06 300.499 328.72 300.86 328.28 300.88C325.901 300.97 324.21 301.08 322.73 301.18H322.551C320.651 301.33 319.05 301.439 316.73 301.439C315.981 301.439 315.14 301.429 314.2 301.399C312.111 301.249 310.971 300.579 310.351 299.14C309.741 300.589 308.61 301.239 306.54 301.399C305.58 301.429 304.73 301.439 303.96 301.439C301.631 301.439 300.04 301.329 298.141 301.199C296.611 301.089 294.88 300.97 292.41 300.88C291.981 300.86 291.631 300.499 291.65 300.069C291.671 299.64 292.051 299.3 292.471 299.319C294.97 299.409 296.711 299.53 298.261 299.64C300.73 299.81 302.691 299.95 306.45 299.84C308.84 299.66 309.471 299.319 309.471 292.149C309.471 291.72 309.821 291.36 310.261 291.359H310.41ZM314.301 279.85C318.03 279.81 322.23 280.279 324.75 280.569C325.18 280.619 325.49 281.01 325.44 281.439C325.39 281.869 325.01 282.18 324.57 282.13H324.54C322.06 281.85 317.96 281.38 314.32 281.42C311.651 281.46 311.19 282.78 311.19 286.729C311.19 287.159 310.84 287.51 310.4 287.51H310.24C309.801 287.51 309.451 287.159 309.45 286.729C309.45 282.77 309 281.45 306.32 281.42H306.351C302.721 281.38 298.581 281.85 296.101 282.13C295.661 282.19 295.271 281.869 295.221 281.439C295.171 281.01 295.48 280.62 295.91 280.569C298.42 280.279 302.64 279.81 306.36 279.85C308.55 279.88 309.71 280.72 310.33 281.92C310.95 280.72 312.121 279.89 314.301 279.85ZM310.42 268.06C310.86 268.06 311.21 268.41 311.21 268.84C311.21 269.6 311.18 270.33 311.16 271.04L311.15 271.25V271.319C311.14 271.519 311.131 271.72 311.131 271.92C311.151 272.67 311.171 273.39 311.131 274.06C311.201 275.419 311.481 276.33 312.24 276.76C315.37 278.52 321.591 278.42 328.19 278.31H328.931L328.94 278.319C329.37 278.319 329.73 278.66 329.73 279.09C329.73 279.519 329.39 279.88 328.95 279.88L328.301 279.89H328.15C326.561 279.92 325.02 279.939 323.54 279.939C318.451 279.939 314.18 279.65 311.48 278.13C311.001 277.86 310.64 277.51 310.36 277.09C310.09 277.5 309.72 277.86 309.24 278.13C306.54 279.65 302.26 279.939 297.181 279.939C295.711 279.939 294.17 279.92 292.58 279.89L292.42 279.88H291.771C291.331 279.88 290.991 279.519 290.99 279.09C291 278.66 291.35 278.32 291.78 278.319H292.44C299.06 278.429 305.32 278.529 308.45 276.77C309.21 276.34 309.48 275.439 309.561 274.069C309.521 273.4 309.541 272.679 309.561 271.93C309.561 271.73 309.54 271.529 309.54 271.31V271.26C309.51 270.48 309.48 269.68 309.48 268.84C309.48 268.41 309.841 268.06 310.271 268.06H310.42ZM378.96 224.589C375.29 224.479 371.83 224.38 369.33 226.399C364.891 229.99 366.21 238.1 366.71 241.149C366.92 242.429 367.23 243.709 367.63 244.959C367.76 245.049 367.871 245.169 367.931 245.319C369.731 249.709 372.811 252.46 374.851 254.27C374.91 254.319 374.97 254.38 375.03 254.43C375.23 254.61 375.431 254.779 375.601 254.949C376.631 255.9 380.871 261.33 385.261 267.109C392.61 276.019 399.36 277.169 403.23 275.279C407.39 273.239 412.66 266.039 401.141 240.739C397.351 233.619 395.18 231.359 393.91 230.029C393.67 229.769 393.44 229.539 393.23 229.299C391.911 228.419 390.49 227.639 389.021 226.979C387.731 226.41 386.5 225.979 385.351 225.649C385.321 225.649 385.3 225.639 385.28 225.629C382.36 224.799 380.03 224.619 378.96 224.589ZM251.37 226.399C248.88 224.38 245.41 224.479 241.74 224.589C240.67 224.619 238.34 224.789 235.42 225.629H235.4C235.38 225.629 235.36 225.639 235.34 225.649C234.19 225.979 232.96 226.41 231.67 226.979C230.2 227.639 228.79 228.419 227.471 229.299C227.261 229.539 227.03 229.779 226.79 230.029C225.52 231.369 223.35 233.63 219.561 240.739C208.051 266.039 213.311 273.229 217.48 275.27C221.35 277.169 228.1 276.019 235.45 267.109C235.45 267.109 235.451 267.1 235.46 267.1C239.859 261.311 244.089 255.891 245.12 254.939C245.3 254.78 245.491 254.609 245.69 254.419C245.75 254.369 245.81 254.319 245.87 254.259L245.9 254.239C247.93 252.419 251 249.679 252.79 245.31L252.78 245.319C252.84 245.169 252.95 245.049 253.08 244.959C253.47 243.709 253.78 242.439 253.99 241.149C254.49 238.099 255.81 229.989 251.37 226.399ZM314.28 257.659C317.77 257.069 321.88 258.14 324.33 258.79L324.881 258.939C325.3 259.05 325.55 259.47 325.44 259.89C325.33 260.309 324.9 260.549 324.48 260.449L323.92 260.3C321.59 259.69 317.69 258.669 314.54 259.199C311.711 259.679 311.21 261.12 311.21 263.949C311.21 264.379 310.86 264.729 310.42 264.729H310.261C309.821 264.729 309.471 264.379 309.471 263.949C309.471 261.11 308.97 259.669 306.15 259.199C302.991 258.669 299.101 259.69 296.761 260.3L296.78 260.29L296.221 260.439H296.23C295.811 260.549 295.381 260.299 295.271 259.88C295.161 259.47 295.41 259.04 295.83 258.93L296.381 258.79C298.841 258.15 302.941 257.069 306.431 257.659C308.58 258.019 309.73 258.93 310.36 260.09C310.98 258.93 312.141 258.019 314.28 257.659ZM310.45 246.89C310.89 246.89 311.24 247.24 311.24 247.67C311.24 252.187 311.371 255.155 313.188 255.169C319.598 255.051 323.966 256.171 330.391 258.02C330.81 258.14 331.05 258.579 330.931 258.989C330.831 259.329 330.52 259.55 330.171 259.55C330.101 259.55 330.02 259.549 329.95 259.52C323.66 257.7 319.39 256.61 313.19 256.729C311.731 256.729 310.86 255.929 310.36 254.68C309.86 255.929 309.01 256.719 307.54 256.729C301.321 256.61 297.04 257.7 290.761 259.52C290.681 259.539 290.61 259.55 290.54 259.55C290.201 259.549 289.89 259.329 289.79 258.989C289.67 258.58 289.911 258.14 290.33 258.02C296.76 256.16 301.121 255.04 307.57 255.17C309.36 255.17 309.5 252.199 309.5 247.67C309.5 247.24 309.85 246.89 310.29 246.89H310.45ZM268.09 239.919C270.49 242.099 272.901 244.159 275.181 246.109C279.211 249.549 282.71 252.54 284.88 255.1C284.63 254.08 284.36 253.199 284.12 252.439L284.09 252.329C283.4 250.099 282.89 248.489 283.79 246.469C284.378 245.164 285.412 244.057 286.715 243.1C286.717 243.099 286.719 243.1 286.721 243.1L286.73 243.089C286.726 243.092 286.72 243.096 286.715 243.1C285.337 243.279 283.958 243.379 282.58 243.379C277.58 243.379 272.6 242.189 268.09 239.919ZM352.601 239.909C348.091 242.179 343.12 243.369 338.11 243.369C336.731 243.369 335.35 243.269 333.971 243.089C335.281 244.049 336.32 245.159 336.91 246.469L336.9 246.479C337.81 248.499 337.301 250.11 336.601 252.35L336.57 252.439C336.33 253.199 336.06 254.08 335.811 255.1C337.99 252.54 341.481 249.54 345.511 246.1C347.781 244.16 350.201 242.089 352.601 239.909ZM336.25 189.969C334.14 189.349 330.219 188.19 323.25 188.85C311.311 189.97 311.23 197.379 311.23 197.689V219.56C311.231 223.909 312.74 228.069 315.49 231.279C318.53 234.829 322.231 237.559 326.471 239.399L326.46 239.409C327.15 239.669 327.84 239.929 328.53 240.209C339.41 243.969 351.781 240.969 360.011 232.589C360.07 232.519 360.131 232.459 360.19 232.39C360.24 232.34 360.28 232.289 360.33 232.239L360.38 232.189C360.85 231.7 361.301 231.199 361.73 230.669C364.75 227.039 368.521 223.18 375.221 222.979C374.181 222.55 373.3 222.089 372.59 221.609C366.63 217.599 361.98 212.179 359.74 209.569C357.65 207.119 356.13 205.119 354.79 203.359L354.73 203.289C351.801 199.439 349.871 196.899 345.141 193.919C341.621 191.699 337.21 190.269 336.66 190.089C336.53 190.049 336.4 190.019 336.25 189.969ZM297.46 188.859C290.5 188.2 286.57 189.36 284.46 189.979C284.31 190.019 284.18 190.06 284.051 190.1C283.489 190.28 279.08 191.71 275.561 193.93C270.831 196.91 268.9 199.449 265.98 203.289C264.631 205.079 263.09 207.099 260.99 209.549C258.73 212.179 254.08 217.6 248.12 221.609C247.41 222.089 246.53 222.54 245.49 222.979C252.19 223.169 255.96 227.039 258.98 230.669C259.42 231.199 259.87 231.699 260.33 232.189C260.35 232.199 260.37 232.219 260.38 232.229L260.7 232.569C268.94 240.949 281.301 243.949 292.19 240.189C292.88 239.91 293.571 239.64 294.261 239.39C298.5 237.55 302.2 234.819 305.24 231.27L305.221 231.289C307.97 228.079 309.48 223.919 309.48 219.569V197.709C309.48 197.386 309.397 189.989 297.46 188.859ZM310.351 224.859C309.601 227.599 308.27 230.149 306.42 232.299C304.68 234.329 302.73 236.109 300.601 237.619C303.68 237.049 306.981 236.949 309.061 238.379C309.61 238.759 310.03 239.219 310.36 239.759C310.68 239.219 311.11 238.749 311.66 238.379C313.73 236.949 317.03 237.049 320.11 237.619C317.98 236.109 316.03 234.34 314.29 232.31H314.28C312.43 230.15 311.101 227.609 310.351 224.859ZM359.311 187.549C351.371 185.979 342.98 188.129 339.19 189.339C340.99 190.019 343.641 191.149 345.98 192.619C350.96 195.759 353.07 198.529 355.99 202.369L356.13 202.549C357.44 204.269 358.931 206.209 360.931 208.549C363.141 211.119 367.7 216.429 373.49 220.329C375.04 221.379 377.651 222.359 381.021 223.189C383.12 223.429 386.231 224.039 389.681 225.569C390.43 225.899 391.171 226.279 391.891 226.669C389.471 217.589 388.1 214.229 387.19 212.009C386.731 210.869 386.36 209.979 386.021 208.779C383.551 200.779 377.51 190.739 362.811 188.379H362.73C362.431 188.319 362.22 188.279 362.09 188.249C361.76 188.159 361.26 188.039 360.7 187.899C360.25 187.789 359.81 187.679 359.391 187.569L359.37 187.56H359.311V187.549ZM281.511 189.35C277.721 188.14 269.34 185.99 261.391 187.56H261.33C260.91 187.679 260.47 187.789 260.021 187.899C259.451 188.039 258.96 188.159 258.63 188.249C258.5 188.289 258.25 188.329 257.91 188.379C243.211 190.739 237.17 200.779 234.69 208.799V208.789C234.36 209.979 233.99 210.869 233.53 211.989C232.62 214.219 231.24 217.57 228.82 226.659C229.54 226.269 230.28 225.9 231.03 225.56C234.48 224.03 237.6 223.42 239.69 223.18C243.06 222.36 245.671 221.369 247.221 220.329C253.01 216.429 257.57 211.119 259.771 208.569C261.83 206.17 263.34 204.189 264.66 202.449L264.73 202.359C267.64 198.529 269.751 195.759 274.721 192.629C277.06 191.149 279.711 190.03 281.511 189.35ZM327.75 154.669C325.64 157.409 320.36 162.819 310.48 164.569H310.181C303.191 163.329 298.581 160.269 295.931 157.919C294.561 156.699 293.58 155.569 292.91 154.689C292.88 157 292.82 161.1 292.73 164.6L292.75 164.609V180.85C292.75 183.919 291.64 185.879 289.931 187.279C291.981 187.069 294.501 187.02 297.601 187.31C306 188.1 309.16 191.94 310.34 194.729C311.52 191.94 314.681 188.11 323.08 187.31C326.18 187.02 328.7 187.069 330.75 187.279C329.04 185.879 327.931 183.919 327.931 180.85V164.6C327.831 161.08 327.78 156.979 327.75 154.669ZM291.16 171.719C289.74 173.019 287.27 175.2 285.62 176.02C284.23 176.71 280.429 178.29 277.09 179.68C274.9 180.59 272.84 181.45 271.95 181.85V181.859C270.6 182.469 268.66 183.979 267.23 185.089C267.161 185.139 267.1 185.189 267.04 185.239C266.96 185.299 266.88 185.369 266.801 185.419C275.029 185.279 282.358 187.909 283.88 188.499C288.81 186.839 291.16 185.219 291.16 180.839V171.719ZM329.521 180.839C329.521 185.219 331.871 186.839 336.801 188.499C338.322 187.909 345.651 185.279 353.88 185.419C353.8 185.359 353.72 185.299 353.641 185.229C353.581 185.18 353.52 185.129 353.45 185.079L353.33 184.989C351.92 183.899 350.04 182.449 348.73 181.859C347.84 181.459 345.78 180.599 343.601 179.689C340.251 178.3 336.451 176.72 335.061 176.02V176.029C333.411 175.209 330.931 173.039 329.521 171.729V180.839ZM324.771 108.239C324.331 107.939 323.931 107.86 323.511 107.979C314.591 111.549 301.281 112.539 296.181 109.979C295.201 109.49 294.28 109.529 293.38 110.119C291.1 111.599 289.53 116.159 289.7 119.089C289.92 123.009 289.73 128.959 289.7 129.829V129.939C289.7 130.179 289.57 130.38 289.4 130.52C289.2 130.709 288.9 130.789 288.62 130.699C288.537 130.668 287.439 130.37 286.561 131.069C285.831 131.649 285.021 133.1 285.301 136.709C285.641 141.179 286.461 143.849 287.801 144.859C288.471 145.369 289.301 145.489 290.49 145.249H290.48C290.7 145.209 290.93 145.26 291.11 145.399C291.29 145.539 291.4 145.75 291.42 145.979C291.422 146.045 291.684 150.166 292.87 152.509C292.93 152.619 292.95 152.739 292.95 152.869V152.949C292.951 153.038 293.24 152.759 293.24 152.949C294.68 155.079 299.521 160.769 310.351 162.699C321.18 160.769 326.16 154.999 327.601 152.869C327.601 152.59 327.74 152.928 327.74 152.869C327.74 152.749 327.77 152.619 327.82 152.509C329.006 150.156 329.269 146.046 329.271 145.979C329.28 145.76 329.39 145.539 329.58 145.409C329.76 145.269 329.99 145.219 330.21 145.259C331.4 145.489 332.23 145.369 332.9 144.869C334.25 143.859 335.06 141.199 335.4 136.719C335.67 133.099 334.861 131.649 334.141 131.079C333.261 130.379 332.17 130.679 332.08 130.709C331.68 130.829 331.26 130.619 331.12 130.239C330.51 129.419 329.821 127.269 329.141 119.93C328.661 114.69 326.74 109.549 324.771 108.239Z" fill="black"/>
</svg>
