<svg width="620" height="714" viewBox="0 0 620 714" fill="none" xmlns="http://www.w3.org/2000/svg">
<path d="M309.659 146.5L309.259 170.61C309.109 171.39 302.499 176.74 301.289 177.68C294.309 183.12 279.799 192.93 270.739 192.09C270.029 192.03 266.739 190.53 265.569 190.15C264.139 189.69 262.629 189.45 261.189 189.04L287.119 176.15C296.729 171.11 291.729 158.1 292.959 149.34C296.239 150.42 299.389 148.2 302.649 147.43C303.619 147.21 309.299 146.14 309.659 146.5Z" fill="#DCBFEA"/>
<path d="M359.359 188.64C359.289 189.28 358.759 189.26 358.299 189.41C354.139 190.76 350.459 192.37 346.169 191.83C333.429 190.22 321.049 178.58 311.289 171.01V146.5C313.569 146.53 316.089 146.89 318.299 147.43C321.499 148.23 324.949 150.96 327.999 148.93V168.99C327.999 171.34 331.309 174.71 333.319 175.84L359.359 188.64Z" fill="#DCBFEA"/>
<path d="M263.98 588.625C264.32 586.585 263.671 581.787 266.44 583.256C266.9 583.746 264.761 594.666 264.331 596.266C264.001 597.476 262.92 602.296 261.39 601.846C260.821 601.426 260.741 601.225 260.841 600.526C261.031 599.316 262.32 596.656 262.69 595.046C263.18 592.986 263.63 590.715 263.98 588.625Z" fill="black"/>
<path d="M356.51 582.806C356.86 588.826 357.94 594.866 360.18 600.466C359.34 603.545 358.34 601.326 357.72 599.636C355.81 594.456 355.3 588.866 354.52 583.436L356.51 582.806Z" fill="black"/>
<path fill-rule="evenodd" clip-rule="evenodd" d="M289.281 105.776C296.381 95.126 316.89 94.896 326.9 101.196C335.35 106.516 336.161 117.496 334.621 126.476C334.721 126.976 336.62 127.406 337.23 127.995C339.75 130.455 338.16 135.485 337.14 138.375C335.88 141.985 334.191 145.356 330.421 146.776C330.971 153.335 329.74 160.926 330.44 167.365C330.82 170.895 333.061 172.456 335.871 174.115C341.651 177.545 348.8 180.446 354.89 183.556C356.77 184.516 362.34 188.185 363.741 188.535C366.641 189.245 370.72 189.086 374.11 189.966C387.52 193.456 395.5 206.655 395.64 220.045C395.67 223.325 394.54 227.286 394.4 230.566C394.25 234.406 395.821 234.626 397.461 237.646C403.31 248.366 402.081 259.046 405.791 269.865C406.931 273.185 409.46 275.626 411.27 278.596C420.43 293.626 418 307.526 421.01 324.016C423.12 335.596 427.71 344.186 428.61 356.155C429.57 368.805 428.891 376.246 422.581 387.405C420.941 390.316 415.151 399.005 411.291 395.655C407.161 392.055 413.77 381.216 414.32 376.356C414.47 375.026 414.251 367.596 412.131 368.096C410.551 368.478 410 381.075 403.97 381.085C400.791 381.095 401.181 377.926 401.331 375.596C401.551 372.256 402.09 367.636 402.6 364.306C403.54 358.236 406.41 352.095 410.9 347.835C411.65 346.195 409.321 341.796 408.461 340.136C400.281 324.246 386.971 317.275 383.531 298.495C382.011 290.216 383.19 284.836 378.841 277.226C376.511 273.166 373.52 269.486 371.11 265.466L366.291 254.266C365.401 260.366 363.261 266.346 359.701 271.405C358.231 273.505 355.04 276.256 354.15 278.446C350.85 286.566 351.8 308.525 352.89 317.615C353.2 320.175 354.68 322.856 355.18 325.466C356.18 330.756 355.92 336.586 356.52 341.966C357.75 353.136 361.76 362.846 363.72 373.696C367.23 393.155 366.72 417.565 363.31 437.045C362.08 444.085 360.041 449.716 360.161 457.035C360.271 463.255 360 470.316 360.57 476.486C360.97 480.835 364.221 486.976 365.581 491.346C372.761 514.366 366.33 527.836 363.85 550.205C362.4 563.275 361.67 573.766 364.72 586.596C365.24 588.786 365.371 592.566 366.341 594.306C368.471 598.106 376.56 599.546 380.15 602.856C383.8 606.216 382.311 609.256 378.211 611.066C369.651 614.846 354.591 618.026 345.501 615.836C338.941 614.266 338.891 610.565 339.411 604.486C339.571 602.536 340.651 599.895 340.591 598.035C340.51 595.786 338.621 593.186 338.281 591.016C337.381 585.396 340.191 580.345 340.621 574.905C342.391 552.456 329.49 527.525 330.85 506.045C331.24 499.845 333.951 491.626 333.701 485.806C333.491 480.876 329.661 472.195 328.531 466.615C327.531 461.676 327.49 456.716 326.591 451.936C324.94 443.166 320.351 433.475 318.341 424.085C315.051 408.655 315.4 389.216 310.76 374.896C310.631 374.476 310.66 373.676 310.07 373.776C305.84 394.366 305.62 415.046 299.68 435.346C298.12 440.686 295.36 446.646 294.36 451.936C293.47 456.706 293.37 461.615 292.35 466.545C290.48 475.615 286.641 481.386 287.72 490.995C288.29 496.005 289.76 501.015 290.1 506.045C291.53 527.005 279.351 551.726 280.341 574.096C280.591 579.846 283.61 585.136 282.68 591.016C282.33 593.236 280.71 595.216 280.57 597.736C280.19 604.396 286.181 613.466 275.461 615.836C268.181 617.456 259.34 616.155 252.22 614.205C249.75 613.525 241.491 610.926 239.991 609.356C233.952 603.006 249.37 598.866 252.6 596.356C256.41 593.386 255.061 591.376 255.991 587.566C258.301 578.076 258.85 573.066 258.35 563.146C257.1 538.396 247.45 516.816 255.07 492.256C256.5 487.626 259.991 480.966 260.381 476.486C260.941 470.156 260.691 463.006 260.791 456.636C260.931 448.606 258.46 441.996 257.23 434.216C254.19 415.036 253.81 390.306 257.64 371.256C259.05 364.216 261.8 357.366 263.1 350.356C264.49 342.856 264.23 335.205 265.31 327.835C265.9 323.775 268.17 319.775 268.51 316.035C269.41 306.065 269.821 294.395 268.461 284.495C267.351 276.396 265.01 276.696 261.091 270.756C257.291 264.986 256.791 260.915 254.871 254.665C254.751 254.275 254.79 253.736 254.26 253.856C253.8 257.186 252.36 260.625 250.8 263.585C247.97 268.985 240.581 277.176 239.291 282.516C237.841 288.506 238.051 295.385 236.541 301.665C232.871 316.995 220.14 325.966 212.9 339.736C211.97 341.486 209.271 346.525 210.06 348.236C218.83 356.125 218.18 367.775 219.98 378.455C219.68 380.285 218.09 381.336 216.27 380.986C211.551 380.085 210.901 371.175 209.031 367.696C205.791 370.885 206.291 375.656 207.291 379.756C208.081 382.987 214.18 395.196 208.331 396.386C204.231 397.215 199.07 388.606 197.48 385.466C191.93 374.496 191.481 368.786 192.341 356.556C193.191 344.516 197.211 337.315 199.541 326.045C202.971 309.435 200.171 295.275 208.97 279.915C212.33 274.046 214.521 272.906 216.251 265.676C218.531 256.116 218.541 246.466 223.491 237.646C224.151 236.476 226.6 233.516 226.791 232.806C227.141 231.526 225.861 226.306 225.751 224.476C224.491 203.646 235.281 188.936 257.001 188.316C265.851 182.546 278.11 178.965 286.73 173.316C289.5 171.496 290.281 169.395 290.531 166.165C291.011 160.075 290.191 153.325 290.461 147.165C289.671 146.286 288.66 146.316 287.65 145.506C284.69 143.126 281.741 133.916 282.541 130.266C283.221 127.226 286.14 127.196 286.411 126.386C285.711 119.396 285.211 111.896 289.281 105.776ZM271.57 522.446C271.25 530.045 263.801 535.936 256.711 531.356C257.551 537.526 258.8 543.656 259.51 549.846C261.27 565.276 261.651 577.876 257.741 592.966C256.211 598.866 249.96 600.105 245.43 602.585C238.411 606.435 241.231 607.796 247.11 609.966C254.41 612.656 270.13 616.275 277.18 612.695C281.66 610.425 277.84 601.765 277.93 598.045C277.991 595.415 279.86 592.965 280.23 590.615C280.99 585.816 278.981 582.195 278.341 577.696C277.651 572.806 278.181 566.556 278.751 561.596C279.391 556.066 280.76 550.636 281.55 545.136L277.6 557.205C274.37 569.975 272.651 582.316 274.741 595.466C275.041 597.386 277.19 600.746 273.831 600.216C267.891 576.926 276.351 553.526 284.001 531.766C282.551 532.116 282.27 533.035 280.56 532.995C274.531 532.865 272.36 527.485 271.57 522.446ZM349.381 522.446C348.901 528.685 344.061 535.515 337.371 531.766C344.661 553.596 353 577.006 347.14 600.226L345.56 599.556C349.34 582.136 345.821 564.726 340.831 547.966L339.411 544.325C340.901 555.105 344.31 567.206 342.61 578.106C341.95 582.356 340.1 585.576 340.73 590.196C341.1 592.885 343.031 595.616 343.081 598.426C343.14 602.096 339.631 610.106 343.591 612.466C350.541 616.606 369.291 612.216 376.581 609.046C377.761 608.536 379.04 608.035 379.69 606.835C380.379 604.155 370.881 600.816 369.01 599.756C366.181 598.146 363.961 595.786 363.211 592.556C359.601 576.896 359.621 565.856 361.451 549.846C362.161 543.646 363.381 537.526 364.251 531.356C357.081 536.025 349.891 530.085 349.381 522.446ZM270.501 470.245C266.671 469.716 265.351 472.236 263.961 475.186C257.271 489.386 251.42 509.036 255.6 524.556C257.05 529.936 260.701 533.376 266.211 529.676C270.631 526.706 270.611 514.416 271.491 509.396C272.321 504.616 274.151 499.446 274.581 494.646C275.311 486.356 273.611 477.885 270.501 470.245ZM356.991 475.186C356.051 473.226 353.89 469.155 351.091 469.835C350.161 470.066 349.41 472.576 349.07 473.526C343.96 487.725 347.07 495.666 349.47 509.396C350.34 514.366 350.391 526.746 354.741 529.676C358.931 532.486 363.13 531.105 364.85 526.486C370.25 512.056 363.521 488.686 356.991 475.186ZM348.36 470.596C345.24 470.936 339.39 472.346 337.97 475.446C336.39 478.905 336.29 486.505 335.68 490.585C334.05 501.445 330.25 519.496 337.44 529.056C340.36 532.946 345.1 530.425 346.44 526.405C351.14 512.315 343.4 500.706 344.27 486.986C344.62 481.616 346.3 475.546 348.36 470.596ZM272.591 470.186C275.68 478.906 277.361 486.966 276.211 496.266C275.541 501.596 273.34 507.306 272.98 512.506C272.74 516.026 273.531 526.755 275.991 529.196C278.861 532.055 282.111 531.315 284.171 528.085C292.57 514.885 284.341 491.065 283.201 476.446C281.941 471.956 276.3 471.736 272.591 470.186ZM294.8 382.295C289.861 384.135 284.39 385.476 279.11 385.516C278.73 392.196 278.591 398.886 278.291 405.566C277.881 414.675 277.22 423.535 277.89 432.705C278.91 446.715 282.68 459.746 284.02 473.606L286.031 480.316C288.151 473.176 290.441 466.045 291.281 458.585C292.001 452.165 291.9 445.635 292.55 439.196C294.43 420.676 298.95 402.005 295.39 383.295C295.3 382.826 295.23 382.565 294.8 382.295ZM325.55 382.686C325.68 385.066 324.941 387.436 324.741 389.776C323.261 406.956 326.73 422.756 328.4 439.606C329.02 445.916 328.951 452.346 329.631 458.636C330.431 466.056 332.65 473.266 334.93 480.316L336.93 473.205C337.04 465.405 339.59 457.995 340.9 450.415C343.55 435.085 343.15 422.146 342.64 406.806C342.41 399.706 342.44 392.576 341.85 385.516C336.271 385.776 330.98 383.536 325.55 382.686ZM277.07 386.736C267.671 394.136 265.551 407.276 264.451 418.535C262.801 435.305 263.601 452.396 262.841 469.196C262.801 470.025 262.451 470.626 262.411 471.405L263.331 470.096C267.201 456.676 275.041 443.205 275.871 429.085C276.191 423.525 275.621 417.635 275.831 412.035C276.081 405.585 276.831 399.075 277.091 392.625C277.17 390.665 277 388.685 277.07 386.736ZM266.081 468.966C271.401 466.856 276.971 469.556 281.961 471.396L276.26 438.585L266.081 468.966ZM339.001 471.396C344.051 469.636 350.121 466.286 355.291 469.375L344.291 438.995L339.001 471.396ZM343.89 386.736C344.34 394.926 344.41 403.086 344.68 411.256C345 420.916 344.61 430.835 346.85 440.295L358.14 470.585L357.72 455.415C357.3 440.236 357.861 424.316 355.161 409.346C353.651 400.956 350.96 392.136 343.89 386.736ZM306.81 375.795C303.94 378.375 300.45 380.056 297.01 381.736C298.73 393.646 298.6 405.756 297.44 417.726C296.63 425.976 294.86 434.176 294.19 442.446C294.15 442.885 293.891 443.955 294.581 443.856C296.921 435.836 299.61 427.905 300.98 419.625L306.81 375.795ZM314.421 376.136C313.861 375.796 313.651 375.456 313.751 376.386C314.221 380.696 315.521 385.396 316.121 389.825C318.121 404.525 318.8 419.506 323.31 433.726L326.77 443.856C324.57 423.096 320.591 402.426 323.871 381.516C320.141 380.786 317.43 377.946 314.421 376.136ZM298.251 327.795C295.55 314.356 273.281 308.016 268.631 323.446C266.551 330.365 267.11 340.065 266.01 347.575C264.6 357.145 260.86 366.105 259.27 375.705C256.43 392.795 256.941 413.885 259.211 431.035C259.751 435.185 260.72 439.325 261.39 443.455C262.05 430.686 261.831 417.146 264.72 404.636C266.44 397.206 269.66 390.436 275.44 385.316C263.851 381.865 264.271 368.445 265.781 358.696C267.891 345.136 273.621 329.355 289.501 327.585C291.781 327.335 294.841 327.585 297.241 327.585C297.323 327.588 297.991 328.424 298.251 327.795ZM351.031 320.276C345.271 309.046 324.85 315.546 323.1 327.386C322.921 328.614 323.589 327.597 323.72 327.585C326.28 327.485 328.891 327.585 331.461 327.585C332.271 327.585 336.14 328.815 337.171 329.196C347.95 333.176 351.981 344.036 354.201 354.396C356.461 364.996 358.3 380.856 345.51 385.316C352.89 391.856 355.71 401.055 357.26 410.495C359.04 421.365 359.07 432.475 359.57 443.455C361.98 433.835 362.591 423.955 363.031 414.085C363.681 399.826 363.831 385.326 360.871 371.256C359.281 363.656 356.301 356.416 355.001 348.736C353.631 340.646 354.431 326.926 351.031 320.276ZM236.741 283.835C234.081 285.595 230.56 286.325 228.82 289.125C228.35 292.325 227.74 295.455 226.93 298.585C223.42 312.145 213.661 333.676 201.831 341.686C200.301 342.726 196.801 343.936 196.201 345.405C195.711 346.585 195.35 349.855 195.19 351.295C193.68 365.125 193.83 374.346 200.82 386.596C202.53 389.586 204.361 392.026 207.22 394.016C208.6 394.336 208.27 391.007 208.18 390.216C207.38 383.316 202.601 379.475 204.501 371.075C204.911 369.245 207.511 363.056 209.881 365.035C213.73 368.245 212.281 375.605 216.581 378.625L217.57 378.006C215.73 367.256 216.15 356.485 207.3 348.535C205.752 344.385 218.19 327.017 221.1 323.176C224.38 318.836 228.61 314.925 231.11 310.035C235.24 301.935 235.271 292.605 236.741 283.835ZM384.22 283.835C385.06 290.595 385.32 297.515 387.27 304.085C390.36 314.485 400.02 322.495 406.06 331.585C407.92 334.375 414.95 345.776 413.76 348.646C413.46 349.376 409.73 352.586 408.73 354.196C404.16 361.515 404.991 369.926 403.421 378.035C403.671 379.705 406.12 377.086 406.56 376.346C408.34 373.356 409.941 357.976 415.251 367.825C417.611 372.205 417.031 376.066 415.791 380.655C414.601 385.025 411.54 389.426 412.73 394.026C415.73 393.496 418.071 390.135 419.581 387.665C426.21 376.826 427.081 369.016 426.171 356.556C426.011 354.326 425.391 345.595 424.121 344.415C423.511 343.845 422.001 343.435 421.161 342.905C404.981 332.665 395.25 307.295 392.14 289.115L390.3 286.896L384.22 283.835ZM297.711 329.955C295.891 329.345 293.95 329.205 292.06 329.325C285.791 329.736 279.381 332.596 275.451 337.526C267.991 346.866 259.501 383.705 278.501 383.936C286.241 384.026 307.191 378.025 309.081 369.335C310.291 363.765 310.23 347.356 308.23 342.176C306.8 338.476 301.541 331.215 297.711 329.955ZM346.911 339.776C342.611 332.756 334.631 328.656 326.281 329.325C320.041 329.836 314.11 337.896 312.32 343.396C310.8 348.086 310.951 359.506 311.281 364.676C311.631 370.275 312.401 372.286 316.86 375.726C322.25 379.876 335.281 384.005 342.031 383.915C360.93 383.655 352.961 349.676 346.911 339.776ZM298.881 294.785C297.481 298.605 295.71 302.335 294.48 306.205C293.93 307.945 292.451 312.016 292.531 313.606C292.651 316.195 296.52 319.595 297.921 322.045C299.27 324.425 299.821 327.075 301.18 329.335C302.8 332.025 305.58 333.966 307.39 336.535C308.66 338.345 309.401 340.375 310.68 342.165C311.82 336.686 317.75 333.216 320.18 328.926C321.45 326.666 322.011 323.946 323.43 321.636C326.43 316.766 329.491 317.055 327.791 310.165C325.541 301.095 320.44 291.945 316.94 283.285L311.291 272.896V323.936H309.661V272.486L298.881 294.785ZM218.01 285.056C211.111 298.316 207.971 313.035 203.041 327.085C201.311 332.005 199.11 336.766 197.64 341.766C205.31 338.346 210.35 330.836 214.4 323.806C220.11 313.926 224.37 302.735 226.55 291.535C225.181 291.865 224.18 293.026 222.64 293.136C220.611 293.276 219.38 292.335 218.93 290.405L218.01 285.056ZM402.55 285.045C403.28 291.765 401.06 295.295 394.4 291.535C396.31 301.845 400.18 311.916 405.19 321.115C409.4 328.845 415.03 338.036 423.32 341.766C419.93 333.156 416.781 324.456 413.951 315.646C410.651 305.406 408.95 293.825 402.55 285.045ZM251.4 223.066C234.291 226.396 225.261 233.456 221.451 250.596C220.031 256.996 219.59 266.375 217.1 272.205C215.76 275.335 211.89 279.486 210.05 283.016C204.321 294.036 205.11 301.026 204.15 312.795C203.92 315.575 203.26 318.346 202.93 321.106L211.18 295.486C212.19 290.426 217.231 284.625 218.631 280.205C219.68 276.895 219.33 271.736 220.23 268.016C223.35 255.076 237.76 260.346 236.291 271.835L232.461 283.426C237.79 281.446 238.721 277.106 241.461 272.926C244.261 268.656 247.66 264.805 249.72 260.075C255.09 247.765 252.59 235.926 251.4 223.066ZM369.55 223.066C369.26 233.555 366.611 242.895 369.01 253.375C370.87 261.465 374.701 265.916 379.091 272.526C380.5 274.666 382.121 278.426 383.621 280.176C384.951 281.715 387.47 282.316 388.9 283.835C389.47 283.615 388.9 283.025 388.81 282.705C387.72 278.805 384.71 273.495 384.31 269.745C383.331 260.606 396.77 256.096 400.4 266.325C402.14 271.235 401.28 277.636 402.65 281.506C403.63 284.306 408.48 288.876 408.97 292.636L418.02 321.106C415.73 309.026 417.42 297.545 412.39 285.995C410.22 280.996 405.71 276.485 403.97 272.486C401.451 266.656 400.921 257.036 399.501 250.596C395.761 233.626 386.5 226.326 369.55 223.066ZM350.8 282.216C343.131 292.376 336.22 303.256 330.841 314.825C332.47 314.275 334.001 313.566 335.72 313.196C340.93 312.056 346.43 312.436 350.4 316.245C349.9 304.916 348.561 293.436 350.8 282.216ZM271.791 296.176L270.97 315.835C276.46 311.156 283.83 312.385 290.11 314.625L283.51 301.946L270.56 282.216L271.791 296.176ZM366.291 229.955C356.561 240.435 340.981 243.705 328.001 237.245C324.721 249.415 317.92 260.276 313.31 271.896C314.9 275.746 317.18 279.456 318.97 283.285C323.25 292.425 326.061 301.456 329.831 310.575C329.991 310.955 329.881 311.495 330.43 311.375C336.1 299.755 343.331 288.916 350.881 278.436C357.691 268.996 361.551 266.386 363.781 253.986C365.181 246.186 365.691 237.865 366.291 229.955ZM254.671 229.955C256.301 241.155 255.691 253.756 260.3 264.256C262.88 270.136 267.23 274.166 270.89 279.245C278.16 289.345 285.08 300.216 290.52 311.386C291.14 311.326 291.14 310.766 291.31 310.346C292.57 307.096 293.43 303.626 294.69 300.346C298.37 290.806 302.761 281.555 307.451 272.495C307.901 271.396 307.261 270.376 306.881 269.386C305.231 265.086 302.2 260.455 300.22 256.155C297.4 250.016 295.04 243.695 292.57 237.415C292.203 237.159 286.949 239.596 285.64 239.896C274.18 242.475 262.55 238.315 254.671 229.955ZM398.591 266.905C395.91 259.106 386.231 262.476 386.22 268.646C386.211 271.346 391.671 285.485 393.411 287.856C394.791 289.756 397.601 291.505 400.05 291.075C400.231 290.954 400.821 288.167 400.871 287.636C401.301 283.166 400.051 271.185 398.591 266.905ZM234.6 269.556C234.38 265.756 231.42 261.795 227.27 262.455C225.88 262.675 224.3 263.646 223.52 264.816C221.57 267.766 220.62 278.175 220.43 281.995C220.36 283.495 220.021 290.573 221.52 291.085C223.99 291.355 225.861 289.776 227.3 288.016C229.77 285.016 234.83 273.266 234.6 269.556ZM312.52 174.245C312.111 173.945 312.01 173.466 311.291 173.646V270.865L317.881 257.776C327.261 238.656 331.841 217.666 339.631 197.976C341.28 195.906 343.441 194.536 345.921 193.696C337.791 192.255 330.451 187.945 323.791 183.285C319.811 180.505 316.33 177.115 312.52 174.245ZM309.661 173.236C308.951 173.066 308.85 173.526 308.44 173.846C306.15 175.586 303.88 178.046 301.48 179.886C293.65 185.896 284.751 191.436 275.031 193.696C278.061 195.065 280.671 196.416 282.161 199.575C289.711 221.985 295.891 245.016 307.01 266.016C307.76 267.446 308.701 269.196 309.661 270.466V173.236ZM281.55 203.625C273.651 211.165 264.79 218.276 254.31 221.896C253.87 224.815 254.341 226.146 256.091 228.335C264.08 238.415 280.33 241.655 291.69 235.575L281.55 203.625ZM338.991 203.875L329.281 235.566C340.051 241.755 358.071 238.095 365.241 227.905C366.111 226.665 367.46 223.175 366.64 221.905C366.476 221.654 361.99 220.136 360.98 219.636C353.38 215.776 346.68 210.516 340.381 204.856C339.961 204.466 339.8 203.625 339.8 203.625L338.991 203.875ZM373.621 192.476C363.101 189.766 355.82 192.426 346.121 196.325C344.161 197.105 338.931 199.396 340.6 202.216C341.311 203.436 345.98 207.345 347.36 208.476C352.67 212.806 359.74 217.326 366.19 219.726C374.94 222.976 385.081 223.746 391.951 230.766C395.041 215.346 390.68 196.876 373.621 192.476ZM264.031 192.486C258.321 190.896 254.741 190.846 248.951 192.066C230.611 195.906 225.941 213.886 229.001 230.356C236.03 223.916 245.18 223.245 253.65 220.236C261.52 217.446 271.441 210.765 277.491 205.045C279.761 202.895 281.97 201.295 278.9 198.356C277.379 196.905 266.661 193.216 264.031 192.486ZM309.661 146.495C309.298 146.136 303.62 147.206 302.65 147.426C299.39 148.196 296.24 150.415 292.961 149.335C291.731 158.095 296.731 171.106 287.121 176.146L261.19 189.035C262.63 189.445 264.14 189.686 265.57 190.146C266.74 190.526 270.03 192.025 270.741 192.085C279.801 192.925 294.311 183.116 301.291 177.676C302.501 176.736 309.11 171.386 309.26 170.606L309.661 146.495ZM311.291 171.006C321.051 178.576 333.431 190.215 346.171 191.825C350.46 192.365 354.141 190.755 358.3 189.405C358.76 189.256 359.29 189.276 359.36 188.636L333.32 175.835C331.31 174.705 328.001 171.335 328.001 168.986V148.926C324.951 150.956 321.5 148.226 318.3 147.426C316.091 146.886 313.571 146.525 311.291 146.495V171.006ZM285.591 129.726C283.981 131.886 286.881 140.975 288.671 142.865C289.09 143.305 289.411 143.805 290.11 143.665L286.85 129.486L285.591 129.726ZM330.85 143.665C333.56 142.635 337.34 130.757 335.3 129.506L334.11 129.486L330.85 143.665Z" fill="black"/>
</svg>
