<svg width="620" height="714" viewBox="0 0 620 714" fill="none" xmlns="http://www.w3.org/2000/svg">
<path d="M284.251 189.849C284.251 189.849 284.291 189.839 284.311 189.829L284.391 189.799C286.541 189.169 290.491 188.019 297.471 188.669C309.531 189.809 309.671 197.389 309.671 197.709V219.579C309.671 223.959 308.141 228.159 305.361 231.409C302.301 234.979 298.581 237.729 294.291 239.589C294.291 239.589 294.281 239.589 294.271 239.589C294.261 239.589 294.231 239.599 294.211 239.609C293.411 239.909 292.761 240.159 292.161 240.409L292.141 240.419H292.131C289.021 241.479 285.791 241.999 282.581 241.999C274.501 241.999 266.491 238.759 260.581 232.759C260.551 232.729 260.521 232.709 260.501 232.679L260.481 232.659C260.481 232.659 260.441 232.609 260.421 232.589C260.351 232.509 260.281 232.439 260.221 232.359C260.191 232.319 260.171 232.299 260.141 232.289C260.121 232.279 260.101 232.259 260.091 232.249C259.661 231.799 259.231 231.309 258.811 230.799C255.841 227.219 252.111 223.379 245.491 223.169C245.401 223.169 245.331 223.099 245.311 223.009C245.291 222.919 245.341 222.829 245.431 222.799C246.421 222.389 247.291 221.929 248.001 221.449C253.971 217.439 258.611 212.029 260.841 209.419C262.801 207.129 264.261 205.219 265.551 203.539L265.641 203.419L265.821 203.179C268.761 199.309 270.691 196.759 275.461 193.759C278.321 191.959 281.761 190.659 283.561 190.049C283.581 190.049 283.601 190.039 283.631 190.029L283.891 189.949C283.891 189.949 283.931 189.929 283.961 189.929H283.981H283.991C283.991 189.929 284.001 189.929 284.011 189.929C284.021 189.929 284.041 189.919 284.061 189.919C284.121 189.899 284.191 189.879 284.261 189.859L284.251 189.849Z" fill="#D0EABF"/>
<path d="M326.471 239.629L326.381 239.599C322.111 237.749 318.381 234.989 315.321 231.419C312.541 228.179 311.021 223.969 311.021 219.589V197.709C311.021 197.709 311.001 195.439 312.881 193.159C314.961 190.639 318.441 189.139 323.211 188.689C330.181 188.029 334.131 189.189 336.261 189.809L336.381 189.849C336.471 189.879 336.561 189.909 336.641 189.929C336.661 189.929 336.681 189.929 336.711 189.949L336.751 189.959C336.771 189.959 336.791 189.959 336.811 189.979C336.811 189.979 336.861 189.999 336.871 189.999C336.921 190.019 336.961 190.029 337.011 190.039L337.071 190.059C337.071 190.059 337.101 190.069 337.121 190.079C337.151 190.079 337.171 190.099 337.201 190.099C339.001 190.719 342.411 192.009 345.231 193.789C350.001 196.789 351.941 199.339 354.871 203.199L355.061 203.459C356.371 205.169 357.851 207.109 359.881 209.469C362.131 212.089 366.771 217.489 372.701 221.479C373.421 221.959 374.281 222.419 375.281 222.829C375.361 222.869 375.411 222.949 375.391 223.039C375.381 223.129 375.301 223.199 375.211 223.199C368.591 223.399 364.861 227.239 361.891 230.829C361.501 231.299 361.101 231.749 360.611 232.279V232.289C360.611 232.289 360.601 232.289 360.591 232.299C360.591 232.299 360.581 232.309 360.571 232.319C360.541 232.339 360.531 232.349 360.501 232.379L360.401 232.489C360.401 232.489 360.361 232.539 360.331 232.559C360.291 232.609 360.241 232.649 360.201 232.699C360.201 232.699 360.171 232.739 360.141 232.769C354.231 238.769 346.201 242.019 338.121 242.019C334.901 242.019 331.671 241.499 328.561 240.439H328.541C328.541 240.439 328.541 240.439 328.531 240.439C327.791 240.139 327.051 239.849 326.481 239.639L326.471 239.629Z" fill="#D0EABF"/>
<path d="M299.261 93.6095C299.831 93.2195 300.541 92.7391 301.821 93.1691C303.421 93.1291 315.75 92.9591 323.42 97.3888C331.06 101.809 337.541 107.479 332.941 128.009C332.851 128.429 332.43 128.699 332 128.599C332.07 128.809 332.131 128.959 332.191 129.079C332.891 128.999 334.03 129.039 335.04 129.829C336.55 131.009 337.17 133.359 336.91 136.829C336.53 141.839 335.54 144.789 333.79 146.099C332.95 146.729 331.94 146.989 330.71 146.899C330.57 148.279 330.19 151.049 329.25 153.019V153.109C329.27 155.001 329.4 166.299 329.67 169.769C330.53 170.589 333.831 173.689 335.7 174.619C337.031 175.279 340.721 176.819 344.011 178.189L344.141 178.249C344.541 178.419 344.931 178.579 345.301 178.729C347.081 179.469 348.561 180.089 349.321 180.439C350.831 181.129 352.871 182.7 354.351 183.859C354.981 184.349 355.701 184.909 355.891 184.999C356.242 185.159 358.021 185.619 359.571 186.009H359.611L360.091 186.129C360.421 186.209 360.731 186.29 360.991 186.359C361.56 186.509 362.061 186.629 362.401 186.719C362.481 186.739 362.611 186.759 362.79 186.789C362.85 186.789 362.911 186.809 362.971 186.819C378.471 189.31 384.841 199.889 387.441 208.329C387.761 209.469 388.111 210.319 388.551 211.399C389.501 213.709 390.921 217.189 393.441 226.719C393.631 227.339 393.871 227.729 394.231 228.159C394.241 228.169 394.251 228.179 394.261 228.189C394.461 228.419 394.691 228.669 394.971 228.959C397.151 231.229 401.201 235.46 410.17 256.489C411.18 258.919 412.471 260.259 415.031 262.909L415.061 262.939C416.951 264.899 419.53 267.579 423.12 271.869C429.2 279.129 435.331 294.2 440.261 306.319L440.281 306.369C442.3 311.349 444.211 316.049 445.851 319.559C448.001 323.419 449.1 326.829 450.25 330.429V330.469C451.56 334.529 452.911 338.729 455.941 344.419L456.021 344.589L456.04 344.629L456.151 344.619C458.45 349.099 458.501 349.199 458.611 351.479H458.58C458.62 352.369 458.681 353.619 458.941 355.749C459.821 362.989 459.651 365.529 459.551 367.049V367.149C459.451 368.649 457.48 375.519 457.25 376.289C457.16 376.599 456.89 376.819 456.571 376.849C456.48 376.849 454.31 377.029 452.87 375.489C452.36 374.949 452.031 374.259 451.851 373.459C451.131 373.419 450.05 373.229 449.29 372.449C448.57 371.699 448.311 370.639 448.531 369.299C448.881 367.189 448.761 366.099 448.611 364.709C448.511 363.769 448.401 362.699 448.431 361.169C448.461 359.909 448.09 359.159 447.62 358.229V358.209C446.87 356.739 445.971 354.919 446.361 350.669C446.171 350.429 445.97 350.229 445.79 350.079C445.93 352.689 445.94 357.929 443.96 360.159C443.33 360.869 442.55 361.239 441.651 361.259C437.311 361.329 437.131 357.319 436.931 352.639V352.599C436.881 351.419 436.83 350.189 436.71 348.909C436.23 345.189 435.65 343.309 434.58 342.009C433.07 340.179 431.781 336.149 434.42 332.549C434.59 332.229 434.221 331.208 433.521 329.899C433.501 329.869 433.491 329.839 433.471 329.819C432.751 328.489 431.7 326.859 430.54 325.339C427.01 321.679 424.161 319.519 421.401 317.429H421.391C417.431 314.419 413.67 311.579 408.2 304.799C402.251 297.419 400.53 293.839 398.71 290.039C397.64 287.789 396.531 285.479 394.481 282.199C390.911 277.13 376.333 257.783 374.511 256.109C374.331 255.94 374.13 255.769 373.92 255.579C373.88 255.539 373.83 255.499 373.781 255.459C372.091 253.949 369.461 251.589 367.511 248.099C366.551 252.289 363.761 261.949 356.271 276.249C352.151 284.379 353.31 292.979 354.45 301.299L354.471 301.479C354.771 303.679 355.081 305.939 355.261 308.119C355.551 311.539 356.051 315.999 356.641 320.659V320.849C356.661 321.029 356.69 321.219 356.71 321.409C356.73 321.589 356.761 321.779 356.781 321.969C356.781 321.999 356.79 322.04 356.79 322.069C358.02 331.639 359.561 341.669 360.401 344.969C360.461 345.209 360.55 345.539 360.66 345.969C364.93 361.989 373.061 399.779 367.141 437.389C367.141 437.449 367.14 437.51 367.12 437.569C367.12 437.609 367.101 437.649 367.091 437.689C367.091 437.719 367.081 437.759 367.071 437.789C366.141 443.609 364.871 449.419 363.191 455.139C363.301 463.948 363.881 465.979 364.401 467.769C364.571 468.349 364.74 468.959 364.88 469.739C365.16 471.239 365.211 472.529 365.261 473.769V473.799C365.311 475.179 365.371 476.609 365.741 478.349C365.831 478.759 366.121 479.579 366.491 480.599C369.091 487.859 376.001 507.15 370.311 539.319C370.011 542.669 369.58 546.199 369.17 549.619L369.141 549.899C368.051 558.938 367.031 567.469 368.031 572.849C368.811 577.479 369.141 579.489 369.221 581.959C369.851 583.829 372.941 588.709 374.811 591.649L375.04 592.009C375.55 592.809 375.98 593.489 376.25 593.929C376.66 594.619 376.891 595.129 377.061 595.539C377.441 596.429 377.651 596.92 379.721 598.569C380.121 598.889 380.541 599.219 380.971 599.549L381 599.569C383.9 601.839 387.511 604.669 389.471 608.959C390.561 611.559 390.17 613.029 389.66 613.809C389.25 614.439 388.61 614.839 387.83 615.009C387.73 615.419 387.531 615.949 387.101 616.369C386.841 616.629 386.4 616.919 385.75 617.019C385.52 617.569 385.05 618.379 384.2 618.869C383.571 619.229 382.86 619.359 382.08 619.239C381.6 619.759 380.631 620.599 379.341 620.749C378.461 620.859 377.601 620.619 376.781 620.059C375.971 620.689 374.311 621.749 372.221 621.749C371.961 621.749 371.701 621.739 371.431 621.699C368.941 621.379 366.691 619.569 364.761 616.319C363.321 615.809 357.491 613.369 357.991 607.209C358.031 605.819 356.591 604.929 353.801 603.359L353.361 603.109C350.011 601.21 348.05 599.539 349.83 589.379C350.13 587.019 349.8 584.449 349.66 583.589C348.92 582.919 347.591 580.839 348.151 574.619C348.821 567.159 349.451 560.118 340.181 530.689C339.741 529.239 339.141 528.399 338.511 527.519C336.491 524.709 334.391 521.808 337.191 501.649C338.861 486.899 338.731 486.699 337.231 484.179V484.159C336.911 483.619 336.511 482.949 336.051 482.049C335.851 481.639 335.621 481.229 335.391 480.829L335.33 480.729V480.719C334.97 480.079 334.591 479.439 334.191 478.779C331.471 474.209 328.081 468.518 327.181 456.899C326.781 451.769 326.09 446.609 325.13 441.449C324.92 440.429 324.731 439.449 324.561 438.509C323.591 433.829 322.401 429.159 320.981 424.519C320.501 422.929 319.69 420.718 318.75 418.149V418.129C315.76 409.969 311.25 397.649 310.63 387.519C310.58 385.909 310.551 384.489 310.521 383.249V383.219C310.481 381.169 310.441 379.309 310.321 378.129C310.211 379.299 310.17 381.149 310.13 383.199V383.219C310.1 384.469 310.071 385.889 310.021 387.479C309.391 397.619 304.89 409.929 301.91 418.089V418.129C300.96 420.699 300.15 422.909 299.66 424.499C298.241 429.129 297.051 433.799 296.091 438.479C295.921 439.429 295.721 440.429 295.511 441.459C294.551 446.609 293.871 451.759 293.471 456.889C292.571 468.509 289.18 474.189 286.46 478.759C286.39 478.879 286.331 478.989 286.261 479.099C285.941 479.649 285.62 480.179 285.33 480.709V480.719L285.241 480.869C285.021 481.259 284.811 481.649 284.611 482.039C284.161 482.939 283.761 483.609 283.431 484.149V484.169C281.911 486.689 281.79 486.89 283.46 501.659C286.25 521.798 284.161 524.699 282.131 527.509V527.529C281.491 528.409 280.89 529.239 280.46 530.669C271.18 560.098 271.821 567.149 272.491 574.599C273.05 580.819 271.731 582.899 270.981 583.569C270.851 584.43 270.521 587.009 270.821 589.389C272.591 599.509 270.631 601.189 267.281 603.089L266.841 603.339C264.061 604.909 262.601 605.799 262.651 607.229C263.16 613.348 257.332 615.789 255.881 616.299C253.941 619.549 251.7 621.359 249.21 621.679C248.94 621.709 248.68 621.729 248.42 621.729C246.321 621.728 244.661 620.669 243.861 620.039C243.041 620.589 242.171 620.829 241.301 620.729C240.011 620.579 239.041 619.739 238.561 619.219C237.781 619.339 237.071 619.219 236.441 618.849C235.591 618.349 235.121 617.549 234.891 616.999C234.241 616.899 233.81 616.609 233.54 616.349C233.111 615.929 232.911 615.409 232.811 614.989C232.031 614.829 231.391 614.419 230.981 613.789C230.471 613.009 230.081 611.539 231.16 608.959C233.13 604.639 236.741 601.809 239.651 599.539H239.66C240.09 599.189 240.511 598.869 240.91 598.549C242.97 596.899 243.181 596.409 243.571 595.529L243.591 595.479C243.761 595.079 243.981 594.579 244.391 593.909C244.701 593.389 245.211 592.589 245.821 591.619C247.681 588.689 250.78 583.809 251.41 581.939C251.49 579.469 251.821 577.449 252.601 572.839C253.601 567.449 252.581 558.919 251.491 549.879L251.441 549.499C251.031 546.109 250.611 542.619 250.311 539.239C244.631 507.14 251.541 487.849 254.141 480.589L254.17 480.499C254.52 479.519 254.801 478.739 254.881 478.339C255.241 476.599 255.301 475.169 255.361 473.789C255.411 472.539 255.461 471.239 255.741 469.729C255.881 468.939 256.061 468.349 256.221 467.759C256.731 465.959 257.321 463.939 257.431 455.119C255.751 449.399 254.491 443.579 253.551 437.769C253.531 437.699 253.52 437.629 253.5 437.549C253.48 437.489 253.481 437.429 253.481 437.369C247.551 399.77 255.69 361.97 259.96 345.949C260.07 345.52 260.161 345.189 260.221 344.949C261.061 341.649 262.6 331.619 263.83 322.049C263.83 322.009 263.831 321.969 263.841 321.929C263.891 321.559 263.941 321.189 263.981 320.819V320.729C263.981 320.709 263.981 320.679 263.991 320.659V320.619C264.581 315.969 265.08 311.509 265.37 308.089C265.56 305.849 265.881 303.529 266.191 301.269C267.321 292.959 268.49 284.359 264.361 276.209C256.881 261.91 254.091 252.26 253.131 248.069C251.181 251.569 248.541 253.929 246.851 255.429L246.761 255.509C246.531 255.709 246.32 255.909 246.12 256.079C244.309 257.751 229.721 277.109 226.131 282.209C224.101 285.459 222.99 287.769 221.92 290.009C220.1 293.809 218.391 297.4 212.431 304.779C206.951 311.569 203.201 314.409 199.231 317.419C196.471 319.509 193.61 321.679 190.08 325.329C187.73 328.379 185.861 331.889 186.221 332.569C188.84 336.139 187.55 340.169 186.04 341.999C184.971 343.299 184.39 345.179 183.91 348.929C183.8 350.139 183.75 351.329 183.7 352.479V352.659C183.5 357.329 183.321 361.309 178.981 361.249C178.081 361.229 177.3 360.858 176.67 360.149C174.691 357.918 174.691 352.689 174.841 350.069C174.651 350.229 174.461 350.419 174.271 350.659C174.661 354.909 173.761 356.729 173.021 358.199C172.541 359.149 172.17 359.889 172.2 361.169C172.23 362.669 172.121 363.719 172.031 364.639V364.709C171.881 366.089 171.761 367.179 172.111 369.299C172.331 370.649 172.071 371.709 171.351 372.449C170.591 373.229 169.51 373.429 168.79 373.459C168.61 374.259 168.271 374.939 167.771 375.489C166.341 377.039 164.161 376.859 164.071 376.849C163.751 376.819 163.481 376.589 163.391 376.289C163.161 375.519 161.181 368.649 161.08 367.149V367.049C160.98 365.529 160.821 362.989 161.691 355.749C161.951 353.649 162.011 352.419 162.051 351.509V351.459C162.161 349.179 162.211 349.089 164.531 344.579V344.559L164.62 344.409C167.65 338.729 169.001 334.519 170.301 330.459C171.451 326.829 172.551 323.419 174.741 319.489C176.34 316.079 178.221 311.449 180.221 306.529L180.29 306.349C185.22 294.209 191.361 279.119 197.45 271.839C201.05 267.549 203.631 264.869 205.521 262.909C208.101 260.239 209.4 258.899 210.41 256.469C219.39 235.429 223.44 231.209 225.62 228.939L225.66 228.889C225.92 228.619 226.14 228.389 226.33 228.169C226.33 228.169 226.341 228.149 226.351 228.139C226.711 227.699 226.951 227.299 227.151 226.659C229.651 217.19 231.081 213.699 232.021 211.399V211.369L232.04 211.349C232.48 210.279 232.831 209.429 233.141 208.319C235.751 199.86 242.111 189.279 257.62 186.799H257.691C257.921 186.749 258.101 186.719 258.191 186.699C258.401 186.639 258.671 186.579 258.991 186.499C259.181 186.449 259.381 186.399 259.601 186.349C259.971 186.259 260.411 186.149 260.881 186.029C260.921 186.019 260.961 186.009 261 185.999C262.55 185.609 264.34 185.149 264.7 184.979C264.881 184.889 265.571 184.359 266.191 183.879L266.241 183.839C267.721 182.689 269.761 181.109 271.271 180.419C272.081 180.059 273.731 179.369 275.681 178.549C275.931 178.439 276.191 178.339 276.45 178.229L276.79 178.089C280.03 176.739 283.591 175.259 284.891 174.619C286.761 173.689 290.07 170.589 290.92 169.769C291.19 166.299 291.321 155.001 291.341 153.109V153.019C290.411 151.049 290.03 148.279 289.88 146.899C288.65 146.998 287.641 146.729 286.801 146.099C285.061 144.789 284.061 141.839 283.681 136.829C283.421 133.359 284.051 131.009 285.551 129.829C286.081 129.419 286.641 129.209 287.16 129.119C287.11 129.049 287.07 128.969 287.04 128.889V128.869C286.9 128.439 284.931 122.299 284.441 117.119C283.971 112.159 285.72 103.259 289.08 100.689C289.15 100.399 289.201 99.8685 288.811 99.5187C288.281 99.0487 288.111 98.3986 288.37 97.7687C288.831 96.6289 290.541 95.8894 292.54 95.9493C292.7 95.9493 292.801 95.9488 292.861 95.9288C292.861 95.899 292.861 95.8592 292.87 95.8195C292.87 95.7895 292.87 95.7586 292.88 95.7286C292.92 95.3586 293.001 94.7489 293.571 94.339C294.251 93.859 295.371 93.8087 297.33 94.1886C298.33 94.2386 298.771 93.939 299.231 93.629L299.261 93.6095ZM256.191 479.519C256.051 479.949 255.871 480.459 255.641 481.099C253.081 488.269 246.281 507.28 251.891 539.029C252.221 542.579 252.65 546.189 253.08 549.689V549.749C254.19 558.889 255.221 567.51 254.181 573.109C253.401 577.709 253.081 579.669 253.011 582.089C253.011 582.159 253.001 582.229 252.981 582.289C252.371 584.289 249.261 589.189 247.191 592.449L246.981 592.789C246.471 593.589 246.051 594.259 245.781 594.709C245.431 595.299 245.24 595.719 245.08 596.099L245.061 596.139C244.571 597.279 244.2 597.959 241.941 599.769C241.541 600.099 241.111 600.429 240.681 600.769C237.761 603.059 234.451 605.639 232.651 609.599C231.811 611.629 232.101 612.569 232.351 612.949C232.651 613.409 233.181 613.509 233.58 613.519C234.02 613.519 234.361 613.889 234.351 614.319C234.351 614.49 234.421 614.989 234.7 615.259C234.88 615.429 235.131 615.509 235.481 615.489C235.881 615.469 236.191 615.729 236.271 616.089C236.275 616.104 236.546 617.103 237.29 617.529C237.68 617.749 238.141 617.789 238.691 617.629C239.011 617.539 239.35 617.669 239.54 617.929C239.611 618.03 240.431 619.079 241.521 619.199C242.072 619.261 242.608 619.084 243.162 618.664L243.46 618.42C243.769 618.192 244.209 618.227 244.481 618.499C244.51 618.529 246.507 620.479 249.051 620.15C251.091 619.879 252.991 618.249 254.691 615.289C254.791 615.109 254.961 614.979 255.16 614.919C255.42 614.849 261.571 613.039 261.101 607.349C261.011 604.869 263.251 603.609 266.08 602.009L266.521 601.759C269.191 600.249 270.96 599.238 269.29 589.649C268.891 586.48 269.48 583.161 269.5 583.019C269.55 582.769 269.711 582.559 269.941 582.449C270.051 582.349 271.501 581.019 270.931 574.769C270.251 567.159 269.601 559.959 278.971 530.239L278.981 530.229C279.481 528.549 280.191 527.569 280.87 526.619H280.861C282.701 524.049 284.611 521.399 281.901 501.859C280.841 492.53 280.481 488.799 280.761 486.639C277.751 489.519 274.341 491.129 271.011 491.129H270.851C267.051 491.069 263.831 488.999 261.771 485.289C259.791 481.739 258.611 480.269 256.191 479.519ZM364.491 479.519C362.081 480.259 360.89 481.739 358.91 485.289C356.851 488.999 353.631 491.079 349.841 491.129H349.681C346.341 491.129 342.941 489.529 339.931 486.649C340.201 488.809 339.84 492.539 338.79 501.849C336.08 521.409 337.99 524.059 339.83 526.619C340.51 527.569 341.221 528.549 341.721 530.239C351.081 559.949 350.44 567.139 349.75 574.749C349.16 581.309 350.781 582.459 350.801 582.459C351.041 582.569 351.151 582.749 351.2 582.999V583.019C351.261 583.35 351.8 586.55 351.42 589.589C349.74 599.219 351.501 600.219 354.181 601.729L354.611 601.979C357.441 603.579 359.681 604.839 359.601 607.289C359.122 613.033 365.457 614.886 365.54 614.9C365.74 614.96 365.911 615.089 366.011 615.259C367.721 618.219 369.611 619.849 371.651 620.119C374.209 620.459 376.198 618.492 376.231 618.469C376.521 618.169 377.001 618.159 377.311 618.429C377.951 618.989 378.561 619.239 379.191 619.169C380.326 619.05 381.164 617.919 381.181 617.9C381.371 617.64 381.711 617.509 382.031 617.599C382.581 617.749 383.051 617.719 383.431 617.499C384.178 617.071 384.448 616.077 384.45 616.059C384.541 615.699 384.841 615.459 385.241 615.469C385.59 615.489 385.851 615.409 386.021 615.239C386.311 614.97 386.37 614.469 386.37 614.289C386.37 613.859 386.711 613.509 387.141 613.499C387.531 613.499 388.06 613.389 388.37 612.929C388.62 612.549 388.921 611.609 388.061 609.559C386.271 605.629 382.96 603.039 380.04 600.749C379.92 600.649 379.79 600.549 379.67 600.449C379.37 600.209 379.07 599.979 378.781 599.749C376.521 597.929 376.16 597.259 375.66 596.119C375.5 595.739 375.311 595.299 374.941 594.689C374.671 594.239 374.25 593.578 373.741 592.769L373.531 592.429C371.461 589.179 368.351 584.269 367.741 582.269C367.721 582.199 367.701 582.139 367.7 582.069C367.62 579.65 367.301 577.679 366.521 573.069C365.471 567.479 366.521 558.849 367.611 549.719V549.669C368.041 546.169 368.47 542.549 368.79 539.069C374.42 507.25 367.611 488.24 365.051 481.079C365.011 480.949 364.96 480.829 364.92 480.709V480.729C364.75 480.259 364.61 479.859 364.5 479.519H364.491ZM259.011 456.769C258.851 464.438 258.281 466.419 257.771 468.189C257.611 468.759 257.451 469.299 257.321 470.009C257.071 471.419 257.021 472.599 256.971 473.849C256.921 475.119 256.871 476.439 256.591 478.009C259.601 478.909 261.07 480.759 263.17 484.539C264.95 487.739 267.691 489.529 270.891 489.579C275.481 489.619 280.271 486.189 283.771 480.319C283.781 480.299 283.801 480.259 283.821 480.229C283.841 480.189 283.871 480.139 283.891 480.099L283.91 480.059V480.049C284.29 479.369 284.7 478.689 285.12 477.979C287.54 473.909 290.51 468.929 291.66 459.409C289.44 465.609 285.681 472.109 279.651 472.109H279.511C272.801 472 271.481 466.279 270.521 462.109C270.101 460.3 269.671 458.429 268.941 458.089C268.671 457.969 268.27 458.029 267.75 458.289C265.231 459.519 263.141 459.679 261.351 458.809C260.441 458.359 259.671 457.669 259.011 456.769ZM361.691 456.759C361.031 457.649 360.261 458.349 359.351 458.799C357.561 459.679 355.47 459.509 352.95 458.279C352.42 458.019 352.02 457.959 351.75 458.079C351.021 458.42 350.59 460.289 350.17 462.089V462.119C349.2 466.289 347.88 471.999 341.181 472.109H341.04C335.011 472.109 331.251 465.619 329.031 459.419C330.181 468.929 333.141 473.909 335.571 477.979L335.601 478.029C336.011 478.729 336.41 479.4 336.79 480.069V480.089C336.792 480.092 336.831 480.15 336.851 480.179C336.881 480.239 336.911 480.289 336.941 480.339C340.391 486.119 345.15 489.569 349.67 489.569H349.811C353.011 489.519 355.751 487.739 357.531 484.539C359.641 480.749 361.101 478.899 364.111 477.999C363.831 476.429 363.781 475.109 363.731 473.839V473.809C363.681 472.569 363.63 471.389 363.38 469.999C363.25 469.289 363.101 468.749 362.931 468.179C362.421 466.409 361.851 464.419 361.691 456.759ZM265.29 323.409C264.1 332.499 262.661 341.939 261.801 345.339L261.761 345.489C261.701 345.709 261.63 345.999 261.531 346.349C257.281 362.309 249.161 400.039 255.141 437.459C255.501 439.099 255.831 440.769 256.151 442.389V442.419C257.521 449.299 258.801 455.799 262.061 457.399C263.371 458.049 265.011 457.879 267.061 456.879C268.041 456.399 268.911 456.329 269.631 456.669C271.051 457.339 271.501 459.289 272.071 461.759C273.011 465.839 274.071 470.449 279.54 470.549H279.651C289.588 470.549 292.829 448.38 292.861 448.149V448.109C293.151 446 293.49 443.889 293.87 441.789C293.87 441.749 293.87 441.709 293.88 441.659C293.9 441.579 293.911 441.489 293.931 441.409C293.951 441.329 293.961 441.239 293.981 441.159C294.171 440.169 294.361 439.189 294.561 438.199L294.571 438.189C294.591 438.049 294.621 437.908 294.651 437.769C297.12 424.07 295.861 422.559 293.101 419.239C290.221 415.759 285.87 410.518 282.12 390.439C281.11 384.999 280.381 378.459 279.611 371.539C277.451 352.099 275.01 330.139 265.29 323.409ZM355.42 323.399C345.7 330.139 343.261 352.09 341.101 371.529C340.331 378.449 339.601 384.989 338.591 390.429C334.851 410.508 330.491 415.759 327.611 419.229C324.851 422.549 323.601 424.059 326.071 437.769L326.151 438.209C326.351 439.179 326.541 440.149 326.721 441.119L326.83 441.649C326.831 441.653 326.841 441.74 326.841 441.789C327.221 443.899 327.561 445.999 327.851 448.099V448.139C327.882 448.38 331.123 470.539 341.061 470.539H341.17C346.64 470.449 347.701 465.829 348.641 461.759C349.211 459.289 349.661 457.339 351.08 456.669C351.8 456.329 352.671 456.399 353.651 456.879C355.701 457.879 357.331 458.049 358.651 457.399C361.901 455.798 363.191 449.299 364.551 442.419L364.591 442.209C364.901 440.649 365.221 439.039 365.571 437.459C371.561 400.039 363.441 362.319 359.181 346.349C359.071 345.919 358.98 345.579 358.91 345.339V345.329C358.04 341.929 356.6 332.489 355.42 323.399ZM265.771 321.839C276.421 328.689 278.94 351.329 281.17 371.349V371.469C281.95 378.319 282.67 384.789 283.67 390.149C287.34 409.838 291.541 414.889 294.321 418.239C296.21 420.509 297.471 422.029 297.561 426.189C297.771 425.479 297.981 424.769 298.191 424.059C298.661 422.519 299.421 420.429 300.311 418.009L300.481 417.549C303.431 409.479 307.871 397.309 308.481 387.429L308.471 387.419C308.511 385.859 308.551 384.439 308.571 383.199V383.109C308.641 380.08 308.68 378.149 308.92 376.989C302.22 376.069 299.121 367.928 293.651 349.559C287.581 329.179 271.961 323.369 265.771 321.839ZM354.92 321.829C348.73 323.359 333.11 329.169 327.04 349.549C321.57 367.919 318.471 376.059 311.771 376.979C312.011 378.139 312.05 380.069 312.12 383.099V383.199C312.15 384.439 312.181 385.859 312.231 387.439C312.841 397.309 317.3 409.509 320.25 417.579L320.321 417.789C321.241 420.299 322.031 422.459 322.511 424.049C322.731 424.759 322.941 425.469 323.141 426.169L323.151 426.179C323.241 422.029 324.5 420.509 326.38 418.239C329.16 414.889 333.361 409.838 337.031 390.149C338.031 384.779 338.761 378.289 339.521 371.419V371.339C341.751 351.309 344.271 328.68 354.92 321.829ZM334.891 272.499C334.601 280.909 333.79 297.51 333.04 309.279C331.56 332.379 317.15 351.479 310.42 351.479H310.261C303.531 351.479 289.121 332.369 287.641 309.279C286.891 297.5 286.08 280.899 285.79 272.499C284.6 279.059 283.351 286.399 284.341 293.139C286.631 308.598 281.091 315.769 278.611 318.139C276.611 320.039 273.731 321.309 270.681 321.779C278.351 324.74 290.041 331.959 295.151 349.129C301.151 369.259 304.021 375.529 310.25 375.529H310.431C316.671 375.529 319.541 369.259 325.531 349.129C330.64 331.949 342.33 324.74 350 321.779C346.95 321.309 344.071 320.039 342.071 318.139C339.581 315.769 334.051 308.598 336.341 293.139C337.341 286.399 336.081 279.059 334.891 272.499ZM173.95 324.889C173.141 326.899 172.51 328.849 171.87 330.849L171.841 330.949C170.581 334.879 169.161 339.339 166.061 345.129L165.981 345.279C164.501 348.159 163.73 350.239 163.67 351.549C163.63 352.479 163.561 353.759 163.301 355.949C162.441 363.039 162.6 365.499 162.7 366.959V367.059C162.761 368.009 163.921 372.289 164.781 375.289C165.301 375.239 166.1 375.049 166.66 374.429C167.39 373.629 167.591 372.299 167.261 370.469C166.471 366.129 166.67 365.329 167.16 363.389C167.4 362.459 167.681 361.289 167.981 359.289C168.401 357.499 169.061 356.699 169.761 355.849C170.521 354.919 171.391 353.859 172.221 351.089C172.231 351.049 172.251 351.009 172.271 350.969C173.501 348.479 175.49 347.959 175.611 347.929C175.861 347.869 176.121 347.929 176.311 348.099C176.511 348.269 176.6 348.519 176.58 348.769C176.35 350.969 176.14 357.12 177.92 359.109C178.26 359.489 178.631 359.669 179.08 359.679H179.17C181.65 359.679 181.971 357.689 182.191 352.519C182.241 351.319 182.29 350.069 182.41 348.759C182.93 344.659 183.6 342.569 184.88 341.009C186.03 339.609 187.08 336.319 184.991 333.459C184.571 332.839 184.671 331.879 185.051 330.799C184.041 331.079 183.041 331.219 182.091 331.219C180.771 331.219 179.54 330.959 178.46 330.429C176.42 329.419 174.82 327.419 173.95 324.889ZM446.761 324.879C445.891 327.409 444.29 329.409 442.25 330.419C441.18 330.949 439.94 331.209 438.62 331.209C437.671 331.209 436.68 331.069 435.67 330.799C436.04 331.869 436.15 332.819 435.741 333.429C433.631 336.319 434.67 339.599 435.83 340.999C437.11 342.559 437.781 344.649 438.301 348.719C438.421 350.019 438.471 351.229 438.521 352.399V352.509C438.751 357.679 439.071 359.669 441.551 359.669H441.641C442.101 359.669 442.471 359.479 442.801 359.099C444.571 357.108 444.371 350.959 444.141 348.759C444.111 348.509 444.221 348.259 444.41 348.089C444.6 347.919 444.861 347.859 445.111 347.919C445.201 347.939 447.211 348.44 448.45 350.959C448.47 350.989 448.48 351.03 448.5 351.069C449.32 353.849 450.19 354.909 450.96 355.839V355.849C451.66 356.699 452.321 357.499 452.721 359.219C453.031 361.289 453.321 362.449 453.551 363.389C454.031 365.329 454.23 366.129 453.45 370.469C453.121 372.299 453.321 373.629 454.051 374.429C454.611 375.049 455.411 375.239 455.931 375.289C456.791 372.299 457.951 368.009 458.011 367.059V366.949C458.111 365.479 458.27 363.019 457.41 355.929C457.151 353.729 457.09 352.459 457.04 351.529C456.98 350.229 456.211 348.149 454.731 345.269L454.651 345.109C451.571 339.34 450.141 334.889 448.891 330.969L448.87 330.919C448.22 328.879 447.581 326.909 446.761 324.879ZM172.741 354.139C172.121 355.439 171.5 356.199 170.96 356.849C170.31 357.649 169.831 358.229 169.511 359.599C169.221 361.609 168.911 362.869 168.681 363.779C168.231 365.589 168.081 366.2 168.811 370.199C168.921 370.799 168.971 371.369 168.981 371.889C169.421 371.839 169.931 371.699 170.261 371.369C170.621 370.989 170.741 370.389 170.601 369.549C170.221 367.229 170.36 365.929 170.5 364.549C170.6 363.609 170.7 362.639 170.67 361.199C170.63 359.539 171.151 358.509 171.651 357.519C172.081 356.639 172.561 355.699 172.741 354.139ZM447.95 354.129C448.14 355.699 448.611 356.639 449.051 357.509C449.551 358.519 450.071 359.549 450.031 361.199C450.001 362.629 450.11 363.6 450.2 364.529V364.559C450.35 365.929 450.481 367.229 450.101 369.539C449.971 370.369 450.081 370.98 450.441 371.359C450.761 371.689 451.271 371.839 451.721 371.879C451.721 371.359 451.781 370.789 451.891 370.189C452.621 366.189 452.471 365.568 452.011 363.769L451.991 363.709C451.771 362.799 451.46 361.549 451.16 359.519C450.85 358.219 450.371 357.629 449.721 356.839C449.191 356.189 448.57 355.429 447.95 354.129ZM325.88 240.859C321.13 239.11 315.131 237.88 312.551 239.659C311.661 240.279 311.221 241.239 311.221 242.599C311.221 243.029 310.861 243.379 310.431 243.379H310.271C309.831 243.379 309.481 243.029 309.481 242.599C309.481 241.239 309.04 240.269 308.151 239.659C305.571 237.879 299.571 239.11 294.811 240.859C294.161 241.139 293.5 241.389 292.83 241.629C289.58 242.959 286.301 244.71 285.231 247.109C284.571 248.589 284.931 249.759 285.601 251.879C286.151 253.629 286.87 255.92 287.2 259.279C287.26 259.699 287.291 260.14 287.311 260.609C287.331 260.869 287.341 261.139 287.351 261.419C287.401 262.559 287.371 263.099 287.341 263.829V263.859C287.301 264.659 287.241 265.75 287.271 268.229C287.311 273.229 288.311 294.789 289.231 309.179C290.711 332.289 304.931 349.919 310.271 349.919H310.431C315.771 349.918 329.991 332.288 331.471 309.179C332.391 294.809 333.391 273.239 333.431 268.229V268.219C333.451 265.739 333.401 264.649 333.361 263.849V263.829C333.321 263.089 333.301 262.549 333.351 261.409C333.361 261.129 333.381 260.859 333.391 260.599C333.411 260.139 333.44 259.709 333.5 259.299C333.83 255.929 334.551 253.629 335.101 251.879C335.771 249.769 336.131 248.599 335.471 247.109C334.401 244.72 331.12 242.959 327.87 241.629C327.201 241.399 326.53 241.149 325.88 240.859ZM310.431 314.019C310.871 314.019 311.221 314.369 311.221 314.799V344.379C311.221 344.809 310.861 345.158 310.431 345.158H310.271C309.831 345.158 309.481 344.809 309.481 344.379V314.799C309.481 314.369 309.841 314.019 310.271 314.019H310.431ZM408.441 256.179C411.831 270.029 407.5 274.939 403.95 276.669C402.751 277.259 401.331 277.599 399.721 277.599C397.121 277.599 394.071 276.689 390.781 274.439C392.98 277.398 394.831 279.929 395.811 281.309C397.931 284.699 399.06 287.059 400.16 289.339C401.94 293.059 403.621 296.559 409.45 303.789C414.81 310.429 418.49 313.219 422.38 316.169C425.2 318.299 428.111 320.509 431.741 324.269L431.731 324.279C431.735 324.283 431.771 324.32 431.79 324.349C432.43 325.179 433.781 327.01 434.781 328.859C437.28 329.859 439.731 329.919 441.551 329.019C443.641 327.989 445.231 325.519 445.741 322.539C445.381 321.789 444.991 321.029 444.561 320.249C442.901 316.699 441.01 312.039 439 307.109L438.931 306.939C434.041 294.909 427.961 279.939 422.021 272.849C418.461 268.599 415.901 265.949 414.031 264.009L414.011 263.989C411.401 261.279 409.95 259.779 408.83 257.079C408.7 256.779 408.571 256.479 408.441 256.179ZM211.88 257.079C210.76 259.759 209.321 261.259 206.721 263.959L206.63 264.049C204.76 265.989 202.21 268.629 198.691 272.849C192.761 279.929 186.68 294.879 181.79 306.909V306.939C179.75 311.939 177.83 316.649 176.17 320.199C175.73 320.999 175.331 321.779 174.971 322.539C175.481 325.509 177.071 327.989 179.16 329.019C180.98 329.919 183.431 329.849 185.931 328.849C186.931 326.999 188.27 325.179 188.91 324.349C188.93 324.329 188.951 324.309 188.971 324.279C192.591 320.529 195.501 318.319 198.311 316.189L198.33 316.169C202.22 313.219 205.901 310.429 211.261 303.789C217.101 296.559 218.781 293.049 220.561 289.339L220.591 289.269V289.289C221.671 287.029 222.801 284.679 224.881 281.359C225.861 279.95 227.721 277.419 229.931 274.439C226.641 276.699 223.591 277.599 220.991 277.599C219.391 277.599 217.961 277.259 216.761 276.669C213.211 274.929 208.881 270.029 212.271 256.179C212.141 256.469 212.01 256.769 211.88 257.079ZM254.96 228.669C256.91 233.089 255.971 238.889 255.551 241.429C255.291 242.989 254.901 244.55 254.391 246.069C254.841 248.481 257.152 258.941 265.841 275.529C270.191 284.109 268.99 292.959 267.83 301.509L267.821 301.489C267.501 303.819 267.201 306.029 267.011 308.229C266.741 311.349 266.26 315.629 265.7 320.199C269.95 320.939 274.731 319.669 277.531 316.999C279.841 314.809 284.97 308.099 282.79 293.359C281.72 286.15 283.121 278.399 284.361 271.569V271.549C285.141 267.279 285.821 263.519 285.731 260.729C285.701 260.289 285.671 259.879 285.631 259.469C285.231 256.759 280.1 252.369 274.16 247.299C269.451 243.269 264.131 238.719 259.571 233.709C258.941 233.069 258.33 232.399 257.75 231.699C256.88 230.659 255.97 229.609 254.96 228.669ZM365.761 228.649C364.751 229.598 363.841 230.629 362.971 231.679C362.391 232.379 361.781 233.049 361.151 233.689C356.581 238.699 351.261 243.249 346.551 247.279L346.521 247.309C340.591 252.379 335.48 256.749 335.08 259.459C335.04 259.859 335.001 260.279 334.981 260.709C334.891 263.499 335.571 267.26 336.341 271.529C337.581 278.369 338.98 286.119 337.92 293.339C335.74 308.079 340.881 314.779 343.181 316.979C345.981 319.649 350.751 320.919 355.011 320.179C354.441 315.609 353.97 311.339 353.7 308.219C353.51 306.019 353.211 303.809 352.891 301.479V301.459H352.88C351.72 292.909 350.53 284.079 354.87 275.509C363.56 258.91 365.87 248.46 366.321 246.039C365.811 244.519 365.41 242.969 365.16 241.409C364.75 238.869 363.811 233.069 365.761 228.649ZM324.691 302.059H324.7C325.13 302.069 325.471 302.429 325.471 302.859C325.461 303.298 325.081 303.629 324.671 303.629C322.071 303.569 315.212 304.239 312.841 304.769C311.581 305.059 311.231 306.279 311.151 308.149C311.171 308.718 311.171 309.279 311.171 309.809V310.149C311.171 310.578 310.811 310.929 310.381 310.929H310.331C309.901 310.929 309.541 310.578 309.541 310.149V309.809C309.541 309.269 309.541 308.708 309.561 308.149C309.481 306.279 309.13 305.059 307.87 304.769C305.51 304.239 298.672 303.569 296.041 303.629C295.621 303.639 295.241 303.288 295.241 302.859C295.231 302.429 295.581 302.059 296.011 302.059C298.751 302.009 305.721 302.678 308.221 303.238C309.251 303.468 309.911 304.019 310.351 304.749C310.781 304.019 311.451 303.468 312.481 303.238C314.981 302.678 321.941 302.009 324.691 302.059ZM310.41 291.359C310.85 291.359 311.2 291.709 311.2 292.149C311.2 299.318 311.841 299.659 314.261 299.839C317.981 299.939 319.941 299.809 322.401 299.629H322.611L322.62 299.609C324.12 299.509 325.821 299.389 328.221 299.309C328.661 299.309 329.021 299.639 329.041 300.068C329.061 300.498 328.72 300.859 328.281 300.879C325.901 300.969 324.211 301.079 322.731 301.179H322.551C320.651 301.329 319.051 301.439 316.731 301.439C315.981 301.439 315.14 301.429 314.2 301.399C312.111 301.249 310.971 300.579 310.351 299.139C309.741 300.588 308.611 301.238 306.541 301.399C305.582 301.429 304.731 301.439 303.961 301.439C301.631 301.439 300.041 301.328 298.141 301.198C296.611 301.088 294.88 300.969 292.41 300.879C291.981 300.859 291.631 300.498 291.651 300.068C291.671 299.639 292.051 299.298 292.471 299.318C294.971 299.408 296.711 299.529 298.261 299.639C300.731 299.809 302.691 299.949 306.45 299.839C308.84 299.659 309.471 299.318 309.471 292.149C309.471 291.719 309.821 291.359 310.261 291.359H310.41ZM314.301 279.849C318.031 279.809 322.231 280.278 324.751 280.568C325.181 280.619 325.49 281.009 325.441 281.439C325.391 281.868 325.01 282.179 324.571 282.129H324.541C322.061 281.849 317.961 281.379 314.321 281.419C311.651 281.459 311.191 282.779 311.191 286.729C311.191 287.158 310.84 287.509 310.401 287.509H310.241C309.801 287.509 309.451 287.158 309.45 286.729C309.45 282.769 309 281.449 306.321 281.419H306.351C302.721 281.379 298.581 281.849 296.101 282.129C295.661 282.189 295.271 281.868 295.221 281.439C295.171 281.009 295.481 280.619 295.91 280.568C298.42 280.278 302.641 279.809 306.361 279.849C308.55 279.879 309.711 280.719 310.331 281.919C310.951 280.719 312.121 279.889 314.301 279.849ZM310.421 268.059C310.861 268.059 311.211 268.409 311.211 268.839C311.211 269.599 311.18 270.329 311.16 271.039L311.151 271.249V271.318C311.141 271.518 311.131 271.719 311.131 271.919C311.151 272.669 311.171 273.389 311.131 274.059C311.201 275.418 311.481 276.329 312.241 276.759C315.371 278.519 321.591 278.419 328.191 278.309H328.931L328.941 278.318C329.371 278.319 329.731 278.659 329.731 279.089C329.731 279.519 329.39 279.879 328.95 279.879L328.301 279.889H328.151C326.561 279.919 325.021 279.939 323.541 279.939C318.451 279.939 314.181 279.649 311.481 278.129C311.001 277.859 310.641 277.509 310.361 277.089C310.091 277.499 309.72 277.859 309.241 278.129C306.541 279.649 302.261 279.939 297.181 279.939C295.711 279.939 294.171 279.919 292.581 279.889L292.421 279.879H291.771C291.331 279.879 290.991 279.519 290.991 279.089C291.001 278.659 291.351 278.319 291.781 278.318H292.441C299.06 278.428 305.32 278.528 308.45 276.769C309.21 276.339 309.481 275.438 309.561 274.068C309.521 273.399 309.541 272.679 309.561 271.929C309.561 271.729 309.541 271.529 309.541 271.309V271.259C309.511 270.479 309.481 269.679 309.481 268.839C309.481 268.409 309.841 268.059 310.271 268.059H310.421ZM378.96 224.589C375.29 224.479 371.83 224.379 369.33 226.399C364.891 229.988 366.21 238.098 366.71 241.149C366.92 242.428 367.23 243.709 367.63 244.959C367.76 245.049 367.871 245.169 367.931 245.319C369.731 249.709 372.811 252.459 374.851 254.269C374.911 254.319 374.971 254.379 375.031 254.429C375.231 254.609 375.431 254.779 375.601 254.949C376.632 255.9 380.872 261.33 385.261 267.109C392.611 276.019 399.361 277.169 403.231 275.279C407.391 273.239 412.661 266.039 401.141 240.739C397.351 233.62 395.18 231.359 393.91 230.029C393.67 229.769 393.441 229.539 393.231 229.299C391.911 228.419 390.491 227.639 389.021 226.979C387.731 226.409 386.501 225.979 385.351 225.649C385.321 225.649 385.301 225.639 385.281 225.629C382.361 224.799 380.03 224.619 378.96 224.589ZM251.37 226.399C248.88 224.379 245.41 224.479 241.741 224.589C240.67 224.619 238.34 224.789 235.42 225.629H235.401C235.381 225.629 235.361 225.639 235.341 225.649C234.191 225.979 232.96 226.409 231.67 226.979C230.2 227.639 228.791 228.419 227.471 229.299C227.261 229.539 227.03 229.779 226.79 230.029C225.52 231.369 223.35 233.63 219.561 240.739C208.051 266.039 213.311 273.229 217.481 275.269C221.351 277.169 228.101 276.019 235.45 267.109C235.45 267.109 235.451 267.099 235.46 267.099C239.86 261.309 244.09 255.889 245.12 254.939C245.3 254.779 245.491 254.609 245.691 254.419C245.751 254.369 245.81 254.319 245.87 254.259L245.901 254.239C247.931 252.419 251 249.679 252.79 245.309L252.781 245.319C252.841 245.17 252.951 245.049 253.08 244.959C253.47 243.709 253.781 242.439 253.991 241.149C254.491 238.098 255.81 229.988 251.37 226.399ZM314.281 257.658C317.77 257.068 321.881 258.139 324.331 258.789L324.881 258.939C325.301 259.049 325.55 259.469 325.441 259.889C325.331 260.309 324.901 260.548 324.481 260.448L323.921 260.299C321.591 259.689 317.691 258.669 314.541 259.198C311.712 259.678 311.211 261.119 311.211 263.948C311.211 264.378 310.861 264.728 310.421 264.729H310.261C309.821 264.729 309.471 264.378 309.471 263.948C309.471 261.109 308.97 259.668 306.151 259.198C302.991 258.668 299.101 259.689 296.761 260.299L296.781 260.289L296.221 260.439H296.231C295.811 260.548 295.381 260.299 295.271 259.879C295.161 259.469 295.411 259.039 295.831 258.929L296.381 258.789C298.841 258.149 302.941 257.068 306.431 257.658C308.581 258.018 309.731 258.929 310.361 260.089C310.981 258.929 312.141 258.018 314.281 257.658ZM310.45 246.889C310.89 246.889 311.24 247.239 311.241 247.669C311.241 252.186 311.371 255.155 313.188 255.168C319.598 255.05 323.967 256.17 330.391 258.019C330.811 258.139 331.051 258.579 330.931 258.988C330.831 259.328 330.521 259.549 330.171 259.549C330.101 259.549 330.02 259.549 329.95 259.519C323.661 257.699 319.39 256.609 313.191 256.729C311.731 256.729 310.861 255.929 310.361 254.679C309.861 255.928 309.011 256.718 307.541 256.729C301.321 256.609 297.041 257.699 290.761 259.519C290.681 259.539 290.611 259.549 290.541 259.549C290.201 259.549 289.891 259.328 289.791 258.988C289.672 258.579 289.911 258.139 290.331 258.019C296.761 256.159 301.121 255.039 307.571 255.169C309.36 255.169 309.501 252.199 309.501 247.669C309.501 247.239 309.851 246.889 310.291 246.889H310.45ZM268.091 239.919C270.491 242.099 272.901 244.16 275.181 246.109C279.211 249.549 282.711 252.539 284.881 255.099C284.631 254.079 284.36 253.199 284.12 252.439L284.091 252.329C283.401 250.099 282.89 248.489 283.79 246.469C284.378 245.163 285.413 244.056 286.717 243.099C286.718 243.099 286.72 243.099 286.721 243.099L286.731 243.089C286.726 243.092 286.722 243.095 286.717 243.099C285.338 243.278 283.959 243.379 282.58 243.379C277.581 243.379 272.601 242.189 268.091 239.919ZM352.601 239.909C348.091 242.179 343.121 243.369 338.111 243.369C336.731 243.369 335.351 243.269 333.971 243.089C335.281 244.049 336.32 245.159 336.91 246.469L336.901 246.479C337.811 248.498 337.301 250.109 336.601 252.349L336.571 252.439C336.331 253.198 336.061 254.079 335.811 255.099C337.991 252.539 341.481 249.539 345.511 246.099C347.781 244.159 350.201 242.089 352.601 239.909ZM336.25 189.969C334.14 189.349 330.22 188.189 323.25 188.849C311.316 189.968 311.231 197.372 311.231 197.689V219.559C311.231 223.909 312.741 228.069 315.491 231.279C318.53 234.829 322.231 237.559 326.471 239.399L326.46 239.409C327.15 239.669 327.841 239.929 328.531 240.209C339.411 243.969 351.781 240.969 360.011 232.589C360.071 232.519 360.131 232.459 360.191 232.389C360.241 232.339 360.281 232.289 360.33 232.239C360.33 232.239 360.341 232.229 360.351 232.219C360.361 232.219 360.37 232.199 360.38 232.189C360.85 231.699 361.301 231.199 361.731 230.669C364.751 227.039 368.521 223.179 375.221 222.979C374.181 222.549 373.301 222.089 372.591 221.609C366.631 217.6 361.981 212.18 359.741 209.569C357.651 207.12 356.13 205.119 354.79 203.359L354.731 203.289C351.801 199.439 349.871 196.899 345.141 193.919C341.621 191.699 337.211 190.269 336.66 190.089C336.531 190.049 336.4 190.019 336.25 189.969ZM297.46 188.859C290.5 188.2 286.57 189.359 284.46 189.979C284.311 190.019 284.181 190.059 284.051 190.099C283.491 190.279 279.081 191.709 275.561 193.929C270.831 196.909 268.901 199.449 265.981 203.289C264.631 205.079 263.09 207.099 260.991 209.549C258.73 212.179 254.08 217.6 248.12 221.609C247.41 222.089 246.53 222.539 245.491 222.979C252.191 223.169 255.961 227.039 258.981 230.669C259.421 231.199 259.871 231.699 260.33 232.189C260.35 232.199 260.371 232.219 260.381 232.229L260.7 232.569C268.94 240.949 281.301 243.949 292.191 240.189C292.881 239.909 293.571 239.639 294.261 239.389C298.501 237.549 302.201 234.819 305.241 231.269L305.221 231.289C307.971 228.079 309.481 223.919 309.481 219.569V197.709C309.481 197.389 309.4 189.99 297.46 188.859ZM310.351 224.859C309.601 227.599 308.27 230.149 306.42 232.299C304.68 234.329 302.731 236.109 300.601 237.619C303.681 237.049 306.981 236.949 309.061 238.379C309.611 238.759 310.031 239.219 310.361 239.759C310.681 239.219 311.111 238.749 311.66 238.379C313.73 236.949 317.031 237.049 320.111 237.619C317.981 236.109 316.03 234.339 314.29 232.309H314.281C312.431 230.149 311.101 227.609 310.351 224.859ZM359.311 187.549C351.371 185.979 342.981 188.129 339.191 189.339C340.991 190.019 343.641 191.149 345.981 192.619C350.961 195.759 353.071 198.529 355.991 202.369L356.13 202.549C357.44 204.269 358.931 206.209 360.931 208.549C363.141 211.119 367.701 216.429 373.491 220.329C375.041 221.379 377.651 222.359 381.021 223.189C383.121 223.429 386.231 224.039 389.681 225.569C390.431 225.899 391.171 226.279 391.891 226.669C389.471 217.589 388.101 214.229 387.191 212.009C386.731 210.869 386.361 209.979 386.021 208.779C383.551 200.779 377.511 190.739 362.811 188.379H362.731C362.431 188.319 362.221 188.279 362.091 188.249C361.761 188.159 361.26 188.039 360.7 187.899C360.251 187.789 359.811 187.679 359.391 187.569L359.37 187.559H359.311V187.549ZM281.511 189.349C277.721 188.139 269.341 185.989 261.391 187.559H261.33C260.911 187.679 260.471 187.789 260.021 187.899C259.451 188.038 258.961 188.159 258.631 188.249C258.501 188.289 258.25 188.329 257.91 188.379C243.211 190.739 237.171 200.779 234.691 208.799V208.789C234.361 209.979 233.991 210.869 233.531 211.989C232.621 214.219 231.24 217.57 228.821 226.659C229.541 226.269 230.281 225.899 231.031 225.559C234.481 224.029 237.601 223.419 239.691 223.179C243.061 222.359 245.671 221.369 247.221 220.329C253.011 216.429 257.571 211.12 259.771 208.569C261.831 206.17 263.341 204.189 264.66 202.449L264.731 202.359C267.641 198.53 269.751 195.759 274.721 192.629C277.061 191.149 279.711 190.029 281.511 189.349ZM327.75 154.669C325.64 157.409 320.36 162.82 310.481 164.569H310.181C303.191 163.33 298.581 160.269 295.931 157.919C294.561 156.699 293.58 155.569 292.91 154.689C292.88 156.999 292.821 161.099 292.731 164.599L292.75 164.609V180.849C292.75 183.919 291.641 185.879 289.931 187.279C291.981 187.069 294.501 187.019 297.601 187.309C306.001 188.099 309.161 191.939 310.341 194.729C311.521 191.939 314.681 188.109 323.08 187.309C326.18 187.019 328.7 187.069 330.75 187.279C329.04 185.879 327.931 183.919 327.931 180.849V164.599C327.831 161.079 327.78 156.979 327.75 154.669ZM291.16 171.719C289.74 173.019 287.27 175.199 285.62 176.019C284.23 176.709 280.431 178.289 277.091 179.679C274.901 180.589 272.84 181.449 271.95 181.849V181.859C270.601 182.47 268.661 183.979 267.231 185.089C267.161 185.139 267.1 185.189 267.04 185.239C266.961 185.299 266.881 185.369 266.801 185.419C275.031 185.279 282.361 187.909 283.881 188.499C288.811 186.839 291.16 185.219 291.16 180.839V171.719ZM329.521 180.839C329.521 185.219 331.871 186.839 336.801 188.499C338.322 187.909 345.651 185.279 353.88 185.419C353.8 185.359 353.721 185.299 353.641 185.229C353.581 185.179 353.52 185.129 353.45 185.079L353.33 184.989C351.92 183.899 350.041 182.45 348.731 181.859C347.841 181.46 345.781 180.599 343.601 179.689C340.251 178.299 336.451 176.719 335.061 176.019V176.029C333.411 175.209 330.931 173.039 329.521 171.729V180.839ZM324.771 108.239C324.331 107.939 323.931 107.859 323.511 107.979C314.591 111.549 301.281 112.539 296.181 109.979C295.201 109.489 294.28 109.529 293.38 110.119C291.1 111.6 289.531 116.159 289.7 119.089C289.92 123.009 289.73 128.959 289.7 129.829V129.939C289.7 130.178 289.571 130.379 289.401 130.519C289.201 130.709 288.9 130.789 288.62 130.699C288.539 130.669 287.44 130.37 286.561 131.069C285.831 131.65 285.021 133.099 285.301 136.709C285.641 141.179 286.461 143.85 287.801 144.859C288.471 145.369 289.301 145.489 290.491 145.249H290.481C290.701 145.209 290.931 145.259 291.111 145.399C291.29 145.538 291.4 145.749 291.42 145.979C291.421 146.029 291.682 150.162 292.87 152.509C292.93 152.619 292.95 152.739 292.95 152.869V152.949C292.952 153.038 293.241 152.76 293.241 152.949C294.681 155.08 299.521 160.769 310.351 162.699C321.18 160.769 326.161 154.999 327.601 152.869C327.601 152.59 327.74 152.927 327.741 152.869C327.741 152.749 327.771 152.619 327.821 152.509C329.009 150.152 329.27 146.029 329.271 145.979C329.281 145.759 329.391 145.539 329.58 145.409C329.76 145.269 329.99 145.219 330.21 145.259C331.4 145.489 332.231 145.369 332.901 144.869C334.251 143.859 335.061 141.199 335.401 136.719C335.671 133.1 334.861 131.649 334.141 131.079C333.261 130.379 332.17 130.679 332.08 130.709C331.681 130.829 331.261 130.619 331.12 130.239C330.51 129.419 329.821 127.269 329.141 119.929C328.661 114.689 326.741 109.55 324.771 108.239Z" fill="black"/>
</svg>
