<svg width="620" height="714" viewBox="0 0 620 714" fill="none" xmlns="http://www.w3.org/2000/svg">
<path d="M284.57 271.499V271.579V271.649L284.55 271.699C283.32 278.499 281.93 286.189 283 293.329C285.19 308.169 280.01 314.929 277.68 317.139C275.38 319.329 271.76 320.609 268.16 320.609C267.32 320.609 266.49 320.539 265.68 320.399C265.58 320.379 265.51 320.289 265.52 320.189C266.1 315.549 266.56 311.299 266.84 308.229C267.03 306.049 267.32 303.859 267.63 301.549V301.439H267.64C268.79 292.929 269.98 284.129 265.66 275.619C256.82 258.709 254.56 248.059 254.2 246.099V246.059C254.2 246.059 254.2 246.019 254.2 245.999C254.71 244.539 255.09 242.989 255.36 241.409C255.76 238.909 256.7 233.119 254.77 228.759C254.73 228.679 254.77 228.579 254.84 228.529C254.92 228.479 255.02 228.489 255.08 228.549C256.15 229.559 257.1 230.659 257.89 231.589C258.43 232.229 258.88 232.739 259.32 233.189C259.32 233.189 259.33 233.199 259.34 233.209C259.34 233.209 259.36 233.229 259.37 233.239L259.4 233.279C264.02 238.399 269.45 243.039 274.24 247.139L274.29 247.179L274.35 247.239C280.3 252.339 285.44 256.729 285.81 259.489C285.82 259.549 285.83 259.639 285.84 259.719V259.739V259.789C285.84 259.809 285.86 259.879 285.86 259.949C285.88 260.069 285.89 260.209 285.89 260.359V260.619C285.89 260.619 285.91 260.689 285.91 260.719C286 263.509 285.33 267.229 284.56 271.529L284.57 271.499Z" fill="#A5C392"/>
<path d="M365.61 228.539C365.68 228.479 365.78 228.469 365.85 228.519C365.93 228.579 365.95 228.669 365.92 228.759C364.01 233.109 364.93 238.879 365.33 241.349V241.389C365.61 242.969 365.99 244.519 366.5 245.979C366.5 245.999 366.5 246.019 366.5 246.039V246.079C365.99 248.839 363.65 259.139 355.04 275.599C350.72 284.099 351.91 292.909 353.07 301.419V301.459C353.42 303.969 353.7 306.059 353.88 308.209C354.13 311.199 354.6 315.449 355.19 320.169C355.2 320.269 355.13 320.359 355.03 320.379C354.22 320.519 353.38 320.589 352.55 320.589C348.95 320.589 345.33 319.309 343.03 317.119C340.7 314.899 335.52 308.139 337.71 293.309C338.78 286.099 337.38 278.369 336.13 271.559V271.479C335.34 267.179 334.67 263.469 334.76 260.669C334.76 260.649 334.76 260.619 334.76 260.589C334.76 260.559 334.76 260.519 334.77 260.479C334.79 260.149 334.82 259.799 334.85 259.459C334.85 259.459 334.85 259.419 334.86 259.389C335.31 256.619 340.44 252.229 346.38 247.149L346.45 247.089C351.23 242.999 356.63 238.389 361.28 233.239L361.31 233.209C361.31 233.209 361.34 233.169 361.35 233.159C361.83 232.659 362.31 232.129 362.78 231.559C363.62 230.559 364.54 229.489 365.58 228.529L365.61 228.539Z" fill="#A5C392"/>
<path d="M299.261 93.6094C299.831 93.2194 300.541 92.7393 301.82 93.1689C303.422 93.1289 315.752 92.96 323.421 97.3896C331.061 101.81 337.54 107.48 332.94 128.01C332.85 128.429 332.43 128.699 332.001 128.6C332.071 128.809 332.131 128.959 332.19 129.079C332.89 128.999 334.031 129.039 335.041 129.829C336.551 131.009 337.171 133.36 336.911 136.829C336.531 141.839 335.541 144.79 333.791 146.1C332.951 146.73 331.941 146.989 330.711 146.899C330.571 148.28 330.191 151.05 329.251 153.02V153.109C329.271 155 329.401 166.3 329.671 169.77C330.532 170.59 333.832 173.689 335.701 174.619C337.032 175.279 340.721 176.82 344.011 178.189L344.141 178.249C344.54 178.419 344.931 178.58 345.301 178.729C347.08 179.469 348.56 180.089 349.32 180.439C350.83 181.13 352.871 182.699 354.351 183.859C354.98 184.349 355.7 184.909 355.891 184.999C356.242 185.159 358.021 185.62 359.57 186.01H359.61C359.77 186.05 359.931 186.089 360.091 186.129C360.421 186.209 360.731 186.289 360.991 186.359C361.561 186.509 362.061 186.63 362.4 186.72C362.48 186.74 362.611 186.759 362.791 186.789C362.851 186.789 362.911 186.809 362.971 186.819C378.47 189.309 384.84 199.889 387.44 208.329C387.76 209.469 388.111 210.32 388.551 211.399C389.501 213.709 390.921 217.19 393.44 226.72C393.63 227.339 393.871 227.729 394.23 228.159L394.261 228.189C394.461 228.419 394.691 228.669 394.971 228.959C397.151 231.229 401.201 235.46 410.171 256.489C411.181 258.919 412.471 260.26 415.03 262.909L415.061 262.939C416.951 264.899 419.531 267.579 423.121 271.869C429.201 279.129 435.331 294.2 440.261 306.319L440.28 306.369C442.3 311.349 444.211 316.05 445.851 319.56C448 323.419 449.101 326.83 450.251 330.43V330.47C451.561 334.529 452.911 338.73 455.94 344.419L456.021 344.589L456.041 344.629L456.15 344.619C458.45 349.099 458.5 349.2 458.61 351.479H458.581C458.621 352.369 458.681 353.62 458.94 355.749C459.82 362.988 459.651 365.529 459.551 367.049V367.149C459.45 368.65 457.481 375.518 457.251 376.289C457.161 376.599 456.89 376.819 456.57 376.85C456.474 376.85 454.309 377.026 452.871 375.489C452.361 374.949 452.031 374.259 451.851 373.459C451.131 373.419 450.051 373.229 449.291 372.449C448.571 371.699 448.31 370.639 448.53 369.299C448.88 367.189 448.76 366.099 448.61 364.709C448.51 363.769 448.401 362.699 448.431 361.169C448.461 359.909 448.091 359.159 447.621 358.229V358.209C446.871 356.739 445.97 354.919 446.36 350.669C446.171 350.429 445.971 350.229 445.791 350.079C445.931 352.689 445.941 357.929 443.961 360.159C443.331 360.869 442.55 361.24 441.65 361.26C437.311 361.33 437.131 357.319 436.931 352.64V352.6C436.881 351.42 436.831 350.189 436.711 348.909C436.231 345.19 435.651 343.31 434.581 342.01C433.071 340.18 431.781 336.15 434.421 332.55C434.591 332.23 434.22 331.209 433.521 329.899C433.501 329.87 433.49 329.839 433.471 329.819C432.751 328.489 431.701 326.859 430.541 325.339C427.011 321.679 424.16 319.52 421.4 317.43H421.391C417.431 314.42 413.671 311.579 408.201 304.8C402.251 297.42 400.531 293.839 398.711 290.039C397.641 287.789 396.53 285.479 394.48 282.199C390.91 277.129 376.332 257.782 374.511 256.109C374.331 255.939 374.131 255.769 373.921 255.579C373.881 255.539 373.83 255.499 373.78 255.459C372.09 253.949 369.461 251.589 367.511 248.1C366.551 252.29 363.76 261.95 356.271 276.249C352.151 284.379 353.311 292.98 354.451 301.3L354.471 301.479C354.771 303.679 355.081 305.939 355.261 308.119C355.551 311.539 356.051 315.999 356.641 320.659V320.85C356.661 321.029 356.691 321.219 356.711 321.409C356.731 321.589 356.76 321.78 356.78 321.97C356.78 322 356.791 322.04 356.791 322.069C358.021 331.639 359.56 341.67 360.4 344.97C360.46 345.21 360.551 345.54 360.661 345.97C364.931 361.99 373.061 399.78 367.141 437.39C367.141 437.449 367.141 437.51 367.121 437.569C367.121 437.609 367.101 437.65 367.091 437.689C367.091 437.719 367.08 437.759 367.07 437.789C366.14 443.609 364.87 449.42 363.19 455.14C363.3 463.949 363.88 465.98 364.4 467.77C364.57 468.349 364.741 468.959 364.881 469.739C365.161 471.239 365.211 472.53 365.261 473.77V473.799C365.311 475.179 365.371 476.61 365.741 478.35C365.831 478.76 366.121 479.58 366.491 480.6C369.091 487.86 376 507.151 370.311 539.319C370.011 542.669 369.581 546.199 369.171 549.619L369.141 549.899C368.051 558.939 367.03 567.47 368.03 572.85C368.81 577.479 369.141 579.489 369.221 581.959C369.851 583.829 372.941 588.71 374.811 591.649L375.041 592.01C375.551 592.809 375.981 593.49 376.251 593.93C376.661 594.619 376.891 595.129 377.061 595.539C377.44 596.429 377.651 596.92 379.721 598.569C380.121 598.889 380.541 599.219 380.971 599.549L381.001 599.569C383.901 601.839 387.511 604.669 389.471 608.959C390.56 611.559 390.171 613.03 389.661 613.81C389.251 614.439 388.611 614.84 387.831 615.01C387.731 615.42 387.53 615.949 387.101 616.369C386.841 616.629 386.401 616.919 385.751 617.02C385.521 617.569 385.051 618.379 384.201 618.869C383.571 619.229 382.861 619.359 382.081 619.239C381.601 619.759 380.631 620.599 379.341 620.749C378.461 620.859 377.6 620.619 376.78 620.06C375.97 620.69 374.31 621.749 372.221 621.749C371.961 621.749 371.7 621.739 371.431 621.699C368.941 621.379 366.691 619.569 364.761 616.319C363.321 615.809 357.491 613.369 357.991 607.209C358.031 605.819 356.59 604.929 353.801 603.359L353.36 603.109C350.011 601.209 348.051 599.538 349.831 589.379C350.131 587.019 349.801 584.449 349.661 583.589C348.921 582.919 347.59 580.839 348.15 574.619C348.82 567.159 349.45 560.119 340.181 530.689C339.741 529.24 339.141 528.399 338.511 527.52C336.491 524.71 334.391 521.809 337.19 501.649C338.86 486.901 338.73 486.699 337.23 484.18V484.159C336.911 483.619 336.511 482.948 336.051 482.049C335.851 481.639 335.62 481.229 335.391 480.829L335.331 480.729V480.72C334.971 480.08 334.59 479.439 334.19 478.779C331.47 474.209 328.081 468.519 327.181 456.899C326.781 451.77 326.091 446.609 325.131 441.449C324.921 440.43 324.731 439.45 324.561 438.51C323.591 433.83 322.4 429.159 320.98 424.52C320.501 422.93 319.691 420.719 318.751 418.149V418.129C315.761 409.969 311.251 397.649 310.631 387.52C310.581 385.91 310.551 384.489 310.521 383.249V383.22C310.481 381.17 310.44 379.309 310.32 378.129C310.21 379.299 310.171 381.149 310.131 383.199V383.22C310.101 384.47 310.07 385.89 310.021 387.479C309.39 397.619 304.891 409.929 301.911 418.089V418.129C300.961 420.699 300.151 422.909 299.661 424.499C298.241 429.129 297.051 433.8 296.091 438.479C295.921 439.429 295.721 440.429 295.511 441.459C294.551 446.609 293.871 451.76 293.471 456.89C292.571 468.509 289.181 474.19 286.461 478.76C286.391 478.88 286.331 478.99 286.261 479.1C285.941 479.649 285.621 480.179 285.331 480.709V480.72L285.241 480.869C285.021 481.259 284.81 481.649 284.61 482.039C284.16 482.939 283.761 483.609 283.431 484.149V484.169C281.911 486.689 281.791 486.889 283.461 501.659C286.251 521.799 284.161 524.7 282.131 527.51V527.529C281.491 528.409 280.891 529.239 280.461 530.669C271.181 560.099 271.821 567.15 272.491 574.6C273.051 580.819 271.73 582.899 270.98 583.569C270.85 584.43 270.52 587.01 270.82 589.39C272.59 599.509 270.63 601.189 267.28 603.089L266.841 603.339C264.061 604.909 262.6 605.799 262.65 607.229C263.16 613.349 257.331 615.79 255.881 616.3C253.941 619.549 251.701 621.36 249.211 621.68C248.941 621.71 248.681 621.729 248.421 621.729C246.321 621.729 244.661 620.669 243.86 620.039C243.041 620.589 242.171 620.829 241.301 620.729C240.011 620.58 239.041 619.74 238.561 619.22C237.781 619.34 237.07 619.219 236.44 618.85C235.591 618.35 235.121 617.549 234.891 616.999C234.241 616.899 233.811 616.609 233.541 616.35C233.111 615.93 232.911 615.409 232.811 614.989C232.031 614.829 231.39 614.419 230.98 613.789C230.471 613.009 230.081 611.539 231.161 608.959C233.131 604.639 236.741 601.809 239.65 599.539H239.661C240.091 599.189 240.511 598.869 240.911 598.549C242.97 596.899 243.18 596.409 243.57 595.529L243.591 595.479C243.761 595.08 243.981 594.579 244.391 593.909C244.701 593.389 245.21 592.589 245.82 591.619C247.68 588.689 250.781 583.81 251.411 581.939C251.491 579.469 251.821 577.449 252.601 572.839C253.6 567.449 252.581 558.919 251.491 549.879L251.44 549.499C251.03 546.109 250.611 542.619 250.311 539.239C244.631 507.14 251.541 487.849 254.141 480.589L254.171 480.499C254.521 479.519 254.801 478.739 254.881 478.339C255.241 476.599 255.3 475.169 255.36 473.789C255.41 472.539 255.461 471.239 255.741 469.729C255.881 468.94 256.061 468.35 256.221 467.76C256.731 465.96 257.321 463.939 257.431 455.119C255.751 449.399 254.491 443.579 253.551 437.77C253.531 437.7 253.521 437.629 253.501 437.549C253.481 437.489 253.48 437.429 253.48 437.369C247.551 399.769 255.691 361.969 259.961 345.949C260.071 345.519 260.161 345.189 260.221 344.949C261.061 341.649 262.601 331.62 263.831 322.05C263.831 322.01 263.831 321.97 263.841 321.93C263.891 321.56 263.94 321.189 263.98 320.819V320.729C263.98 320.71 263.981 320.679 263.991 320.659V320.619C264.581 315.969 265.081 311.509 265.371 308.089C265.561 305.849 265.88 303.529 266.19 301.27C267.32 292.96 268.49 284.359 264.36 276.209C256.881 261.91 254.091 252.26 253.131 248.069C251.181 251.569 248.541 253.93 246.851 255.43L246.761 255.51C246.531 255.71 246.321 255.909 246.121 256.079C244.311 257.749 229.721 277.109 226.131 282.209C224.101 285.459 222.991 287.77 221.921 290.01C220.101 293.81 218.39 297.4 212.431 304.779C206.951 311.569 203.2 314.409 199.23 317.419C196.471 319.509 193.611 321.679 190.081 325.329C187.731 328.379 185.861 331.889 186.221 332.569C188.84 336.139 187.551 340.169 186.041 341.999C184.971 343.299 184.391 345.18 183.911 348.93C183.801 350.139 183.751 351.33 183.701 352.479V352.659C183.501 357.329 183.32 361.309 178.98 361.249C178.081 361.229 177.301 360.859 176.671 360.149C174.691 357.919 174.691 352.689 174.841 350.069C174.651 350.229 174.461 350.419 174.271 350.659C174.66 354.909 173.76 356.729 173.021 358.199C172.541 359.149 172.171 359.889 172.201 361.169C172.231 362.669 172.12 363.72 172.03 364.64V364.709C171.88 366.089 171.76 367.179 172.11 369.299C172.33 370.649 172.07 371.709 171.351 372.449C170.591 373.229 169.511 373.429 168.791 373.459C168.611 374.259 168.27 374.939 167.771 375.489C166.343 377.037 164.167 376.86 164.07 376.85C163.751 376.819 163.481 376.589 163.391 376.289C163.16 375.518 161.181 368.65 161.081 367.149V367.049C160.981 365.529 160.821 362.988 161.69 355.749C161.95 353.65 162.011 352.42 162.051 351.51V351.459C162.161 349.179 162.21 349.089 164.53 344.579V344.56L164.621 344.409C167.651 338.729 169.001 334.519 170.301 330.459C171.451 326.829 172.551 323.419 174.741 319.489C176.341 316.079 178.221 311.449 180.221 306.529L180.291 306.35C185.221 294.21 191.361 279.119 197.451 271.839C201.051 267.549 203.631 264.869 205.521 262.909C208.1 260.239 209.401 258.9 210.411 256.47C219.391 235.43 223.441 231.209 225.621 228.939L225.661 228.89C225.921 228.62 226.141 228.389 226.331 228.169C226.333 228.166 226.342 228.149 226.351 228.14C226.711 227.7 226.95 227.299 227.15 226.659C229.65 217.19 231.081 213.699 232.021 211.399V211.369L232.041 211.35C232.481 210.28 232.831 209.429 233.141 208.319C235.751 199.859 242.111 189.28 257.621 186.8H257.69C257.92 186.75 258.1 186.719 258.19 186.699C258.4 186.639 258.671 186.579 258.991 186.499C259.181 186.449 259.381 186.4 259.601 186.35C259.971 186.26 260.411 186.149 260.881 186.029C260.921 186.019 260.961 186.009 261.001 185.999C262.551 185.609 264.341 185.149 264.701 184.979C264.882 184.889 265.571 184.358 266.19 183.879L266.241 183.839C267.721 182.689 269.761 181.109 271.271 180.419C272.081 180.059 273.731 179.37 275.681 178.55C275.931 178.44 276.191 178.339 276.451 178.229L276.791 178.089C280.031 176.739 283.591 175.259 284.891 174.619C286.761 173.689 290.071 170.59 290.921 169.77C291.191 166.3 291.321 155 291.341 153.109V153.02C290.411 151.05 290.031 148.28 289.881 146.899C288.651 146.999 287.641 146.729 286.801 146.1C285.061 144.79 284.061 141.839 283.681 136.829C283.421 133.359 284.051 131.009 285.551 129.829C286.081 129.419 286.641 129.209 287.161 129.119C287.111 129.049 287.071 128.969 287.041 128.89V128.869C286.901 128.438 284.93 122.299 284.44 117.119C283.971 112.159 285.721 103.259 289.081 100.689C289.151 100.4 289.2 99.8695 288.811 99.5195C288.281 99.0496 288.111 98.3995 288.371 97.7695C288.831 96.6295 290.541 95.8892 292.541 95.9492C292.7 95.9492 292.8 95.9495 292.86 95.9297C292.86 95.8997 292.861 95.8593 292.871 95.8193C292.871 95.7894 292.871 95.7594 292.881 95.7295C292.921 95.3595 293 94.7489 293.57 94.3389C294.25 93.859 295.371 93.8095 297.331 94.1895C298.331 94.2393 298.771 93.9388 299.23 93.6289L299.261 93.6094ZM256.19 479.52C256.05 479.949 255.871 480.46 255.641 481.1C253.081 488.27 246.281 507.28 251.891 539.029C252.221 542.579 252.651 546.19 253.081 549.689V549.749C254.191 558.889 255.221 567.509 254.181 573.109C253.401 577.709 253.081 579.669 253.011 582.089C253.011 582.159 253 582.229 252.98 582.289C252.37 584.289 249.26 589.189 247.19 592.449L246.98 592.789C246.47 593.589 246.05 594.259 245.78 594.709C245.43 595.299 245.241 595.72 245.081 596.1L245.061 596.14C244.571 597.279 244.2 597.96 241.94 599.77C241.541 600.099 241.111 600.43 240.681 600.77C237.761 603.06 234.45 605.64 232.65 609.6C231.811 611.629 232.101 612.569 232.351 612.949C232.651 613.409 233.181 613.51 233.581 613.52C234.021 613.52 234.361 613.89 234.351 614.319C234.351 614.49 234.421 614.99 234.701 615.26C234.881 615.429 235.131 615.509 235.48 615.489C235.88 615.469 236.191 615.73 236.271 616.09C236.279 616.121 236.553 617.106 237.291 617.529C237.681 617.749 238.141 617.789 238.69 617.629C239.01 617.539 239.351 617.67 239.541 617.93C239.614 618.034 240.433 619.079 241.521 619.199C242.15 619.269 242.761 619.029 243.4 618.47C243.71 618.19 244.19 618.209 244.48 618.499C244.517 618.535 246.512 620.478 249.051 620.149C251.091 619.879 252.991 618.249 254.69 615.289C254.79 615.109 254.961 614.979 255.161 614.919C255.432 614.846 261.57 613.034 261.101 607.35C261.011 604.87 263.251 603.61 266.081 602.01L266.521 601.76C269.19 600.25 270.961 599.239 269.291 589.649C268.891 586.483 269.48 583.166 269.501 583.02C269.551 582.77 269.711 582.559 269.94 582.449C270.051 582.349 271.5 581.018 270.931 574.77C270.251 567.16 269.601 559.959 278.971 530.239L278.98 530.229C279.48 528.549 280.191 527.569 280.871 526.619H280.86C282.7 524.049 284.61 521.399 281.9 501.859C280.84 492.53 280.481 488.8 280.761 486.64C277.751 489.519 274.341 491.129 271.011 491.129H270.851C267.051 491.069 263.83 488.999 261.771 485.289C259.791 481.74 258.61 480.27 256.19 479.52ZM364.491 479.52C362.081 480.26 360.891 481.739 358.911 485.289C356.851 488.999 353.631 491.079 349.841 491.129H349.681C346.341 491.129 342.941 489.529 339.931 486.649C340.201 488.809 339.841 492.54 338.791 501.85C336.081 521.409 337.991 524.059 339.831 526.619C340.511 527.569 341.221 528.55 341.721 530.239C351.08 559.949 350.441 567.139 349.751 574.749C349.161 581.309 350.781 582.459 350.801 582.459C351.04 582.569 351.151 582.749 351.201 582.999V583.02C351.262 583.353 351.801 586.551 351.421 589.589C349.741 599.219 351.501 600.22 354.181 601.729L354.61 601.979C357.44 603.579 359.68 604.839 359.601 607.289C359.121 613.039 365.471 614.889 365.541 614.899C365.741 614.96 365.911 615.09 366.011 615.26C367.721 618.219 369.611 619.849 371.65 620.119C374.202 620.458 376.187 618.503 376.23 618.47C376.52 618.17 377.001 618.16 377.311 618.43C377.95 618.989 378.561 619.239 379.19 619.169C380.328 619.049 381.168 617.913 381.181 617.899C381.371 617.64 381.71 617.51 382.03 617.6C382.58 617.749 383.051 617.719 383.431 617.499C384.175 617.072 384.447 616.084 384.451 616.06C384.541 615.7 384.841 615.46 385.241 615.47C385.591 615.49 385.851 615.409 386.021 615.239C386.31 614.969 386.371 614.469 386.371 614.289C386.371 613.859 386.711 613.509 387.141 613.499C387.531 613.499 388.061 613.389 388.371 612.93C388.621 612.55 388.92 611.609 388.061 609.56C386.271 605.63 382.961 603.039 380.041 600.749C379.921 600.649 379.791 600.549 379.671 600.449C379.371 600.209 379.07 599.979 378.78 599.749C376.521 597.93 376.161 597.259 375.661 596.119C375.501 595.739 375.31 595.299 374.94 594.689C374.671 594.24 374.251 593.579 373.741 592.77L373.53 592.43C371.461 589.18 368.352 584.27 367.741 582.27C367.721 582.2 367.701 582.139 367.701 582.069C367.621 579.649 367.3 577.679 366.521 573.069C365.471 567.479 366.52 558.849 367.61 549.72V549.669C368.04 546.169 368.471 542.549 368.791 539.069C374.421 507.25 367.611 488.239 365.051 481.079C365.011 480.949 364.961 480.829 364.921 480.709V480.729C364.751 480.26 364.611 479.859 364.501 479.52H364.491ZM259.011 456.77C258.851 464.439 258.28 466.419 257.771 468.189C257.611 468.759 257.45 469.3 257.32 470.01C257.07 471.419 257.021 472.6 256.971 473.85C256.921 475.119 256.871 476.44 256.591 478.01C259.6 478.91 261.071 480.759 263.171 484.539C264.951 487.739 267.691 489.529 270.891 489.579C275.48 489.619 280.271 486.189 283.771 480.319C283.78 480.299 283.8 480.259 283.82 480.229C283.84 480.19 283.871 480.14 283.891 480.1L283.911 480.06V480.049C284.291 479.369 284.701 478.689 285.121 477.979C287.541 473.91 290.511 468.929 291.661 459.409C289.441 465.609 285.68 472.109 279.65 472.109H279.511C272.801 471.999 271.48 466.279 270.521 462.109C270.101 460.3 269.67 458.429 268.94 458.089C268.671 457.969 268.27 458.029 267.751 458.289C265.231 459.519 263.14 459.679 261.351 458.81C260.441 458.36 259.671 457.669 259.011 456.77ZM361.69 456.76C361.031 457.649 360.26 458.349 359.351 458.799C357.561 459.679 355.471 459.509 352.951 458.279C352.421 458.019 352.021 457.959 351.751 458.079C351.021 458.419 350.591 460.289 350.171 462.089V462.119C349.201 466.289 347.88 471.999 341.181 472.109H341.041C335.011 472.109 331.25 465.619 329.03 459.419C330.18 468.929 333.14 473.91 335.57 477.979L335.601 478.029C336.011 478.729 336.411 479.399 336.791 480.069V480.089C336.794 480.094 336.832 480.151 336.851 480.18C336.88 480.239 336.911 480.289 336.94 480.339C340.39 486.119 345.151 489.569 349.671 489.569H349.811C353.01 489.519 355.75 487.739 357.53 484.539C359.64 480.749 361.101 478.899 364.11 477.999C363.83 476.429 363.78 475.109 363.73 473.839V473.81C363.68 472.57 363.631 471.389 363.381 469.999C363.251 469.289 363.101 468.749 362.931 468.18C362.421 466.41 361.85 464.419 361.69 456.76ZM265.291 323.409C264.101 332.499 262.661 341.939 261.801 345.339L261.761 345.489C261.701 345.709 261.63 346 261.53 346.35C257.28 362.31 249.161 400.04 255.141 437.459C255.501 439.099 255.83 440.77 256.15 442.39V442.419C257.52 449.299 258.801 455.799 262.061 457.399C263.37 458.049 265.011 457.879 267.061 456.879C268.04 456.399 268.911 456.329 269.631 456.669C271.051 457.339 271.5 459.29 272.07 461.76C273.01 465.84 274.071 470.449 279.541 470.549H279.65C289.584 470.548 292.827 448.394 292.86 448.149V448.109C293.15 445.999 293.491 443.889 293.871 441.789C293.871 441.749 293.871 441.709 293.881 441.659L293.98 441.159C294.17 440.169 294.361 439.189 294.561 438.199L294.57 438.189C294.59 438.05 294.62 437.909 294.65 437.77C297.12 424.07 295.86 422.559 293.101 419.239C290.221 415.759 285.871 410.519 282.121 390.439C281.111 385 280.38 378.459 279.61 371.539C277.45 352.099 275.011 330.14 265.291 323.409ZM355.421 323.399C345.701 330.139 343.261 352.089 341.101 371.529C340.331 378.449 339.601 384.99 338.591 390.43C334.851 410.509 330.49 415.76 327.61 419.229C324.851 422.549 323.6 424.06 326.07 437.77L326.15 438.209C326.35 439.179 326.541 440.149 326.721 441.119L326.831 441.649C326.832 441.656 326.841 441.741 326.841 441.789C327.221 443.899 327.561 446 327.851 448.1V448.14C327.886 448.408 331.13 470.539 341.061 470.539H341.171C346.64 470.449 347.701 465.829 348.641 461.76C349.211 459.29 349.661 457.339 351.081 456.669C351.801 456.329 352.671 456.399 353.65 456.879C355.7 457.879 357.331 458.049 358.65 457.399C361.9 455.799 363.191 449.299 364.551 442.419L364.591 442.209C364.901 440.649 365.22 439.039 365.57 437.459C371.56 400.04 363.441 362.32 359.181 346.35C359.071 345.92 358.981 345.579 358.911 345.339V345.329C358.041 341.929 356.601 332.489 355.421 323.399ZM265.771 321.839C276.42 328.689 278.941 351.33 281.171 371.35V371.47C281.951 378.319 282.671 384.79 283.671 390.149C287.341 409.839 291.54 414.889 294.32 418.239C296.21 420.509 297.471 422.03 297.561 426.189C297.77 425.48 297.98 424.769 298.19 424.06C298.66 422.52 299.421 420.43 300.311 418.01L300.48 417.549C303.43 409.479 307.87 397.309 308.48 387.43L308.471 387.419C308.511 385.859 308.55 384.439 308.57 383.199V383.109C308.64 380.08 308.681 378.149 308.921 376.989C302.221 376.069 299.12 367.929 293.65 349.56C287.581 329.18 271.961 323.369 265.771 321.839ZM354.921 321.829C348.731 323.359 333.111 329.169 327.041 349.549C321.571 367.918 318.47 376.059 311.771 376.979C312.01 378.14 312.051 380.07 312.121 383.1V383.199C312.151 384.439 312.18 385.86 312.23 387.439C312.841 397.309 317.301 409.509 320.251 417.579L320.32 417.789C321.24 420.299 322.031 422.459 322.511 424.049C322.731 424.759 322.941 425.469 323.141 426.169L323.15 426.18C323.24 422.03 324.501 420.509 326.381 418.239C329.161 414.889 333.36 409.839 337.03 390.149C338.03 384.779 338.761 378.289 339.521 371.419V371.339C341.75 351.309 344.271 328.679 354.921 321.829ZM334.891 272.499C334.601 280.909 333.791 297.509 333.041 309.279C331.561 332.379 317.151 351.478 310.421 351.479H310.261C303.531 351.479 289.121 332.369 287.641 309.279C286.891 297.499 286.081 280.899 285.791 272.499C284.601 279.059 283.351 286.4 284.341 293.14C286.631 308.599 281.09 315.77 278.61 318.14C276.61 320.039 273.73 321.309 270.681 321.779C278.351 324.739 290.04 331.96 295.15 349.129C301.15 369.259 304.021 375.529 310.251 375.529H310.431C316.67 375.529 319.54 369.258 325.53 349.129C330.64 331.949 342.331 324.739 350.001 321.779C346.951 321.309 344.07 320.039 342.07 318.14C339.58 315.77 334.051 308.599 336.341 293.14C337.341 286.4 336.081 279.059 334.891 272.499ZM173.951 324.89C173.141 326.9 172.511 328.85 171.871 330.85L171.841 330.949C170.581 334.879 169.16 339.339 166.061 345.129L165.98 345.279C164.501 348.159 163.731 350.239 163.671 351.549C163.631 352.479 163.561 353.76 163.301 355.949C162.441 363.039 162.601 365.499 162.701 366.959V367.06C162.762 368.011 163.92 372.29 164.78 375.289C165.3 375.239 166.101 375.05 166.661 374.43C167.391 373.63 167.591 372.299 167.261 370.47C166.471 366.13 166.671 365.329 167.161 363.39C167.401 362.46 167.68 361.289 167.98 359.289C168.4 357.499 169.061 356.7 169.761 355.85C170.521 354.92 171.391 353.859 172.221 351.089C172.231 351.049 172.251 351.009 172.271 350.97C173.499 348.483 175.486 347.961 175.61 347.93C175.86 347.87 176.121 347.93 176.311 348.1C176.51 348.27 176.601 348.52 176.581 348.77C176.351 350.97 176.141 357.12 177.921 359.109C178.261 359.489 178.631 359.67 179.081 359.68H179.171C181.65 359.679 181.97 357.689 182.19 352.52C182.24 351.32 182.291 350.07 182.411 348.76C182.931 344.66 183.601 342.57 184.881 341.01C186.031 339.61 187.081 336.319 184.991 333.459C184.571 332.839 184.671 331.88 185.051 330.8C184.041 331.08 183.041 331.22 182.091 331.22C180.771 331.22 179.541 330.959 178.461 330.43C176.421 329.42 174.821 327.419 173.951 324.89ZM446.761 324.879C445.891 327.409 444.291 329.409 442.251 330.419C441.181 330.949 439.941 331.209 438.621 331.209C437.671 331.209 436.681 331.07 435.671 330.8C436.041 331.869 436.151 332.82 435.741 333.43C433.631 336.32 434.671 339.599 435.831 340.999C437.111 342.559 437.781 344.65 438.301 348.72C438.421 350.019 438.471 351.23 438.521 352.399V352.51C438.751 357.679 439.071 359.669 441.551 359.669H441.641C442.1 359.669 442.471 359.479 442.801 359.1C444.571 357.11 444.371 350.96 444.141 348.76C444.111 348.51 444.221 348.259 444.411 348.089C444.601 347.919 444.861 347.859 445.11 347.919C445.206 347.94 447.213 348.443 448.451 350.959C448.471 350.989 448.481 351.03 448.501 351.069C449.321 353.849 450.191 354.909 450.961 355.839V355.85C451.661 356.699 452.321 357.5 452.721 359.22C453.031 361.289 453.321 362.45 453.551 363.39C454.031 365.329 454.231 366.13 453.451 370.47C453.121 372.299 453.321 373.63 454.051 374.43C454.611 375.049 455.411 375.239 455.931 375.289C456.79 372.3 457.95 368.011 458.011 367.06V366.949C458.111 365.479 458.271 363.019 457.411 355.93C457.151 353.73 457.091 352.459 457.041 351.529C456.981 350.229 456.21 348.149 454.73 345.27L454.65 345.109C451.571 339.34 450.141 334.89 448.891 330.97L448.871 330.919C448.221 328.879 447.581 326.909 446.761 324.879ZM172.741 354.14C172.121 355.44 171.501 356.2 170.961 356.85C170.311 357.65 169.831 358.23 169.511 359.6C169.221 361.609 168.911 362.869 168.681 363.779C168.231 365.589 168.081 366.2 168.811 370.199C168.92 370.799 168.97 371.37 168.98 371.89C169.42 371.84 169.931 371.699 170.261 371.369C170.621 370.989 170.74 370.389 170.601 369.549C170.221 367.229 170.361 365.929 170.501 364.549C170.601 363.609 170.701 362.639 170.671 361.199C170.631 359.54 171.15 358.509 171.65 357.52C172.08 356.64 172.561 355.699 172.741 354.14ZM447.951 354.129C448.141 355.699 448.611 356.64 449.051 357.51C449.551 358.519 450.07 359.55 450.03 361.199C450 362.629 450.111 363.599 450.201 364.529V364.56C450.351 365.929 450.48 367.23 450.101 369.539C449.971 370.369 450.081 370.979 450.44 371.359C450.76 371.689 451.271 371.839 451.721 371.879C451.721 371.359 451.781 370.789 451.891 370.189C452.621 366.19 452.471 365.569 452.011 363.77L451.991 363.709C451.771 362.799 451.461 361.549 451.161 359.52C450.851 358.22 450.371 357.629 449.721 356.839C449.191 356.189 448.571 355.428 447.951 354.129ZM325.881 240.859C321.131 239.109 315.131 237.879 312.551 239.659C311.661 240.279 311.221 241.24 311.221 242.6C311.22 243.029 310.86 243.379 310.431 243.379H310.271C309.831 243.379 309.481 243.029 309.48 242.6C309.48 241.24 309.04 240.269 308.15 239.659C305.57 237.88 299.57 239.109 294.811 240.859C294.161 241.139 293.501 241.389 292.831 241.629C289.581 242.959 286.3 244.709 285.23 247.109C284.571 248.589 284.931 249.759 285.601 251.879C286.151 253.629 286.871 255.92 287.201 259.279C287.261 259.699 287.291 260.14 287.311 260.609C287.331 260.869 287.341 261.139 287.351 261.419C287.401 262.559 287.371 263.099 287.341 263.829V263.859C287.301 264.659 287.241 265.75 287.271 268.229C287.311 273.23 288.31 294.79 289.23 309.18C290.711 332.289 304.93 349.918 310.271 349.919H310.431C315.771 349.918 329.991 332.289 331.471 309.18C332.391 294.81 333.391 273.24 333.431 268.229V268.22C333.451 265.74 333.4 264.65 333.36 263.85V263.829C333.32 263.089 333.301 262.549 333.351 261.409C333.361 261.129 333.381 260.859 333.391 260.6C333.411 260.14 333.441 259.71 333.501 259.3C333.831 255.93 334.551 253.629 335.101 251.879C335.77 249.769 336.13 248.599 335.471 247.109C334.401 244.72 331.121 242.959 327.871 241.629C327.201 241.399 326.531 241.149 325.881 240.859ZM310.431 314.02C310.87 314.02 311.221 314.37 311.221 314.8V344.38C311.22 344.809 310.86 345.159 310.431 345.159H310.271C309.831 345.159 309.481 344.809 309.48 344.38V314.8C309.48 314.37 309.841 314.02 310.271 314.02H310.431ZM408.44 256.18C411.83 270.028 407.501 274.939 403.951 276.669C402.751 277.259 401.331 277.6 399.721 277.6C397.121 277.6 394.07 276.689 390.78 274.439C392.98 277.399 394.831 279.93 395.811 281.31C397.93 284.699 399.061 287.059 400.161 289.339C401.941 293.059 403.621 296.559 409.451 303.789C414.811 310.429 418.491 313.219 422.381 316.169C425.201 318.299 428.111 320.51 431.741 324.27L431.73 324.279C431.735 324.283 431.772 324.321 431.791 324.35C432.431 325.18 433.781 327.01 434.78 328.859C437.28 329.859 439.731 329.919 441.551 329.02C443.641 327.989 445.231 325.519 445.741 322.539C445.381 321.789 444.99 321.029 444.561 320.249C442.901 316.699 441.011 312.039 439.001 307.109L438.931 306.939C434.041 294.91 427.96 279.94 422.021 272.85C418.461 268.6 415.9 265.95 414.03 264.01L414.011 263.989C411.401 261.279 409.951 259.779 408.831 257.079C408.701 256.779 408.57 256.479 408.44 256.18ZM211.881 257.079C210.761 259.759 209.321 261.259 206.721 263.959L206.631 264.05C204.761 265.99 202.21 268.63 198.69 272.85C192.761 279.93 186.681 294.879 181.791 306.909V306.939C179.751 311.939 177.831 316.649 176.171 320.199C175.731 320.999 175.331 321.779 174.971 322.539C175.481 325.509 177.071 327.99 179.161 329.02C180.981 329.919 183.431 329.849 185.931 328.85C186.931 327 188.271 325.18 188.911 324.35C188.931 324.33 188.951 324.309 188.971 324.279C192.591 320.529 195.501 318.319 198.311 316.189L198.331 316.169C202.221 313.219 205.901 310.429 211.261 303.789C217.101 296.559 218.781 293.049 220.561 289.339L220.591 289.27V289.289C221.671 287.029 222.801 284.679 224.881 281.359C225.861 279.949 227.721 277.419 229.931 274.439C226.641 276.699 223.591 277.599 220.991 277.6C219.391 277.6 217.961 277.259 216.761 276.669C213.211 274.929 208.881 270.029 212.271 256.18C212.141 256.469 212.011 256.769 211.881 257.079ZM254.961 228.669C256.911 233.089 255.971 238.89 255.551 241.43C255.291 242.989 254.901 244.55 254.391 246.069C254.841 248.48 257.151 258.94 265.841 275.529C270.191 284.109 268.991 292.96 267.831 301.51L267.82 301.489C267.5 303.819 267.201 306.03 267.011 308.229C266.741 311.349 266.261 315.629 265.701 320.199C269.951 320.939 274.73 319.669 277.53 316.999C279.84 314.809 284.971 308.099 282.791 293.359C281.721 286.149 283.12 278.399 284.36 271.569V271.55C285.14 267.28 285.82 263.519 285.73 260.729C285.7 260.29 285.671 259.879 285.631 259.47C285.231 256.76 280.101 252.37 274.161 247.3C269.451 243.27 264.13 238.719 259.57 233.709C258.941 233.069 258.331 232.399 257.751 231.699C256.881 230.659 255.971 229.609 254.961 228.669ZM365.761 228.649C364.751 229.599 363.841 230.63 362.971 231.68C362.391 232.38 361.78 233.05 361.15 233.689C356.58 238.699 351.261 243.249 346.551 247.279L346.521 247.31C340.591 252.379 335.481 256.749 335.081 259.459C335.041 259.859 335 260.279 334.98 260.709C334.891 263.499 335.571 267.259 336.341 271.529C337.581 278.369 338.981 286.119 337.921 293.339C335.741 308.079 340.881 314.78 343.181 316.979C345.981 319.649 350.751 320.92 355.011 320.18C354.441 315.61 353.971 311.34 353.701 308.22C353.511 306.02 353.211 303.809 352.891 301.479V301.459H352.881C351.721 292.909 350.531 284.08 354.871 275.51C363.561 258.91 365.87 248.459 366.32 246.039C365.81 244.519 365.411 242.969 365.161 241.409C364.751 238.869 363.811 233.069 365.761 228.649ZM324.69 302.06H324.7C325.13 302.07 325.471 302.43 325.471 302.859C325.46 303.299 325.08 303.629 324.671 303.63C322.071 303.57 315.211 304.24 312.841 304.77C311.581 305.06 311.23 306.28 311.15 308.149C311.17 308.719 311.171 309.28 311.171 309.81V310.149C311.171 310.579 310.81 310.929 310.381 310.93H310.33C309.901 310.929 309.54 310.579 309.54 310.149V309.81C309.54 309.27 309.541 308.709 309.561 308.149C309.481 306.28 309.13 305.06 307.87 304.77C305.51 304.24 298.67 303.57 296.04 303.63C295.621 303.639 295.241 303.289 295.24 302.859C295.23 302.43 295.581 302.06 296.011 302.06C298.751 302.01 305.721 302.679 308.221 303.239C309.25 303.469 309.911 304.02 310.351 304.75C310.781 304.02 311.451 303.469 312.48 303.239C314.981 302.679 321.94 302.01 324.69 302.06ZM310.41 291.359C310.85 291.36 311.2 291.71 311.2 292.149C311.2 299.319 311.841 299.66 314.261 299.84C317.98 299.94 319.941 299.81 322.4 299.63H322.61L322.62 299.609C324.12 299.509 325.821 299.39 328.221 299.31C328.66 299.31 329.02 299.64 329.04 300.069C329.06 300.499 328.72 300.86 328.28 300.88C325.901 300.97 324.21 301.08 322.73 301.18H322.551C320.651 301.33 319.05 301.439 316.73 301.439C315.981 301.439 315.14 301.429 314.2 301.399C312.111 301.249 310.971 300.579 310.351 299.14C309.741 300.589 308.61 301.239 306.54 301.399C305.581 301.429 304.731 301.439 303.961 301.439C301.631 301.439 300.04 301.329 298.141 301.199C296.611 301.089 294.88 300.97 292.41 300.88C291.981 300.86 291.631 300.499 291.65 300.069C291.671 299.64 292.051 299.299 292.471 299.319C294.97 299.409 296.711 299.53 298.261 299.64C300.73 299.81 302.691 299.95 306.45 299.84C308.84 299.66 309.471 299.318 309.471 292.149C309.471 291.72 309.821 291.36 310.261 291.359H310.41ZM314.301 279.85C318.03 279.81 322.23 280.279 324.75 280.569C325.18 280.62 325.49 281.01 325.44 281.439C325.39 281.869 325.01 282.18 324.57 282.13H324.54C322.06 281.85 317.96 281.38 314.32 281.42C311.651 281.46 311.19 282.78 311.19 286.729C311.19 287.159 310.84 287.51 310.4 287.51H310.24C309.801 287.51 309.451 287.159 309.45 286.729C309.45 282.77 309 281.45 306.32 281.42H306.351C302.721 281.38 298.581 281.85 296.101 282.13C295.661 282.19 295.271 281.869 295.221 281.439C295.171 281.01 295.48 280.62 295.91 280.569C298.42 280.279 302.641 279.81 306.36 279.85C308.55 279.88 309.71 280.72 310.33 281.92C310.95 280.72 312.121 279.89 314.301 279.85ZM310.421 268.06C310.861 268.06 311.211 268.41 311.211 268.84C311.211 269.6 311.18 270.33 311.16 271.04L311.15 271.25V271.319C311.14 271.519 311.131 271.72 311.131 271.92C311.151 272.67 311.171 273.39 311.131 274.06C311.201 275.419 311.48 276.33 312.24 276.76C315.37 278.519 321.591 278.42 328.19 278.31H328.931L328.94 278.319C329.37 278.32 329.73 278.66 329.73 279.09C329.73 279.519 329.39 279.88 328.95 279.88L328.301 279.89H328.15C326.561 279.92 325.02 279.939 323.54 279.939C318.451 279.939 314.18 279.65 311.48 278.13C311.001 277.86 310.64 277.51 310.36 277.09C310.09 277.5 309.72 277.86 309.24 278.13C306.54 279.65 302.26 279.939 297.181 279.939C295.711 279.939 294.17 279.92 292.58 279.89L292.421 279.88H291.771C291.331 279.88 290.991 279.519 290.99 279.09C291 278.66 291.35 278.32 291.78 278.319H292.44C299.06 278.429 305.32 278.529 308.45 276.77C309.21 276.34 309.481 275.439 309.561 274.069C309.521 273.4 309.541 272.679 309.561 271.93C309.561 271.73 309.54 271.529 309.54 271.31V271.26C309.51 270.48 309.48 269.68 309.48 268.84C309.48 268.41 309.841 268.06 310.271 268.06H310.421ZM378.961 224.589C375.291 224.479 371.831 224.38 369.331 226.399C364.891 229.989 366.211 238.099 366.711 241.149C366.921 242.429 367.231 243.709 367.631 244.959C367.761 245.049 367.871 245.17 367.931 245.319C369.731 249.709 372.811 252.46 374.851 254.27C374.91 254.319 374.97 254.38 375.03 254.43C375.23 254.61 375.431 254.779 375.601 254.949C376.631 255.9 380.871 261.33 385.261 267.109C392.61 276.019 399.36 277.169 403.23 275.279C407.39 273.239 412.66 266.039 401.141 240.739C397.351 233.62 395.181 231.359 393.911 230.029C393.671 229.769 393.44 229.54 393.23 229.3C391.911 228.42 390.49 227.639 389.021 226.979C387.731 226.41 386.5 225.979 385.351 225.649C385.321 225.649 385.3 225.639 385.28 225.629C382.361 224.799 380.031 224.619 378.961 224.589ZM251.371 226.399C248.881 224.38 245.411 224.479 241.741 224.589C240.671 224.619 238.341 224.789 235.421 225.629C235.421 225.629 235.41 225.629 235.4 225.629C235.381 225.629 235.361 225.64 235.341 225.649C234.191 225.979 232.961 226.41 231.671 226.979C230.201 227.639 228.791 228.42 227.471 229.3C227.261 229.54 227.031 229.779 226.791 230.029C225.521 231.369 223.351 233.629 219.561 240.739C208.051 266.039 213.311 273.229 217.48 275.27C221.351 277.169 228.101 276.019 235.451 267.109C235.451 267.109 235.451 267.1 235.461 267.1C239.861 261.31 244.091 255.889 245.121 254.939C245.301 254.78 245.491 254.609 245.69 254.419C245.75 254.369 245.811 254.32 245.871 254.26L245.9 254.239C247.93 252.419 251.001 249.679 252.791 245.31L252.78 245.319C252.84 245.169 252.951 245.049 253.081 244.959C253.471 243.709 253.781 242.439 253.991 241.149C254.491 238.1 255.81 229.99 251.371 226.399ZM314.28 257.659C317.77 257.069 321.88 258.14 324.33 258.79L324.881 258.939C325.3 259.05 325.55 259.47 325.44 259.89C325.33 260.309 324.9 260.549 324.48 260.449L323.921 260.3C321.591 259.69 317.69 258.669 314.54 259.199C311.711 259.679 311.211 261.12 311.211 263.949C311.211 264.379 310.86 264.729 310.421 264.729H310.261C309.821 264.729 309.471 264.379 309.471 263.949C309.471 261.11 308.97 259.669 306.15 259.199C302.991 258.669 299.101 259.69 296.761 260.3L296.78 260.29L296.221 260.439H296.23C295.811 260.549 295.381 260.299 295.271 259.88C295.161 259.47 295.411 259.04 295.83 258.93L296.381 258.79C298.841 258.15 302.941 257.069 306.431 257.659C308.58 258.019 309.73 258.93 310.36 260.09C310.98 258.93 312.141 258.019 314.28 257.659ZM310.45 246.89C310.89 246.89 311.24 247.24 311.24 247.67C311.24 252.187 311.371 255.155 313.188 255.169C319.598 255.051 323.967 256.171 330.391 258.02C330.81 258.14 331.05 258.58 330.931 258.989C330.831 259.329 330.52 259.549 330.171 259.55C330.101 259.55 330.02 259.549 329.95 259.52C323.661 257.7 319.39 256.61 313.19 256.729C311.731 256.729 310.86 255.929 310.36 254.68C309.86 255.929 309.01 256.719 307.54 256.729C301.321 256.61 297.04 257.7 290.761 259.52C290.681 259.539 290.61 259.55 290.54 259.55C290.201 259.549 289.89 259.329 289.79 258.989C289.67 258.58 289.911 258.14 290.33 258.02C296.76 256.16 301.121 255.04 307.57 255.17C309.36 255.169 309.501 252.199 309.501 247.67C309.501 247.24 309.85 246.89 310.29 246.89H310.45ZM268.091 239.919C270.491 242.099 272.901 244.159 275.181 246.109C279.211 249.549 282.711 252.54 284.881 255.1C284.631 254.08 284.361 253.199 284.121 252.439L284.091 252.329C283.401 250.099 282.891 248.49 283.791 246.47C284.379 245.165 285.412 244.057 286.715 243.1C286.717 243.099 286.719 243.1 286.721 243.1L286.73 243.089C286.725 243.093 286.72 243.096 286.715 243.1C285.337 243.279 283.959 243.379 282.581 243.379C277.581 243.379 272.601 242.189 268.091 239.919ZM352.601 239.909C348.091 242.179 343.12 243.369 338.11 243.369C336.731 243.369 335.35 243.269 333.971 243.089C335.281 244.049 336.321 245.16 336.911 246.47L336.9 246.479C337.81 248.499 337.301 250.11 336.601 252.35L336.57 252.439C336.33 253.199 336.061 254.08 335.811 255.1C337.991 252.54 341.481 249.54 345.511 246.1C347.781 244.16 350.201 242.089 352.601 239.909ZM336.251 189.97C334.141 189.35 330.221 188.19 323.251 188.85C311.311 189.97 311.23 197.379 311.23 197.689V219.56C311.231 223.909 312.741 228.069 315.491 231.279C318.531 234.829 322.231 237.56 326.471 239.399L326.461 239.409C327.151 239.669 327.841 239.929 328.53 240.209C339.41 243.969 351.781 240.969 360.011 232.589C360.071 232.519 360.131 232.459 360.19 232.39C360.24 232.34 360.281 232.289 360.331 232.239L360.381 232.189C360.851 231.699 361.3 231.199 361.73 230.669C364.75 227.039 368.521 223.18 375.221 222.979C374.181 222.55 373.301 222.089 372.591 221.609C366.631 217.6 361.981 212.18 359.741 209.569C357.651 207.12 356.131 205.119 354.791 203.359L354.73 203.289C351.801 199.439 349.87 196.899 345.141 193.919C341.622 191.7 337.214 190.27 336.661 190.089C336.531 190.049 336.401 190.02 336.251 189.97ZM297.461 188.859C290.501 188.199 286.571 189.359 284.461 189.979C284.311 190.019 284.181 190.06 284.051 190.1C283.491 190.28 279.08 191.71 275.561 193.93C270.831 196.91 268.9 199.449 265.98 203.289C264.63 205.079 263.091 207.1 260.991 209.55C258.731 212.18 254.081 217.599 248.121 221.609C247.411 222.089 246.531 222.54 245.491 222.979C252.19 223.17 255.961 227.039 258.98 230.669C259.42 231.199 259.871 231.7 260.331 232.189C260.351 232.2 260.371 232.22 260.381 232.229L260.701 232.569C268.941 240.949 281.301 243.949 292.19 240.189C292.88 239.91 293.571 239.64 294.261 239.39C298.501 237.55 302.201 234.819 305.241 231.27L305.221 231.289C307.971 228.079 309.48 223.919 309.48 219.569V197.709C309.48 197.384 309.396 189.989 297.461 188.859ZM310.351 224.859C309.601 227.599 308.271 230.15 306.421 232.3C304.681 234.33 302.73 236.109 300.601 237.619C303.68 237.049 306.981 236.949 309.061 238.379C309.61 238.759 310.03 239.22 310.36 239.76C310.68 239.22 311.111 238.749 311.661 238.379C313.731 236.949 317.031 237.049 320.11 237.619C317.981 236.109 316.031 234.339 314.291 232.31H314.28C312.43 230.15 311.101 227.609 310.351 224.859ZM359.311 187.55C351.371 185.98 342.981 188.129 339.19 189.339C340.99 190.019 343.641 191.149 345.98 192.619C350.96 195.759 353.071 198.529 355.991 202.369L356.131 202.55C357.441 204.27 358.931 206.21 360.931 208.55C363.141 211.12 367.702 216.429 373.491 220.329C375.041 221.379 377.651 222.36 381.021 223.189C383.12 223.429 386.231 224.039 389.681 225.569C390.43 225.899 391.171 226.279 391.891 226.669C389.471 217.59 388.1 214.23 387.19 212.01C386.73 210.87 386.36 209.979 386.021 208.779C383.551 200.779 377.51 190.739 362.811 188.379H362.73C362.431 188.319 362.221 188.279 362.091 188.249C361.761 188.159 361.261 188.039 360.701 187.899C360.251 187.789 359.81 187.679 359.391 187.569L359.371 187.56H359.311V187.55ZM281.511 189.35C277.721 188.14 269.341 185.99 261.391 187.56H261.331C260.911 187.68 260.47 187.789 260.021 187.899C259.451 188.039 258.961 188.159 258.631 188.249C258.501 188.289 258.251 188.329 257.911 188.379C243.211 190.739 237.17 200.78 234.69 208.8V208.789C234.36 209.979 233.99 210.869 233.53 211.989C232.62 214.219 231.24 217.57 228.82 226.659C229.54 226.269 230.281 225.899 231.03 225.56C234.48 224.03 237.6 223.42 239.69 223.18C243.06 222.36 245.671 221.369 247.221 220.329C253.011 216.429 257.57 211.119 259.771 208.569C261.83 206.169 263.341 204.189 264.661 202.449L264.73 202.359C267.64 198.529 269.751 195.759 274.721 192.629C277.061 191.149 279.711 190.03 281.511 189.35ZM327.751 154.669C325.641 157.409 320.36 162.819 310.48 164.569H310.181C303.191 163.329 298.581 160.269 295.931 157.919C294.561 156.699 293.581 155.569 292.911 154.689C292.881 157 292.82 161.1 292.73 164.6L292.751 164.609V180.85C292.751 183.919 291.641 185.879 289.931 187.279C291.981 187.069 294.501 187.02 297.601 187.31C306 188.1 309.161 191.94 310.341 194.729C311.521 191.939 314.681 188.11 323.081 187.31C326.181 187.02 328.701 187.069 330.751 187.279C329.041 185.879 327.931 183.919 327.931 180.85V164.6C327.831 161.08 327.781 156.979 327.751 154.669ZM291.161 171.72C289.741 173.02 287.271 175.199 285.621 176.02C284.231 176.71 280.431 178.29 277.091 179.68C274.901 180.59 272.841 181.45 271.951 181.85V181.859C270.601 182.469 268.66 183.979 267.23 185.089C267.161 185.139 267.101 185.189 267.041 185.239C266.961 185.299 266.881 185.369 266.801 185.419C275.031 185.279 282.361 187.909 283.881 188.499C288.81 186.839 291.161 185.218 291.161 180.839V171.72ZM329.521 180.839C329.521 185.219 331.871 186.839 336.801 188.499C338.322 187.909 345.652 185.279 353.881 185.419C353.801 185.359 353.72 185.299 353.641 185.229C353.581 185.18 353.521 185.129 353.451 185.079L353.331 184.989C351.921 183.899 350.04 182.45 348.73 181.859C347.84 181.459 345.78 180.599 343.601 179.689C340.251 178.3 336.451 176.72 335.061 176.02V176.029C333.411 175.209 330.931 173.039 329.521 171.729V180.839ZM324.771 108.239C324.331 107.939 323.931 107.86 323.511 107.979C314.591 111.549 301.281 112.539 296.181 109.979C295.201 109.49 294.281 109.529 293.381 110.119C291.101 111.599 289.531 116.159 289.701 119.089C289.921 123.009 289.731 128.958 289.701 129.829V129.939C289.701 130.179 289.57 130.38 289.4 130.52C289.201 130.709 288.901 130.789 288.621 130.699C288.541 130.669 287.441 130.369 286.561 131.069C285.831 131.649 285.021 133.099 285.301 136.709C285.641 141.179 286.461 143.849 287.801 144.859C288.471 145.369 289.301 145.489 290.491 145.249H290.48C290.7 145.209 290.93 145.26 291.11 145.399C291.29 145.539 291.401 145.75 291.421 145.979C291.422 146.044 291.685 150.167 292.871 152.51C292.931 152.619 292.951 152.74 292.951 152.869V152.949C292.952 153.038 293.241 152.76 293.241 152.949C294.682 155.08 299.522 160.769 310.351 162.699C321.18 160.769 326.161 154.999 327.601 152.869C327.601 152.59 327.741 152.928 327.741 152.869C327.741 152.749 327.771 152.62 327.82 152.51C329.007 150.157 329.269 146.043 329.271 145.979C329.281 145.759 329.391 145.539 329.581 145.409C329.761 145.269 329.991 145.22 330.211 145.26C331.4 145.49 332.231 145.369 332.9 144.869C334.25 143.859 335.06 141.199 335.4 136.72C335.67 133.1 334.861 131.649 334.141 131.079C333.263 130.381 332.176 130.678 332.081 130.709C331.681 130.829 331.261 130.619 331.121 130.239C330.511 129.419 329.821 127.269 329.141 119.93C328.661 114.69 326.74 109.55 324.771 108.239Z" fill="black"/>
</svg>
