<svg width="620" height="714" viewBox="0 0 620 714" fill="none" xmlns="http://www.w3.org/2000/svg">
<path d="M228.911 226.819C228.911 226.819 228.851 226.849 228.821 226.849C228.821 226.849 228.741 226.839 228.701 226.809C228.641 226.759 228.611 226.679 228.631 226.609C231.071 217.439 232.441 214.109 233.341 211.919L233.361 211.879C233.811 210.759 234.171 209.889 234.501 208.739C236.991 200.669 243.061 190.559 257.871 188.189C258.201 188.129 258.441 188.089 258.581 188.059L258.781 188.009C258.931 187.969 259.091 187.929 259.271 187.889C259.491 187.839 259.721 187.779 259.971 187.709C260.251 187.639 260.531 187.559 260.801 187.489L261.271 187.369C261.291 187.369 261.301 187.369 261.321 187.369C269.141 185.809 277.361 187.819 281.561 189.159C281.641 189.179 281.691 189.259 281.691 189.339C281.691 189.419 281.641 189.489 281.571 189.529C279.781 190.199 277.151 191.319 274.821 192.789C269.891 195.899 267.791 198.649 264.881 202.459C263.531 204.249 262.011 206.249 259.901 208.699H259.891C257.691 211.269 253.121 216.589 247.321 220.499C245.771 221.539 243.151 222.539 239.761 223.369C239.761 223.369 239.711 223.379 239.691 223.379C238.181 223.549 236.621 223.869 235.081 224.309C235.081 224.309 235.071 224.309 235.061 224.309C235.021 224.309 234.991 224.319 234.971 224.339C233.631 224.729 232.351 225.199 231.131 225.739C230.361 226.089 229.621 226.449 228.941 226.839L228.911 226.819Z" fill="#DCBFEA"/>
<path d="M339.001 189.329C339.001 189.249 339.051 189.179 339.131 189.149C343.321 187.819 351.531 185.799 359.381 187.369C359.491 187.399 359.601 187.429 359.701 187.449C359.861 187.489 360.021 187.529 360.191 187.569L360.711 187.699L360.951 187.759C361.411 187.879 361.821 187.979 362.101 188.049C362.231 188.079 362.471 188.119 362.801 188.179C377.601 190.549 383.681 200.649 386.171 208.709C386.501 209.889 386.861 210.769 387.301 211.859V211.889C388.231 214.109 389.601 217.439 392.041 226.599C392.061 226.669 392.041 226.749 391.971 226.799C391.931 226.829 391.891 226.839 391.851 226.839C391.821 226.839 391.791 226.839 391.761 226.809C391.061 226.419 390.331 226.049 389.561 225.709C386.121 224.179 382.981 223.569 380.951 223.339C377.541 222.519 374.921 221.519 373.351 220.459C367.531 216.539 362.971 211.219 360.761 208.649H360.751C358.591 206.119 356.981 203.999 355.811 202.449L355.761 202.389C352.871 198.589 350.771 195.849 345.861 192.749C343.531 191.289 340.901 190.169 339.111 189.489C339.041 189.459 338.991 189.379 338.991 189.299L339.001 189.329Z" fill="#DCBFEA"/>
<path d="M299.26 93.6091C299.83 93.2192 300.541 92.7388 301.821 93.1687C303.421 93.1287 315.751 92.9596 323.42 97.3894C331.06 101.809 337.541 107.479 332.941 128.009C332.851 128.428 332.43 128.699 332 128.599C332.07 128.809 332.131 128.959 332.191 129.079C332.891 128.999 334.031 129.039 335.041 129.829C336.551 131.009 337.171 133.359 336.911 136.829C336.531 141.839 335.541 144.789 333.791 146.099C332.951 146.729 331.94 146.989 330.71 146.899C330.57 148.279 330.19 151.049 329.25 153.019V153.109C329.27 155 329.4 166.299 329.67 169.769C330.53 170.589 333.831 173.689 335.701 174.619C337.031 175.279 340.72 176.819 344.01 178.189L344.141 178.249C344.541 178.419 344.931 178.579 345.3 178.729C347.08 179.469 348.561 180.089 349.321 180.439C350.831 181.129 352.871 182.699 354.351 183.859C354.981 184.349 355.701 184.909 355.891 184.999C356.242 185.159 358.021 185.619 359.571 186.009H359.611C359.771 186.048 359.931 186.089 360.09 186.129C360.42 186.209 360.731 186.289 360.991 186.359C361.561 186.509 362.061 186.629 362.401 186.719C362.481 186.739 362.611 186.759 362.791 186.789C362.85 186.789 362.91 186.809 362.97 186.819C378.47 189.309 384.841 199.889 387.441 208.329C387.761 209.469 388.11 210.319 388.55 211.399C389.5 213.709 390.921 217.19 393.441 226.719C393.631 227.339 393.871 227.729 394.231 228.159C394.241 228.169 394.25 228.179 394.26 228.189C394.46 228.419 394.69 228.669 394.97 228.959C397.15 231.229 401.2 235.459 410.17 256.489C411.18 258.919 412.471 260.259 415.031 262.909L415.061 262.939C416.951 264.899 419.531 267.579 423.121 271.869C429.201 279.129 435.33 294.199 440.26 306.319L440.281 306.369C442.301 311.349 444.211 316.049 445.851 319.559C448.001 323.419 449.101 326.83 450.25 330.429V330.469C451.56 334.529 452.911 338.729 455.941 344.419L456.021 344.589L456.041 344.629L456.151 344.619C458.451 349.099 458.501 349.199 458.611 351.479H458.581C458.621 352.369 458.681 353.619 458.941 355.749C459.821 362.988 459.65 365.529 459.55 367.049V367.149C459.45 368.65 457.481 375.518 457.25 376.289C457.16 376.599 456.891 376.819 456.571 376.849C456.476 376.85 454.309 377.027 452.871 375.489C452.361 374.949 452.031 374.259 451.851 373.459C451.131 373.419 450.05 373.229 449.291 372.449C448.571 371.699 448.311 370.638 448.531 369.299C448.881 367.189 448.761 366.099 448.611 364.709C448.511 363.769 448.401 362.698 448.431 361.169C448.461 359.909 448.091 359.159 447.621 358.229V358.209C446.871 356.739 445.971 354.918 446.361 350.669C446.171 350.429 445.97 350.229 445.791 350.079C445.931 352.689 445.94 357.929 443.96 360.159C443.331 360.869 442.551 361.238 441.651 361.259C437.311 361.328 437.131 357.319 436.931 352.639V352.599C436.881 351.419 436.83 350.189 436.71 348.909C436.23 345.189 435.651 343.309 434.581 342.009C433.071 340.178 431.781 336.148 434.42 332.549C434.59 332.228 434.221 331.209 433.521 329.899C433.501 329.869 433.49 329.839 433.47 329.819C432.75 328.489 431.7 326.859 430.541 325.339C427.011 321.679 424.161 319.519 421.401 317.429H421.391C417.431 314.419 413.671 311.579 408.201 304.799C402.251 297.419 400.53 293.839 398.71 290.039C397.64 287.789 396.531 285.479 394.481 282.199C390.911 277.129 376.33 257.779 374.51 256.109C374.33 255.939 374.13 255.769 373.92 255.579C373.88 255.539 373.831 255.499 373.781 255.459C372.091 253.949 369.46 251.589 367.51 248.099C366.55 252.29 363.76 261.95 356.271 276.249C352.151 284.379 353.311 292.979 354.451 301.299L354.47 301.479C354.77 303.679 355.08 305.939 355.26 308.119C355.55 311.539 356.051 315.999 356.641 320.659V320.849C356.661 321.029 356.69 321.219 356.71 321.409C356.73 321.589 356.761 321.78 356.781 321.969C356.781 321.999 356.791 322.039 356.791 322.069C358.021 331.639 359.561 341.67 360.401 344.969C360.461 345.209 360.551 345.54 360.661 345.969C364.931 361.99 373.061 399.78 367.141 437.389C367.141 437.449 367.141 437.509 367.121 437.569C367.121 437.609 367.1 437.649 367.09 437.689C367.09 437.719 367.081 437.759 367.071 437.789C366.141 443.609 364.871 449.419 363.191 455.139C363.301 463.949 363.881 465.979 364.401 467.769C364.571 468.349 364.74 468.959 364.88 469.739C365.16 471.239 365.21 472.529 365.26 473.769V473.799C365.31 475.179 365.371 476.609 365.741 478.349C365.831 478.76 366.121 479.58 366.491 480.599C369.091 487.86 376.001 507.15 370.311 539.319C370.011 542.669 369.58 546.199 369.17 549.619L369.141 549.899C368.051 558.939 367.031 567.469 368.031 572.849C368.811 577.479 369.14 579.489 369.22 581.959C369.85 583.829 372.941 588.709 374.811 591.649L375.041 592.009C375.551 592.809 375.98 593.489 376.25 593.929C376.66 594.619 376.891 595.129 377.061 595.539C377.441 596.429 377.651 596.919 379.72 598.569C380.12 598.889 380.54 599.219 380.97 599.549L381 599.569C383.9 601.839 387.51 604.669 389.47 608.959C390.56 611.559 390.171 613.029 389.661 613.809C389.251 614.439 388.61 614.839 387.831 615.009C387.731 615.418 387.531 615.949 387.101 616.369C386.841 616.629 386.4 616.919 385.75 617.019C385.52 617.569 385.05 618.379 384.201 618.869C383.571 619.229 382.86 619.359 382.081 619.239C381.6 619.759 380.63 620.599 379.34 620.749C378.461 620.859 377.601 620.619 376.781 620.059C375.971 620.689 374.31 621.749 372.22 621.749C371.961 621.749 371.701 621.739 371.431 621.699C368.941 621.379 366.69 619.569 364.76 616.319C363.319 615.809 357.491 613.368 357.991 607.209C358.031 605.819 356.59 604.929 353.8 603.359L353.361 603.109C350.011 601.209 348.051 599.538 349.831 589.379C350.13 587.019 349.801 584.449 349.661 583.589C348.921 582.918 347.591 580.838 348.151 574.619C348.821 567.159 349.451 560.119 340.181 530.689C339.741 529.239 339.14 528.399 338.51 527.519C336.49 524.709 334.391 521.809 337.191 501.649C338.861 486.9 338.731 486.699 337.231 484.179V484.159C336.911 483.619 336.51 482.949 336.05 482.049C335.85 481.639 335.621 481.229 335.391 480.829L335.331 480.729V480.719C334.971 480.079 334.591 479.439 334.191 478.779C331.471 474.209 328.081 468.519 327.181 456.899C326.781 451.769 326.09 446.609 325.13 441.449C324.92 440.429 324.731 439.448 324.561 438.509C323.591 433.829 322.401 429.159 320.981 424.519C320.501 422.929 319.69 420.719 318.75 418.149V418.129C315.761 409.969 311.25 397.649 310.63 387.519C310.58 385.909 310.551 384.489 310.521 383.249V383.219C310.481 381.169 310.441 379.309 310.321 378.129C310.211 379.299 310.17 381.149 310.13 383.199V383.219C310.1 384.468 310.071 385.889 310.021 387.479C309.391 397.619 304.891 409.929 301.911 418.089V418.129C300.961 420.698 300.151 422.909 299.661 424.499C298.241 429.129 297.05 433.799 296.09 438.479C295.92 439.429 295.72 440.429 295.51 441.459C294.55 446.609 293.87 451.759 293.47 456.889C292.57 468.509 289.18 474.189 286.46 478.759C286.391 478.878 286.33 478.989 286.26 479.099C285.94 479.649 285.62 480.179 285.331 480.709V480.719L285.241 480.869C285.021 481.259 284.811 481.649 284.611 482.039C284.161 482.939 283.761 483.609 283.431 484.149V484.169C281.911 486.688 281.791 486.89 283.46 501.659C286.25 521.798 284.16 524.699 282.13 527.509V527.529C281.491 528.409 280.89 529.239 280.46 530.669C271.181 560.099 271.821 567.149 272.491 574.599C273.051 580.819 271.731 582.899 270.981 583.569C270.851 584.429 270.521 587.01 270.821 589.389C272.591 599.509 270.631 601.189 267.281 603.089L266.84 603.339C264.061 604.908 262.601 605.799 262.651 607.229C263.161 613.349 257.33 615.789 255.88 616.299C253.94 619.548 251.7 621.359 249.21 621.679C248.941 621.709 248.68 621.729 248.42 621.729C246.321 621.729 244.661 620.669 243.861 620.039C243.041 620.589 242.17 620.829 241.3 620.729C240.011 620.579 239.041 619.738 238.561 619.219C237.781 619.338 237.071 619.219 236.441 618.849C235.591 618.349 235.121 617.549 234.891 616.999C234.241 616.899 233.81 616.609 233.541 616.349C233.111 615.929 232.911 615.409 232.811 614.989C232.031 614.829 231.391 614.419 230.981 613.789C230.471 613.009 230.081 611.539 231.161 608.959C233.131 604.639 236.741 601.809 239.651 599.539H239.661C240.091 599.189 240.511 598.868 240.911 598.549C242.97 596.899 243.181 596.409 243.571 595.529L243.59 595.479C243.76 595.079 243.981 594.579 244.391 593.909C244.701 593.389 245.211 592.589 245.821 591.619C247.681 588.689 250.78 583.81 251.411 581.939C251.491 579.469 251.821 577.448 252.601 572.839C253.601 567.449 252.581 558.918 251.491 549.879L251.441 549.499C251.031 546.109 250.611 542.619 250.311 539.239C244.631 507.139 251.541 487.849 254.141 480.589L254.17 480.499C254.52 479.519 254.8 478.739 254.88 478.339C255.24 476.599 255.301 475.169 255.361 473.789C255.411 472.539 255.461 471.239 255.741 469.729C255.881 468.939 256.06 468.348 256.22 467.759C256.73 465.959 257.321 463.938 257.431 455.119C255.751 449.399 254.49 443.579 253.55 437.769C253.53 437.699 253.52 437.629 253.5 437.549C253.481 437.489 253.481 437.429 253.481 437.369C247.551 399.769 255.69 361.969 259.96 345.949C260.07 345.519 260.16 345.189 260.22 344.949C261.06 341.649 262.601 331.619 263.831 322.049C263.831 322.009 263.831 321.969 263.84 321.929C263.89 321.56 263.941 321.189 263.981 320.819V320.729C263.981 320.709 263.981 320.679 263.991 320.659V320.619C264.581 315.969 265.081 311.509 265.371 308.089C265.561 305.849 265.881 303.529 266.191 301.269C267.321 292.959 268.491 284.359 264.361 276.209C256.881 261.909 254.09 252.259 253.13 248.069C251.18 251.569 248.541 253.93 246.851 255.429L246.76 255.509C246.53 255.708 246.321 255.909 246.121 256.079C244.31 257.75 229.72 277.109 226.13 282.209C224.101 285.458 222.99 287.769 221.92 290.009C220.1 293.808 218.391 297.399 212.431 304.779C206.951 311.569 203.201 314.409 199.231 317.419C196.471 319.509 193.61 321.679 190.081 325.329C187.731 328.379 185.861 331.889 186.22 332.569C188.84 336.139 187.551 340.169 186.041 341.999C184.971 343.299 184.391 345.18 183.911 348.929C183.801 350.139 183.751 351.329 183.701 352.479V352.659C183.501 357.329 183.321 361.309 178.981 361.249C178.081 361.229 177.3 360.859 176.67 360.149C174.691 357.919 174.69 352.689 174.84 350.069C174.651 350.229 174.461 350.419 174.271 350.659C174.661 354.909 173.761 356.729 173.021 358.199C172.541 359.149 172.171 359.889 172.201 361.169C172.231 362.669 172.121 363.719 172.031 364.639V364.709C171.881 366.089 171.761 367.179 172.111 369.299C172.331 370.648 172.071 371.709 171.351 372.449C170.591 373.229 169.51 373.429 168.791 373.459C168.611 374.259 168.271 374.939 167.771 375.489C166.342 377.038 164.163 376.86 164.071 376.849C163.751 376.819 163.481 376.589 163.391 376.289C163.161 375.519 161.181 368.65 161.081 367.149V367.049C160.981 365.529 160.821 362.988 161.691 355.749C161.951 353.649 162.01 352.418 162.05 351.509V351.459C162.16 349.179 162.211 349.088 164.531 344.579V344.559L164.621 344.409C167.651 338.729 169 334.519 170.3 330.459C171.45 326.829 172.551 323.419 174.741 319.489C176.341 316.079 178.22 311.449 180.22 306.529L180.291 306.349C185.22 294.21 191.361 279.119 197.451 271.839C201.05 267.549 203.631 264.869 205.521 262.909C208.101 260.239 209.401 258.899 210.411 256.469C219.39 235.431 223.441 231.209 225.621 228.939L225.661 228.889C225.921 228.62 226.141 228.389 226.331 228.169C226.332 228.167 226.342 228.149 226.351 228.139C226.711 227.699 226.951 227.299 227.151 226.659C229.651 217.189 231.081 213.699 232.021 211.399V211.369L232.041 211.349C232.48 210.279 232.831 209.429 233.141 208.319C235.751 199.859 242.111 189.279 257.621 186.799H257.691C257.921 186.749 258.101 186.719 258.191 186.699C258.401 186.639 258.671 186.579 258.991 186.499C259.181 186.449 259.381 186.399 259.601 186.349C259.971 186.259 260.411 186.149 260.88 186.029C260.92 186.019 260.961 186.009 261 185.999C262.55 185.609 264.34 185.149 264.701 184.979C264.881 184.889 265.571 184.359 266.191 183.879L266.241 183.839C267.721 182.689 269.761 181.109 271.271 180.419C272.081 180.059 273.732 179.368 275.681 178.549C275.931 178.439 276.191 178.339 276.451 178.229L276.791 178.089C280.03 176.739 283.591 175.259 284.891 174.619C286.761 173.689 290.07 170.59 290.92 169.769C291.19 166.299 291.32 155 291.34 153.109V153.019C290.41 151.049 290.03 148.279 289.88 146.899C288.651 146.999 287.64 146.729 286.8 146.099C285.06 144.789 284.061 141.839 283.681 136.829C283.421 133.359 284.051 131.009 285.55 129.829C286.08 129.419 286.641 129.209 287.161 129.119C287.111 129.049 287.07 128.969 287.041 128.889V128.869C286.9 128.438 284.931 122.298 284.441 117.119C283.971 112.159 285.721 103.26 289.081 100.689C289.151 100.399 289.201 99.8693 288.811 99.5193C288.281 99.0494 288.111 98.3991 288.371 97.7693C288.831 96.6294 290.541 95.8891 292.541 95.949C292.7 95.949 292.801 95.9493 292.861 95.9294C292.861 95.8995 292.861 95.859 292.871 95.8191C292.871 95.7893 292.871 95.7591 292.88 95.7292C292.92 95.3593 293.001 94.7486 293.571 94.3386C294.251 93.8588 295.371 93.8093 297.331 94.1892C298.33 94.2392 298.771 93.9386 299.231 93.6287L299.26 93.6091ZM256.191 479.519C256.051 479.949 255.871 480.46 255.641 481.099C253.081 488.27 246.281 507.28 251.891 539.029C252.221 542.579 252.651 546.189 253.081 549.689V549.749C254.191 558.889 255.221 567.509 254.181 573.109C253.401 577.709 253.08 579.669 253.01 582.089C253.01 582.158 253.001 582.229 252.981 582.289C252.371 584.289 249.261 589.189 247.191 592.449L246.981 592.789C246.471 593.589 246.051 594.259 245.781 594.709C245.431 595.299 245.241 595.719 245.081 596.099L245.061 596.139C244.571 597.279 244.201 597.96 241.941 599.769C241.541 600.099 241.111 600.429 240.681 600.769C237.761 603.059 234.451 605.639 232.651 609.599C231.811 611.629 232.101 612.569 232.351 612.949C232.651 613.409 233.181 613.509 233.581 613.519C234.021 613.519 234.361 613.889 234.351 614.319C234.351 614.489 234.421 614.989 234.701 615.259C234.881 615.428 235.131 615.509 235.481 615.489C235.881 615.469 236.191 615.729 236.271 616.089C236.274 616.099 236.545 617.101 237.291 617.529C237.68 617.749 238.141 617.789 238.691 617.629C239.011 617.539 239.351 617.67 239.541 617.929C239.612 618.031 240.432 619.079 241.521 619.199C242.151 619.269 242.761 619.028 243.401 618.469C243.711 618.189 244.191 618.209 244.481 618.499C244.502 618.52 246.501 620.479 249.05 620.149C251.09 619.879 252.991 618.249 254.691 615.289C254.791 615.109 254.961 614.979 255.161 614.919C255.421 614.849 261.571 613.039 261.101 607.349C261.011 604.869 263.251 603.608 266.081 602.009L266.521 601.759C269.191 600.249 270.96 599.238 269.291 589.649C268.891 586.483 269.479 583.167 269.5 583.019C269.55 582.769 269.711 582.559 269.941 582.449C270.052 582.348 271.501 581.016 270.931 574.769C270.251 567.159 269.6 559.959 278.97 530.239L278.981 530.229C279.481 528.549 280.191 527.569 280.871 526.619H280.861C282.701 524.049 284.611 521.399 281.901 501.859C280.841 492.53 280.48 488.8 280.76 486.639C277.75 489.519 274.34 491.129 271.01 491.129H270.851C267.051 491.069 263.831 488.999 261.771 485.289C259.791 481.739 258.611 480.269 256.191 479.519ZM364.491 479.519C362.081 480.259 360.891 481.739 358.911 485.289C356.851 488.999 353.63 491.079 349.84 491.129H349.681C346.341 491.129 342.941 489.529 339.931 486.649C340.201 488.809 339.84 492.54 338.791 501.849C336.081 521.408 337.991 524.059 339.831 526.619C340.511 527.569 341.22 528.549 341.72 530.239C351.08 559.949 350.44 567.139 349.75 574.749C349.165 581.263 350.759 582.443 350.8 582.459C351.04 582.569 351.151 582.749 351.201 582.999V583.019C351.261 583.352 351.8 586.55 351.42 589.589C349.741 599.218 351.501 600.219 354.181 601.729L354.611 601.979C357.441 603.579 359.681 604.839 359.601 607.289C359.122 613.029 365.45 614.883 365.541 614.899C365.74 614.959 365.91 615.089 366.01 615.259C367.72 618.218 369.611 619.849 371.651 620.119C374.204 620.458 376.191 618.499 376.231 618.469C376.521 618.169 377.001 618.16 377.311 618.429C377.951 618.989 378.561 619.239 379.191 619.169C380.325 619.049 381.163 617.92 381.181 617.899C381.371 617.639 381.711 617.51 382.031 617.599C382.581 617.749 383.051 617.719 383.431 617.499C384.174 617.073 384.446 616.087 384.451 616.059C384.541 615.699 384.841 615.459 385.241 615.469C385.591 615.488 385.851 615.409 386.021 615.239C386.311 614.969 386.371 614.469 386.371 614.289C386.371 613.859 386.711 613.509 387.141 613.499C387.531 613.499 388.061 613.389 388.371 612.929C388.621 612.549 388.921 611.609 388.061 609.559C386.271 605.629 382.961 603.039 380.041 600.749C379.921 600.649 379.79 600.549 379.67 600.449C379.371 600.209 379.071 599.979 378.781 599.749C376.521 597.929 376.161 597.259 375.661 596.119C375.501 595.739 375.311 595.299 374.941 594.689C374.671 594.239 374.251 593.579 373.741 592.769L373.531 592.429C371.461 589.18 368.351 584.27 367.741 582.269C367.721 582.199 367.701 582.139 367.701 582.069C367.621 579.649 367.301 577.679 366.521 573.069C365.471 567.479 366.521 558.848 367.611 549.719V549.669C368.041 546.169 368.471 542.549 368.791 539.069C374.421 507.249 367.61 488.239 365.05 481.079C365.01 480.949 364.96 480.829 364.92 480.709V480.729C364.75 480.259 364.61 479.859 364.5 479.519H364.491ZM259.01 456.769C258.85 464.439 258.281 466.419 257.771 468.189C257.611 468.759 257.451 469.299 257.321 470.009C257.071 471.418 257.02 472.599 256.97 473.849C256.92 475.119 256.87 476.439 256.59 478.009C259.6 478.909 261.07 480.759 263.17 484.539C264.95 487.739 267.691 489.529 270.891 489.579C275.481 489.619 280.271 486.189 283.771 480.319C283.781 480.299 283.801 480.259 283.821 480.229C283.841 480.189 283.871 480.139 283.891 480.099L283.911 480.059V480.049C284.291 479.369 284.701 478.689 285.121 477.979C287.541 473.909 290.511 468.929 291.661 459.409C289.441 465.609 285.681 472.109 279.651 472.109H279.51C272.801 471.999 271.481 466.279 270.521 462.109C270.101 460.299 269.671 458.429 268.941 458.089C268.671 457.969 268.27 458.029 267.75 458.289C265.231 459.519 263.141 459.679 261.351 458.809C260.441 458.359 259.67 457.669 259.01 456.769ZM361.691 456.759C361.031 457.648 360.261 458.349 359.351 458.799C357.561 459.678 355.471 459.509 352.951 458.279C352.421 458.019 352.02 457.959 351.75 458.079C351.021 458.419 350.59 460.289 350.17 462.089V462.119C349.2 466.289 347.881 471.999 341.181 472.109H341.041C335.011 472.109 331.251 465.619 329.031 459.419C330.181 468.929 333.141 473.909 335.571 477.979L335.601 478.029C336.011 478.729 336.411 479.399 336.791 480.069V480.089C336.791 480.089 336.831 480.149 336.851 480.179C336.881 480.239 336.911 480.289 336.941 480.339C340.391 486.118 345.151 489.569 349.67 489.569H349.811C353.011 489.519 355.751 487.739 357.531 484.539C359.641 480.749 361.101 478.899 364.111 477.999C363.831 476.429 363.781 475.109 363.731 473.839V473.809C363.681 472.569 363.63 471.389 363.38 469.999C363.25 469.289 363.101 468.749 362.931 468.179C362.421 466.409 361.851 464.418 361.691 456.759ZM265.291 323.409C264.101 332.499 262.66 341.938 261.8 345.339L261.76 345.489C261.7 345.709 261.631 346 261.531 346.349C257.281 362.31 249.161 400.039 255.141 437.459C255.501 439.099 255.831 440.769 256.151 442.389V442.419C257.521 449.299 258.801 455.799 262.061 457.399C263.371 458.049 265.011 457.878 267.061 456.879C268.041 456.399 268.911 456.329 269.63 456.669C271.05 457.339 271.501 459.289 272.071 461.759C273.011 465.838 274.071 470.448 279.541 470.549H279.651C289.585 470.548 292.827 448.392 292.861 448.149V448.109C293.151 445.999 293.491 443.889 293.871 441.789C293.871 441.749 293.87 441.709 293.88 441.659C293.9 441.579 293.911 441.489 293.931 441.409C293.951 441.329 293.961 441.239 293.981 441.159C294.171 440.169 294.361 439.189 294.561 438.199L294.571 438.189C294.591 438.049 294.621 437.909 294.651 437.769C297.121 424.07 295.861 422.559 293.101 419.239C290.221 415.759 285.871 410.519 282.121 390.439C281.111 384.999 280.381 378.459 279.611 371.539C277.451 352.099 275.011 330.139 265.291 323.409ZM355.42 323.399C345.701 330.14 343.261 352.089 341.101 371.529C340.331 378.449 339.6 384.99 338.59 390.429C334.85 410.509 330.491 415.759 327.611 419.229C324.851 422.549 323.601 424.06 326.071 437.769L326.151 438.209C326.351 439.179 326.54 440.149 326.72 441.119L326.831 441.649C326.831 441.655 326.84 441.74 326.84 441.789C327.22 443.899 327.561 445.999 327.851 448.099V448.139C327.886 448.405 331.129 470.538 341.061 470.539H341.17C346.64 470.449 347.701 465.828 348.641 461.759C349.211 459.289 349.661 457.339 351.081 456.669C351.801 456.329 352.671 456.399 353.651 456.879C355.701 457.879 357.331 458.049 358.651 457.399C361.901 455.799 363.19 449.299 364.55 442.419L364.59 442.209C364.9 440.649 365.221 439.039 365.571 437.459C371.561 400.039 363.441 362.32 359.181 346.349C359.071 345.919 358.981 345.579 358.911 345.339V345.329C358.041 341.929 356.6 332.489 355.42 323.399ZM265.771 321.839C276.421 328.689 278.94 351.329 281.17 371.349V371.469C281.95 378.318 282.67 384.789 283.67 390.149C287.34 409.839 291.541 414.889 294.321 418.239C296.211 420.509 297.471 422.029 297.561 426.189C297.771 425.479 297.981 424.769 298.191 424.059C298.661 422.519 299.421 420.428 300.311 418.009L300.481 417.549C303.431 409.479 307.871 397.309 308.481 387.429L308.47 387.419C308.51 385.859 308.551 384.439 308.571 383.199V383.109C308.641 380.079 308.68 378.149 308.92 376.989C302.221 376.069 299.121 367.929 293.651 349.559C287.581 329.18 271.961 323.369 265.771 321.839ZM354.92 321.829C348.73 323.359 333.11 329.169 327.041 349.549C321.571 367.918 318.471 376.059 311.771 376.979C312.011 378.139 312.051 380.07 312.121 383.099V383.199C312.151 384.439 312.181 385.859 312.231 387.439C312.841 397.309 317.301 409.509 320.25 417.579L320.321 417.789C321.241 420.299 322.03 422.459 322.51 424.049C322.73 424.759 322.941 425.469 323.141 426.169L323.151 426.179C323.241 422.03 324.501 420.509 326.38 418.239C329.16 414.889 333.361 409.839 337.031 390.149C338.031 384.779 338.761 378.289 339.521 371.419V371.339C341.751 351.309 344.271 328.679 354.92 321.829ZM334.891 272.499C334.601 280.909 333.791 297.509 333.041 309.279C331.56 332.379 317.15 351.479 310.42 351.479H310.26C303.53 351.478 289.121 332.368 287.641 309.279C286.891 297.499 286.081 280.899 285.791 272.499C284.601 279.059 283.35 286.399 284.34 293.139C286.63 308.599 281.091 315.769 278.611 318.139C276.611 320.039 273.731 321.309 270.681 321.779C278.351 324.739 290.041 331.959 295.151 349.129C301.151 369.258 304.021 375.529 310.25 375.529H310.431C316.671 375.529 319.541 369.258 325.531 349.129C330.641 331.949 342.331 324.739 350 321.779C346.951 321.309 344.071 320.039 342.071 318.139C339.581 315.769 334.051 308.599 336.34 293.139C337.34 286.399 336.081 279.059 334.891 272.499ZM173.951 324.889C173.141 326.899 172.511 328.85 171.871 330.849L171.84 330.949C170.58 334.879 169.161 339.339 166.061 345.129L165.981 345.279C164.501 348.159 163.731 350.239 163.67 351.549C163.63 352.479 163.56 353.759 163.3 355.949C162.44 363.038 162.601 365.499 162.701 366.959V367.059C162.761 368.01 163.921 372.289 164.781 375.289C165.301 375.239 166.101 375.049 166.661 374.429C167.391 373.629 167.59 372.298 167.26 370.469C166.47 366.129 166.671 365.329 167.161 363.389C167.401 362.459 167.681 361.289 167.981 359.289C168.401 357.499 169.06 356.699 169.76 355.849C170.52 354.919 171.39 353.858 172.22 351.089C172.23 351.049 172.251 351.008 172.271 350.969C173.5 348.481 175.488 347.96 175.611 347.929C175.861 347.869 176.121 347.929 176.311 348.099C176.511 348.269 176.601 348.519 176.581 348.769C176.351 350.97 176.141 357.119 177.92 359.109C178.26 359.489 178.631 359.669 179.081 359.679H179.17C181.65 359.679 181.971 357.689 182.191 352.519C182.241 351.319 182.291 350.068 182.411 348.759C182.931 344.659 183.601 342.568 184.88 341.009C186.03 339.608 187.081 336.319 184.991 333.459C184.571 332.839 184.67 331.878 185.05 330.799C184.04 331.078 183.04 331.219 182.09 331.219C180.771 331.219 179.54 330.959 178.46 330.429C176.421 329.419 174.821 327.419 173.951 324.889ZM446.76 324.879C445.89 327.409 444.29 329.409 442.25 330.419C441.181 330.949 439.94 331.209 438.621 331.209C437.671 331.209 436.68 331.069 435.67 330.799C436.04 331.869 436.151 332.819 435.741 333.429C433.631 336.319 434.671 339.599 435.831 340.999C437.111 342.559 437.78 344.649 438.3 348.719C438.42 350.019 438.471 351.229 438.521 352.399V352.509C438.751 357.678 439.071 359.668 441.55 359.669H441.641C442.101 359.669 442.471 359.479 442.8 359.099C444.57 357.109 444.371 350.959 444.141 348.759C444.111 348.509 444.221 348.259 444.411 348.089C444.601 347.919 444.861 347.859 445.111 347.919C445.202 347.939 447.211 348.44 448.451 350.959C448.471 350.989 448.48 351.029 448.5 351.069C449.32 353.849 450.191 354.909 450.96 355.839V355.849C451.66 356.699 452.32 357.499 452.72 359.219C453.03 361.288 453.32 362.449 453.55 363.389C454.03 365.329 454.231 366.129 453.451 370.469C453.121 372.298 453.32 373.629 454.05 374.429C454.61 375.049 455.411 375.239 455.931 375.289C456.791 372.299 457.95 368.01 458.01 367.059V366.949C458.11 365.479 458.271 363.019 457.411 355.929C457.151 353.73 457.091 352.459 457.041 351.529C456.981 350.229 456.211 348.149 454.731 345.269L454.651 345.109C451.571 339.339 450.141 334.889 448.891 330.969L448.871 330.919C448.221 328.879 447.58 326.909 446.76 324.879ZM172.741 354.139C172.121 355.439 171.5 356.199 170.96 356.849C170.311 357.649 169.83 358.23 169.51 359.599C169.22 361.609 168.911 362.869 168.681 363.779C168.231 365.589 168.081 366.199 168.811 370.199C168.921 370.799 168.971 371.369 168.981 371.889C169.421 371.839 169.93 371.699 170.26 371.369C170.62 370.989 170.741 370.389 170.601 369.549C170.221 367.229 170.361 365.928 170.5 364.549C170.6 363.609 170.7 362.639 170.67 361.199C170.63 359.539 171.151 358.509 171.651 357.519C172.081 356.639 172.561 355.699 172.741 354.139ZM447.951 354.129C448.141 355.698 448.61 356.639 449.05 357.509C449.55 358.519 450.071 359.549 450.031 361.199C450.001 362.629 450.111 363.599 450.201 364.529V364.559C450.351 365.929 450.481 367.229 450.101 369.539C449.971 370.369 450.081 370.979 450.441 371.359C450.761 371.689 451.271 371.839 451.72 371.879C451.72 371.359 451.781 370.789 451.891 370.189C452.621 366.189 452.47 365.569 452.01 363.769L451.991 363.709C451.771 362.799 451.461 361.549 451.161 359.519C450.851 358.219 450.37 357.629 449.72 356.839C449.19 356.189 448.571 355.428 447.951 354.129ZM325.88 240.859C321.13 239.109 315.13 237.879 312.55 239.659C311.661 240.279 311.22 241.24 311.22 242.599C311.22 243.029 310.861 243.378 310.431 243.379H310.271C309.831 243.379 309.481 243.029 309.481 242.599C309.481 241.239 309.041 240.269 308.151 239.659C305.571 237.879 299.571 239.109 294.811 240.859C294.161 241.139 293.5 241.389 292.831 241.629C289.581 242.959 286.301 244.709 285.231 247.109C284.571 248.589 284.931 249.759 285.601 251.879C286.151 253.629 286.871 255.919 287.201 259.279C287.261 259.699 287.291 260.139 287.311 260.609C287.331 260.869 287.341 261.139 287.351 261.419C287.401 262.559 287.37 263.099 287.34 263.829V263.859C287.3 264.659 287.241 265.75 287.271 268.229C287.311 273.23 288.311 294.79 289.231 309.179C290.711 332.289 304.931 349.918 310.271 349.919H310.431C315.771 349.918 329.99 332.288 331.47 309.179C332.39 294.81 333.391 273.24 333.431 268.229V268.219C333.451 265.74 333.401 264.649 333.361 263.849V263.829C333.321 263.089 333.301 262.549 333.351 261.409C333.361 261.129 333.381 260.859 333.391 260.599C333.411 260.139 333.441 259.709 333.5 259.299C333.83 255.929 334.551 253.629 335.101 251.879C335.771 249.769 336.13 248.599 335.47 247.109C334.4 244.719 331.121 242.959 327.871 241.629C327.201 241.399 326.53 241.149 325.88 240.859ZM310.431 314.019C310.871 314.02 311.221 314.37 311.221 314.8V344.38C311.221 344.809 310.861 345.159 310.431 345.159H310.271C309.831 345.159 309.481 344.809 309.481 344.38V314.8C309.481 314.37 309.841 314.019 310.271 314.019H310.431ZM408.441 256.179C411.831 270.029 407.501 274.939 403.951 276.669C402.751 277.259 401.33 277.599 399.72 277.599C397.12 277.599 394.07 276.689 390.781 274.439C392.981 277.399 394.831 279.929 395.811 281.309C397.931 284.699 399.061 287.059 400.161 289.339C401.941 293.059 403.621 296.559 409.451 303.789C414.81 310.429 418.491 313.219 422.38 316.169C425.2 318.299 428.111 320.509 431.741 324.269L431.731 324.279C431.734 324.282 431.771 324.32 431.791 324.349C432.431 325.179 433.781 327.009 434.781 328.859C437.28 329.859 439.73 329.919 441.55 329.019C443.64 327.989 445.231 325.519 445.741 322.539C445.381 321.789 444.991 321.029 444.561 320.249C442.901 316.699 441.01 312.039 439 307.109L438.931 306.939C434.041 294.909 427.961 279.94 422.021 272.849C418.461 268.599 415.901 265.949 414.031 264.009L414.01 263.989C411.4 261.279 409.951 259.779 408.831 257.079C408.701 256.779 408.571 256.479 408.441 256.179ZM211.88 257.079C210.76 259.759 209.32 261.259 206.72 263.959L206.63 264.049C204.76 265.989 202.211 268.63 198.691 272.849C192.761 279.93 186.68 294.879 181.791 306.909V306.939C179.751 311.939 177.83 316.649 176.17 320.199C175.73 320.999 175.33 321.779 174.97 322.539C175.48 325.509 177.071 327.989 179.161 329.019C180.981 329.919 183.431 329.849 185.931 328.849C186.931 327 188.27 325.18 188.911 324.349C188.931 324.329 188.95 324.309 188.97 324.279C192.59 320.529 195.501 318.319 198.311 316.189L198.331 316.169C202.22 313.219 205.9 310.429 211.26 303.789C217.1 296.559 218.781 293.049 220.561 289.339L220.59 289.269V289.289C221.67 287.029 222.801 284.679 224.88 281.359C225.86 279.949 227.721 277.419 229.931 274.439C226.641 276.699 223.591 277.599 220.991 277.599C219.391 277.599 217.96 277.259 216.76 276.669C213.21 274.928 208.881 270.028 212.271 256.179C212.141 256.469 212.01 256.769 211.88 257.079ZM254.96 228.669C256.91 233.089 255.97 238.889 255.55 241.429C255.29 242.989 254.901 244.549 254.391 246.069C254.841 248.48 257.151 258.94 265.84 275.529C270.19 284.109 268.991 292.959 267.831 301.509L267.821 301.489C267.501 303.819 267.2 306.029 267.01 308.229C266.74 311.349 266.261 315.629 265.701 320.199C269.951 320.939 274.731 319.669 277.531 316.999C279.841 314.809 284.97 308.099 282.791 293.359C281.721 286.149 283.121 278.399 284.361 271.569V271.549C285.141 267.279 285.821 263.519 285.731 260.729C285.701 260.289 285.67 259.879 285.63 259.469C285.23 256.759 280.101 252.369 274.161 247.299C269.451 243.269 264.131 238.719 259.571 233.709C258.941 233.069 258.33 232.399 257.75 231.699C256.881 230.659 255.97 229.609 254.96 228.669ZM365.76 228.649C364.75 229.599 363.84 230.63 362.97 231.679C362.39 232.379 361.781 233.049 361.151 233.689C356.581 238.699 351.26 243.249 346.55 247.279L346.521 247.309C340.591 252.379 335.481 256.749 335.081 259.459C335.041 259.859 335.001 260.279 334.981 260.709C334.891 263.499 335.57 267.259 336.34 271.529C337.58 278.369 338.98 286.119 337.92 293.339C335.741 308.078 340.881 314.779 343.181 316.979C345.981 319.649 350.751 320.919 355.01 320.179C354.44 315.61 353.971 311.339 353.701 308.219C353.511 306.02 353.211 303.809 352.891 301.479V301.459H352.88C351.72 292.909 350.531 284.078 354.871 275.509C363.56 258.909 365.871 248.459 366.321 246.039C365.811 244.519 365.411 242.969 365.161 241.409C364.751 238.869 363.811 233.069 365.76 228.649ZM324.691 302.059H324.701C325.13 302.069 325.471 302.429 325.471 302.859C325.461 303.299 325.081 303.629 324.671 303.63C322.071 303.57 315.212 304.239 312.841 304.769C311.582 305.059 311.231 306.279 311.151 308.149C311.171 308.719 311.171 309.28 311.171 309.809V310.149C311.171 310.579 310.811 310.929 310.381 310.929H310.331C309.901 310.929 309.541 310.579 309.541 310.149V309.809C309.541 309.27 309.541 308.709 309.561 308.149C309.481 306.279 309.13 305.059 307.871 304.769C305.51 304.239 298.671 303.57 296.041 303.63C295.621 303.639 295.241 303.289 295.241 302.859C295.231 302.429 295.581 302.059 296.011 302.059C298.752 302.009 305.721 302.679 308.221 303.239C309.251 303.469 309.911 304.02 310.351 304.75C310.781 304.02 311.451 303.469 312.481 303.239C314.981 302.679 321.941 302.009 324.691 302.059ZM310.411 291.359C310.85 291.359 311.201 291.709 311.201 292.149C311.201 299.318 311.842 299.66 314.261 299.84C317.981 299.94 319.941 299.81 322.401 299.63H322.611L322.621 299.609C324.12 299.509 325.821 299.389 328.221 299.309C328.661 299.31 329.02 299.639 329.041 300.069C329.06 300.499 328.72 300.86 328.281 300.88C325.901 300.97 324.211 301.079 322.731 301.179H322.551C320.651 301.329 319.051 301.439 316.731 301.439C315.981 301.439 315.14 301.429 314.201 301.399C312.111 301.249 310.971 300.579 310.351 299.139C309.741 300.589 308.61 301.239 306.541 301.399C305.581 301.429 304.731 301.439 303.961 301.439C301.632 301.439 300.041 301.329 298.141 301.199C296.611 301.089 294.88 300.97 292.411 300.88C291.981 300.859 291.631 300.499 291.651 300.069C291.671 299.639 292.051 299.299 292.471 299.319C294.971 299.409 296.711 299.529 298.261 299.639C300.731 299.809 302.691 299.95 306.451 299.84C308.84 299.66 309.471 299.318 309.471 292.149C309.471 291.719 309.821 291.359 310.261 291.359H310.411ZM314.301 279.849C318.031 279.809 322.231 280.279 324.75 280.569C325.18 280.619 325.491 281.009 325.441 281.439C325.391 281.869 325.01 282.179 324.571 282.13H324.541C322.061 281.85 317.96 281.38 314.321 281.42C311.651 281.46 311.191 282.78 311.191 286.729C311.191 287.159 310.841 287.509 310.401 287.51H310.241C309.801 287.509 309.451 287.159 309.451 286.729C309.451 282.769 309.001 281.45 306.321 281.42H306.351C302.721 281.38 298.581 281.85 296.101 282.13C295.661 282.189 295.271 281.869 295.221 281.439C295.171 281.009 295.481 280.619 295.911 280.569C298.421 280.279 302.641 279.809 306.361 279.849C308.551 279.879 309.711 280.72 310.331 281.92C310.951 280.72 312.121 279.889 314.301 279.849ZM310.421 268.059C310.861 268.06 311.211 268.41 311.211 268.84C311.211 269.599 311.181 270.33 311.161 271.04L311.151 271.25V271.319C311.141 271.519 311.131 271.72 311.131 271.92C311.151 272.669 311.171 273.39 311.131 274.059C311.201 275.419 311.481 276.33 312.241 276.76C315.371 278.519 321.591 278.419 328.191 278.309H328.931L328.941 278.319C329.371 278.319 329.731 278.66 329.731 279.09C329.731 279.519 329.39 279.879 328.951 279.88L328.301 279.889H328.151C326.561 279.919 325.02 279.939 323.541 279.939C318.451 279.939 314.181 279.649 311.481 278.13C311.001 277.86 310.641 277.509 310.361 277.09C310.091 277.499 309.72 277.86 309.241 278.13C306.541 279.649 302.261 279.939 297.181 279.939C295.711 279.939 294.17 279.919 292.581 279.889L292.421 279.88H291.771C291.331 279.879 290.991 279.519 290.991 279.09C291.001 278.66 291.351 278.319 291.781 278.319H292.441C299.06 278.429 305.321 278.529 308.451 276.769C309.211 276.339 309.481 275.439 309.561 274.069C309.521 273.399 309.541 272.679 309.561 271.929C309.561 271.73 309.541 271.529 309.541 271.309V271.26C309.511 270.48 309.481 269.679 309.481 268.84C309.481 268.41 309.841 268.059 310.271 268.059H310.421ZM378.96 224.589C375.291 224.479 371.83 224.379 369.331 226.399C364.891 229.989 366.21 238.099 366.71 241.149C366.92 242.429 367.23 243.709 367.63 244.959C367.76 245.049 367.871 245.169 367.931 245.319C369.731 249.709 372.811 252.459 374.851 254.269C374.911 254.319 374.971 254.38 375.031 254.429C375.231 254.609 375.431 254.779 375.601 254.949C376.631 255.899 380.871 261.33 385.26 267.109C392.61 276.019 399.361 277.169 403.231 275.279C407.391 273.239 412.661 266.038 401.141 240.739C397.351 233.619 395.181 231.359 393.911 230.029C393.671 229.769 393.441 229.539 393.231 229.299C391.911 228.419 390.491 227.639 389.021 226.979C387.731 226.409 386.501 225.979 385.351 225.649C385.321 225.649 385.301 225.639 385.281 225.629C382.361 224.799 380.03 224.619 378.96 224.589ZM251.371 226.399C248.881 224.379 245.411 224.479 241.741 224.589C240.671 224.619 238.34 224.789 235.42 225.629H235.401C235.381 225.629 235.36 225.639 235.34 225.649C234.191 225.979 232.96 226.409 231.67 226.979C230.201 227.639 228.79 228.419 227.47 229.299C227.26 229.539 227.03 229.779 226.791 230.029C225.52 231.369 223.351 233.63 219.561 240.739C208.051 266.038 213.311 273.229 217.481 275.269C221.351 277.169 228.101 276.019 235.451 267.109C235.451 267.109 235.451 267.1 235.46 267.099C239.86 261.31 244.09 255.89 245.121 254.939C245.301 254.779 245.491 254.609 245.691 254.419C245.751 254.369 245.811 254.318 245.871 254.259L245.901 254.239C247.931 252.419 251.001 249.679 252.791 245.309L252.781 245.319C252.841 245.169 252.951 245.049 253.081 244.959C253.47 243.709 253.781 242.439 253.991 241.149C254.491 238.099 255.811 229.989 251.371 226.399ZM314.281 257.659C317.77 257.069 321.881 258.14 324.331 258.79L324.881 258.939C325.301 259.049 325.551 259.47 325.441 259.889C325.331 260.309 324.901 260.549 324.481 260.449L323.921 260.3C321.591 259.69 317.69 258.669 314.541 259.199C311.711 259.679 311.211 261.119 311.211 263.949C311.211 264.378 310.861 264.729 310.421 264.729H310.261C309.822 264.729 309.471 264.379 309.471 263.949C309.471 261.109 308.97 259.669 306.151 259.199C302.991 258.669 299.101 259.69 296.761 260.3L296.781 260.29L296.221 260.439H296.231C295.811 260.549 295.381 260.299 295.271 259.88C295.161 259.47 295.411 259.04 295.831 258.929L296.381 258.79C298.841 258.15 302.941 257.069 306.431 257.659C308.581 258.019 309.731 258.93 310.361 260.09C310.981 258.93 312.141 258.019 314.281 257.659ZM310.451 246.889C310.891 246.89 311.241 247.24 311.241 247.67C311.241 252.186 311.371 255.155 313.188 255.169C319.598 255.051 323.967 256.171 330.391 258.019C330.811 258.139 331.051 258.579 330.931 258.989C330.831 259.328 330.521 259.549 330.171 259.55C330.102 259.55 330.02 259.549 329.951 259.519C323.661 257.699 319.391 256.609 313.191 256.729C311.731 256.729 310.861 255.929 310.361 254.679C309.861 255.929 309.01 256.719 307.541 256.729C301.321 256.609 297.041 257.699 290.761 259.519C290.681 259.539 290.61 259.55 290.541 259.55C290.201 259.549 289.891 259.328 289.791 258.989C289.671 258.579 289.911 258.14 290.331 258.019C296.76 256.159 301.121 255.04 307.571 255.17C309.36 255.169 309.5 252.199 309.5 247.67C309.5 247.24 309.851 246.89 310.291 246.889H310.451ZM268.09 239.919C270.49 242.099 272.901 244.159 275.181 246.109C279.211 249.549 282.71 252.539 284.88 255.099C284.63 254.079 284.361 253.199 284.121 252.439L284.09 252.329C283.4 250.099 282.891 248.489 283.791 246.469C284.378 245.164 285.413 244.057 286.716 243.099C286.717 243.099 286.719 243.099 286.72 243.099L286.731 243.089C286.726 243.092 286.721 243.096 286.716 243.099C285.338 243.279 283.959 243.379 282.581 243.379C277.581 243.379 272.6 242.189 268.09 239.919ZM352.601 239.909C348.091 242.179 343.121 243.369 338.111 243.369C336.731 243.369 335.35 243.269 333.97 243.089C335.28 244.049 336.321 245.159 336.911 246.469L336.901 246.479C337.811 248.499 337.301 250.109 336.601 252.349L336.571 252.439C336.331 253.199 336.061 254.08 335.811 255.099C337.991 252.54 341.481 249.539 345.51 246.099C347.78 244.159 350.201 242.089 352.601 239.909ZM336.25 189.969C334.14 189.349 330.22 188.189 323.25 188.849C311.311 189.97 311.231 197.379 311.231 197.689V219.559C311.231 223.909 312.741 228.069 315.491 231.279C318.531 234.829 322.23 237.559 326.47 239.399L326.46 239.409C327.15 239.669 327.841 239.929 328.531 240.209C339.411 243.969 351.78 240.968 360.01 232.589C360.07 232.519 360.131 232.459 360.191 232.389C360.241 232.34 360.281 232.289 360.331 232.239C360.331 232.239 360.341 232.229 360.351 232.219C360.361 232.219 360.371 232.199 360.38 232.189C360.85 231.699 361.301 231.199 361.731 230.669C364.751 227.039 368.521 223.18 375.22 222.979C374.18 222.549 373.3 222.089 372.59 221.609C366.631 217.599 361.981 212.179 359.741 209.569C357.651 207.119 356.131 205.119 354.791 203.359L354.731 203.289C351.801 199.439 349.871 196.899 345.141 193.919C341.621 191.699 337.211 190.269 336.661 190.089C336.531 190.049 336.4 190.019 336.25 189.969ZM297.46 188.859C290.501 188.199 286.57 189.359 284.46 189.979C284.311 190.019 284.18 190.059 284.05 190.099C283.487 190.28 279.079 191.71 275.561 193.929C270.831 196.909 268.901 199.449 265.981 203.289C264.631 205.079 263.091 207.099 260.991 209.549C258.731 212.179 254.08 217.599 248.121 221.609C247.411 222.089 246.531 222.539 245.491 222.979C252.191 223.169 255.961 227.039 258.981 230.669C259.421 231.199 259.871 231.699 260.331 232.189C260.35 232.199 260.37 232.219 260.38 232.229L260.701 232.569C268.941 240.949 281.301 243.949 292.191 240.189C292.881 239.909 293.571 239.639 294.26 239.389C298.5 237.549 302.201 234.819 305.241 231.269L305.22 231.289C307.97 228.079 309.481 223.919 309.481 219.569V197.709C309.481 197.385 309.397 189.989 297.46 188.859ZM310.351 224.859C309.601 227.599 308.27 230.149 306.42 232.299C304.681 234.328 302.731 236.109 300.601 237.619C303.681 237.049 306.981 236.949 309.061 238.379C309.611 238.759 310.031 239.219 310.361 239.759C310.681 239.219 311.111 238.749 311.661 238.379C313.731 236.949 317.031 237.049 320.111 237.619C317.981 236.109 316.03 234.339 314.291 232.309H314.281C312.431 230.149 311.101 227.609 310.351 224.859ZM359.311 187.549C351.371 185.979 342.981 188.129 339.191 189.339C340.991 190.019 343.641 191.149 345.981 192.619C350.961 195.759 353.071 198.529 355.991 202.369L356.13 202.549C357.44 204.269 358.931 206.209 360.931 208.549C363.141 211.119 367.701 216.429 373.491 220.329C375.041 221.379 377.651 222.359 381.021 223.189C383.121 223.429 386.231 224.039 389.681 225.569C390.431 225.899 391.171 226.279 391.891 226.669C389.471 217.589 388.101 214.229 387.191 212.009C386.731 210.869 386.361 209.979 386.021 208.779C383.551 200.779 377.511 190.739 362.811 188.379H362.731C362.431 188.319 362.22 188.279 362.09 188.249C361.76 188.159 361.26 188.039 360.701 187.899C360.251 187.789 359.811 187.679 359.391 187.569L359.371 187.559H359.311V187.549ZM281.51 189.349C277.72 188.139 269.341 185.99 261.391 187.559H261.331C260.911 187.679 260.471 187.789 260.021 187.899C259.451 188.039 258.96 188.159 258.63 188.249C258.5 188.289 258.25 188.329 257.911 188.379C243.211 190.739 237.171 200.779 234.691 208.799V208.789C234.361 209.979 233.991 210.869 233.531 211.989C232.621 214.219 231.241 217.569 228.821 226.659C229.541 226.269 230.281 225.899 231.031 225.559C234.481 224.029 237.601 223.419 239.691 223.179C243.06 222.36 245.67 221.369 247.22 220.329C253.01 216.429 257.571 211.119 259.771 208.569C261.831 206.169 263.341 204.189 264.661 202.449L264.731 202.359C267.641 198.529 269.751 195.759 274.72 192.629C277.06 191.149 279.71 190.029 281.51 189.349ZM327.75 154.669C325.64 157.409 320.36 162.819 310.481 164.569H310.181C303.191 163.329 298.581 160.269 295.931 157.919C294.561 156.699 293.581 155.569 292.911 154.689C292.881 156.999 292.821 161.1 292.731 164.599L292.75 164.609V180.849C292.75 183.919 291.641 185.879 289.931 187.279C291.981 187.069 294.501 187.019 297.601 187.309C306.001 188.099 309.16 191.939 310.34 194.729C311.52 191.939 314.681 188.109 323.081 187.309C326.18 187.019 328.701 187.069 330.75 187.279C329.041 185.879 327.931 183.919 327.931 180.849V164.599C327.831 161.079 327.78 156.979 327.75 154.669ZM291.161 171.719C289.741 173.02 287.27 175.199 285.621 176.019C284.23 176.709 280.43 178.29 277.09 179.679C274.901 180.589 272.841 181.449 271.951 181.849V181.859C270.601 182.469 268.661 183.979 267.231 185.089C267.161 185.139 267.1 185.189 267.041 185.239C266.961 185.299 266.88 185.369 266.8 185.419C275.029 185.279 282.359 187.908 283.88 188.499C288.81 186.839 291.161 185.218 291.161 180.839V171.719ZM329.521 180.839C329.521 185.218 331.871 186.839 336.8 188.499C338.32 187.909 345.651 185.279 353.88 185.419C353.801 185.359 353.721 185.299 353.641 185.229C353.581 185.179 353.521 185.129 353.451 185.079L353.331 184.989C351.921 183.899 350.041 182.449 348.731 181.859C347.841 181.459 345.781 180.599 343.601 179.689C340.251 178.299 336.451 176.719 335.061 176.019V176.029C333.411 175.209 330.931 173.039 329.521 171.729V180.839ZM324.771 108.239C324.331 107.939 323.93 107.859 323.51 107.979C314.591 111.549 301.281 112.539 296.181 109.979C295.201 109.489 294.28 109.529 293.38 110.119C291.101 111.599 289.531 116.159 289.701 119.089C289.921 123.008 289.731 128.958 289.701 129.829V129.939C289.701 130.179 289.571 130.379 289.401 130.519C289.201 130.709 288.9 130.789 288.621 130.699C288.538 130.668 287.44 130.37 286.561 131.069C285.831 131.649 285.02 133.099 285.3 136.709C285.64 141.178 286.46 143.849 287.8 144.859C288.47 145.369 289.301 145.489 290.491 145.249H290.481C290.701 145.209 290.931 145.259 291.111 145.399C291.291 145.539 291.4 145.749 291.42 145.979C291.422 146.041 291.684 150.165 292.871 152.509C292.931 152.619 292.951 152.739 292.951 152.869V152.949C292.951 153.038 293.241 152.759 293.241 152.949C294.681 155.079 299.521 160.769 310.351 162.699C321.18 160.769 326.161 154.999 327.601 152.869C327.601 152.589 327.74 152.928 327.741 152.869C327.741 152.749 327.771 152.618 327.821 152.509C329.007 150.155 329.27 146.042 329.271 145.979C329.281 145.759 329.391 145.539 329.581 145.409C329.76 145.269 329.991 145.219 330.21 145.259C331.4 145.489 332.231 145.369 332.901 144.869C334.251 143.859 335.061 141.199 335.401 136.719C335.671 133.1 334.861 131.649 334.141 131.079C333.261 130.379 332.171 130.679 332.081 130.709C331.681 130.829 331.261 130.619 331.121 130.239C330.511 129.419 329.821 127.269 329.141 119.929C328.661 114.69 326.741 109.549 324.771 108.239Z" fill="black"/>
</svg>
