<svg width="620" height="714" viewBox="0 0 620 714" fill="none" xmlns="http://www.w3.org/2000/svg">
<path d="M336.801 188.689H336.741C331.821 187.029 329.331 185.359 329.331 180.839V171.719C329.331 171.649 329.371 171.569 329.451 171.539C329.521 171.509 329.601 171.519 329.661 171.579C331.011 172.819 333.521 175.029 335.161 175.849C336.441 176.499 339.891 177.929 342.971 179.209L343.131 179.279L344.111 179.689C344.381 179.799 344.651 179.919 344.911 180.029C346.591 180.739 348.101 181.369 348.821 181.689C350.131 182.289 351.961 183.689 353.581 184.949L353.691 185.029C353.691 185.029 353.791 185.109 353.831 185.139C353.891 185.189 353.951 185.229 354.001 185.269C354.061 185.319 354.091 185.409 354.061 185.489C354.031 185.569 353.961 185.619 353.881 185.619C353.681 185.619 353.481 185.619 353.291 185.619C345.311 185.619 338.251 188.169 336.881 188.699C336.861 188.709 336.831 188.709 336.811 188.709L336.801 188.689Z" fill="#4B6738"/>
<path d="M283.831 188.689C282.441 188.149 275.051 185.479 266.821 185.619C266.731 185.619 266.661 185.579 266.631 185.499C266.601 185.419 266.631 185.339 266.691 185.279C266.711 185.269 266.731 185.249 266.741 185.239C266.821 185.179 266.901 185.109 266.991 185.039L267.101 184.949C268.441 183.899 270.471 182.319 271.851 181.689C272.681 181.319 274.551 180.539 276.541 179.709L277.551 179.289L277.711 179.219C280.791 177.939 284.231 176.499 285.521 175.859C287.071 175.089 289.371 173.109 291.021 171.589C291.081 171.539 291.161 171.519 291.231 171.549C291.301 171.579 291.351 171.649 291.351 171.729V180.849C291.351 185.369 288.851 187.029 283.951 188.689C283.931 188.689 283.911 188.689 283.891 188.689C283.861 188.689 283.841 188.689 283.821 188.679L283.831 188.689Z" fill="#4B6738"/>
<path d="M299.261 93.6094C299.831 93.2194 300.541 92.7392 301.821 93.1689C303.422 93.1289 315.752 92.96 323.421 97.3896C331.061 101.81 337.541 107.48 332.941 128.009C332.851 128.428 332.431 128.699 332.001 128.6C332.071 128.809 332.131 128.959 332.191 129.079C332.891 128.999 334.032 129.039 335.042 129.829C336.551 131.009 337.171 133.36 336.911 136.829C336.531 141.839 335.541 144.79 333.792 146.1C332.952 146.729 331.941 146.989 330.711 146.899C330.571 148.28 330.191 151.05 329.251 153.02V153.109C329.271 155.001 329.401 166.3 329.671 169.77C330.532 170.59 333.831 173.689 335.701 174.619C337.031 175.279 340.722 176.82 344.011 178.189L344.141 178.249C344.541 178.419 344.931 178.58 345.301 178.729C347.081 179.469 348.561 180.089 349.321 180.439C350.831 181.13 352.871 182.699 354.351 183.859C354.981 184.349 355.701 184.909 355.891 184.999C356.242 185.159 358.021 185.619 359.571 186.009H359.611L360.091 186.129C360.421 186.209 360.731 186.289 360.991 186.359C361.561 186.509 362.061 186.63 362.401 186.72C362.481 186.74 362.612 186.759 362.792 186.789C362.851 186.789 362.911 186.809 362.971 186.819C378.471 189.309 384.841 199.889 387.441 208.329C387.761 209.469 388.111 210.32 388.551 211.399C389.501 213.709 390.921 217.191 393.441 226.72C393.631 227.339 393.871 227.729 394.231 228.159L394.261 228.189C394.461 228.419 394.691 228.669 394.971 228.959C397.151 231.229 401.202 235.46 410.171 256.489C411.181 258.919 412.471 260.259 415.031 262.909L415.061 262.939C416.951 264.899 419.531 267.58 423.121 271.869C429.201 279.129 435.331 294.2 440.261 306.319L440.281 306.369C442.301 311.349 444.211 316.05 445.851 319.56C448.001 323.419 449.102 326.83 450.251 330.43V330.47C451.561 334.529 452.911 338.73 455.941 344.419L456.021 344.589L456.042 344.629L456.151 344.619C458.451 349.099 458.501 349.2 458.611 351.479H458.582C458.622 352.369 458.681 353.62 458.941 355.749C459.821 362.988 459.651 365.529 459.551 367.049V367.149C459.451 368.65 457.482 375.518 457.251 376.289C457.161 376.599 456.891 376.819 456.571 376.85C456.477 376.85 454.309 377.027 452.871 375.489C452.361 374.949 452.031 374.259 451.851 373.459C451.131 373.419 450.051 373.229 449.292 372.449C448.572 371.699 448.311 370.639 448.531 369.299C448.881 367.189 448.761 366.099 448.611 364.709C448.511 363.769 448.401 362.699 448.431 361.169C448.461 359.909 448.09 359.159 447.621 358.229V358.209C446.871 356.739 445.971 354.918 446.361 350.669C446.171 350.429 445.971 350.229 445.792 350.079C445.931 352.689 445.941 357.929 443.961 360.159C443.332 360.869 442.551 361.239 441.651 361.259C437.311 361.329 437.131 357.319 436.931 352.64V352.6C436.881 351.42 436.831 350.189 436.711 348.909C436.231 345.19 435.651 343.309 434.582 342.009C433.072 340.179 431.781 336.149 434.421 332.549C434.591 332.228 434.221 331.209 433.521 329.899C433.501 329.87 433.491 329.839 433.471 329.819C432.751 328.489 431.701 326.859 430.542 325.339C427.012 321.679 424.161 319.52 421.401 317.43H421.391C417.431 314.42 413.671 311.579 408.201 304.799C402.251 297.419 400.531 293.839 398.711 290.039C397.641 287.789 396.531 285.479 394.481 282.199C390.911 277.13 376.333 257.782 374.511 256.109C374.331 255.939 374.131 255.769 373.921 255.579C373.881 255.539 373.831 255.499 373.781 255.459C372.091 253.949 369.461 251.589 367.511 248.1C366.551 252.29 363.761 261.95 356.271 276.249C352.151 284.379 353.311 292.979 354.451 301.299L354.471 301.479C354.771 303.679 355.081 305.939 355.261 308.119C355.551 311.539 356.051 315.999 356.641 320.659V320.85C356.661 321.029 356.691 321.219 356.711 321.409C356.731 321.589 356.761 321.78 356.781 321.97C356.781 322 356.792 322.04 356.792 322.069C358.021 331.639 359.561 341.67 360.401 344.97C360.461 345.21 360.551 345.54 360.661 345.97C364.931 361.99 373.061 399.78 367.141 437.39C367.141 437.449 367.141 437.51 367.121 437.569C367.12 437.609 367.101 437.65 367.091 437.689C367.091 437.719 367.081 437.759 367.071 437.789C366.141 443.609 364.871 449.42 363.191 455.14C363.301 463.949 363.881 465.98 364.401 467.77C364.571 468.349 364.741 468.96 364.881 469.739C365.161 471.239 365.211 472.53 365.261 473.77V473.799C365.311 475.179 365.371 476.61 365.741 478.35C365.831 478.76 366.121 479.58 366.491 480.6C369.091 487.86 376.001 507.15 370.311 539.319C370.011 542.669 369.581 546.199 369.171 549.619L369.141 549.899C368.051 558.939 367.031 567.47 368.031 572.85C368.811 577.479 369.141 579.489 369.221 581.959C369.851 583.829 372.941 588.71 374.811 591.649L375.042 592.009C375.551 592.809 375.982 593.49 376.251 593.93C376.661 594.619 376.891 595.129 377.061 595.539C377.441 596.429 377.651 596.92 379.721 598.569C380.121 598.889 380.541 599.219 380.971 599.549L381.001 599.569C383.901 601.839 387.511 604.669 389.471 608.959C390.561 611.559 390.171 613.03 389.661 613.81C389.251 614.439 388.611 614.84 387.832 615.01C387.732 615.42 387.531 615.949 387.101 616.369C386.841 616.629 386.401 616.919 385.751 617.02C385.521 617.569 385.05 618.379 384.201 618.869C383.571 619.229 382.861 619.359 382.082 619.239C381.602 619.759 380.631 620.599 379.341 620.749C378.461 620.859 377.601 620.619 376.781 620.06C375.971 620.69 374.311 621.749 372.221 621.749C371.961 621.749 371.701 621.739 371.431 621.699C368.941 621.379 366.691 619.569 364.761 616.319C363.321 615.809 357.491 613.369 357.991 607.209C358.031 605.819 356.591 604.929 353.801 603.359L353.361 603.109C350.011 601.209 348.052 599.539 349.832 589.379C350.131 587.019 349.801 584.449 349.661 583.589C348.921 582.918 347.591 580.838 348.151 574.619C348.821 567.159 349.451 560.119 340.181 530.689C339.741 529.24 339.141 528.399 338.511 527.52C336.491 524.71 334.391 521.809 337.191 501.649C338.861 486.901 338.731 486.699 337.231 484.18V484.159C336.911 483.619 336.511 482.949 336.051 482.049C335.851 481.639 335.621 481.229 335.391 480.829L335.332 480.729V480.72C334.972 480.08 334.591 479.439 334.191 478.779C331.471 474.209 328.081 468.519 327.181 456.899C326.781 451.77 326.091 446.609 325.131 441.449C324.921 440.429 324.731 439.449 324.561 438.509C323.591 433.829 322.401 429.159 320.981 424.52C320.501 422.93 319.691 420.719 318.751 418.149V418.129C315.762 409.969 311.251 397.649 310.631 387.52C310.581 385.91 310.551 384.489 310.521 383.249V383.22C310.481 381.17 310.441 379.309 310.321 378.129C310.211 379.299 310.171 381.149 310.131 383.199V383.22C310.101 384.47 310.071 385.89 310.021 387.479C309.391 397.619 304.891 409.929 301.911 418.089V418.129C300.961 420.699 300.151 422.909 299.661 424.499C298.241 429.129 297.051 433.8 296.091 438.479C295.921 439.429 295.721 440.429 295.511 441.459C294.551 446.609 293.871 451.76 293.471 456.89C292.571 468.509 289.181 474.189 286.461 478.759C286.391 478.879 286.331 478.99 286.261 479.1C285.941 479.649 285.621 480.179 285.332 480.709V480.72L285.241 480.869C285.021 481.259 284.811 481.649 284.611 482.039C284.161 482.939 283.761 483.609 283.431 484.149V484.169C281.911 486.689 281.791 486.889 283.461 501.659C286.251 521.798 284.161 524.699 282.131 527.509V527.529C281.491 528.409 280.891 529.239 280.461 530.669C271.181 560.099 271.821 567.15 272.491 574.6C273.051 580.819 271.731 582.899 270.981 583.569C270.851 584.43 270.521 587.01 270.821 589.39C272.591 599.509 270.631 601.189 267.281 603.089L266.841 603.339C264.061 604.909 262.601 605.799 262.651 607.229C263.16 613.348 257.332 615.788 255.881 616.299C253.942 619.549 251.701 621.359 249.211 621.68C248.942 621.71 248.681 621.729 248.421 621.729C246.322 621.729 244.661 620.669 243.861 620.039C243.041 620.589 242.171 620.829 241.301 620.729C240.012 620.58 239.041 619.74 238.561 619.22C237.781 619.34 237.071 619.219 236.441 618.85C235.591 618.35 235.121 617.549 234.891 616.999C234.242 616.899 233.812 616.609 233.542 616.35C233.112 615.93 232.911 615.409 232.811 614.989C232.031 614.829 231.391 614.419 230.981 613.789C230.471 613.009 230.081 611.539 231.161 608.959C233.131 604.639 236.741 601.809 239.651 599.539H239.661C240.091 599.189 240.511 598.869 240.911 598.549C242.97 596.899 243.181 596.409 243.571 595.529L243.591 595.479C243.761 595.079 243.981 594.579 244.391 593.909C244.701 593.389 245.211 592.589 245.821 591.619C247.681 588.689 250.78 583.81 251.411 581.939C251.491 579.469 251.821 577.449 252.601 572.839C253.601 567.449 252.581 558.919 251.491 549.879L251.441 549.499C251.031 546.109 250.611 542.619 250.311 539.239C244.631 507.139 251.541 487.849 254.141 480.589L254.171 480.499C254.521 479.519 254.801 478.739 254.881 478.339C255.241 476.599 255.301 475.169 255.361 473.789C255.411 472.539 255.461 471.239 255.741 469.729C255.881 468.94 256.061 468.349 256.221 467.759C256.731 465.959 257.321 463.938 257.431 455.119C255.751 449.399 254.491 443.579 253.551 437.77C253.531 437.7 253.521 437.629 253.501 437.549C253.482 437.489 253.481 437.429 253.481 437.369C247.551 399.769 255.691 361.969 259.961 345.949C260.071 345.519 260.161 345.189 260.221 344.949C261.061 341.649 262.602 331.619 263.832 322.049C263.832 322.009 263.831 321.969 263.841 321.93C263.891 321.56 263.941 321.189 263.981 320.819V320.729C263.981 320.71 263.981 320.679 263.991 320.659V320.619C264.581 315.969 265.081 311.509 265.371 308.089C265.561 305.849 265.881 303.529 266.191 301.27C267.321 292.96 268.491 284.359 264.361 276.209C256.881 261.91 254.091 252.26 253.131 248.069C251.181 251.569 248.541 253.93 246.851 255.43L246.761 255.509C246.531 255.709 246.321 255.909 246.121 256.079C244.31 257.75 229.722 277.109 226.131 282.209C224.102 285.459 222.991 287.769 221.921 290.009C220.101 293.809 218.391 297.399 212.431 304.779C206.951 311.569 203.201 314.409 199.231 317.419C196.471 319.509 193.611 321.679 190.082 325.329C187.732 328.379 185.861 331.889 186.221 332.569C188.841 336.139 187.551 340.169 186.042 341.999C184.972 343.299 184.391 345.18 183.911 348.93C183.801 350.139 183.751 351.33 183.701 352.479V352.659C183.501 357.329 183.321 361.309 178.981 361.249C178.081 361.229 177.301 360.859 176.671 360.149C174.691 357.92 174.691 352.689 174.841 350.069C174.651 350.229 174.461 350.419 174.271 350.659C174.661 354.909 173.761 356.729 173.021 358.199C172.541 359.149 172.171 359.889 172.201 361.169C172.231 362.669 172.121 363.72 172.031 364.64V364.709C171.881 366.089 171.761 367.179 172.111 369.299C172.331 370.649 172.071 371.709 171.351 372.449C170.591 373.229 169.512 373.429 168.792 373.459C168.611 374.259 168.271 374.939 167.771 375.489C166.343 377.037 164.167 376.86 164.071 376.85C163.751 376.82 163.481 376.589 163.391 376.289C163.161 375.518 161.182 368.65 161.082 367.149V367.049C160.982 365.529 160.821 362.988 161.691 355.749C161.951 353.649 162.011 352.419 162.051 351.509V351.459C162.161 349.179 162.211 349.089 164.531 344.579V344.56L164.621 344.409C167.651 338.729 169.001 334.519 170.301 330.459C171.451 326.829 172.551 323.419 174.741 319.489C176.341 316.079 178.221 311.449 180.221 306.529L180.292 306.35C185.222 294.21 191.361 279.119 197.451 271.839C201.051 267.549 203.631 264.869 205.521 262.909C208.101 260.239 209.401 258.899 210.411 256.47C219.39 235.431 223.441 231.21 225.621 228.939L225.661 228.89C225.921 228.62 226.142 228.389 226.332 228.169C226.333 228.166 226.342 228.149 226.351 228.14C226.711 227.7 226.951 227.299 227.151 226.659C229.651 217.19 231.081 213.699 232.021 211.399V211.369L232.042 211.35C232.481 210.28 232.831 209.429 233.141 208.319C235.751 199.859 242.111 189.279 257.621 186.799H257.691C257.921 186.749 258.101 186.719 258.191 186.699C258.401 186.639 258.671 186.579 258.991 186.499C259.181 186.449 259.381 186.4 259.601 186.35C259.971 186.26 260.411 186.149 260.881 186.029C260.921 186.019 260.962 186.009 261.001 185.999C262.551 185.609 264.34 185.15 264.701 184.979C264.881 184.889 265.571 184.359 266.191 183.879L266.241 183.839C267.721 182.689 269.761 181.109 271.271 180.419C272.081 180.059 273.731 179.369 275.681 178.549C275.931 178.439 276.191 178.339 276.451 178.229L276.792 178.089C280.031 176.739 283.591 175.259 284.891 174.619C286.761 173.689 290.071 170.589 290.921 169.77C291.191 166.3 291.321 155.001 291.341 153.109V153.02C290.411 151.05 290.031 148.28 289.881 146.899C288.652 146.999 287.641 146.729 286.801 146.1C285.061 144.79 284.061 141.839 283.681 136.829C283.421 133.359 284.051 131.009 285.551 129.829C286.081 129.419 286.641 129.209 287.161 129.119C287.111 129.049 287.071 128.969 287.042 128.89V128.869C286.902 128.439 284.931 122.299 284.441 117.119C283.971 112.159 285.722 103.259 289.082 100.689C289.152 100.4 289.201 99.8695 288.811 99.5195C288.281 99.0497 288.111 98.3994 288.371 97.7695C288.831 96.6295 290.542 95.8892 292.542 95.9492C292.701 95.9492 292.801 95.9495 292.861 95.9297C292.861 95.8998 292.861 95.8592 292.871 95.8193C292.871 95.7894 292.871 95.7594 292.881 95.7295C292.921 95.3595 293.001 94.7489 293.571 94.3389C294.251 93.8589 295.372 93.8095 297.332 94.1895C298.331 94.2392 298.771 93.9388 299.231 93.6289L299.261 93.6094ZM256.191 479.52C256.051 479.949 255.871 480.46 255.641 481.1C253.081 488.27 246.281 507.28 251.891 539.029C252.221 542.579 252.652 546.19 253.082 549.689V549.749C254.192 558.889 255.221 567.509 254.181 573.109C253.401 577.709 253.081 579.669 253.011 582.089C253.011 582.159 253.001 582.229 252.981 582.289C252.371 584.289 249.261 589.189 247.191 592.449L246.981 592.789C246.471 593.589 246.051 594.259 245.781 594.709C245.431 595.299 245.242 595.72 245.082 596.1L245.061 596.14C244.571 597.279 244.201 597.96 241.941 599.77C241.541 600.099 241.111 600.43 240.681 600.77C237.761 603.06 234.451 605.64 232.651 609.6C231.811 611.629 232.101 612.569 232.351 612.949C232.651 613.409 233.182 613.51 233.582 613.52C234.021 613.52 234.361 613.89 234.351 614.319C234.351 614.49 234.421 614.99 234.701 615.26C234.881 615.43 235.131 615.509 235.481 615.489C235.881 615.469 236.191 615.729 236.271 616.089C236.277 616.11 236.55 617.104 237.292 617.529C237.681 617.749 238.141 617.789 238.691 617.629C239.011 617.539 239.352 617.67 239.542 617.93C239.615 618.035 240.434 619.079 241.521 619.199C242.151 619.269 242.761 619.029 243.401 618.47C243.711 618.19 244.191 618.209 244.481 618.499C244.516 618.534 246.511 620.478 249.051 620.149C251.091 619.879 252.991 618.249 254.691 615.289C254.791 615.109 254.961 614.979 255.161 614.919C255.425 614.848 261.57 613.037 261.101 607.35C261.011 604.87 263.252 603.609 266.082 602.009L266.521 601.759C269.191 600.249 270.961 599.239 269.292 589.649C268.892 586.483 269.48 583.166 269.501 583.02C269.551 582.77 269.711 582.559 269.941 582.449C270.051 582.349 271.501 581.018 270.931 574.77C270.251 567.16 269.601 559.959 278.971 530.239L278.981 530.229C279.481 528.55 280.191 527.569 280.871 526.619H280.861C282.701 524.049 284.611 521.399 281.901 501.859C280.841 492.53 280.481 488.8 280.761 486.64C277.751 489.519 274.341 491.129 271.011 491.129H270.851C267.051 491.069 263.831 488.999 261.771 485.289C259.791 481.739 258.611 480.27 256.191 479.52ZM364.491 479.52C362.081 480.26 360.891 481.739 358.911 485.289C356.851 488.999 353.631 491.079 349.841 491.129H349.681C346.341 491.129 342.941 489.529 339.931 486.649C340.201 488.809 339.841 492.54 338.792 501.85C336.082 521.409 337.992 524.059 339.832 526.619C340.511 527.569 341.221 528.55 341.721 530.239C351.081 559.949 350.441 567.139 349.751 574.749C349.162 581.309 350.781 582.459 350.801 582.459C351.041 582.569 351.151 582.749 351.201 582.999V583.02C351.261 583.353 351.801 586.551 351.421 589.589C349.741 599.219 351.501 600.22 354.181 601.729L354.611 601.979C357.441 603.579 359.681 604.839 359.601 607.289C359.121 613.039 365.472 614.889 365.542 614.899C365.741 614.96 365.911 615.09 366.011 615.26C367.721 618.219 369.611 619.849 371.651 620.119C374.203 620.458 376.19 618.501 376.231 618.47C376.521 618.17 377.001 618.16 377.311 618.43C377.951 618.989 378.561 619.239 379.191 619.169C380.33 619.049 381.17 617.912 381.181 617.899C381.371 617.639 381.711 617.51 382.031 617.6C382.581 617.749 383.051 617.719 383.431 617.499C384.174 617.073 384.446 616.088 384.451 616.06C384.541 615.7 384.841 615.46 385.241 615.47C385.59 615.49 385.851 615.409 386.021 615.239C386.311 614.969 386.371 614.469 386.371 614.289C386.371 613.859 386.711 613.509 387.141 613.499C387.531 613.499 388.061 613.389 388.371 612.93C388.621 612.55 388.921 611.609 388.061 609.56C386.271 605.63 382.961 603.039 380.042 600.749C379.922 600.649 379.791 600.549 379.671 600.449C379.372 600.209 379.071 599.979 378.781 599.749C376.521 597.929 376.161 597.259 375.661 596.119C375.501 595.739 375.311 595.299 374.941 594.689C374.671 594.24 374.251 593.579 373.741 592.77L373.531 592.43C371.461 589.18 368.351 584.27 367.741 582.27C367.721 582.2 367.701 582.139 367.701 582.069C367.621 579.649 367.301 577.679 366.521 573.069C365.471 567.479 366.521 558.849 367.611 549.72V549.669C368.041 546.169 368.472 542.549 368.792 539.069C374.421 507.25 367.611 488.239 365.051 481.079C365.011 480.949 364.961 480.829 364.921 480.709V480.729C364.752 480.26 364.611 479.859 364.501 479.52H364.491ZM259.011 456.77C258.851 464.439 258.281 466.419 257.771 468.189C257.611 468.759 257.451 469.299 257.321 470.009C257.071 471.419 257.021 472.6 256.971 473.85C256.921 475.119 256.871 476.439 256.591 478.009C259.601 478.909 261.072 480.759 263.171 484.539C264.951 487.739 267.691 489.529 270.891 489.579C275.481 489.619 280.271 486.189 283.771 480.319C283.781 480.299 283.801 480.259 283.821 480.229C283.841 480.19 283.871 480.14 283.891 480.1L283.911 480.06V480.049C284.291 479.369 284.701 478.689 285.121 477.979C287.541 473.91 290.511 468.929 291.661 459.409C289.441 465.609 285.681 472.109 279.651 472.109H279.511C272.801 471.999 271.481 466.279 270.521 462.109C270.101 460.3 269.671 458.429 268.941 458.089C268.671 457.969 268.271 458.029 267.751 458.289C265.232 459.519 263.141 459.679 261.351 458.81C260.441 458.36 259.671 457.669 259.011 456.77ZM361.691 456.759C361.031 457.649 360.261 458.349 359.351 458.799C357.561 459.679 355.471 459.509 352.951 458.279C352.421 458.02 352.021 457.959 351.751 458.079C351.022 458.419 350.591 460.289 350.171 462.089V462.119C349.201 466.289 347.881 471.999 341.181 472.109H341.042C335.012 472.109 331.251 465.619 329.031 459.419C330.181 468.929 333.141 473.91 335.571 477.979L335.601 478.029C336.011 478.729 336.412 479.399 336.792 480.069V480.089C336.795 480.094 336.832 480.151 336.851 480.18C336.881 480.239 336.911 480.289 336.941 480.339C340.391 486.119 345.151 489.569 349.671 489.569H349.811C353.011 489.519 355.751 487.739 357.531 484.539C359.641 480.749 361.101 478.899 364.111 477.999C363.831 476.429 363.781 475.109 363.731 473.839V473.81C363.681 472.57 363.631 471.389 363.381 469.999C363.251 469.289 363.101 468.749 362.931 468.18C362.421 466.41 361.851 464.419 361.691 456.759ZM265.292 323.409C264.102 332.499 262.661 341.939 261.801 345.339L261.761 345.489C261.701 345.709 261.631 346 261.531 346.35C257.281 362.31 249.161 400.04 255.141 437.459C255.501 439.099 255.831 440.77 256.151 442.39V442.419C257.521 449.299 258.801 455.799 262.061 457.399C263.371 458.049 265.011 457.879 267.061 456.879C268.041 456.399 268.911 456.329 269.631 456.669C271.051 457.339 271.501 459.289 272.071 461.759C273.011 465.839 274.072 470.449 279.542 470.549H279.651C289.585 470.548 292.827 448.396 292.861 448.149V448.109C293.151 445.999 293.491 443.889 293.871 441.789C293.871 441.749 293.871 441.709 293.881 441.659L293.981 441.159C294.171 440.169 294.361 439.189 294.561 438.199L294.571 438.189C294.591 438.05 294.621 437.909 294.651 437.77C297.121 424.07 295.861 422.559 293.101 419.239C290.221 415.759 285.871 410.519 282.121 390.439C281.111 385 280.381 378.459 279.611 371.539C277.451 352.1 275.011 330.14 265.292 323.409ZM355.421 323.399C345.701 330.139 343.261 352.089 341.101 371.529C340.331 378.449 339.601 384.99 338.591 390.43C334.851 410.509 330.491 415.76 327.611 419.229C324.851 422.549 323.601 424.06 326.071 437.77L326.151 438.209C326.351 439.179 326.541 440.149 326.721 441.119L326.832 441.649C326.832 441.657 326.841 441.741 326.841 441.789C327.221 443.899 327.561 446 327.851 448.1V448.14C327.887 448.412 331.131 470.539 341.061 470.539H341.171C346.641 470.449 347.701 465.829 348.641 461.759C349.211 459.289 349.662 457.339 351.082 456.669C351.801 456.329 352.671 456.399 353.651 456.879C355.701 457.879 357.331 458.049 358.651 457.399C361.901 455.799 363.191 449.299 364.551 442.419L364.591 442.209C364.901 440.649 365.221 439.039 365.571 437.459C371.561 400.04 363.441 362.32 359.181 346.35C359.071 345.92 358.981 345.579 358.911 345.339V345.329C358.041 341.929 356.601 332.489 355.421 323.399ZM265.771 321.839C276.421 328.689 278.941 351.33 281.171 371.35V371.47C281.951 378.319 282.671 384.79 283.671 390.149C287.341 409.839 291.541 414.889 294.321 418.239C296.211 420.509 297.471 422.03 297.561 426.189C297.771 425.48 297.981 424.769 298.191 424.06C298.661 422.52 299.421 420.429 300.311 418.009L300.481 417.549C303.431 409.479 307.871 397.309 308.481 387.43L308.471 387.419C308.511 385.859 308.551 384.439 308.571 383.199V383.109C308.641 380.08 308.681 378.149 308.921 376.989C302.221 376.069 299.121 367.929 293.651 349.56C287.581 329.18 271.961 323.369 265.771 321.839ZM354.921 321.829C348.731 323.359 333.112 329.169 327.042 349.549C321.572 367.918 318.471 376.059 311.771 376.979C312.011 378.14 312.051 380.07 312.121 383.1V383.199C312.151 384.439 312.181 385.86 312.231 387.439C312.841 397.309 317.302 409.509 320.251 417.579L320.321 417.789C321.241 420.299 322.031 422.459 322.511 424.049C322.731 424.759 322.941 425.469 323.141 426.169L323.151 426.18C323.241 422.03 324.501 420.509 326.381 418.239C329.161 414.889 333.361 409.839 337.031 390.149C338.031 384.779 338.761 378.289 339.521 371.419V371.339C341.751 351.309 344.271 328.679 354.921 321.829ZM334.891 272.499C334.601 280.909 333.791 297.509 333.042 309.279C331.561 332.378 317.152 351.478 310.421 351.479H310.261C303.531 351.479 289.121 332.369 287.641 309.279C286.891 297.499 286.082 280.899 285.792 272.499C284.602 279.059 283.351 286.4 284.341 293.14C286.631 308.599 281.091 315.77 278.611 318.14C276.611 320.039 273.731 321.309 270.681 321.779C278.351 324.739 290.041 331.96 295.151 349.129C301.151 369.259 304.022 375.529 310.251 375.529H310.431C316.671 375.529 319.541 369.258 325.531 349.129C330.641 331.949 342.331 324.739 350.001 321.779C346.952 321.309 344.071 320.039 342.071 318.14C339.581 315.77 334.052 308.599 336.341 293.14C337.341 286.4 336.081 279.059 334.891 272.499ZM173.951 324.89C173.141 326.899 172.511 328.85 171.871 330.85L171.841 330.949C170.581 334.879 169.161 339.339 166.061 345.129L165.981 345.279C164.501 348.159 163.732 350.239 163.671 351.549C163.631 352.479 163.561 353.759 163.301 355.949C162.441 363.039 162.601 365.499 162.701 366.959V367.06C162.761 368.011 163.921 372.29 164.781 375.289C165.301 375.239 166.101 375.049 166.661 374.43C167.391 373.63 167.591 372.299 167.261 370.47C166.471 366.13 166.671 365.329 167.161 363.39C167.401 362.46 167.681 361.289 167.981 359.289C168.401 357.499 169.061 356.7 169.761 355.85C170.521 354.92 171.391 353.859 172.221 351.089C172.231 351.049 172.251 351.009 172.271 350.97C173.5 348.482 175.487 347.961 175.611 347.93C175.861 347.87 176.121 347.93 176.311 348.1C176.511 348.27 176.602 348.52 176.582 348.77C176.352 350.97 176.142 357.12 177.921 359.109C178.261 359.489 178.632 359.67 179.082 359.68H179.171C181.651 359.679 181.971 357.689 182.191 352.52C182.241 351.32 182.291 350.069 182.411 348.759C182.931 344.659 183.601 342.569 184.881 341.009C186.031 339.609 187.08 336.319 184.991 333.459C184.571 332.839 184.671 331.879 185.051 330.799C184.041 331.079 183.041 331.22 182.091 331.22C180.772 331.22 179.541 330.959 178.461 330.43C176.422 329.42 174.821 327.419 173.951 324.89ZM446.761 324.879C445.891 327.409 444.291 329.409 442.251 330.419C441.182 330.949 439.94 331.209 438.621 331.209C437.671 331.209 436.681 331.069 435.671 330.799C436.041 331.869 436.151 332.82 435.741 333.43C433.631 336.32 434.672 339.599 435.832 340.999C437.111 342.559 437.781 344.65 438.301 348.72C438.421 350.019 438.471 351.23 438.521 352.399V352.509C438.751 357.679 439.071 359.669 441.551 359.669H441.641C442.101 359.669 442.471 359.479 442.801 359.1C444.571 357.11 444.371 350.959 444.141 348.759C444.111 348.509 444.221 348.259 444.411 348.089C444.601 347.919 444.861 347.859 445.111 347.919C445.206 347.94 447.213 348.443 448.451 350.959C448.471 350.989 448.482 351.029 448.501 351.069C449.321 353.849 450.191 354.909 450.961 355.839V355.85C451.661 356.699 452.321 357.5 452.721 359.22C453.031 361.289 453.321 362.45 453.551 363.39C454.031 365.329 454.231 366.13 453.451 370.47C453.121 372.299 453.321 373.63 454.051 374.43C454.611 375.049 455.411 375.239 455.931 375.289C456.791 372.3 457.951 368.011 458.011 367.06V366.949C458.111 365.479 458.271 363.019 457.411 355.93C457.151 353.73 457.091 352.459 457.042 351.529C456.982 350.229 456.211 348.149 454.731 345.27L454.651 345.109C451.571 339.34 450.141 334.89 448.891 330.97L448.871 330.919C448.221 328.879 447.581 326.909 446.761 324.879ZM172.741 354.14C172.121 355.439 171.501 356.2 170.961 356.85C170.311 357.65 169.831 358.23 169.511 359.6C169.221 361.609 168.911 362.869 168.681 363.779C168.231 365.589 168.081 366.199 168.811 370.199C168.921 370.799 168.971 371.37 168.981 371.89C169.421 371.84 169.931 371.699 170.261 371.369C170.621 370.989 170.741 370.389 170.601 369.549C170.221 367.229 170.361 365.929 170.501 364.549C170.601 363.609 170.701 362.639 170.671 361.199C170.631 359.539 171.151 358.509 171.651 357.52C172.081 356.64 172.561 355.699 172.741 354.14ZM447.951 354.129C448.141 355.699 448.611 356.639 449.051 357.509C449.551 358.519 450.071 359.549 450.031 361.199C450.001 362.629 450.111 363.599 450.201 364.529V364.56C450.351 365.929 450.481 367.23 450.101 369.539C449.971 370.369 450.081 370.979 450.441 371.359C450.761 371.689 451.271 371.839 451.721 371.879C451.721 371.359 451.781 370.789 451.891 370.189C452.621 366.19 452.471 365.569 452.011 363.77L451.991 363.709C451.771 362.799 451.461 361.549 451.161 359.52C450.851 358.22 450.371 357.629 449.721 356.839C449.191 356.189 448.571 355.429 447.951 354.129ZM325.881 240.859C321.132 239.109 315.131 237.879 312.551 239.659C311.661 240.279 311.221 241.24 311.221 242.6C311.221 243.029 310.861 243.379 310.431 243.379H310.271C309.831 243.379 309.481 243.029 309.481 242.6C309.481 241.24 309.041 240.269 308.151 239.659C305.571 237.879 299.571 239.109 294.811 240.859C294.161 241.139 293.501 241.389 292.832 241.629C289.582 242.959 286.301 244.709 285.231 247.109C284.571 248.589 284.931 249.759 285.601 251.879C286.151 253.629 286.871 255.92 287.201 259.279C287.261 259.699 287.291 260.139 287.311 260.609C287.331 260.869 287.341 261.139 287.351 261.419C287.401 262.559 287.371 263.099 287.341 263.829V263.859C287.301 264.659 287.241 265.75 287.271 268.229C287.311 273.23 288.311 294.79 289.231 309.18C290.711 332.289 304.931 349.919 310.271 349.919H310.431C315.771 349.918 329.991 332.289 331.471 309.18C332.391 294.81 333.391 273.24 333.431 268.229V268.22C333.451 265.74 333.401 264.65 333.361 263.85V263.829C333.321 263.089 333.301 262.549 333.351 261.409C333.361 261.129 333.381 260.859 333.391 260.6C333.411 260.14 333.441 259.709 333.501 259.299C333.831 255.929 334.551 253.629 335.101 251.879C335.771 249.769 336.131 248.599 335.471 247.109C334.401 244.719 331.12 242.959 327.871 241.629C327.201 241.399 326.531 241.149 325.881 240.859ZM310.431 314.02C310.871 314.02 311.221 314.37 311.221 314.8V344.38C311.221 344.809 310.861 345.159 310.431 345.159H310.271C309.832 345.159 309.481 344.809 309.481 344.38V314.8C309.481 314.37 309.841 314.02 310.271 314.02H310.431ZM408.441 256.18C411.831 270.029 407.501 274.939 403.951 276.669C402.751 277.259 401.331 277.6 399.721 277.6C397.121 277.6 394.071 276.689 390.781 274.439C392.981 277.399 394.831 279.93 395.811 281.31C397.931 284.699 399.061 287.059 400.161 289.339C401.941 293.059 403.621 296.56 409.451 303.789C414.811 310.429 418.491 313.219 422.381 316.169C425.201 318.299 428.111 320.51 431.741 324.27L431.731 324.279C431.735 324.283 431.773 324.321 431.792 324.35C432.432 325.18 433.781 327.01 434.781 328.859C437.281 329.859 439.731 329.919 441.551 329.02C443.641 327.989 445.231 325.519 445.741 322.539C445.381 321.789 444.991 321.029 444.561 320.249C442.901 316.699 441.011 312.039 439.001 307.109L438.931 306.939C434.041 294.91 427.961 279.94 422.021 272.85C418.461 268.6 415.901 265.949 414.031 264.009L414.011 263.989C411.401 261.279 409.952 259.779 408.832 257.079C408.702 256.779 408.571 256.479 408.441 256.18ZM211.881 257.079C210.761 259.759 209.321 261.259 206.721 263.959L206.631 264.049C204.761 265.989 202.211 268.63 198.691 272.85C192.761 279.93 186.681 294.879 181.792 306.909V306.939C179.752 311.939 177.831 316.649 176.171 320.199C175.731 320.999 175.331 321.779 174.971 322.539C175.481 325.509 177.071 327.989 179.161 329.02C180.981 329.919 183.431 329.85 185.931 328.85C186.931 327 188.271 325.18 188.911 324.35C188.931 324.33 188.951 324.309 188.971 324.279C192.591 320.529 195.501 318.319 198.311 316.189L198.332 316.169C202.221 313.219 205.901 310.429 211.261 303.789C217.101 296.559 218.781 293.049 220.561 289.339L220.591 289.27V289.289C221.671 287.029 222.801 284.679 224.881 281.359C225.861 279.949 227.721 277.419 229.931 274.439C226.641 276.699 223.591 277.6 220.991 277.6C219.391 277.6 217.961 277.259 216.761 276.669C213.211 274.929 208.881 270.029 212.271 256.18C212.141 256.469 212.011 256.769 211.881 257.079ZM254.961 228.669C256.911 233.089 255.971 238.89 255.551 241.43C255.291 242.989 254.901 244.55 254.391 246.069C254.841 248.48 257.152 258.94 265.841 275.529C270.191 284.109 268.991 292.959 267.832 301.509L267.821 301.489C267.501 303.819 267.201 306.03 267.011 308.229C266.741 311.349 266.261 315.629 265.701 320.199C269.951 320.939 274.731 319.669 277.531 316.999C279.841 314.809 284.971 308.099 282.792 293.359C281.722 286.149 283.121 278.399 284.361 271.569V271.549C285.141 267.279 285.821 263.519 285.731 260.729C285.701 260.29 285.671 259.879 285.631 259.47C285.231 256.76 280.1 252.369 274.161 247.299C269.451 243.269 264.131 238.719 259.571 233.709C258.941 233.069 258.331 232.399 257.751 231.699C256.882 230.659 255.971 229.609 254.961 228.669ZM365.761 228.649C364.751 229.599 363.841 230.63 362.971 231.68C362.391 232.38 361.781 233.05 361.151 233.689C356.581 238.699 351.261 243.249 346.551 247.279L346.521 247.31C340.591 252.379 335.482 256.749 335.082 259.459C335.042 259.859 335.001 260.279 334.981 260.709C334.891 263.499 335.571 267.259 336.341 271.529C337.581 278.369 338.981 286.119 337.921 293.339C335.741 308.079 340.881 314.78 343.181 316.979C345.981 319.649 350.751 320.92 355.011 320.18C354.441 315.61 353.971 311.34 353.701 308.22C353.511 306.02 353.211 303.809 352.891 301.479V301.459H352.881C351.721 292.909 350.531 284.079 354.871 275.509C363.56 258.909 365.871 248.459 366.321 246.039C365.811 244.519 365.411 242.969 365.161 241.409C364.751 238.869 363.811 233.069 365.761 228.649ZM324.691 302.06H324.702C325.131 302.07 325.471 302.43 325.471 302.859C325.461 303.299 325.081 303.63 324.671 303.63C322.072 303.57 315.212 304.24 312.841 304.77C311.581 305.06 311.232 306.28 311.152 308.149C311.172 308.719 311.171 309.28 311.171 309.81V310.149C311.171 310.579 310.811 310.929 310.381 310.93H310.332C309.902 310.93 309.542 310.579 309.542 310.149V309.81C309.542 309.27 309.541 308.709 309.561 308.149C309.481 306.28 309.131 305.06 307.872 304.77C305.512 304.24 298.672 303.57 296.042 303.63C295.622 303.64 295.242 303.289 295.242 302.859C295.232 302.43 295.581 302.06 296.011 302.06C298.752 302.01 305.721 302.679 308.221 303.239C309.251 303.469 309.911 304.02 310.351 304.75C310.781 304.02 311.451 303.469 312.481 303.239C314.981 302.679 321.941 302.01 324.691 302.06ZM310.412 291.359C310.851 291.36 311.202 291.71 311.202 292.149C311.202 299.319 311.841 299.66 314.261 299.84C317.981 299.94 319.942 299.81 322.402 299.63H322.612L322.622 299.609C324.121 299.509 325.822 299.39 328.221 299.31C328.661 299.31 329.021 299.64 329.042 300.069C329.061 300.499 328.721 300.859 328.282 300.88C325.902 300.97 324.211 301.08 322.731 301.18H322.551C320.652 301.33 319.051 301.439 316.731 301.439C315.981 301.439 315.141 301.429 314.202 301.399C312.112 301.249 310.971 300.579 310.351 299.14C309.741 300.589 308.611 301.239 306.542 301.399C305.582 301.429 304.731 301.439 303.961 301.439C301.632 301.439 300.041 301.329 298.141 301.199C296.611 301.089 294.881 300.97 292.412 300.88C291.982 300.86 291.632 300.499 291.652 300.069C291.672 299.64 292.051 299.299 292.471 299.319C294.971 299.409 296.711 299.53 298.261 299.64C300.731 299.81 302.692 299.95 306.452 299.84C308.841 299.66 309.471 299.318 309.471 292.149C309.471 291.72 309.821 291.359 310.261 291.359H310.412ZM314.301 279.85C318.031 279.81 322.232 280.279 324.751 280.569C325.181 280.62 325.491 281.01 325.441 281.439C325.391 281.869 325.011 282.179 324.572 282.13H324.542C322.062 281.85 317.962 281.38 314.322 281.42C311.652 281.46 311.191 282.78 311.191 286.729C311.191 287.159 310.841 287.509 310.402 287.51H310.242C309.802 287.51 309.452 287.159 309.452 286.729C309.452 282.77 309.001 281.45 306.322 281.42H306.351C302.721 281.38 298.581 281.85 296.101 282.13C295.661 282.19 295.272 281.869 295.221 281.439C295.171 281.01 295.482 280.619 295.912 280.569C298.422 280.279 302.642 279.81 306.362 279.85C308.551 279.88 309.712 280.72 310.332 281.92C310.952 280.72 312.121 279.89 314.301 279.85ZM310.421 268.06C310.861 268.06 311.211 268.41 311.211 268.84C311.211 269.6 311.182 270.33 311.162 271.04L311.152 271.25V271.319C311.142 271.519 311.131 271.72 311.131 271.92C311.151 272.67 311.171 273.39 311.131 274.06C311.201 275.419 311.482 276.33 312.242 276.76C315.372 278.519 321.592 278.42 328.191 278.31H328.931L328.941 278.319C329.371 278.32 329.731 278.66 329.731 279.09C329.73 279.519 329.391 279.879 328.952 279.88L328.301 279.89H328.152C326.562 279.92 325.021 279.939 323.542 279.939C318.452 279.939 314.181 279.649 311.481 278.13C311.001 277.86 310.642 277.509 310.362 277.09C310.092 277.5 309.721 277.86 309.242 278.13C306.542 279.65 302.261 279.939 297.181 279.939C295.711 279.939 294.171 279.92 292.582 279.89L292.421 279.88H291.771C291.331 279.88 290.992 279.519 290.992 279.09C291.002 278.66 291.352 278.319 291.782 278.319H292.441C299.061 278.429 305.322 278.529 308.452 276.77C309.211 276.339 309.481 275.439 309.561 274.069C309.521 273.4 309.541 272.679 309.561 271.93C309.561 271.73 309.542 271.529 309.542 271.31V271.26C309.512 270.48 309.481 269.68 309.481 268.84C309.481 268.41 309.841 268.06 310.271 268.06H310.421ZM378.961 224.589C375.292 224.479 371.832 224.38 369.332 226.399C364.892 229.989 366.211 238.099 366.711 241.149C366.921 242.429 367.231 243.709 367.631 244.959C367.761 245.049 367.871 245.17 367.931 245.319C369.731 249.709 372.811 252.46 374.851 254.27C374.911 254.319 374.971 254.38 375.031 254.43C375.231 254.61 375.431 254.779 375.601 254.949C376.632 255.9 380.872 261.33 385.261 267.109C392.611 276.019 399.361 277.169 403.231 275.279C407.391 273.239 412.661 266.039 401.141 240.739C397.351 233.62 395.181 231.359 393.911 230.029C393.671 229.769 393.441 229.539 393.231 229.299C391.911 228.419 390.491 227.639 389.021 226.979C387.731 226.41 386.501 225.979 385.351 225.649C385.321 225.649 385.301 225.639 385.281 225.629C382.362 224.799 380.032 224.619 378.961 224.589ZM251.371 226.399C248.881 224.38 245.41 224.479 241.741 224.589C240.671 224.619 238.341 224.789 235.421 225.629C235.421 225.629 235.411 225.629 235.401 225.629C235.381 225.629 235.361 225.639 235.341 225.649C234.191 225.979 232.961 226.41 231.671 226.979C230.202 227.639 228.791 228.419 227.471 229.299C227.261 229.539 227.031 229.779 226.792 230.029C225.522 231.369 223.351 233.629 219.561 240.739C208.051 266.039 213.311 273.23 217.481 275.27C221.351 277.169 228.101 276.019 235.451 267.109C235.451 267.109 235.451 267.1 235.461 267.1C239.861 261.31 244.09 255.89 245.121 254.939C245.301 254.779 245.491 254.609 245.691 254.419C245.751 254.369 245.811 254.319 245.871 254.259L245.901 254.239C247.931 252.419 251.002 249.679 252.792 245.31L252.781 245.319C252.841 245.169 252.952 245.049 253.082 244.959C253.471 243.709 253.781 242.439 253.991 241.149C254.491 238.099 255.81 229.99 251.371 226.399ZM314.282 257.659C317.772 257.07 321.882 258.14 324.332 258.79L324.881 258.939C325.301 259.05 325.551 259.47 325.441 259.89C325.331 260.309 324.9 260.549 324.481 260.449L323.921 260.3C321.592 259.69 317.691 258.67 314.542 259.199C311.712 259.679 311.211 261.119 311.211 263.949C311.211 264.379 310.861 264.729 310.421 264.729H310.261C309.822 264.729 309.472 264.379 309.471 263.949C309.471 261.11 308.971 259.669 306.152 259.199C302.992 258.669 299.101 259.69 296.761 260.3L296.782 260.29L296.221 260.439H296.231C295.811 260.549 295.381 260.299 295.271 259.88C295.161 259.47 295.412 259.04 295.832 258.93L296.381 258.79C298.841 258.15 302.941 257.069 306.431 257.659C308.581 258.019 309.732 258.93 310.362 260.09C310.982 258.93 312.142 258.019 314.282 257.659ZM310.452 246.89C310.891 246.89 311.242 247.24 311.242 247.67C311.242 252.187 311.371 255.155 313.188 255.169C319.598 255.051 323.967 256.171 330.391 258.02C330.811 258.14 331.051 258.58 330.931 258.989C330.831 259.329 330.521 259.55 330.171 259.55C330.102 259.55 330.021 259.549 329.952 259.52C323.662 257.7 319.391 256.61 313.191 256.729C311.732 256.729 310.862 255.929 310.362 254.68C309.862 255.929 309.011 256.719 307.542 256.729C301.322 256.609 297.041 257.7 290.761 259.52C290.682 259.539 290.611 259.55 290.542 259.55C290.202 259.55 289.892 259.329 289.792 258.989C289.672 258.579 289.912 258.14 290.332 258.02C296.761 256.16 301.122 255.04 307.572 255.17C309.361 255.169 309.501 252.198 309.501 247.67C309.501 247.24 309.852 246.89 310.292 246.89H310.452ZM268.091 239.919C270.491 242.099 272.901 244.159 275.181 246.109C279.211 249.549 282.711 252.54 284.881 255.1C284.631 254.08 284.361 253.199 284.121 252.439L284.091 252.329C283.401 250.099 282.892 248.49 283.792 246.47C284.379 245.165 285.412 244.057 286.715 243.1C286.717 243.099 286.719 243.1 286.721 243.1L286.731 243.089C286.726 243.093 286.72 243.096 286.715 243.1C285.338 243.279 283.959 243.379 282.582 243.379C277.582 243.379 272.601 242.189 268.091 239.919ZM352.601 239.909C348.091 242.179 343.121 243.369 338.111 243.369C336.731 243.369 335.351 243.269 333.971 243.089C335.281 244.049 336.321 245.16 336.911 246.47L336.901 246.479C337.811 248.499 337.301 250.11 336.601 252.35L336.571 252.439C336.331 253.199 336.061 254.08 335.811 255.1C337.991 252.54 341.481 249.54 345.511 246.1C347.781 244.16 350.201 242.089 352.601 239.909ZM336.251 189.97C334.142 189.35 330.221 188.19 323.251 188.85C311.311 189.97 311.231 197.379 311.231 197.689V219.56C311.231 223.909 312.741 228.069 315.491 231.279C318.531 234.829 322.231 237.559 326.471 239.399L326.461 239.409C327.151 239.669 327.841 239.929 328.531 240.209C339.411 243.969 351.781 240.969 360.011 232.589C360.071 232.519 360.131 232.459 360.191 232.39C360.241 232.34 360.282 232.289 360.332 232.239L360.381 232.189C360.851 231.699 361.301 231.199 361.731 230.669C364.751 227.039 368.521 223.179 375.221 222.979C374.181 222.55 373.301 222.089 372.591 221.609C366.632 217.6 361.981 212.179 359.741 209.569C357.651 207.12 356.131 205.119 354.792 203.359L354.731 203.289C351.801 199.439 349.871 196.899 345.141 193.919C341.622 191.7 337.212 190.269 336.661 190.089C336.531 190.049 336.401 190.019 336.251 189.97ZM297.461 188.859C290.502 188.199 286.572 189.359 284.461 189.979C284.312 190.019 284.181 190.06 284.051 190.1C283.491 190.28 279.081 191.71 275.561 193.93C270.831 196.91 268.901 199.449 265.981 203.289C264.631 205.079 263.091 207.099 260.991 209.549C258.731 212.179 254.081 217.599 248.121 221.609C247.411 222.089 246.53 222.54 245.491 222.979C252.19 223.17 255.961 227.039 258.981 230.669C259.421 231.199 259.872 231.7 260.332 232.189C260.351 232.2 260.371 232.22 260.381 232.229L260.701 232.569C268.941 240.949 281.301 243.949 292.191 240.189C292.881 239.909 293.571 239.64 294.261 239.39C298.501 237.55 302.201 234.819 305.241 231.27L305.221 231.289C307.971 228.079 309.481 223.919 309.481 219.569V197.709C309.481 197.385 309.397 189.989 297.461 188.859ZM310.351 224.859C309.601 227.599 308.271 230.149 306.421 232.299C304.681 234.329 302.731 236.109 300.601 237.619C303.681 237.049 306.981 236.949 309.061 238.379C309.611 238.759 310.031 239.219 310.361 239.759C310.681 239.219 311.111 238.749 311.661 238.379C313.731 236.949 317.031 237.049 320.111 237.619C317.981 236.109 316.031 234.339 314.292 232.31H314.281C312.431 230.15 311.101 227.609 310.351 224.859ZM359.311 187.549C351.371 185.979 342.981 188.129 339.191 189.339C340.991 190.019 343.641 191.149 345.981 192.619C350.961 195.759 353.071 198.529 355.991 202.369L356.131 202.549C357.441 204.269 358.931 206.209 360.931 208.549C363.141 211.119 367.701 216.429 373.491 220.329C375.041 221.379 377.651 222.36 381.021 223.189C383.121 223.429 386.231 224.039 389.681 225.569C390.431 225.899 391.171 226.279 391.891 226.669C389.471 217.59 388.101 214.229 387.191 212.009C386.731 210.869 386.361 209.979 386.021 208.779C383.551 200.779 377.511 190.739 362.811 188.379H362.731C362.432 188.319 362.221 188.279 362.091 188.249C361.761 188.159 361.261 188.039 360.701 187.899C360.251 187.789 359.811 187.679 359.391 187.569L359.371 187.56H359.311V187.549ZM281.511 189.35C277.721 188.14 269.341 185.99 261.391 187.56H261.332C260.912 187.68 260.471 187.789 260.021 187.899C259.451 188.039 258.961 188.159 258.631 188.249C258.501 188.289 258.25 188.329 257.911 188.379C243.211 190.739 237.171 200.779 234.691 208.799V208.789C234.361 209.979 233.991 210.869 233.531 211.989C232.621 214.219 231.241 217.569 228.821 226.659C229.541 226.269 230.281 225.899 231.031 225.56C234.481 224.03 237.601 223.42 239.691 223.18C243.061 222.36 245.671 221.369 247.221 220.329C253.011 216.429 257.571 211.119 259.771 208.569C261.831 206.169 263.341 204.189 264.661 202.449L264.731 202.359C267.641 198.529 269.751 195.759 274.721 192.629C277.061 191.149 279.711 190.03 281.511 189.35ZM327.751 154.669C325.641 157.409 320.361 162.819 310.481 164.569H310.181C303.191 163.329 298.581 160.269 295.931 157.919C294.561 156.699 293.581 155.569 292.911 154.689C292.881 157 292.821 161.1 292.731 164.6L292.751 164.609V180.85C292.751 183.919 291.641 185.879 289.931 187.279C291.981 187.069 294.501 187.02 297.601 187.31C306.001 188.1 309.161 191.94 310.341 194.729C311.521 191.939 314.682 188.11 323.082 187.31C326.181 187.02 328.702 187.069 330.751 187.279C329.042 185.879 327.931 183.919 327.931 180.85V164.6C327.831 161.08 327.781 156.979 327.751 154.669ZM291.161 171.72C289.741 173.02 287.27 175.2 285.621 176.02C284.23 176.71 280.431 178.29 277.091 179.68C274.901 180.59 272.841 181.45 271.951 181.85V181.859C270.601 182.469 268.661 183.979 267.231 185.089C267.161 185.139 267.101 185.189 267.042 185.239C266.962 185.299 266.881 185.369 266.801 185.419C275.031 185.279 282.361 187.909 283.881 188.499C288.811 186.839 291.161 185.219 291.161 180.839V171.72ZM329.521 180.839C329.521 185.219 331.871 186.839 336.801 188.499C338.322 187.909 345.652 185.279 353.881 185.419C353.802 185.359 353.721 185.299 353.641 185.229C353.581 185.18 353.521 185.129 353.451 185.079L353.332 184.989C351.922 183.899 350.041 182.449 348.731 181.859C347.841 181.459 345.781 180.599 343.601 179.689C340.251 178.3 336.451 176.72 335.061 176.02V176.029C333.411 175.209 330.931 173.04 329.521 171.729V180.839ZM324.771 108.239C324.331 107.939 323.931 107.86 323.511 107.979C314.592 111.549 301.282 112.539 296.181 109.979C295.201 109.49 294.281 109.529 293.381 110.119C291.101 111.599 289.531 116.159 289.701 119.089C289.921 123.009 289.731 128.959 289.701 129.829V129.939C289.701 130.179 289.571 130.38 289.401 130.52C289.201 130.709 288.9 130.789 288.621 130.699C288.537 130.668 287.439 130.371 286.561 131.069C285.831 131.649 285.021 133.099 285.301 136.709C285.641 141.179 286.461 143.849 287.801 144.859C288.471 145.369 289.301 145.489 290.491 145.249H290.481C290.701 145.209 290.931 145.26 291.111 145.399C291.291 145.539 291.401 145.75 291.421 145.979C291.423 146.046 291.685 150.166 292.871 152.509C292.93 152.619 292.951 152.739 292.951 152.869V152.949C292.951 153.038 293.241 152.759 293.241 152.949C294.681 155.079 299.522 160.769 310.351 162.699C321.181 160.769 326.161 154.999 327.601 152.869C327.601 152.59 327.74 152.928 327.741 152.869C327.741 152.749 327.771 152.619 327.821 152.509C329.007 150.156 329.269 146.045 329.271 145.979C329.281 145.759 329.392 145.539 329.582 145.409C329.761 145.269 329.992 145.219 330.211 145.259C331.401 145.489 332.231 145.369 332.901 144.869C334.251 143.859 335.061 141.199 335.401 136.72C335.671 133.1 334.861 131.649 334.141 131.079C333.263 130.381 332.177 130.678 332.082 130.709C331.682 130.829 331.261 130.619 331.121 130.239C330.511 129.419 329.821 127.268 329.141 119.93C328.661 114.69 326.741 109.55 324.771 108.239Z" fill="black"/>
</svg>
