<svg width="620" height="714" viewBox="0 0 620 714" fill="none" xmlns="http://www.w3.org/2000/svg">
<path d="M358.141 471.309L346.851 440.961C344.611 431.482 345.001 421.543 344.681 411.865C344.411 403.679 344.341 395.503 343.891 387.298C350.961 392.708 353.651 401.545 355.161 409.951C357.861 424.95 357.301 440.901 357.721 456.11L358.141 471.309Z" fill="#D0EABF"/>
<path d="M340.9 451.1C339.59 458.695 337.04 466.119 336.93 473.934L334.93 481.058C332.65 473.994 330.43 466.77 329.63 459.336C328.95 453.034 329.02 446.592 328.4 440.269C326.73 423.387 323.26 407.557 324.74 390.344C324.94 387.999 325.68 385.625 325.55 383.24C330.98 384.092 336.27 386.336 341.85 386.075C342.44 393.149 342.41 400.293 342.64 407.406C343.15 422.776 343.55 435.741 340.9 451.1Z" fill="#D0EABF"/>
<path d="M292.55 439.859C291.9 446.311 292 452.854 291.28 459.286C290.44 466.76 288.15 473.904 286.03 481.058L284.02 474.335C282.68 460.448 278.91 447.393 277.89 433.356C277.22 424.168 277.88 415.291 278.29 406.164C278.59 399.471 278.73 392.768 279.11 386.075C284.39 386.035 289.86 384.693 294.8 382.849C295.23 383.12 295.3 383.38 295.39 383.851C298.95 402.597 294.43 421.303 292.55 439.859Z" fill="#D0EABF"/>
<path d="M275.83 412.646C275.62 418.257 276.19 424.158 275.87 429.729C275.04 443.876 267.2 457.372 263.33 470.818L262.41 472.131C262.45 471.349 262.8 470.748 262.84 469.916C263.6 453.084 262.8 435.961 264.45 419.159C265.55 407.877 267.67 394.712 277.07 387.298C277 389.251 277.17 391.235 277.09 393.199C276.83 399.661 276.08 406.184 275.83 412.646Z" fill="#D0EABF"/>
<path d="M263.98 589.571C264.32 587.527 263.671 582.72 266.44 584.192C266.9 584.683 264.761 595.624 264.331 597.227C264.001 598.439 262.92 603.268 261.39 602.817C260.821 602.397 260.741 602.196 260.841 601.495C261.031 600.282 262.32 597.618 262.69 596.005C263.18 593.941 263.63 591.665 263.98 589.571Z" fill="black"/>
<path d="M356.51 583.741C356.86 589.772 357.94 595.824 360.18 601.435C359.34 604.52 358.34 602.296 357.72 600.603C355.81 595.413 355.3 589.812 354.52 584.372L356.51 583.741Z" fill="black"/>
<path fill-rule="evenodd" clip-rule="evenodd" d="M289.281 105.792C296.381 95.1223 316.89 94.8918 326.9 101.203C335.35 106.534 336.161 117.535 334.621 126.532C334.721 127.033 336.62 127.464 337.23 128.055C339.75 130.52 338.16 135.559 337.14 138.455C335.88 142.072 334.191 145.449 330.421 146.871C330.971 153.444 329.74 161.048 330.44 167.501C330.82 171.037 333.061 172.601 335.871 174.264C341.651 177.7 348.8 180.606 354.89 183.722C356.77 184.684 362.34 188.36 363.741 188.711C366.641 189.423 370.72 189.263 374.11 190.145C387.52 193.642 395.5 206.866 395.64 220.282C395.67 223.568 394.54 227.536 394.4 230.823C394.25 234.67 395.821 234.891 397.461 237.916C403.31 248.657 402.081 259.357 405.791 270.198C406.931 273.524 409.46 275.97 411.27 278.945C420.43 294.004 418 307.931 421.01 324.453C423.12 336.055 427.71 344.661 428.61 356.654C429.57 369.328 428.891 376.783 422.581 387.964C420.941 390.88 415.151 399.586 411.291 396.23C407.161 392.623 413.77 381.763 414.32 376.893C414.47 375.561 414.251 368.117 412.131 368.618C410.551 369 410 381.622 403.97 381.632C400.791 381.642 401.181 378.466 401.331 376.132C401.551 372.786 402.09 368.157 402.6 364.82C403.54 358.739 406.41 352.586 410.9 348.318C411.65 346.675 409.321 342.267 408.461 340.604C400.281 324.683 386.971 317.699 383.531 298.883C382.011 290.587 383.19 285.197 378.841 277.573C376.511 273.505 373.52 269.818 371.11 265.79L366.291 254.568C365.401 260.68 363.261 266.671 359.701 271.741C358.231 273.845 355.04 276.6 354.15 278.795C350.85 286.93 351.8 308.932 352.89 318.04C353.2 320.605 354.68 323.291 355.18 325.906C356.18 331.206 355.92 337.047 356.52 342.437C357.75 353.629 361.76 363.357 363.72 374.228C367.23 393.725 366.72 418.182 363.31 437.699C362.08 444.753 360.041 450.394 360.161 457.728C360.271 463.96 360 471.034 360.57 477.216C360.97 481.574 364.221 487.726 365.581 492.105C372.761 515.169 366.33 528.665 363.85 551.077C362.4 564.173 361.67 574.683 364.72 587.538C365.24 589.732 365.371 593.52 366.341 595.263C368.471 599.07 376.56 600.513 380.15 603.829C383.8 607.196 382.311 610.241 378.211 612.055C369.651 615.842 354.591 619.029 345.501 616.835C338.941 615.261 338.891 611.554 339.411 605.462C339.571 603.508 340.651 600.863 340.591 599C340.51 596.745 338.621 594.141 338.281 591.967C337.381 586.336 340.191 581.276 340.621 575.825C342.391 553.332 329.49 528.354 330.85 506.832C331.24 500.621 333.951 492.385 333.701 486.554C333.491 481.615 329.661 472.917 328.531 467.327C327.531 462.377 327.49 457.408 326.591 452.619C324.94 443.832 320.35 434.123 318.341 424.715C315.051 409.255 315.4 389.778 310.76 375.43C310.631 375.01 310.66 374.208 310.07 374.308C305.84 394.938 305.62 415.658 299.68 435.997C298.12 441.347 295.36 447.319 294.36 452.619C293.47 457.398 293.37 462.317 292.35 467.256C290.48 476.344 286.641 482.125 287.72 491.754C288.29 496.773 289.76 501.793 290.1 506.832C291.53 527.833 279.351 552.601 280.341 575.014C280.591 580.775 283.61 586.075 282.68 591.967C282.33 594.191 280.71 596.174 280.57 598.699C280.19 605.372 286.181 614.46 275.461 616.835C268.181 618.458 259.34 617.154 252.22 615.201C249.75 614.519 241.491 611.915 239.991 610.342C233.952 603.98 249.37 599.831 252.6 597.317C256.41 594.341 255.061 592.327 255.991 588.51C258.301 579.002 258.85 573.982 258.35 564.043C257.1 539.245 247.45 517.624 255.07 493.017C256.5 488.378 259.991 481.704 260.381 477.216C260.941 470.874 260.691 463.71 260.791 457.328C260.931 449.283 258.46 442.66 257.23 434.865C254.19 415.648 253.81 390.87 257.64 371.784C259.05 364.73 261.8 357.867 263.1 350.843C264.49 343.329 264.23 335.664 265.31 328.279C265.9 324.212 268.17 320.204 268.51 316.457C269.41 306.468 269.821 294.775 268.461 284.856C267.351 276.741 265.01 277.041 261.091 271.09C257.291 265.309 256.791 261.231 254.871 254.969C254.751 254.578 254.79 254.037 254.26 254.157C253.8 257.494 252.36 260.94 250.8 263.906C247.97 269.316 240.581 277.523 239.291 282.873C237.841 288.874 238.051 295.767 236.541 302.059C232.871 317.419 220.14 326.406 212.9 340.203C211.97 341.956 209.271 347.005 210.06 348.719C218.83 356.624 218.18 368.296 219.98 378.997C219.68 380.83 218.09 381.883 216.27 381.532C211.551 380.63 210.901 371.703 209.031 368.216C205.791 371.412 206.291 376.192 207.291 380.3C208.081 383.537 214.18 395.77 208.331 396.962C204.231 397.793 199.07 389.167 197.48 386.021C191.93 375.03 191.481 369.309 192.341 357.055C193.191 344.992 197.211 337.778 199.541 326.486C202.971 309.844 200.171 295.657 208.97 280.267C212.33 274.386 214.521 273.244 216.251 266.001C218.531 256.422 218.541 246.753 223.491 237.916C224.151 236.744 226.6 233.779 226.791 233.067C227.141 231.785 225.861 226.555 225.751 224.721C224.491 203.851 235.281 189.113 257.001 188.491C265.851 182.71 278.11 179.123 286.73 173.462C289.5 171.639 290.281 169.534 290.531 166.298C291.011 160.197 290.191 153.433 290.461 147.262C289.671 146.38 288.66 146.411 287.65 145.599C284.69 143.214 281.741 133.987 282.541 130.33C283.221 127.284 286.14 127.254 286.411 126.442C285.711 119.439 285.211 111.924 289.281 105.792ZM271.57 523.264C271.25 530.879 263.801 536.78 256.711 532.192C257.551 538.373 258.8 544.516 259.51 550.717C261.27 566.177 261.651 578.802 257.741 593.92C256.211 599.832 249.96 601.073 245.43 603.558C238.411 607.415 241.231 608.779 247.11 610.953C254.41 613.648 270.13 617.275 277.18 613.688C281.66 611.414 277.84 602.737 277.93 599.009C277.991 596.374 279.86 593.92 280.23 591.565C280.99 586.756 278.981 583.129 278.341 578.621C277.651 573.721 278.181 567.459 278.751 562.49C279.391 556.949 280.76 551.509 281.55 545.998L277.6 558.091C274.37 570.885 272.651 583.25 274.741 596.425C275.041 598.349 277.19 601.715 273.831 601.184C267.891 577.85 276.351 554.404 284.001 532.602C282.551 532.953 282.27 533.874 280.56 533.834C274.531 533.704 272.36 528.314 271.57 523.264ZM349.381 523.264C348.901 529.516 344.061 536.359 337.371 532.602C344.661 554.474 353 577.93 347.14 601.194L345.56 600.523C349.34 583.07 345.821 565.626 340.831 548.834L339.411 545.186C340.901 555.987 344.31 568.111 342.61 579.032C341.95 583.29 340.1 586.516 340.73 591.145C341.1 593.84 343.031 596.576 343.081 599.391C343.14 603.068 339.631 611.093 343.591 613.458C350.541 617.606 369.291 613.208 376.581 610.031C377.761 609.521 379.04 609.019 379.69 607.816C380.379 605.131 370.881 601.786 369.01 600.724C366.181 599.111 363.961 596.745 363.211 593.51C359.601 577.82 359.621 566.758 361.451 550.717C362.161 544.505 363.381 538.373 364.251 532.192C357.081 536.87 349.891 530.919 349.381 523.264ZM270.501 470.964C266.671 470.433 265.351 472.958 263.961 475.914C257.271 490.141 251.42 509.829 255.6 525.379C257.05 530.769 260.701 534.215 266.211 530.509C270.631 527.533 270.611 515.219 271.491 510.189C272.321 505.4 274.151 500.22 274.581 495.411C275.311 487.105 273.611 478.618 270.501 470.964ZM356.991 475.914C356.051 473.95 353.89 469.872 351.091 470.553C350.161 470.784 349.41 473.298 349.07 474.25C343.96 488.477 347.07 496.433 349.47 510.189C350.34 515.169 350.391 527.573 354.741 530.509C358.931 533.324 363.13 531.941 364.85 527.312C370.25 512.854 363.521 489.44 356.991 475.914ZM348.36 471.315C345.24 471.656 339.39 473.068 337.97 476.174C336.39 479.64 336.29 487.255 335.68 491.343C334.05 502.223 330.25 520.309 337.44 529.887C340.36 533.785 345.1 531.26 346.44 527.232C351.14 513.115 343.4 501.482 344.27 487.736C344.62 482.356 346.3 476.274 348.36 471.315ZM272.591 470.904C275.68 479.641 277.361 487.716 276.211 497.034C275.541 502.374 273.34 508.096 272.98 513.306C272.74 516.833 273.531 527.582 275.991 530.027C278.861 532.893 282.111 532.151 284.171 528.915C292.57 515.689 284.341 491.824 283.201 477.176C281.941 472.677 276.3 472.457 272.591 470.904ZM294.8 382.844C289.861 384.688 284.39 386.031 279.11 386.071C278.73 392.764 278.591 399.467 278.291 406.159C277.881 415.287 277.22 424.164 277.89 433.351C278.91 447.388 282.68 460.444 284.02 474.33L286.031 481.053C288.151 473.9 290.441 466.755 291.281 459.281C292.001 452.849 291.9 446.306 292.55 439.854C294.43 421.298 298.95 402.592 295.39 383.846C295.3 383.376 295.23 383.115 294.8 382.844ZM325.55 383.235C325.68 385.62 324.941 387.995 324.741 390.339C323.261 407.552 326.73 423.383 328.4 440.265C329.02 446.587 328.951 453.03 329.631 459.332C330.431 466.766 332.65 473.99 334.93 481.053L336.93 473.929C337.04 466.114 339.59 458.69 340.9 451.095C343.55 435.736 343.15 422.771 342.64 407.402C342.41 400.288 342.44 393.144 341.85 386.071C336.271 386.331 330.98 384.087 325.55 383.235ZM277.07 387.293C267.671 394.707 265.551 407.873 264.451 419.154C262.801 435.956 263.601 453.079 262.841 469.912C262.801 470.743 262.451 471.345 262.411 472.126L263.331 470.814C267.201 457.368 275.041 443.871 275.871 429.724C276.191 424.154 275.621 418.252 275.831 412.642C276.081 406.179 276.831 399.656 277.091 393.194C277.17 391.23 277 389.247 277.07 387.293ZM266.081 469.682C271.401 467.568 276.971 470.273 281.961 472.116L276.26 439.243L266.081 469.682ZM339.001 472.116C344.051 470.353 350.121 466.996 355.291 470.092L344.291 439.653L339.001 472.116ZM343.89 387.293C344.34 395.499 344.41 403.675 344.68 411.861C345 421.539 344.61 431.478 346.85 440.956L358.14 471.304L357.72 456.105C357.3 440.896 357.861 424.946 355.161 409.947C353.651 401.541 350.96 392.703 343.89 387.293ZM306.81 376.332C303.94 378.916 300.45 380.6 297.01 382.283C298.73 394.216 298.6 406.35 297.44 418.343C296.63 426.609 294.86 434.824 294.19 443.11C294.15 443.551 293.891 444.623 294.581 444.523C296.921 436.488 299.61 428.542 300.98 420.246L306.81 376.332ZM314.421 376.673C313.861 376.333 313.651 375.992 313.751 376.924C314.221 381.242 315.521 385.951 316.121 390.389C318.121 405.117 318.8 420.126 323.31 434.374L326.77 444.523C324.57 423.723 320.591 403.013 323.871 382.063C320.141 381.332 317.43 378.486 314.421 376.673ZM298.251 328.239C295.55 314.774 273.281 308.422 268.631 323.881C266.551 330.814 267.11 340.533 266.01 348.058C264.6 357.646 260.86 366.623 259.27 376.242C256.43 393.364 256.941 414.495 259.211 431.678C259.751 435.836 260.72 439.984 261.39 444.122C262.05 431.328 261.831 417.762 264.72 405.228C266.44 397.784 269.66 391 275.44 385.87C263.851 382.413 264.271 368.968 265.781 359.199C267.891 345.613 273.621 329.802 289.501 328.029C291.781 327.778 294.841 328.029 297.241 328.029C297.323 328.032 297.991 328.869 298.251 328.239ZM351.031 320.705C345.271 309.454 324.85 315.967 323.1 327.829C322.921 329.06 323.589 328.041 323.72 328.029C326.28 327.929 328.891 328.029 331.461 328.029C332.271 328.029 336.14 329.261 337.171 329.642C347.95 333.63 351.981 344.511 354.201 354.891C356.461 365.511 358.3 381.402 345.51 385.87C352.89 392.423 355.71 401.641 357.26 411.099C359.04 421.989 359.07 433.121 359.57 444.122C361.98 434.484 362.591 424.584 363.031 414.695C363.681 400.408 363.831 385.881 360.871 371.784C359.281 364.169 356.301 356.915 355.001 349.22C353.631 341.114 354.431 327.368 351.031 320.705ZM236.741 284.195C234.081 285.958 230.56 286.69 228.82 289.495C228.35 292.701 227.74 295.837 226.93 298.973C223.42 312.559 213.661 334.131 201.831 342.157C200.301 343.198 196.801 344.411 196.201 345.883C195.711 347.066 195.35 350.341 195.19 351.784C193.68 365.641 193.83 374.88 200.82 387.153C202.53 390.149 204.361 392.594 207.22 394.587C208.6 394.908 208.27 391.573 208.18 390.78C207.38 383.867 202.601 380.019 204.501 371.603C204.911 369.769 207.511 363.568 209.881 365.551C213.73 368.767 212.281 376.141 216.581 379.167L217.57 378.547C215.73 367.776 216.15 356.985 207.3 349.019C205.752 344.861 218.19 327.459 221.1 323.611C224.38 319.263 228.61 315.345 231.11 310.445C235.24 302.33 235.271 292.982 236.741 284.195ZM384.22 284.195C385.06 290.967 385.32 297.901 387.27 304.484C390.36 314.903 400.02 322.929 406.06 332.037C407.92 334.832 414.95 346.254 413.76 349.13C413.46 349.862 409.73 353.077 408.73 354.69C404.16 362.024 404.991 370.451 403.421 378.576C403.671 380.249 406.12 377.625 406.56 376.883C408.34 373.888 409.941 358.478 415.251 368.347C417.611 372.735 417.031 376.603 415.791 381.201C414.601 385.58 411.54 389.988 412.73 394.597C415.73 394.066 418.071 390.699 419.581 388.225C426.21 377.364 427.081 369.539 426.171 357.055C426.011 354.821 425.391 346.074 424.121 344.891C423.511 344.32 422.001 343.91 421.161 343.379C404.981 333.119 395.25 307.7 392.14 289.485L390.3 287.261L384.22 284.195ZM297.711 330.404C295.891 329.792 293.95 329.652 292.06 329.772C285.791 330.183 279.381 333.049 275.451 337.988C267.991 347.347 259.501 384.257 278.501 384.488C286.241 384.578 307.191 378.566 309.081 369.859C310.291 364.278 310.23 347.838 308.23 342.648C306.8 338.941 301.541 331.666 297.711 330.404ZM346.911 340.243C342.611 333.21 334.631 329.101 326.281 329.772C320.041 330.284 314.11 338.359 312.32 343.87C310.8 348.569 310.951 360.011 311.281 365.191C311.631 370.801 312.401 372.816 316.86 376.262C322.25 380.42 335.281 384.557 342.031 384.467C360.93 384.206 352.961 350.162 346.911 340.243ZM298.881 295.166C297.481 298.993 295.71 302.73 294.48 306.608C293.93 308.351 292.451 312.429 292.531 314.022C292.651 316.617 296.52 320.024 297.921 322.478C299.27 324.863 299.821 327.518 301.18 329.782C302.8 332.477 305.58 334.422 307.39 336.996C308.66 338.81 309.401 340.844 310.68 342.637C311.82 337.147 317.75 333.67 320.18 329.372C321.45 327.108 322.011 324.383 323.43 322.068C326.43 317.189 329.491 317.479 327.791 310.575C325.541 301.488 320.44 292.32 316.94 283.644L311.291 273.234V324.372H309.661V272.823L298.881 295.166ZM218.01 285.418C211.111 298.703 207.971 313.451 203.041 327.528C201.311 332.457 199.11 337.227 197.64 342.237C205.31 338.81 210.35 331.286 214.4 324.242C220.11 314.343 224.37 303.131 226.55 291.91C225.181 292.24 224.18 293.403 222.64 293.513C220.611 293.653 219.38 292.711 218.93 290.778L218.01 285.418ZM402.55 285.407C403.28 292.14 401.06 295.677 394.4 291.91C396.31 302.239 400.18 312.329 405.19 321.547C409.4 329.291 415.03 338.499 423.32 342.237C419.93 333.61 416.781 324.893 413.951 316.066C410.651 305.807 408.95 294.204 402.55 285.407ZM251.4 223.308C234.291 226.645 225.261 233.719 221.451 250.891C220.031 257.304 219.59 266.701 217.1 272.542C215.76 275.678 211.89 279.837 210.05 283.374C204.321 294.415 205.11 301.418 204.15 313.21C203.92 315.996 203.26 318.772 202.93 321.537L211.18 295.867C212.19 290.798 217.231 284.986 218.631 280.558C219.68 277.241 219.33 272.072 220.23 268.345C223.35 255.38 237.76 260.66 236.291 272.172L232.461 283.785C237.79 281.801 238.721 277.452 241.461 273.264C244.261 268.986 247.66 265.128 249.72 260.389C255.09 248.056 252.59 236.193 251.4 223.308ZM369.55 223.308C369.26 233.818 366.611 243.176 369.01 253.676C370.87 261.782 374.701 266.241 379.091 272.863C380.5 275.007 382.121 278.775 383.621 280.528C384.951 282.071 387.47 282.672 388.9 284.195C389.47 283.974 388.9 283.383 388.81 283.063C387.72 279.155 384.71 273.835 384.31 270.078C383.331 260.921 396.77 256.402 400.4 266.651C402.14 271.571 401.28 277.984 402.65 281.861C403.63 284.666 408.48 289.245 408.97 293.012L418.02 321.537C415.73 309.434 417.42 297.931 412.39 286.359C410.22 281.35 405.71 276.831 403.97 272.823C401.451 266.982 400.921 257.344 399.501 250.891C395.761 233.889 386.5 226.574 369.55 223.308ZM350.8 282.572C343.131 292.752 336.22 303.652 330.841 315.245C332.47 314.694 334.001 313.982 335.72 313.612C340.93 312.469 346.43 312.85 350.4 316.667C349.9 305.316 348.561 293.814 350.8 282.572ZM271.791 296.559L270.97 316.256C276.46 311.568 283.83 312.8 290.11 315.044L283.51 302.34L270.56 282.572L271.791 296.559ZM366.291 230.211C356.561 240.711 340.981 243.988 328.001 237.515C324.721 249.709 317.92 260.59 313.31 272.232C314.9 276.089 317.18 279.807 318.97 283.644C323.25 292.801 326.061 301.849 329.831 310.986C329.991 311.367 329.881 311.908 330.43 311.788C336.1 300.146 343.331 289.285 350.881 278.785C357.691 269.327 361.551 266.711 363.781 254.288C365.181 246.473 365.691 238.136 366.291 230.211ZM254.671 230.211C256.301 241.433 255.691 254.058 260.3 264.578C262.88 270.469 267.23 274.507 270.89 279.596C278.16 289.715 285.08 300.607 290.52 311.798C291.14 311.738 291.14 311.177 291.31 310.756C292.57 307.5 293.43 304.023 294.69 300.737C298.37 291.179 302.761 281.91 307.451 272.833C307.901 271.731 307.261 270.709 306.881 269.718C305.231 265.409 302.2 260.77 300.22 256.462C297.4 250.31 295.04 243.977 292.57 237.685C292.203 237.429 286.949 239.87 285.64 240.171C274.18 242.755 262.55 238.587 254.671 230.211ZM398.591 267.232C395.91 259.418 386.23 262.794 386.22 268.976C386.211 271.681 391.671 285.848 393.411 288.223C394.791 290.126 397.601 291.879 400.05 291.449C400.231 291.328 400.821 288.534 400.871 288.003C401.301 283.524 400.051 271.521 398.591 267.232ZM234.6 269.888C234.38 266.081 231.42 262.112 227.27 262.774C225.88 262.994 224.3 263.966 223.52 265.139C221.57 268.094 220.62 278.524 220.43 282.351C220.36 283.854 220.021 290.945 221.52 291.459C223.99 291.729 225.861 290.147 227.3 288.383C229.77 285.378 234.83 273.605 234.6 269.888ZM312.52 174.394C312.111 174.093 312.01 173.613 311.291 173.793V271.2L317.881 258.085C327.261 238.928 331.841 217.898 339.631 198.17C341.28 196.096 343.441 194.723 345.921 193.882C337.791 192.439 330.451 188.12 323.791 183.451C319.811 180.666 316.33 177.269 312.52 174.394ZM309.661 173.382C308.951 173.212 308.85 173.673 308.44 173.994C306.15 175.737 303.88 178.202 301.48 180.045C293.65 186.067 284.751 191.617 275.031 193.882C278.061 195.254 280.671 196.607 282.161 199.773C289.711 222.226 295.891 245.301 307.01 266.341C307.76 267.774 308.701 269.527 309.661 270.8V173.382ZM281.55 203.83C273.651 211.385 264.79 218.509 254.31 222.136C253.87 225.061 254.341 226.394 256.091 228.588C264.08 238.687 280.33 241.933 291.69 235.842L281.55 203.83ZM338.991 204.081L329.281 235.832C340.051 242.034 358.071 238.367 365.241 228.157C366.111 226.915 367.46 223.418 366.64 222.146C366.476 221.894 361.99 220.373 360.98 219.872C353.38 216.004 346.68 210.734 340.381 205.063C339.961 204.672 339.8 203.83 339.8 203.83L338.991 204.081ZM373.621 192.659C363.101 189.944 355.82 192.609 346.121 196.516C344.161 197.298 338.931 199.593 340.6 202.418C341.311 203.641 345.98 207.558 347.36 208.69C352.67 213.028 359.74 217.557 366.19 219.962C374.94 223.218 385.081 223.99 391.951 231.023C395.041 215.574 390.68 197.068 373.621 192.659ZM264.031 192.669C258.321 191.076 254.741 191.026 248.951 192.248C230.611 196.096 225.941 214.111 229.001 230.612C236.03 224.16 245.18 223.488 253.65 220.473C261.52 217.677 271.441 210.984 277.491 205.253C279.761 203.099 281.97 201.496 278.9 198.551C277.379 197.098 266.661 193.401 264.031 192.669ZM309.661 146.59C309.298 146.231 303.62 147.303 302.65 147.523C299.39 148.295 296.24 150.518 292.961 149.436C291.731 158.213 296.731 171.248 287.121 176.298L261.19 189.212C262.63 189.623 264.14 189.864 265.57 190.325C266.74 190.706 270.03 192.207 270.741 192.268C279.801 193.109 294.311 183.282 301.291 177.831C302.501 176.889 309.11 171.529 309.26 170.747L309.661 146.59ZM311.291 171.148C321.051 178.733 333.431 190.395 346.171 192.008C350.46 192.549 354.141 190.936 358.3 189.583C358.76 189.433 359.29 189.453 359.36 188.812L333.32 175.987C331.31 174.854 328.001 171.478 328.001 169.124V149.026C324.951 151.059 321.5 148.324 318.3 147.523C316.091 146.982 313.571 146.621 311.291 146.59V171.148ZM285.591 129.789C283.981 131.953 286.881 141.059 288.671 142.954C289.09 143.394 289.411 143.895 290.11 143.755L286.85 129.548L285.591 129.789ZM330.85 143.755C333.56 142.723 337.34 130.822 335.3 129.569L334.11 129.548L330.85 143.755Z" fill="black"/>
</svg>
