<svg width="620" height="714" viewBox="0 0 620 714" fill="none" xmlns="http://www.w3.org/2000/svg">
<path d="M253.251 245.029C253.251 245.029 253.211 245.109 253.171 245.139C253.081 245.189 253.011 245.279 252.961 245.399C251.151 249.809 248.061 252.569 246.011 254.399H246.001C245.721 254.659 245.471 254.879 245.251 255.099C244.381 255.899 240.861 260.329 235.611 267.239C230.121 273.889 224.951 276.249 221.031 276.249C219.641 276.249 218.421 275.959 217.391 275.449C213.171 273.389 207.811 266.139 219.361 240.729L219.401 240.659C223.211 233.509 225.381 231.259 226.671 229.909L226.801 229.779C227.001 229.569 227.181 229.379 227.351 229.179C227.361 229.169 227.381 229.149 227.391 229.149C228.711 228.269 230.131 227.489 231.621 226.829C232.831 226.289 234.071 225.839 235.311 225.479C235.371 225.469 235.411 225.459 235.431 225.439C236.871 225.029 238.331 224.729 239.801 224.559C239.871 224.559 239.921 224.559 239.971 224.539C240.761 224.449 241.371 224.429 241.741 224.419C245.451 224.309 248.951 224.209 251.501 226.279C256.021 229.929 254.691 238.119 254.191 241.199L254.001 241.179L254.191 241.209C253.981 242.499 253.671 243.799 253.271 245.049L253.251 245.029Z" fill="#3D532E"/>
<path d="M401.311 240.659C412.901 266.119 407.541 273.389 403.311 275.459C402.281 275.969 401.051 276.269 399.671 276.269C395.771 276.269 390.611 273.919 385.141 267.309C385.131 267.299 385.121 267.279 385.111 267.269C379.841 260.349 376.321 255.919 375.441 255.099C375.221 254.899 374.971 254.669 374.691 254.429C372.641 252.609 369.551 249.839 367.721 245.409C367.671 245.299 367.591 245.199 367.491 245.139C367.451 245.119 367.421 245.079 367.411 245.039C367.011 243.779 366.701 242.499 366.491 241.219C365.991 238.119 364.661 229.929 369.181 226.289C371.741 224.219 375.241 224.319 378.931 224.429C379.301 224.439 379.911 224.469 380.681 224.549C380.731 224.559 380.781 224.559 380.821 224.569C380.851 224.569 380.871 224.569 380.891 224.569C382.321 224.739 383.771 225.039 385.221 225.439C385.291 225.469 385.311 225.479 385.341 225.479C386.611 225.839 387.851 226.289 389.061 226.829C390.551 227.489 391.971 228.279 393.291 229.149C393.291 229.149 393.321 229.169 393.321 229.189C393.451 229.339 393.591 229.489 393.741 229.649C393.821 229.739 393.911 229.829 394.001 229.929V229.939C395.291 231.269 397.441 233.509 401.251 240.669L401.311 240.659Z" fill="#3D532E"/>
<path d="M299.26 93.6091C299.83 93.2192 300.541 92.7388 301.821 93.1687C303.421 93.1287 315.75 92.9596 323.42 97.3894C331.06 101.809 337.541 107.48 332.941 128.01C332.85 128.429 332.43 128.699 332 128.599C332.07 128.809 332.131 128.959 332.191 129.079C332.891 128.999 334.03 129.039 335.04 129.829C336.55 131.009 337.17 133.359 336.91 136.829C336.53 141.839 335.54 144.789 333.79 146.099C332.95 146.729 331.94 146.989 330.71 146.899C330.57 148.279 330.19 151.049 329.25 153.019V153.109C329.27 155 329.4 166.299 329.67 169.769C330.53 170.589 333.83 173.689 335.7 174.619C337.03 175.279 340.72 176.819 344.01 178.189L344.141 178.249C344.541 178.419 344.93 178.579 345.3 178.729C347.08 179.469 348.561 180.089 349.321 180.439C350.831 181.129 352.871 182.699 354.351 183.859C354.981 184.349 355.701 184.909 355.891 184.999C356.241 185.159 358.021 185.62 359.571 186.01H359.611C359.77 186.049 359.93 186.089 360.09 186.129C360.42 186.209 360.731 186.289 360.99 186.359C361.56 186.509 362.061 186.629 362.401 186.719C362.481 186.739 362.611 186.759 362.79 186.789C362.85 186.789 362.91 186.809 362.97 186.819C378.47 189.309 384.841 199.889 387.441 208.329C387.761 209.469 388.11 210.319 388.55 211.399C389.5 213.709 390.921 217.19 393.441 226.719C393.631 227.339 393.871 227.729 394.231 228.159C394.241 228.169 394.25 228.179 394.26 228.189C394.46 228.419 394.69 228.669 394.97 228.959C397.15 231.229 401.2 235.459 410.17 256.489C411.18 258.919 412.471 260.259 415.031 262.909L415.061 262.939C416.951 264.899 419.531 267.579 423.12 271.869C429.2 279.129 435.33 294.199 440.26 306.319L440.281 306.369C442.301 311.349 444.211 316.049 445.851 319.559C448.001 323.419 449.1 326.83 450.25 330.429V330.469C451.56 334.529 452.911 338.729 455.941 344.419L456.021 344.589L456.04 344.629L456.151 344.619C458.451 349.099 458.501 349.199 458.611 351.479H458.58C458.62 352.369 458.681 353.619 458.941 355.749C459.821 362.988 459.65 365.529 459.55 367.049V367.149C459.45 368.65 457.48 375.518 457.25 376.289C457.16 376.599 456.89 376.819 456.571 376.849C456.477 376.85 454.309 377.028 452.87 375.489C452.36 374.949 452.031 374.259 451.851 373.459C451.131 373.419 450.05 373.229 449.29 372.449C448.57 371.699 448.311 370.638 448.531 369.299C448.88 367.189 448.761 366.099 448.611 364.709C448.511 363.769 448.401 362.698 448.431 361.169C448.461 359.909 448.09 359.159 447.62 358.229V358.209C446.87 356.739 445.971 354.918 446.361 350.669C446.171 350.429 445.97 350.229 445.79 350.079C445.93 352.689 445.94 357.929 443.96 360.159C443.33 360.869 442.55 361.239 441.651 361.26C437.311 361.329 437.131 357.319 436.931 352.639V352.599C436.881 351.419 436.83 350.189 436.71 348.909C436.23 345.189 435.65 343.309 434.58 342.01C433.07 340.18 431.78 336.149 434.42 332.549C434.59 332.228 434.22 331.209 433.521 329.899C433.501 329.869 433.491 329.839 433.471 329.819C432.751 328.489 431.7 326.859 430.54 325.339C427.011 321.679 424.16 319.519 421.401 317.429H421.391C417.431 314.419 413.67 311.579 408.2 304.799C402.251 297.419 400.53 293.839 398.71 290.039C397.64 287.789 396.531 285.479 394.481 282.199C390.911 277.129 376.33 257.779 374.51 256.109C374.33 255.939 374.13 255.769 373.92 255.579C373.88 255.539 373.83 255.499 373.781 255.459C372.091 253.949 369.46 251.589 367.51 248.099C366.55 252.29 363.76 261.95 356.271 276.249C352.151 284.379 353.31 292.979 354.45 301.299L354.47 301.479C354.77 303.679 355.08 305.939 355.26 308.119C355.55 311.539 356.051 315.999 356.641 320.659V320.849C356.661 321.029 356.69 321.219 356.71 321.409C356.73 321.589 356.761 321.78 356.781 321.969C356.781 321.999 356.79 322.039 356.79 322.069C358.02 331.639 359.561 341.669 360.401 344.969C360.461 345.209 360.55 345.54 360.66 345.969C364.93 361.99 373.061 399.78 367.141 437.389C367.141 437.449 367.14 437.509 367.12 437.569C367.12 437.609 367.1 437.649 367.09 437.689C367.09 437.719 367.08 437.759 367.071 437.789C366.141 443.609 364.871 449.419 363.191 455.139C363.301 463.949 363.881 465.979 364.401 467.769C364.571 468.349 364.74 468.959 364.88 469.739C365.16 471.239 365.21 472.529 365.26 473.769V473.799C365.31 475.179 365.37 476.609 365.74 478.349C365.831 478.759 366.121 479.58 366.49 480.599C369.091 487.86 376.001 507.15 370.311 539.319C370.011 542.669 369.58 546.199 369.17 549.619L369.141 549.899C368.051 558.939 367.031 567.469 368.031 572.849C368.81 577.479 369.14 579.489 369.22 581.959C369.85 583.829 372.941 588.709 374.811 591.649L375.04 592.01C375.55 592.809 375.98 593.49 376.25 593.929C376.66 594.619 376.891 595.129 377.061 595.539C377.441 596.429 377.65 596.919 379.72 598.569C380.12 598.889 380.54 599.219 380.97 599.549L381 599.569C383.9 601.839 387.51 604.669 389.47 608.959C390.56 611.559 390.17 613.029 389.66 613.809C389.25 614.439 388.61 614.84 387.83 615.01C387.73 615.419 387.53 615.949 387.101 616.369C386.841 616.629 386.4 616.919 385.75 617.019C385.52 617.569 385.05 618.379 384.2 618.869C383.571 619.229 382.86 619.359 382.08 619.239C381.6 619.759 380.63 620.599 379.34 620.749C378.46 620.859 377.6 620.619 376.781 620.059C375.97 620.689 374.31 621.749 372.22 621.749C371.96 621.749 371.701 621.739 371.431 621.699C368.941 621.379 366.69 619.569 364.76 616.319C363.319 615.809 357.491 613.368 357.99 607.209C358.03 605.819 356.59 604.929 353.8 603.359L353.361 603.109C350.011 601.209 348.05 599.538 349.83 589.379C350.13 587.019 349.8 584.449 349.66 583.589C348.92 582.918 347.591 580.838 348.151 574.619C348.821 567.159 349.451 560.119 340.181 530.689C339.741 529.239 339.14 528.399 338.51 527.519C336.49 524.709 334.391 521.809 337.191 501.649C338.861 486.9 338.73 486.699 337.231 484.179V484.159C336.911 483.619 336.51 482.949 336.05 482.049C335.85 481.639 335.621 481.229 335.391 480.829L335.33 480.729V480.719C334.97 480.08 334.591 479.439 334.191 478.779C331.471 474.209 328.081 468.519 327.181 456.899C326.781 451.769 326.09 446.609 325.13 441.449C324.92 440.429 324.731 439.449 324.561 438.51C323.591 433.83 322.401 429.159 320.981 424.519C320.501 422.929 319.69 420.719 318.75 418.149V418.129C315.76 409.969 311.25 397.649 310.63 387.519C310.58 385.909 310.551 384.489 310.521 383.249V383.219C310.481 381.17 310.441 379.309 310.321 378.129C310.211 379.299 310.17 381.149 310.13 383.199V383.219C310.1 384.469 310.071 385.89 310.021 387.479C309.391 397.619 304.89 409.929 301.91 418.089V418.129C300.96 420.698 300.15 422.909 299.66 424.499C298.24 429.129 297.05 433.799 296.09 438.479C295.92 439.429 295.72 440.429 295.51 441.459C294.55 446.609 293.87 451.759 293.47 456.889C292.57 468.509 289.18 474.19 286.46 478.76C286.39 478.879 286.33 478.99 286.26 479.099C285.94 479.649 285.62 480.179 285.33 480.709V480.719L285.24 480.869C285.021 481.259 284.811 481.649 284.611 482.039C284.161 482.939 283.761 483.609 283.431 484.149V484.169C281.911 486.688 281.79 486.89 283.46 501.659C286.25 521.799 284.16 524.7 282.13 527.51V527.529C281.49 528.409 280.89 529.239 280.46 530.669C271.18 560.099 271.82 567.149 272.49 574.599C273.05 580.819 271.731 582.899 270.981 583.569C270.851 584.429 270.521 587.01 270.821 589.389C272.59 599.509 270.63 601.189 267.281 603.089L266.84 603.339C264.06 604.909 262.601 605.799 262.651 607.229C263.16 613.349 257.33 615.789 255.88 616.299C253.94 619.548 251.7 621.359 249.21 621.679C248.94 621.709 248.68 621.729 248.42 621.729C246.32 621.729 244.661 620.669 243.861 620.039C243.041 620.589 242.17 620.829 241.3 620.729C240.011 620.579 239.041 619.739 238.561 619.219C237.781 619.339 237.071 619.219 236.441 618.849C235.591 618.349 235.121 617.549 234.891 616.999C234.241 616.899 233.81 616.609 233.54 616.349C233.11 615.929 232.911 615.409 232.811 614.989C232.031 614.829 231.391 614.419 230.981 613.789C230.471 613.009 230.081 611.539 231.16 608.959C233.13 604.639 236.741 601.809 239.651 599.539H239.66C240.09 599.189 240.51 598.868 240.91 598.549C242.97 596.899 243.181 596.409 243.571 595.529L243.59 595.479C243.76 595.079 243.981 594.579 244.391 593.909C244.701 593.389 245.211 592.589 245.821 591.619C247.68 588.689 250.78 583.809 251.41 581.939C251.49 579.469 251.821 577.448 252.601 572.839C253.601 567.449 252.58 558.918 251.49 549.879L251.441 549.499C251.031 546.109 250.611 542.619 250.311 539.239C244.631 507.139 251.541 487.849 254.141 480.589L254.17 480.499C254.52 479.519 254.8 478.739 254.88 478.339C255.24 476.599 255.301 475.169 255.361 473.789C255.411 472.539 255.461 471.239 255.74 469.729C255.88 468.939 256.061 468.349 256.221 467.76C256.731 465.96 257.321 463.939 257.431 455.119C255.751 449.399 254.49 443.579 253.55 437.769C253.53 437.699 253.52 437.629 253.5 437.549C253.48 437.489 253.481 437.429 253.481 437.369C247.551 399.769 255.69 361.969 259.96 345.949C260.07 345.519 260.161 345.189 260.221 344.949C261.061 341.649 262.6 331.618 263.83 322.049C263.83 322.009 263.83 321.969 263.84 321.929C263.89 321.56 263.941 321.189 263.981 320.819V320.729C263.981 320.709 263.981 320.679 263.99 320.659V320.619C264.58 315.969 265.08 311.509 265.37 308.089C265.56 305.849 265.881 303.529 266.191 301.269C267.321 292.959 268.491 284.359 264.361 276.209C256.881 261.909 254.09 252.259 253.13 248.069C251.18 251.569 248.541 253.93 246.851 255.429L246.76 255.51C246.53 255.709 246.32 255.909 246.12 256.079C244.309 257.75 229.72 277.109 226.13 282.209C224.1 285.459 222.99 287.77 221.92 290.01C220.1 293.809 218.39 297.4 212.431 304.779C206.951 311.569 203.201 314.409 199.231 317.419C196.471 319.509 193.61 321.679 190.08 325.329C187.73 328.379 185.861 331.889 186.221 332.569C188.841 336.139 187.55 340.169 186.04 341.999C184.97 343.299 184.39 345.18 183.91 348.929C183.8 350.139 183.75 351.329 183.7 352.479V352.659C183.5 357.329 183.32 361.309 178.981 361.249C178.081 361.229 177.3 360.859 176.67 360.149C174.69 357.919 174.69 352.689 174.84 350.069C174.65 350.229 174.461 350.419 174.271 350.659C174.661 354.909 173.761 356.729 173.021 358.199C172.541 359.149 172.171 359.889 172.2 361.169C172.23 362.669 172.121 363.719 172.031 364.639V364.709C171.881 366.089 171.761 367.179 172.111 369.299C172.331 370.648 172.071 371.709 171.351 372.449C170.591 373.229 169.51 373.429 168.79 373.459C168.61 374.259 168.271 374.939 167.771 375.489C166.341 377.038 164.162 376.86 164.071 376.849C163.751 376.819 163.481 376.589 163.391 376.289C163.161 375.518 161.181 368.65 161.08 367.149V367.049C160.98 365.529 160.821 362.988 161.691 355.749C161.951 353.649 162.01 352.419 162.05 351.51V351.459C162.16 349.179 162.211 349.088 164.531 344.579V344.559L164.62 344.409C167.65 338.729 169 334.519 170.3 330.459C171.45 326.829 172.551 323.419 174.74 319.489C176.34 316.079 178.221 311.449 180.221 306.529L180.29 306.349C185.22 294.209 191.361 279.119 197.45 271.839C201.05 267.549 203.631 264.869 205.521 262.909C208.1 260.239 209.4 258.899 210.41 256.469C219.39 235.431 223.44 231.209 225.62 228.939L225.66 228.889C225.92 228.619 226.14 228.389 226.33 228.169C226.331 228.166 226.342 228.149 226.351 228.139C226.711 227.699 226.951 227.299 227.151 226.659C229.651 217.189 231.081 213.699 232.021 211.399V211.369L232.04 211.349C232.48 210.279 232.831 209.429 233.141 208.319C235.751 199.859 242.111 189.279 257.62 186.799H257.691C257.92 186.749 258.101 186.719 258.191 186.699C258.401 186.639 258.671 186.579 258.99 186.499C259.18 186.449 259.381 186.399 259.601 186.349C259.971 186.259 260.41 186.149 260.88 186.029C260.92 186.019 260.96 186.009 261 185.999C262.55 185.609 264.34 185.149 264.7 184.979C264.88 184.889 265.571 184.359 266.191 183.879L266.24 183.839C267.72 182.689 269.761 181.109 271.271 180.419C272.081 180.059 273.731 179.368 275.681 178.549C275.931 178.439 276.191 178.339 276.45 178.229L276.79 178.089C280.03 176.739 283.591 175.259 284.891 174.619C286.761 173.689 290.069 170.59 290.92 169.769C291.19 166.299 291.32 155 291.34 153.109V153.019C290.41 151.049 290.03 148.279 289.88 146.899C288.65 146.999 287.64 146.729 286.8 146.099C285.06 144.789 284.061 141.839 283.681 136.829C283.421 133.359 284.05 131.009 285.55 129.829C286.08 129.419 286.64 129.209 287.16 129.119C287.111 129.049 287.07 128.969 287.04 128.889V128.869C286.9 128.437 284.931 122.298 284.441 117.119C283.971 112.159 285.721 103.26 289.08 100.689C289.15 100.399 289.2 99.8693 288.811 99.5193C288.281 99.0494 288.111 98.3991 288.37 97.7693C288.83 96.6294 290.54 95.8891 292.54 95.949C292.7 95.949 292.801 95.9493 292.861 95.9294C292.861 95.8995 292.86 95.859 292.87 95.8191C292.87 95.7893 292.87 95.7591 292.88 95.7292C292.92 95.3593 293.001 94.7486 293.571 94.3386C294.251 93.8588 295.371 93.8093 297.33 94.1892C298.33 94.2392 298.771 93.9386 299.231 93.6287L299.26 93.6091ZM256.191 479.519C256.051 479.949 255.871 480.46 255.641 481.099C253.081 488.27 246.281 507.28 251.891 539.029C252.221 542.579 252.65 546.189 253.08 549.689V549.749C254.19 558.889 255.221 567.509 254.181 573.109C253.401 577.709 253.08 579.669 253.01 582.089C253.01 582.158 253.001 582.229 252.981 582.289C252.371 584.289 249.261 589.189 247.191 592.449L246.981 592.789C246.471 593.589 246.05 594.259 245.781 594.709C245.431 595.299 245.24 595.719 245.08 596.099L245.061 596.139C244.571 597.279 244.2 597.96 241.941 599.769C241.541 600.099 241.111 600.429 240.681 600.769C237.761 603.059 234.451 605.639 232.651 609.599C231.811 611.629 232.101 612.569 232.351 612.949C232.651 613.409 233.18 613.509 233.58 613.519C234.02 613.519 234.361 613.889 234.351 614.319C234.351 614.489 234.421 614.99 234.7 615.26C234.88 615.429 235.131 615.509 235.481 615.489C235.88 615.469 236.191 615.729 236.271 616.089C236.274 616.1 236.545 617.101 237.29 617.529C237.68 617.749 238.141 617.789 238.691 617.629C239.011 617.539 239.35 617.67 239.54 617.929C239.611 618.03 240.431 619.079 241.521 619.199C242.151 619.269 242.761 619.029 243.401 618.469C243.711 618.19 244.191 618.209 244.481 618.499C244.501 618.519 246.5 620.479 249.05 620.149C251.09 619.879 252.991 618.249 254.691 615.289C254.791 615.109 254.961 614.979 255.16 614.919C255.421 614.849 261.57 613.039 261.101 607.349C261.011 604.87 263.251 603.609 266.08 602.01L266.521 601.76C269.191 600.25 270.96 599.239 269.29 589.649C268.891 586.483 269.479 583.166 269.5 583.019C269.55 582.769 269.711 582.559 269.941 582.449C270.052 582.348 271.501 581.016 270.931 574.769C270.251 567.159 269.601 559.959 278.971 530.239L278.981 530.229C279.481 528.549 280.19 527.569 280.87 526.619H280.861C282.701 524.049 284.611 521.398 281.901 501.859C280.841 492.53 280.48 488.799 280.76 486.639C277.75 489.519 274.34 491.129 271.01 491.129H270.851C267.051 491.069 263.831 488.999 261.771 485.289C259.791 481.739 258.61 480.269 256.191 479.519ZM364.49 479.519C362.081 480.259 360.89 481.739 358.91 485.289C356.85 488.999 353.63 491.079 349.84 491.129H349.681C346.341 491.129 342.941 489.529 339.931 486.649C340.201 488.809 339.84 492.54 338.79 501.849C336.08 521.408 337.99 524.059 339.83 526.619C340.51 527.569 341.22 528.549 341.72 530.239C351.08 559.949 350.44 567.139 349.75 574.749C349.164 581.264 350.759 582.443 350.8 582.459C351.04 582.569 351.15 582.749 351.2 582.999V583.019C351.261 583.351 351.8 586.55 351.42 589.589C349.74 599.218 351.501 600.219 354.181 601.729L354.611 601.979C357.44 603.579 359.681 604.839 359.601 607.289C359.122 613.03 365.451 614.883 365.54 614.899C365.74 614.959 365.91 615.09 366.01 615.26C367.72 618.219 369.611 619.849 371.651 620.119C374.204 620.458 376.191 618.499 376.231 618.469C376.521 618.169 377.001 618.159 377.311 618.429C377.951 618.989 378.561 619.239 379.191 619.169C380.325 619.049 381.163 617.92 381.181 617.899C381.371 617.639 381.711 617.509 382.031 617.599C382.58 617.749 383.051 617.719 383.431 617.499C384.174 617.072 384.446 616.086 384.45 616.059C384.54 615.699 384.841 615.46 385.24 615.469C385.59 615.489 385.851 615.409 386.021 615.239C386.311 614.969 386.37 614.469 386.37 614.289C386.37 613.859 386.711 613.509 387.141 613.499C387.531 613.499 388.06 613.389 388.37 612.929C388.62 612.549 388.921 611.609 388.061 609.559C386.271 605.629 382.96 603.039 380.04 600.749C379.92 600.649 379.79 600.549 379.67 600.449C379.37 600.209 379.07 599.979 378.781 599.749C376.521 597.929 376.16 597.259 375.66 596.119C375.5 595.739 375.311 595.299 374.941 594.689C374.671 594.239 374.25 593.579 373.74 592.769L373.531 592.429C371.461 589.18 368.351 584.27 367.74 582.269C367.721 582.199 367.7 582.139 367.7 582.069C367.62 579.649 367.301 577.679 366.521 573.069C365.471 567.479 366.521 558.849 367.611 549.719V549.669C368.041 546.169 368.47 542.549 368.79 539.069C374.42 507.249 367.61 488.239 365.05 481.079C365.01 480.949 364.96 480.829 364.92 480.709V480.729C364.75 480.259 364.61 479.859 364.5 479.519H364.49ZM259.01 456.769C258.85 464.439 258.281 466.419 257.771 468.189C257.611 468.759 257.451 469.3 257.321 470.01C257.071 471.419 257.021 472.6 256.971 473.849C256.921 475.119 256.87 476.44 256.59 478.01C259.6 478.909 261.07 480.759 263.17 484.539C264.95 487.739 267.691 489.529 270.891 489.579C275.481 489.619 280.271 486.189 283.771 480.319C283.781 480.299 283.801 480.259 283.821 480.229C283.84 480.189 283.871 480.139 283.891 480.099L283.91 480.059V480.049C284.29 479.369 284.701 478.689 285.12 477.979C287.54 473.909 290.51 468.929 291.66 459.409C289.44 465.609 285.68 472.109 279.651 472.109H279.51C272.801 471.999 271.481 466.279 270.521 462.109C270.101 460.299 269.671 458.429 268.941 458.089C268.671 457.969 268.27 458.029 267.75 458.289C265.231 459.519 263.141 459.679 261.351 458.809C260.441 458.359 259.67 457.669 259.01 456.769ZM361.691 456.76C361.031 457.649 360.26 458.349 359.351 458.799C357.561 459.678 355.47 459.509 352.95 458.279C352.421 458.019 352.02 457.959 351.75 458.079C351.021 458.419 350.59 460.289 350.17 462.089V462.119C349.2 466.289 347.88 471.999 341.181 472.109H341.04C335.011 472.109 331.25 465.619 329.031 459.419C330.181 468.929 333.141 473.909 335.571 477.979L335.601 478.029C336.011 478.729 336.41 479.399 336.79 480.069V480.089L336.851 480.179C336.881 480.239 336.911 480.289 336.941 480.339C340.391 486.118 345.15 489.569 349.67 489.569H349.811C353.011 489.519 355.751 487.739 357.531 484.539C359.64 480.749 361.101 478.899 364.111 477.999C363.831 476.429 363.781 475.109 363.731 473.839V473.809C363.681 472.569 363.63 471.389 363.38 469.999C363.25 469.289 363.101 468.749 362.931 468.179C362.421 466.409 361.851 464.419 361.691 456.76ZM265.29 323.409C264.1 332.499 262.66 341.938 261.8 345.339L261.76 345.489C261.7 345.709 261.63 346 261.531 346.349C257.28 362.31 249.161 400.039 255.141 437.459C255.501 439.099 255.831 440.769 256.151 442.389V442.419C257.521 449.299 258.801 455.799 262.061 457.399C263.371 458.049 265.011 457.878 267.061 456.879C268.04 456.399 268.91 456.329 269.63 456.669C271.05 457.339 271.501 459.29 272.071 461.76C273.01 465.839 274.071 470.448 279.54 470.549H279.651C289.586 470.548 292.828 448.389 292.861 448.149V448.109C293.151 445.999 293.49 443.889 293.87 441.789C293.87 441.749 293.87 441.709 293.88 441.659C293.9 441.579 293.911 441.489 293.931 441.409C293.951 441.329 293.961 441.239 293.981 441.159C294.171 440.169 294.361 439.189 294.561 438.199L294.571 438.189C294.591 438.049 294.621 437.909 294.651 437.769C297.121 424.07 295.861 422.559 293.101 419.239C290.221 415.759 285.87 410.519 282.12 390.439C281.11 384.999 280.381 378.459 279.611 371.539C277.451 352.099 275.01 330.139 265.29 323.409ZM355.42 323.399C345.701 330.14 343.261 352.089 341.101 371.529C340.331 378.449 339.6 384.99 338.59 390.429C334.85 410.509 330.491 415.759 327.611 419.229C324.851 422.549 323.601 424.06 326.071 437.769L326.151 438.209C326.351 439.179 326.54 440.149 326.72 441.119L326.83 441.649C326.831 441.654 326.84 441.74 326.84 441.789C327.22 443.899 327.561 445.999 327.851 448.099V448.139C327.886 448.402 331.128 470.538 341.061 470.539H341.17C346.64 470.449 347.701 465.829 348.641 461.76C349.211 459.29 349.661 457.339 351.08 456.669C351.8 456.329 352.671 456.399 353.651 456.879C355.701 457.879 357.331 458.049 358.651 457.399C361.901 455.799 363.19 449.299 364.55 442.419L364.59 442.209C364.9 440.649 365.221 439.039 365.571 437.459C371.56 400.039 363.441 362.32 359.181 346.349C359.071 345.919 358.98 345.579 358.91 345.339V345.329C358.04 341.929 356.6 332.489 355.42 323.399ZM265.771 321.839C276.421 328.689 278.94 351.329 281.17 371.349V371.469C281.95 378.319 282.67 384.789 283.67 390.149C287.34 409.839 291.541 414.889 294.321 418.239C296.211 420.509 297.471 422.029 297.561 426.189C297.771 425.479 297.981 424.769 298.191 424.059C298.661 422.519 299.421 420.429 300.311 418.01L300.481 417.549C303.431 409.479 307.871 397.309 308.481 387.429L308.47 387.419C308.51 385.859 308.551 384.439 308.571 383.199V383.109C308.641 380.079 308.68 378.149 308.92 376.989C302.221 376.069 299.12 367.929 293.651 349.559C287.581 329.18 271.961 323.369 265.771 321.839ZM354.92 321.829C348.73 323.359 333.11 329.169 327.04 349.549C321.57 367.918 318.471 376.059 311.771 376.979C312.011 378.139 312.05 380.07 312.12 383.099V383.199C312.15 384.439 312.181 385.859 312.231 387.439C312.841 397.309 317.3 409.509 320.25 417.579L320.321 417.789C321.24 420.298 322.03 422.459 322.51 424.049C322.73 424.758 322.941 425.469 323.141 426.169L323.151 426.179C323.241 422.03 324.5 420.509 326.38 418.239C329.16 414.889 333.361 409.839 337.031 390.149C338.031 384.779 338.761 378.289 339.521 371.419V371.339C341.751 351.309 344.271 328.679 354.92 321.829ZM334.891 272.499C334.601 280.909 333.79 297.509 333.04 309.279C331.56 332.379 317.15 351.479 310.42 351.479H310.26C303.53 351.478 289.121 332.368 287.641 309.279C286.891 297.499 286.08 280.899 285.79 272.499C284.6 279.059 283.35 286.399 284.34 293.139C286.63 308.599 281.091 315.769 278.611 318.139C276.611 320.039 273.731 321.309 270.681 321.779C278.351 324.739 290.041 331.959 295.151 349.129C301.15 369.258 304.021 375.529 310.25 375.529H310.431C316.671 375.529 319.541 369.258 325.531 349.129C330.64 331.949 342.33 324.739 350 321.779C346.951 321.309 344.07 320.039 342.071 318.139C339.581 315.769 334.05 308.599 336.34 293.139C337.34 286.399 336.081 279.059 334.891 272.499ZM173.95 324.889C173.141 326.899 172.51 328.85 171.87 330.849L171.84 330.949C170.58 334.879 169.161 339.339 166.061 345.129L165.981 345.279C164.501 348.159 163.73 350.239 163.67 351.549C163.63 352.479 163.56 353.759 163.3 355.949C162.44 363.038 162.6 365.499 162.7 366.959V367.059C162.761 368.01 163.921 372.289 164.781 375.289C165.3 375.239 166.1 375.049 166.66 374.429C167.39 373.63 167.59 372.299 167.26 370.469C166.47 366.13 166.671 365.329 167.16 363.389C167.4 362.459 167.681 361.289 167.981 359.289C168.401 357.499 169.06 356.699 169.76 355.849C170.52 354.919 171.391 353.858 172.221 351.089C172.231 351.049 172.251 351.009 172.271 350.969C173.5 348.481 175.488 347.96 175.611 347.929C175.861 347.869 176.121 347.929 176.311 348.099C176.511 348.269 176.6 348.519 176.58 348.769C176.35 350.97 176.14 357.119 177.92 359.109C178.26 359.489 178.63 359.669 179.08 359.679H179.17C181.65 359.679 181.971 357.689 182.191 352.519C182.241 351.319 182.29 350.069 182.41 348.76C182.93 344.66 183.6 342.569 184.88 341.01C186.03 339.61 187.08 336.319 184.99 333.459C184.571 332.839 184.67 331.878 185.05 330.799C184.04 331.078 183.04 331.219 182.09 331.219C180.77 331.219 179.54 330.959 178.46 330.429C176.42 329.419 174.82 327.419 173.95 324.889ZM446.76 324.879C445.89 327.409 444.29 329.409 442.25 330.419C441.18 330.949 439.94 331.209 438.62 331.209C437.67 331.209 436.68 331.069 435.67 330.799C436.04 331.869 436.15 332.819 435.74 333.429C433.631 336.319 434.67 339.599 435.83 340.999C437.11 342.559 437.78 344.649 438.3 348.719C438.42 350.019 438.471 351.229 438.521 352.399V352.51C438.751 357.679 439.071 359.668 441.55 359.669H441.641C442.1 359.669 442.47 359.479 442.8 359.099C444.57 357.11 444.371 350.96 444.141 348.76C444.111 348.51 444.221 348.259 444.41 348.089C444.6 347.919 444.861 347.859 445.111 347.919C445.201 347.939 447.211 348.44 448.45 350.959C448.47 350.989 448.48 351.029 448.5 351.069C449.32 353.849 450.19 354.909 450.96 355.839V355.849C451.66 356.699 452.321 357.5 452.721 359.219C453.031 361.289 453.32 362.449 453.55 363.389C454.03 365.329 454.23 366.13 453.45 370.469C453.121 372.299 453.32 373.63 454.05 374.429C454.61 375.049 455.411 375.239 455.931 375.289C456.791 372.299 457.95 368.01 458.01 367.059V366.949C458.11 365.479 458.27 363.019 457.41 355.929C457.15 353.73 457.09 352.459 457.04 351.529C456.98 350.229 456.211 348.149 454.731 345.269L454.651 345.109C451.571 339.339 450.141 334.889 448.891 330.969L448.87 330.919C448.22 328.879 447.58 326.909 446.76 324.879ZM172.74 354.139C172.121 355.439 171.5 356.199 170.96 356.849C170.31 357.649 169.83 358.23 169.51 359.599C169.22 361.609 168.911 362.869 168.681 363.779C168.231 365.589 168.081 366.199 168.811 370.199C168.921 370.799 168.971 371.369 168.981 371.889C169.421 371.839 169.93 371.699 170.26 371.369C170.62 370.989 170.741 370.389 170.601 369.549C170.221 367.229 170.36 365.928 170.5 364.549C170.6 363.609 170.7 362.639 170.67 361.199C170.63 359.539 171.151 358.509 171.651 357.519C172.081 356.639 172.56 355.699 172.74 354.139ZM447.95 354.129C448.14 355.699 448.61 356.64 449.05 357.51C449.55 358.519 450.07 359.549 450.031 361.199C450.001 362.629 450.11 363.599 450.2 364.529V364.559C450.35 365.929 450.481 367.229 450.101 369.539C449.971 370.369 450.081 370.979 450.441 371.359C450.761 371.689 451.271 371.839 451.721 371.879C451.721 371.359 451.781 370.789 451.891 370.189C452.621 366.189 452.47 365.569 452.01 363.769L451.99 363.709C451.771 362.799 451.46 361.549 451.16 359.519C450.85 358.219 450.371 357.629 449.721 356.839C449.191 356.189 448.57 355.429 447.95 354.129ZM325.88 240.859C321.13 239.109 315.13 237.879 312.55 239.659C311.66 240.279 311.22 241.24 311.22 242.599C311.22 243.029 310.861 243.378 310.431 243.379H310.271C309.831 243.379 309.481 243.029 309.481 242.599C309.481 241.239 309.041 240.269 308.151 239.659C305.571 237.879 299.571 239.109 294.811 240.859C294.161 241.139 293.5 241.389 292.83 241.629C289.58 242.959 286.301 244.709 285.231 247.109C284.571 248.589 284.931 249.759 285.601 251.879C286.151 253.629 286.87 255.919 287.2 259.279C287.26 259.699 287.291 260.139 287.311 260.609C287.331 260.869 287.341 261.139 287.351 261.419C287.401 262.558 287.37 263.099 287.34 263.829V263.859C287.3 264.659 287.241 265.75 287.271 268.229C287.311 273.23 288.311 294.79 289.231 309.179C290.711 332.289 304.931 349.918 310.271 349.919H310.431C315.771 349.918 329.99 332.288 331.47 309.179C332.39 294.81 333.391 273.24 333.431 268.229V268.219C333.451 265.74 333.401 264.649 333.361 263.849V263.829C333.321 263.089 333.301 262.549 333.351 261.409C333.361 261.129 333.381 260.859 333.391 260.599C333.411 260.139 333.44 259.709 333.5 259.299C333.83 255.929 334.551 253.629 335.101 251.879C335.771 249.769 336.13 248.599 335.47 247.109C334.4 244.719 331.12 242.959 327.87 241.629C327.2 241.399 326.53 241.149 325.88 240.859ZM310.43 314.019C310.87 314.019 311.22 314.37 311.22 314.8V344.38C311.22 344.809 310.86 345.159 310.43 345.159H310.271C309.831 345.159 309.481 344.809 309.481 344.38V314.8C309.481 314.37 309.841 314.019 310.271 314.019H310.43ZM408.441 256.179C411.83 270.029 407.5 274.939 403.95 276.669C402.751 277.259 401.33 277.599 399.72 277.599C397.12 277.599 394.07 276.689 390.781 274.439C392.98 277.399 394.831 279.929 395.811 281.309C397.931 284.699 399.061 287.059 400.16 289.339C401.94 293.059 403.621 296.559 409.45 303.789C414.81 310.429 418.49 313.219 422.38 316.169C425.2 318.299 428.111 320.509 431.74 324.269L431.731 324.279C431.733 324.282 431.771 324.32 431.79 324.349C432.43 325.179 433.781 327.009 434.781 328.859C437.28 329.859 439.73 329.919 441.55 329.019C443.64 327.989 445.23 325.519 445.74 322.539C445.38 321.789 444.991 321.029 444.561 320.249C442.901 316.699 441.01 312.039 439 307.109L438.931 306.939C434.041 294.909 427.961 279.939 422.021 272.849C418.461 268.6 415.9 265.949 414.031 264.01L414.01 263.989C411.4 261.279 409.95 259.779 408.83 257.079C408.7 256.779 408.571 256.479 408.441 256.179ZM211.88 257.079C210.76 259.759 209.321 261.259 206.721 263.959L206.63 264.049C204.76 265.989 202.211 268.63 198.691 272.849C192.761 279.929 186.68 294.879 181.79 306.909V306.939C179.75 311.939 177.83 316.649 176.17 320.199C175.73 320.999 175.331 321.779 174.971 322.539C175.481 325.509 177.07 327.989 179.16 329.019C180.98 329.919 183.431 329.849 185.931 328.849C186.931 327 188.27 325.18 188.91 324.349C188.93 324.329 188.951 324.309 188.971 324.279C192.591 320.529 195.501 318.319 198.311 316.189L198.33 316.169C202.22 313.219 205.9 310.429 211.26 303.789C217.1 296.559 218.781 293.049 220.561 289.339L220.59 289.269V289.289C221.67 287.029 222.8 284.679 224.88 281.359C225.86 279.949 227.721 277.419 229.931 274.439C226.641 276.699 223.59 277.599 220.99 277.599C219.391 277.599 217.96 277.259 216.76 276.669C213.21 274.928 208.881 270.028 212.271 256.179C212.141 256.469 212.01 256.769 211.88 257.079ZM254.96 228.669C256.91 233.089 255.97 238.889 255.55 241.429C255.29 242.989 254.901 244.549 254.391 246.069C254.841 248.48 257.15 258.94 265.84 275.529C270.19 284.109 268.99 292.96 267.83 301.51L267.821 301.489C267.501 303.819 267.2 306.029 267.01 308.229C266.74 311.349 266.26 315.629 265.7 320.199C269.95 320.939 274.73 319.669 277.531 316.999C279.841 314.809 284.97 308.099 282.79 293.359C281.72 286.149 283.121 278.399 284.361 271.569V271.549C285.141 267.279 285.821 263.519 285.731 260.729C285.701 260.289 285.67 259.879 285.63 259.469C285.23 256.759 280.1 252.369 274.16 247.299C269.45 243.269 264.13 238.719 259.571 233.709C258.941 233.069 258.33 232.399 257.75 231.699C256.88 230.659 255.97 229.609 254.96 228.669ZM365.76 228.649C364.75 229.599 363.84 230.63 362.97 231.679C362.39 232.379 361.78 233.049 361.151 233.689C356.581 238.699 351.26 243.249 346.55 247.279L346.521 247.309C340.591 252.379 335.481 256.749 335.08 259.459C335.04 259.859 335.001 260.279 334.981 260.709C334.891 263.499 335.57 267.259 336.34 271.529C337.58 278.369 338.98 286.119 337.92 293.339C335.74 308.078 340.881 314.779 343.181 316.979C345.981 319.649 350.75 320.919 355.01 320.179C354.44 315.61 353.97 311.339 353.7 308.219C353.51 306.02 353.211 303.809 352.891 301.479V301.459H352.88C351.72 292.909 350.531 284.079 354.87 275.51C363.56 258.91 365.87 248.459 366.321 246.039C365.811 244.519 365.41 242.969 365.16 241.409C364.75 238.869 363.81 233.069 365.76 228.649ZM324.691 302.059H324.7C325.13 302.069 325.47 302.429 325.47 302.859C325.46 303.299 325.08 303.63 324.67 303.63C322.07 303.57 315.21 304.239 312.84 304.769C311.581 305.06 311.231 306.28 311.151 308.149C311.171 308.719 311.17 309.279 311.17 309.809V310.149C311.17 310.579 310.81 310.929 310.38 310.929H310.33C309.901 310.929 309.541 310.579 309.54 310.149V309.809C309.54 309.269 309.541 308.709 309.561 308.149C309.481 306.279 309.13 305.059 307.87 304.769C305.51 304.239 298.67 303.57 296.04 303.63C295.621 303.639 295.241 303.289 295.24 302.859C295.231 302.429 295.58 302.06 296.01 302.059C298.75 302.009 305.719 302.679 308.22 303.239C309.25 303.469 309.911 304.02 310.351 304.75C310.781 304.02 311.451 303.469 312.481 303.239C314.981 302.679 321.941 302.009 324.691 302.059ZM310.41 291.359C310.85 291.359 311.2 291.709 311.2 292.149C311.2 299.318 311.841 299.66 314.26 299.84C317.98 299.94 319.941 299.81 322.401 299.63H322.611L322.62 299.609C324.12 299.509 325.82 299.389 328.22 299.309C328.66 299.309 329.02 299.639 329.04 300.069C329.06 300.499 328.72 300.86 328.281 300.88C325.901 300.97 324.211 301.079 322.731 301.179H322.55C320.65 301.329 319.05 301.439 316.731 301.439C315.981 301.439 315.14 301.429 314.2 301.399C312.111 301.249 310.971 300.579 310.351 299.139C309.741 300.589 308.61 301.239 306.54 301.399C305.58 301.429 304.73 301.439 303.96 301.439C301.631 301.439 300.041 301.329 298.141 301.199C296.611 301.089 294.88 300.97 292.41 300.88C291.981 300.86 291.631 300.499 291.651 300.069C291.671 299.639 292.05 299.299 292.47 299.319C294.97 299.409 296.71 299.529 298.26 299.639C300.73 299.809 302.691 299.95 306.45 299.84C308.84 299.66 309.47 299.319 309.47 292.149C309.47 291.719 309.82 291.359 310.26 291.359H310.41ZM314.3 279.849C318.03 279.809 322.23 280.279 324.75 280.569C325.18 280.619 325.491 281.009 325.441 281.439C325.39 281.869 325.01 282.18 324.571 282.13H324.54C322.06 281.85 317.96 281.38 314.321 281.42C311.651 281.46 311.191 282.779 311.191 286.729C311.19 287.159 310.84 287.509 310.401 287.51H310.24C309.801 287.509 309.451 287.159 309.45 286.729C309.45 282.769 309 281.45 306.321 281.42H306.351C302.721 281.38 298.581 281.85 296.101 282.13C295.661 282.189 295.27 281.869 295.22 281.439C295.17 281.009 295.481 280.619 295.91 280.569C298.42 280.279 302.641 279.809 306.361 279.849C308.55 279.879 309.71 280.72 310.33 281.92C310.95 280.72 312.12 279.89 314.3 279.849ZM310.42 268.059C310.86 268.059 311.21 268.41 311.21 268.84C311.21 269.599 311.18 270.33 311.16 271.04L311.151 271.25V271.319C311.141 271.519 311.13 271.72 311.13 271.92C311.15 272.669 311.17 273.39 311.13 274.059C311.2 275.419 311.481 276.33 312.24 276.76C315.371 278.519 321.591 278.419 328.191 278.309H328.93L328.941 278.319C329.371 278.319 329.731 278.66 329.731 279.09C329.73 279.519 329.39 279.88 328.95 279.88L328.3 279.889H328.151C326.561 279.919 325.02 279.939 323.54 279.939C318.451 279.939 314.181 279.649 311.481 278.13C311.001 277.86 310.641 277.509 310.361 277.09C310.091 277.499 309.72 277.86 309.24 278.13C306.54 279.649 302.26 279.939 297.18 279.939C295.71 279.939 294.17 279.919 292.58 279.889L292.42 279.88H291.771C291.331 279.879 290.991 279.519 290.99 279.09C291 278.66 291.351 278.319 291.781 278.319H292.441C299.06 278.429 305.32 278.529 308.45 276.769C309.21 276.339 309.481 275.439 309.561 274.069C309.521 273.399 309.541 272.679 309.561 271.929C309.561 271.73 309.54 271.529 309.54 271.309V271.26C309.51 270.48 309.481 269.679 309.481 268.84C309.481 268.41 309.841 268.059 310.271 268.059H310.42ZM378.96 224.589C375.29 224.479 371.83 224.379 369.33 226.399C364.891 229.989 366.21 238.099 366.71 241.149C366.92 242.429 367.23 243.709 367.63 244.959C367.76 245.049 367.871 245.169 367.931 245.319C369.731 249.709 372.811 252.459 374.851 254.269C374.911 254.319 374.971 254.38 375.031 254.429C375.23 254.609 375.431 254.779 375.601 254.949C376.631 255.899 380.87 261.329 385.26 267.109C392.61 276.019 399.361 277.169 403.231 275.279C407.391 273.239 412.661 266.038 401.141 240.739C397.351 233.619 395.18 231.359 393.91 230.029C393.67 229.769 393.441 229.539 393.231 229.299C391.911 228.419 390.491 227.639 389.021 226.979C387.731 226.409 386.501 225.979 385.351 225.649C385.321 225.649 385.3 225.639 385.281 225.629C382.361 224.799 380.03 224.619 378.96 224.589ZM251.37 226.399C248.88 224.379 245.41 224.479 241.74 224.589C240.67 224.619 238.34 224.789 235.42 225.629H235.401C235.381 225.629 235.36 225.639 235.34 225.649C234.19 225.979 232.96 226.409 231.67 226.979C230.201 227.639 228.791 228.419 227.471 229.299C227.261 229.539 227.03 229.779 226.79 230.029C225.52 231.369 223.35 233.63 219.561 240.739C208.051 266.039 213.311 273.229 217.481 275.269C221.351 277.169 228.101 276.019 235.45 267.109C235.45 267.109 235.451 267.1 235.46 267.099C239.86 261.31 244.09 255.89 245.12 254.939C245.3 254.779 245.491 254.609 245.691 254.419C245.75 254.369 245.811 254.319 245.87 254.26L245.901 254.239C247.931 252.419 251 249.679 252.79 245.309L252.781 245.319C252.84 245.169 252.95 245.049 253.08 244.959C253.47 243.709 253.78 242.439 253.99 241.149C254.49 238.099 255.81 229.989 251.37 226.399ZM314.281 257.659C317.77 257.069 321.88 258.14 324.33 258.79L324.88 258.939C325.3 259.049 325.551 259.469 325.441 259.889C325.33 260.309 324.9 260.549 324.481 260.449L323.92 260.3C321.59 259.69 317.69 258.669 314.54 259.199C311.711 259.679 311.21 261.119 311.21 263.949C311.21 264.379 310.86 264.729 310.42 264.729H310.26C309.82 264.729 309.47 264.379 309.47 263.949C309.47 261.109 308.97 259.669 306.151 259.199C302.991 258.669 299.1 259.69 296.76 260.3L296.781 260.29L296.22 260.439H296.231C295.811 260.549 295.381 260.299 295.271 259.88C295.161 259.47 295.411 259.04 295.83 258.929L296.38 258.79C298.84 258.15 302.94 257.069 306.43 257.659C308.58 258.019 309.731 258.93 310.361 260.09C310.981 258.93 312.141 258.019 314.281 257.659ZM310.45 246.889C310.89 246.889 311.24 247.24 311.24 247.67C311.24 252.187 311.371 255.156 313.188 255.169C319.598 255.051 323.967 256.171 330.391 258.019C330.81 258.139 331.051 258.579 330.931 258.989C330.831 259.329 330.52 259.55 330.17 259.55C330.1 259.55 330.02 259.549 329.95 259.519C323.661 257.699 319.39 256.609 313.191 256.729C311.731 256.729 310.861 255.929 310.361 254.679C309.861 255.929 309.01 256.719 307.54 256.729C301.321 256.609 297.04 257.699 290.76 259.519C290.68 259.539 290.61 259.55 290.54 259.55C290.201 259.549 289.89 259.329 289.79 258.989C289.671 258.579 289.911 258.139 290.33 258.019C296.76 256.159 301.121 255.04 307.571 255.17C309.36 255.17 309.5 252.199 309.5 247.67C309.5 247.24 309.85 246.89 310.29 246.889H310.45ZM268.09 239.919C270.49 242.099 272.901 244.159 275.181 246.109C279.211 249.549 282.71 252.539 284.88 255.099C284.63 254.079 284.36 253.199 284.12 252.439L284.09 252.329C283.4 250.099 282.891 248.489 283.79 246.469C284.378 245.165 285.412 244.057 286.715 243.099C286.717 243.099 286.719 243.1 286.721 243.099L286.731 243.089C286.726 243.092 286.72 243.096 286.715 243.099C285.337 243.279 283.958 243.379 282.58 243.379C277.58 243.379 272.6 242.189 268.09 239.919ZM352.601 239.909C348.091 242.179 343.12 243.369 338.111 243.369C336.731 243.369 335.35 243.269 333.97 243.089C335.28 244.049 336.32 245.159 336.91 246.469L336.901 246.479C337.81 248.499 337.301 250.109 336.601 252.349L336.571 252.439C336.331 253.199 336.061 254.08 335.811 255.099C337.991 252.54 341.48 249.539 345.51 246.099C347.78 244.159 350.201 242.089 352.601 239.909ZM336.25 189.969C334.14 189.349 330.22 188.189 323.25 188.849C311.311 189.97 311.231 197.379 311.231 197.689V219.559C311.231 223.909 312.741 228.069 315.49 231.279C318.53 234.829 322.23 237.559 326.47 239.399L326.46 239.409C327.15 239.669 327.841 239.929 328.531 240.209C339.41 243.969 351.78 240.968 360.01 232.589C360.07 232.519 360.131 232.459 360.191 232.389C360.241 232.339 360.28 232.289 360.33 232.239C360.33 232.239 360.341 232.229 360.351 232.219C360.361 232.219 360.37 232.199 360.38 232.189C360.85 231.699 361.301 231.199 361.731 230.669C364.751 227.039 368.521 223.18 375.22 222.979C374.18 222.549 373.3 222.089 372.59 221.609C366.63 217.599 361.98 212.179 359.74 209.569C357.65 207.119 356.13 205.119 354.79 203.359L354.731 203.289C351.801 199.439 349.871 196.899 345.141 193.919C341.621 191.699 337.21 190.269 336.66 190.089C336.531 190.049 336.4 190.019 336.25 189.969ZM297.46 188.859C290.501 188.199 286.57 189.359 284.46 189.979C284.31 190.019 284.18 190.059 284.05 190.099C283.487 190.28 279.079 191.71 275.561 193.929C270.831 196.909 268.901 199.449 265.981 203.289C264.631 205.079 263.09 207.099 260.99 209.549C258.73 212.179 254.08 217.599 248.12 221.609C247.41 222.089 246.53 222.539 245.49 222.979C252.19 223.169 255.961 227.039 258.981 230.669C259.421 231.199 259.87 231.699 260.33 232.189C260.35 232.199 260.37 232.219 260.38 232.229L260.7 232.569C268.94 240.949 281.301 243.949 292.191 240.189C292.88 239.909 293.57 239.639 294.26 239.389C298.5 237.549 302.201 234.819 305.24 231.269L305.22 231.289C307.97 228.079 309.481 223.919 309.481 219.569V197.709C309.481 197.384 309.396 189.989 297.46 188.859ZM310.351 224.859C309.601 227.599 308.27 230.149 306.42 232.299C304.68 234.328 302.731 236.109 300.601 237.619C303.681 237.049 306.981 236.949 309.061 238.379C309.611 238.759 310.031 239.22 310.361 239.76C310.681 239.22 311.111 238.749 311.66 238.379C313.73 236.949 317.031 237.049 320.111 237.619C317.981 236.109 316.03 234.339 314.29 232.309H314.281C312.431 230.149 311.101 227.609 310.351 224.859ZM359.311 187.549C351.371 185.979 342.981 188.129 339.191 189.339C340.991 190.019 343.641 191.149 345.981 192.619C350.961 195.759 353.071 198.529 355.99 202.369L356.13 202.549C357.44 204.269 358.931 206.209 360.931 208.549C363.141 211.119 367.701 216.429 373.49 220.329C375.04 221.379 377.651 222.359 381.021 223.189C383.121 223.429 386.231 224.039 389.681 225.569C390.431 225.899 391.171 226.279 391.891 226.669C389.471 217.59 388.101 214.23 387.191 212.01C386.731 210.87 386.361 209.979 386.021 208.779C383.551 200.779 377.511 190.739 362.811 188.379H362.731C362.431 188.319 362.22 188.279 362.09 188.249C361.76 188.159 361.26 188.039 360.7 187.899C360.251 187.789 359.811 187.679 359.391 187.569L359.37 187.559H359.311V187.549ZM281.51 189.349C277.72 188.139 269.34 185.99 261.391 187.559H261.33C260.911 187.679 260.47 187.789 260.021 187.899C259.451 188.039 258.96 188.159 258.63 188.249C258.5 188.289 258.25 188.329 257.91 188.379C243.211 190.739 237.171 200.779 234.691 208.799V208.789C234.361 209.979 233.99 210.869 233.531 211.989C232.621 214.219 231.24 217.569 228.821 226.659C229.54 226.269 230.281 225.899 231.031 225.559C234.48 224.029 237.601 223.419 239.691 223.179C243.06 222.359 245.671 221.369 247.221 220.329C253.011 216.429 257.571 211.119 259.771 208.569C261.831 206.169 263.34 204.189 264.66 202.449L264.731 202.359C267.641 198.529 269.751 195.759 274.721 192.629C277.06 191.149 279.71 190.029 281.51 189.349ZM327.75 154.669C325.64 157.409 320.36 162.819 310.481 164.569H310.181C303.191 163.329 298.581 160.269 295.931 157.919C294.561 156.699 293.58 155.569 292.91 154.689C292.88 156.999 292.821 161.1 292.731 164.599L292.75 164.609V180.849C292.75 183.919 291.641 185.879 289.931 187.279C291.981 187.069 294.501 187.019 297.601 187.309C306.001 188.099 309.16 191.939 310.34 194.729C311.52 191.939 314.681 188.109 323.08 187.309C326.18 187.019 328.7 187.069 330.75 187.279C329.04 185.879 327.931 183.919 327.931 180.849V164.599C327.831 161.079 327.78 156.979 327.75 154.669ZM291.16 171.719C289.74 173.02 287.27 175.199 285.62 176.019C284.23 176.709 280.43 178.29 277.09 179.679C274.9 180.589 272.84 181.449 271.95 181.849V181.859C270.601 182.469 268.661 183.979 267.231 185.089C267.161 185.139 267.1 185.189 267.04 185.239C266.96 185.299 266.88 185.369 266.8 185.419C275.029 185.279 282.359 187.908 283.88 188.499C288.81 186.839 291.16 185.218 291.16 180.839V171.719ZM329.521 180.839C329.521 185.218 331.871 186.839 336.8 188.499C338.32 187.909 345.65 185.279 353.88 185.419C353.8 185.359 353.721 185.299 353.641 185.229C353.581 185.179 353.52 185.129 353.45 185.079L353.33 184.989C351.92 183.899 350.041 182.449 348.731 181.859C347.841 181.459 345.781 180.599 343.601 179.689C340.251 178.299 336.451 176.719 335.061 176.019V176.029C333.411 175.209 330.931 173.039 329.521 171.729V180.839ZM324.771 108.239C324.331 107.939 323.93 107.859 323.51 107.979C314.59 111.549 301.281 112.539 296.181 109.979C295.201 109.489 294.28 109.529 293.38 110.119C291.1 111.599 289.531 116.159 289.7 119.089C289.92 123.008 289.73 128.958 289.7 129.829V129.939C289.7 130.179 289.571 130.379 289.401 130.519C289.201 130.709 288.9 130.789 288.62 130.699C288.538 130.668 287.44 130.37 286.561 131.069C285.831 131.649 285.02 133.099 285.3 136.709C285.64 141.178 286.46 143.849 287.8 144.859C288.47 145.369 289.301 145.489 290.49 145.249H290.481C290.701 145.209 290.931 145.259 291.111 145.399C291.291 145.539 291.4 145.749 291.42 145.979C291.421 146.039 291.683 150.165 292.87 152.51C292.93 152.619 292.95 152.739 292.95 152.869V152.949C292.951 153.038 293.24 152.759 293.24 152.949C294.68 155.079 299.521 160.769 310.351 162.699C321.18 160.769 326.161 154.999 327.601 152.869C327.601 152.589 327.74 152.928 327.74 152.869C327.741 152.749 327.771 152.619 327.821 152.51C329.008 150.155 329.269 146.039 329.271 145.979C329.281 145.759 329.391 145.539 329.58 145.409C329.76 145.269 329.99 145.22 330.21 145.26C331.4 145.489 332.231 145.369 332.901 144.869C334.25 143.859 335.061 141.199 335.401 136.719C335.671 133.1 334.861 131.649 334.141 131.079C333.261 130.379 332.17 130.679 332.08 130.709C331.68 130.829 331.26 130.619 331.12 130.239C330.51 129.419 329.821 127.269 329.141 119.929C328.661 114.69 326.741 109.549 324.771 108.239Z" fill="black"/>
</svg>
