<svg width="620" height="714" viewBox="0 0 620 714" fill="none" xmlns="http://www.w3.org/2000/svg">
<path d="M255.661 481.089C255.891 480.459 256.071 479.939 256.211 479.519C258.531 480.219 259.711 481.609 261.541 484.839C261.231 490.129 260.231 498.219 259.361 505.279C259.161 506.929 258.961 508.529 258.781 510.019C258.121 515.509 255.731 522.379 250.551 526.489C250.501 526.539 250.441 526.579 250.381 526.619C250.341 526.649 250.301 526.679 250.261 526.699C248.071 502.279 253.431 487.279 255.661 481.099V481.089Z" fill="#D0EABF"/>
<path d="M359.161 484.839C360.991 481.609 362.171 480.229 364.491 479.519C364.631 479.939 364.811 480.459 365.041 481.089C367.261 487.269 372.631 502.269 370.441 526.689C370.351 526.629 370.251 526.559 370.161 526.479C364.981 522.369 362.591 515.499 361.931 510.009C361.751 508.519 361.551 506.919 361.351 505.269C360.481 498.219 359.481 490.129 359.171 484.829L359.161 484.839Z" fill="#D0EABF"/>
<path d="M347.201 490.839C346.891 490.769 346.571 490.689 346.251 490.579C344.061 489.879 341.901 488.539 339.911 486.649C340.181 488.819 339.831 492.559 338.771 501.859C336.061 521.399 337.971 524.049 339.811 526.599L339.841 526.639C340.511 527.579 341.211 528.559 341.701 530.209C341.721 530.259 341.731 530.319 341.751 530.369L342.081 530.099C346.611 526.489 350.491 523.379 349.881 513.689C349.501 507.699 348.531 500.599 347.741 494.839C347.541 493.399 347.361 492.049 347.201 490.819V490.839Z" fill="#D0EABF"/>
<path d="M280.781 486.659C278.791 488.549 276.631 489.889 274.441 490.579C274.121 490.689 273.801 490.779 273.481 490.849C273.321 492.079 273.131 493.439 272.941 494.869C272.151 500.639 271.181 507.739 270.801 513.719C270.181 523.409 274.071 526.509 278.601 530.129C278.711 530.219 278.821 530.309 278.931 530.399C278.931 530.389 278.931 530.379 278.941 530.369C278.941 530.349 278.951 530.339 278.961 530.319C278.961 530.289 278.981 530.269 278.981 530.239C279.471 528.579 280.171 527.599 280.851 526.659L280.871 526.629C282.721 524.069 284.621 521.429 281.911 501.879C280.851 492.579 280.501 488.839 280.771 486.669L280.781 486.659Z" fill="#D0EABF"/>
<path d="M299.261 93.6093C299.831 93.2193 300.541 92.7389 301.821 93.1688C303.424 93.1288 315.752 92.9594 323.421 97.3885C331.061 101.809 337.54 107.479 332.94 128.009C332.85 128.428 332.431 128.698 332.001 128.599C332.071 128.808 332.13 128.959 332.19 129.079C332.89 128.999 334.031 129.039 335.041 129.829C336.551 131.009 337.171 133.359 336.911 136.829C336.531 141.838 335.541 144.788 333.791 146.099C332.951 146.728 331.941 146.989 330.711 146.899C330.571 148.279 330.191 151.05 329.251 153.019V153.109C329.271 155.001 329.401 166.3 329.671 169.769C330.532 170.59 333.832 173.689 335.701 174.619C337.032 175.279 340.721 176.82 344.011 178.189L344.141 178.249C344.541 178.419 344.931 178.579 345.301 178.729C347.081 179.469 348.561 180.089 349.321 180.439C350.831 181.13 352.871 182.699 354.351 183.859C354.98 184.349 355.7 184.909 355.891 184.999C356.241 185.159 358.022 185.619 359.571 186.009H359.61L360.091 186.129C360.421 186.209 360.731 186.289 360.991 186.359C361.561 186.509 362.061 186.629 362.4 186.719C362.48 186.739 362.611 186.759 362.791 186.789C362.851 186.789 362.911 186.809 362.971 186.819C378.47 189.309 384.84 199.889 387.44 208.329C387.76 209.469 388.111 210.319 388.551 211.399C389.501 213.709 390.921 217.19 393.44 226.719C393.63 227.338 393.871 227.729 394.23 228.159L394.261 228.189C394.461 228.419 394.691 228.669 394.971 228.959C397.151 231.229 401.201 235.46 410.171 256.489C411.181 258.919 412.471 260.259 415.031 262.909L415.061 262.939C416.951 264.899 419.531 267.579 423.121 271.869C429.201 279.129 435.331 294.199 440.261 306.319L440.281 306.369C442.301 311.349 444.211 316.05 445.851 319.559C448 323.419 449.101 326.829 450.251 330.429V330.469C451.561 334.528 452.911 338.729 455.94 344.419L456.021 344.589L456.041 344.629L456.15 344.619C458.45 349.099 458.5 349.199 458.61 351.479H458.581C458.621 352.369 458.68 353.619 458.94 355.749C459.82 362.988 459.651 365.529 459.551 367.049V367.149C459.45 368.65 457.481 375.519 457.251 376.289C457.161 376.599 456.891 376.818 456.571 376.849C456.481 376.849 454.311 377.029 452.871 375.489C452.361 374.949 452.031 374.259 451.851 373.459C451.131 373.419 450.051 373.229 449.291 372.449C448.571 371.699 448.311 370.639 448.531 369.299C448.881 367.189 448.76 366.099 448.61 364.709C448.51 363.769 448.401 362.699 448.431 361.169C448.461 359.909 448.091 359.159 447.621 358.229V358.209C446.871 356.739 445.97 354.919 446.36 350.669C446.171 350.429 445.971 350.229 445.791 350.079C445.931 352.689 445.941 357.929 443.961 360.159C443.331 360.869 442.55 361.239 441.65 361.259C437.311 361.328 437.131 357.318 436.931 352.639V352.599C436.881 351.419 436.831 350.189 436.711 348.909C436.231 345.189 435.651 343.309 434.581 342.009C433.071 340.179 431.781 336.149 434.421 332.549C434.591 332.228 434.22 331.209 433.521 329.899C433.501 329.869 433.491 329.839 433.471 329.819C432.751 328.489 431.701 326.859 430.541 325.339C427.011 321.679 424.16 319.519 421.4 317.429H421.391C417.431 314.419 413.671 311.578 408.201 304.799C402.251 297.419 400.531 293.839 398.711 290.039C397.641 287.789 396.53 285.479 394.48 282.199C390.911 277.129 376.332 257.781 374.511 256.109C374.331 255.939 374.131 255.769 373.921 255.579C373.881 255.539 373.831 255.499 373.781 255.459C372.091 253.949 369.461 251.588 367.511 248.099C366.551 252.289 363.76 261.949 356.271 276.249C352.151 284.379 353.311 292.979 354.451 301.299L354.471 301.479C354.771 303.679 355.081 305.939 355.261 308.119C355.551 311.539 356.051 315.999 356.641 320.659V320.849C356.661 321.028 356.691 321.219 356.711 321.409C356.731 321.589 356.761 321.779 356.781 321.969C356.781 321.999 356.791 322.039 356.791 322.069C358.021 331.639 359.56 341.668 360.4 344.969C360.46 345.209 360.551 345.539 360.661 345.969C364.931 361.989 373.06 399.779 367.141 437.389C367.141 437.448 367.141 437.509 367.121 437.569C367.121 437.609 367.101 437.649 367.091 437.689C367.091 437.719 367.081 437.759 367.071 437.789C366.141 443.609 364.87 449.419 363.19 455.139C363.3 463.948 363.88 465.979 364.4 467.769C364.57 468.349 364.741 468.959 364.881 469.739C365.161 471.239 365.211 472.53 365.261 473.769V473.799C365.311 475.179 365.371 476.609 365.741 478.349C365.831 478.759 366.121 479.579 366.491 480.599C369.091 487.859 376 507.15 370.311 539.319C370.011 542.669 369.581 546.199 369.171 549.619L369.141 549.899C368.051 558.939 367.031 567.469 368.031 572.849C368.811 577.478 369.141 579.489 369.221 581.959C369.851 583.829 372.941 588.709 374.811 591.649L375.041 592.009C375.551 592.808 375.981 593.489 376.251 593.929C376.661 594.618 376.891 595.129 377.061 595.539C377.44 596.429 377.651 596.919 379.721 598.569C380.121 598.889 380.541 599.219 380.971 599.549L381.001 599.569C383.901 601.839 387.511 604.669 389.471 608.959C390.561 611.559 390.171 613.029 389.661 613.809C389.251 614.439 388.611 614.839 387.831 615.009C387.731 615.419 387.53 615.949 387.101 616.369C386.841 616.629 386.401 616.919 385.751 617.019C385.521 617.569 385.051 618.379 384.201 618.869C383.571 619.229 382.861 619.359 382.081 619.239C381.601 619.759 380.631 620.599 379.341 620.749C378.461 620.859 377.601 620.619 376.781 620.059C375.971 620.689 374.311 621.749 372.221 621.749C371.961 621.749 371.7 621.739 371.431 621.699C368.941 621.379 366.691 619.569 364.761 616.319C363.321 615.809 357.491 613.369 357.991 607.209C358.031 605.819 356.59 604.929 353.801 603.359L353.36 603.109C350.011 601.209 348.051 599.538 349.831 589.379C350.131 587.019 349.801 584.449 349.661 583.589C348.921 582.919 347.59 580.839 348.15 574.619C348.82 567.159 349.45 560.119 340.181 530.689C339.741 529.24 339.141 528.399 338.511 527.519C336.491 524.709 334.391 521.809 337.19 501.649C338.86 486.9 338.73 486.698 337.23 484.179V484.159C336.911 483.619 336.511 482.949 336.051 482.049C335.851 481.639 335.621 481.229 335.391 480.829L335.331 480.729V480.719C334.971 480.079 334.59 479.439 334.19 478.779C331.47 474.209 328.081 468.519 327.181 456.899C326.781 451.769 326.091 446.609 325.131 441.449C324.921 440.429 324.731 439.449 324.561 438.509C323.591 433.829 322.4 429.159 320.98 424.519C320.501 422.93 319.691 420.719 318.751 418.149V418.129C315.761 409.969 311.251 397.649 310.631 387.519C310.581 385.909 310.551 384.489 310.521 383.249V383.219C310.481 381.169 310.441 379.309 310.321 378.129C310.211 379.299 310.171 381.149 310.131 383.199V383.219C310.101 384.469 310.071 385.889 310.021 387.479C309.39 397.619 304.891 409.929 301.911 418.089V418.129C300.961 420.699 300.151 422.909 299.661 424.499C298.241 429.129 297.051 433.799 296.091 438.479C295.921 439.429 295.721 440.429 295.511 441.459C294.551 446.609 293.871 451.759 293.471 456.889C292.571 468.508 289.181 474.189 286.461 478.759C286.391 478.879 286.331 478.989 286.261 479.099C285.941 479.648 285.621 480.179 285.331 480.709V480.719L285.241 480.869C285.021 481.259 284.811 481.649 284.611 482.039C284.161 482.939 283.761 483.609 283.431 484.149V484.169C281.911 486.689 281.791 486.889 283.461 501.659C286.251 521.798 284.161 524.699 282.131 527.509V527.529C281.491 528.409 280.891 529.239 280.461 530.669C271.181 560.098 271.821 567.149 272.491 574.599C273.051 580.818 271.73 582.899 270.98 583.569C270.85 584.43 270.521 587.009 270.821 589.389C272.591 599.508 270.631 601.189 267.281 603.089L266.841 603.339C264.061 604.909 262.6 605.799 262.65 607.229C263.16 613.348 257.331 615.788 255.881 616.299C253.941 619.549 251.701 621.358 249.211 621.679C248.941 621.709 248.681 621.729 248.421 621.729C246.321 621.729 244.662 620.669 243.861 620.039C243.041 620.589 242.171 620.829 241.301 620.729C240.011 620.579 239.041 619.739 238.561 619.219C237.781 619.339 237.07 619.218 236.44 618.849C235.591 618.349 235.121 617.549 234.891 616.999C234.241 616.899 233.811 616.608 233.541 616.349C233.111 615.929 232.911 615.409 232.811 614.989C232.031 614.829 231.39 614.419 230.98 613.789C230.471 613.009 230.081 611.539 231.161 608.959C233.131 604.639 236.74 601.809 239.65 599.539H239.661C240.091 599.189 240.511 598.869 240.911 598.549C242.971 596.899 243.181 596.409 243.571 595.529L243.591 595.479C243.761 595.079 243.981 594.579 244.391 593.909C244.701 593.389 245.211 592.589 245.821 591.619C247.681 588.689 250.781 583.809 251.411 581.939C251.491 579.469 251.821 577.449 252.601 572.839C253.601 567.449 252.581 558.919 251.491 549.879L251.44 549.499C251.03 546.109 250.611 542.619 250.311 539.239C244.631 507.139 251.541 487.849 254.141 480.589L254.171 480.499C254.521 479.519 254.801 478.739 254.881 478.339C255.241 476.599 255.301 475.169 255.361 473.789C255.411 472.539 255.461 471.239 255.741 469.729C255.881 468.939 256.061 468.349 256.221 467.759C256.731 465.959 257.321 463.938 257.431 455.119C255.751 449.399 254.491 443.579 253.551 437.769C253.531 437.699 253.521 437.629 253.501 437.549C253.481 437.489 253.48 437.429 253.48 437.369C247.55 399.769 255.691 361.969 259.961 345.949C260.071 345.519 260.161 345.189 260.221 344.949C261.061 341.649 262.601 331.619 263.831 322.049C263.831 322.009 263.831 321.968 263.841 321.929C263.891 321.559 263.94 321.189 263.98 320.819V320.729C263.98 320.709 263.981 320.679 263.991 320.659V320.619C264.581 315.969 265.081 311.509 265.371 308.089C265.561 305.849 265.88 303.529 266.19 301.269C267.32 292.96 268.491 284.359 264.361 276.209C256.882 261.909 254.091 252.259 253.131 248.069C251.181 251.569 248.541 253.929 246.851 255.429L246.761 255.509C246.531 255.709 246.321 255.909 246.121 256.079C244.311 257.749 229.721 277.109 226.131 282.209C224.101 285.459 222.991 287.769 221.921 290.009C220.101 293.809 218.391 297.399 212.431 304.779C206.951 311.569 203.2 314.409 199.23 317.419C196.471 319.509 193.611 321.679 190.081 325.329C187.731 328.379 185.861 331.889 186.221 332.569C188.84 336.139 187.551 340.169 186.041 341.999C184.971 343.299 184.391 345.179 183.911 348.929C183.801 350.139 183.751 351.329 183.701 352.479V352.659C183.501 357.329 183.32 361.309 178.98 361.249C178.081 361.229 177.301 360.859 176.671 360.149C174.691 357.919 174.691 352.689 174.841 350.069C174.651 350.229 174.46 350.419 174.271 350.659C174.66 354.909 173.76 356.729 173.021 358.199C172.541 359.149 172.171 359.889 172.201 361.169C172.231 362.668 172.121 363.719 172.031 364.639V364.709C171.881 366.089 171.761 367.179 172.111 369.299C172.331 370.649 172.07 371.709 171.351 372.449C170.591 373.229 169.511 373.429 168.791 373.459C168.611 374.259 168.27 374.939 167.771 375.489C166.344 377.035 164.172 376.859 164.071 376.849C163.751 376.819 163.481 376.589 163.391 376.289C163.16 375.518 161.181 368.65 161.081 367.149V367.049C160.981 365.529 160.82 362.988 161.69 355.749C161.95 353.649 162.011 352.419 162.051 351.509V351.459C162.161 349.179 162.211 349.089 164.531 344.579V344.559L164.621 344.409C167.651 338.729 169.001 334.519 170.301 330.459C171.451 326.829 172.551 323.419 174.741 319.489C176.341 316.079 178.221 311.449 180.221 306.529L180.291 306.349C185.221 294.209 191.361 279.119 197.451 271.839C201.051 267.549 203.631 264.869 205.521 262.909C208.1 260.239 209.401 258.899 210.411 256.469C219.391 235.429 223.441 231.209 225.621 228.939L225.661 228.889C225.921 228.619 226.141 228.389 226.331 228.169C226.332 228.167 226.341 228.148 226.351 228.139C226.71 227.699 226.95 227.299 227.15 226.659C229.65 217.19 231.081 213.699 232.021 211.399V211.369L232.041 211.349C232.481 210.279 232.831 209.429 233.141 208.319C235.751 199.859 242.111 189.279 257.621 186.799H257.69C257.92 186.749 258.1 186.719 258.19 186.699C258.4 186.639 258.671 186.579 258.991 186.499C259.181 186.449 259.381 186.398 259.601 186.349C259.971 186.259 260.411 186.149 260.881 186.029C260.921 186.019 260.961 186.009 261.001 185.999C262.551 185.609 264.341 185.149 264.701 184.979C264.882 184.889 265.571 184.358 266.19 183.879L266.241 183.839C267.721 182.689 269.761 181.109 271.271 180.419C272.081 180.059 273.731 179.369 275.681 178.549C275.931 178.439 276.191 178.339 276.451 178.229L276.791 178.089C280.031 176.739 283.591 175.259 284.891 174.619C286.761 173.689 290.071 170.59 290.921 169.769C291.191 166.3 291.321 155.001 291.341 153.109V153.019C290.411 151.05 290.031 148.279 289.881 146.899C288.651 146.999 287.641 146.728 286.801 146.099C285.061 144.788 284.061 141.839 283.681 136.829C283.421 133.359 284.051 131.009 285.551 129.829C286.081 129.419 286.641 129.209 287.161 129.119C287.111 129.049 287.071 128.968 287.041 128.889V128.869C286.901 128.439 284.93 122.299 284.44 117.119C283.97 112.159 285.721 103.259 289.081 100.689C289.151 100.399 289.2 99.8694 288.811 99.5194C288.281 99.0495 288.111 98.3993 288.371 97.7694C288.831 96.6294 290.541 95.8891 292.541 95.9491C292.7 95.9491 292.8 95.9485 292.86 95.9286C292.86 95.8987 292.861 95.859 292.871 95.8192C292.871 95.7893 292.871 95.7592 292.881 95.7294C292.921 95.3594 293.001 94.7487 293.571 94.3387C294.251 93.8591 295.372 93.8094 297.331 94.1893C298.331 94.2392 298.771 93.9387 299.23 93.6288L299.261 93.6093ZM256.19 479.519C256.05 479.949 255.87 480.459 255.641 481.099C253.081 488.269 246.281 507.279 251.891 539.029C252.221 542.579 252.651 546.189 253.081 549.689V549.749C254.191 558.889 255.221 567.509 254.181 573.109C253.401 577.709 253.081 579.669 253.011 582.089C253.011 582.159 253 582.229 252.98 582.289C252.37 584.289 249.26 589.189 247.19 592.449L246.98 592.789C246.471 593.589 246.051 594.259 245.781 594.709C245.431 595.299 245.241 595.719 245.081 596.099L245.061 596.139C244.571 597.279 244.2 597.959 241.94 599.769C241.541 600.099 241.11 600.43 240.681 600.769C237.761 603.059 234.45 605.639 232.65 609.599C231.81 611.628 232.101 612.569 232.351 612.949C232.651 613.409 233.181 613.509 233.581 613.519C234.021 613.52 234.361 613.889 234.351 614.319C234.351 614.49 234.421 614.989 234.701 615.259C234.881 615.428 235.131 615.509 235.48 615.489C235.88 615.469 236.19 615.729 236.271 616.089C236.275 616.106 236.548 617.103 237.291 617.529C237.681 617.749 238.141 617.789 238.69 617.629C239.01 617.539 239.351 617.669 239.541 617.929C239.612 618.03 240.432 619.079 241.521 619.199C242.15 619.269 242.761 619.028 243.4 618.469C243.71 618.189 244.19 618.209 244.48 618.499C244.513 618.531 246.509 620.478 249.051 620.149C251.091 619.879 252.991 618.249 254.69 615.289C254.79 615.109 254.961 614.979 255.161 614.919C255.43 614.846 261.57 613.034 261.101 607.349C261.011 604.869 263.251 603.609 266.081 602.009L266.521 601.759C269.19 600.249 270.961 599.239 269.291 589.649C268.892 586.483 269.48 583.167 269.501 583.019C269.551 582.77 269.711 582.559 269.94 582.449C270.051 582.348 271.5 581.017 270.931 574.769C270.251 567.159 269.601 559.959 278.971 530.239L278.98 530.229C279.48 528.549 280.191 527.569 280.871 526.619H280.861C282.701 524.049 284.61 521.398 281.9 501.859C280.84 492.529 280.481 488.799 280.761 486.639C277.751 489.518 274.341 491.129 271.011 491.129H270.851C267.051 491.069 263.83 488.999 261.771 485.289C259.791 481.739 258.61 480.269 256.19 479.519ZM364.491 479.519C362.081 480.259 360.891 481.739 358.911 485.289C356.851 488.999 353.631 491.079 349.841 491.129H349.681C346.341 491.129 342.941 489.529 339.931 486.649C340.201 488.809 339.841 492.54 338.791 501.849C336.081 521.408 337.991 524.059 339.831 526.619C340.511 527.569 341.221 528.549 341.721 530.239C351.081 559.949 350.441 567.139 349.751 574.749C349.162 581.302 350.778 582.456 350.801 582.459C351.041 582.569 351.151 582.749 351.201 582.999V583.019C351.262 583.353 351.801 586.551 351.421 589.589C349.741 599.219 351.501 600.219 354.181 601.729L354.61 601.979C357.44 603.579 359.681 604.839 359.601 607.289C359.121 613.039 365.471 614.889 365.541 614.899C365.741 614.959 365.911 615.089 366.011 615.259C367.721 618.218 369.611 619.849 371.65 620.119C374.208 620.459 376.197 618.492 376.23 618.469C376.52 618.169 377.001 618.159 377.311 618.429C377.95 618.988 378.561 619.239 379.19 619.169C380.325 619.049 381.163 617.92 381.181 617.899C381.371 617.639 381.711 617.509 382.031 617.599C382.581 617.748 383.051 617.719 383.431 617.499C384.174 617.073 384.447 616.086 384.451 616.059C384.541 615.699 384.841 615.459 385.241 615.469C385.591 615.488 385.851 615.409 386.021 615.239C386.31 614.969 386.371 614.469 386.371 614.289C386.371 613.859 386.711 613.509 387.141 613.499C387.531 613.499 388.061 613.388 388.371 612.929C388.621 612.548 388.92 611.608 388.061 609.559C386.271 605.63 382.961 603.039 380.041 600.749C379.921 600.649 379.791 600.549 379.671 600.449C379.371 600.209 379.071 599.979 378.781 599.749C376.522 597.929 376.161 597.259 375.661 596.119C375.501 595.739 375.31 595.299 374.94 594.689C374.671 594.239 374.251 593.579 373.741 592.769L373.531 592.429C371.462 589.179 368.352 584.27 367.741 582.269C367.721 582.2 367.701 582.139 367.701 582.069C367.621 579.649 367.3 577.679 366.521 573.069C365.471 567.479 366.52 558.849 367.61 549.719V549.669C368.04 546.169 368.471 542.549 368.791 539.069C374.421 507.25 367.611 488.239 365.051 481.079C365.011 480.949 364.961 480.829 364.921 480.709V480.729C364.751 480.26 364.611 479.859 364.501 479.519H364.491ZM259.011 456.769C258.851 464.439 258.28 466.419 257.771 468.189C257.611 468.759 257.451 469.299 257.321 470.009C257.071 471.418 257.021 472.599 256.971 473.849C256.921 475.118 256.871 476.439 256.591 478.009C259.601 478.909 261.071 480.759 263.171 484.539C264.951 487.739 267.691 489.529 270.891 489.579C275.48 489.619 280.271 486.189 283.771 480.319C283.781 480.299 283.801 480.259 283.821 480.229C283.841 480.189 283.871 480.139 283.891 480.099L283.911 480.059V480.049C284.291 479.369 284.701 478.689 285.121 477.979C287.541 473.909 290.511 468.929 291.661 459.409C289.441 465.609 285.68 472.109 279.65 472.109H279.511C272.801 471.999 271.48 466.279 270.521 462.109C270.101 460.3 269.67 458.429 268.94 458.089C268.67 457.969 268.271 458.029 267.751 458.289C265.231 459.519 263.141 459.679 261.351 458.809C260.441 458.36 259.671 457.669 259.011 456.769ZM361.69 456.759C361.03 457.649 360.26 458.349 359.351 458.799C357.561 459.679 355.471 459.509 352.951 458.279C352.421 458.019 352.021 457.959 351.751 458.079C351.021 458.419 350.591 460.289 350.171 462.089V462.119C349.201 466.289 347.88 471.999 341.181 472.109H341.041C335.011 472.109 331.251 465.619 329.031 459.419C330.181 468.929 333.141 473.909 335.571 477.979L335.601 478.029C336.011 478.729 336.411 479.399 336.791 480.069V480.089C336.794 480.093 336.831 480.15 336.851 480.179C336.88 480.238 336.911 480.289 336.94 480.339C340.39 486.119 345.151 489.569 349.671 489.569H349.811C353.01 489.519 355.751 487.739 357.531 484.539C359.641 480.749 361.101 478.899 364.11 477.999C363.83 476.429 363.78 475.109 363.73 473.839V473.809C363.68 472.57 363.631 471.389 363.381 469.999C363.251 469.289 363.101 468.748 362.931 468.179C362.421 466.409 361.85 464.418 361.69 456.759ZM265.291 323.409C264.101 332.499 262.661 341.939 261.801 345.339L261.761 345.489C261.701 345.709 261.631 345.999 261.531 346.349C257.281 362.309 249.161 400.039 255.141 437.459C255.501 439.099 255.83 440.769 256.15 442.389V442.419C257.52 449.299 258.801 455.799 262.061 457.399C263.37 458.049 265.011 457.879 267.061 456.879C268.04 456.399 268.911 456.329 269.631 456.669C271.051 457.339 271.501 459.289 272.071 461.759C273.011 465.839 274.071 470.449 279.541 470.549H279.65C289.583 470.548 292.826 448.4 292.86 448.149V448.109C293.15 445.999 293.491 443.889 293.871 441.789C293.871 441.749 293.871 441.709 293.881 441.659L293.98 441.159C294.17 440.169 294.361 439.189 294.561 438.199L294.571 438.189C294.591 438.05 294.62 437.909 294.65 437.769C297.12 424.07 295.86 422.559 293.101 419.239C290.221 415.759 285.871 410.519 282.121 390.439C281.111 384.999 280.381 378.459 279.611 371.539C277.451 352.099 275.011 330.139 265.291 323.409ZM355.421 323.399C345.701 330.139 343.261 352.089 341.101 371.529C340.331 378.449 339.601 384.989 338.591 390.429C334.851 410.508 330.49 415.759 327.61 419.229C324.851 422.549 323.601 424.06 326.071 437.769L326.15 438.209C326.35 439.179 326.541 440.149 326.721 441.119L326.831 441.649C326.832 441.657 326.841 441.741 326.841 441.789C327.221 443.899 327.561 445.999 327.851 448.099V448.139C327.882 448.381 331.124 470.539 341.061 470.539H341.171C346.641 470.449 347.701 465.829 348.641 461.759C349.211 459.289 349.661 457.339 351.081 456.669C351.801 456.329 352.671 456.399 353.65 456.879C355.7 457.879 357.331 458.049 358.65 457.399C361.9 455.799 363.191 449.299 364.551 442.419L364.591 442.209C364.901 440.649 365.221 439.039 365.571 437.459C371.561 400.039 363.441 362.319 359.181 346.349C359.071 345.919 358.981 345.579 358.911 345.339V345.329C358.041 341.929 356.601 332.489 355.421 323.399ZM265.771 321.839C276.42 328.689 278.941 351.329 281.171 371.349V371.469C281.951 378.319 282.671 384.789 283.671 390.149C287.341 409.839 291.541 414.889 294.321 418.239C296.211 420.509 297.471 422.03 297.561 426.189C297.77 425.48 297.98 424.769 298.19 424.059C298.66 422.519 299.421 420.429 300.311 418.009L300.48 417.549C303.43 409.479 307.87 397.309 308.48 387.429L308.471 387.419C308.511 385.859 308.551 384.439 308.571 383.199V383.109C308.641 380.079 308.681 378.149 308.921 376.989C302.221 376.069 299.12 367.929 293.65 349.559C287.581 329.18 271.961 323.369 265.771 321.839ZM354.921 321.829C348.731 323.359 333.111 329.169 327.041 349.549C321.571 367.918 318.47 376.059 311.771 376.979C312.01 378.139 312.051 380.069 312.121 383.099V383.199C312.151 384.439 312.18 385.859 312.23 387.439C312.841 397.309 317.301 409.509 320.251 417.579L320.321 417.789C321.241 420.299 322.031 422.459 322.511 424.049C322.731 424.759 322.941 425.469 323.141 426.169L323.15 426.179C323.24 422.029 324.501 420.509 326.381 418.239C329.161 414.889 333.361 409.839 337.031 390.149C338.031 384.779 338.761 378.289 339.521 371.419V371.339C341.751 351.309 344.271 328.679 354.921 321.829ZM334.891 272.499C334.601 280.909 333.791 297.509 333.041 309.279C331.561 332.379 317.151 351.479 310.421 351.479H310.261C303.531 351.479 289.121 332.369 287.641 309.279C286.891 297.499 286.081 280.899 285.791 272.499C284.601 279.059 283.351 286.399 284.341 293.139C286.631 308.597 281.092 315.768 278.611 318.139C276.611 320.038 273.731 321.309 270.681 321.779C278.351 324.739 290.04 331.959 295.15 349.129C301.15 369.259 304.021 375.529 310.251 375.529H310.431C316.67 375.529 319.541 369.258 325.531 349.129C330.641 331.949 342.331 324.739 350.001 321.779C346.951 321.309 344.071 320.038 342.071 318.139C339.581 315.769 334.051 308.598 336.341 293.139C337.341 286.399 336.081 279.059 334.891 272.499ZM173.951 324.889C173.141 326.898 172.511 328.849 171.871 330.849L171.841 330.949C170.581 334.879 169.16 339.339 166.061 345.129L165.98 345.279C164.501 348.159 163.731 350.239 163.671 351.549C163.631 352.479 163.561 353.759 163.301 355.949C162.441 363.039 162.601 365.499 162.701 366.959V367.059C162.762 368.011 163.921 372.29 164.781 375.289C165.301 375.239 166.101 375.048 166.661 374.429C167.391 373.629 167.591 372.298 167.261 370.469C166.471 366.129 166.671 365.328 167.161 363.389C167.401 362.459 167.681 361.289 167.98 359.289C168.4 357.499 169.061 356.699 169.761 355.849C170.521 354.919 171.391 353.858 172.221 351.089C172.231 351.049 172.251 351.009 172.271 350.969C173.501 348.479 175.491 347.959 175.611 347.929C175.861 347.869 176.121 347.93 176.311 348.099C176.51 348.269 176.601 348.52 176.581 348.769C176.351 350.97 176.141 357.119 177.921 359.109C178.261 359.489 178.631 359.669 179.081 359.679H179.171C181.65 359.678 181.97 357.689 182.19 352.519C182.24 351.319 182.291 350.069 182.411 348.759C182.931 344.659 183.601 342.569 184.881 341.009C186.031 339.609 187.081 336.319 184.991 333.459C184.571 332.839 184.671 331.879 185.051 330.799C184.041 331.079 183.041 331.219 182.091 331.219C180.771 331.219 179.541 330.958 178.461 330.429C176.421 329.419 174.821 327.418 173.951 324.889ZM446.761 324.879C445.891 327.409 444.291 329.409 442.251 330.419C441.181 330.949 439.941 331.209 438.621 331.209C437.671 331.209 436.681 331.069 435.671 330.799C436.041 331.868 436.151 332.819 435.741 333.429C433.631 336.319 434.671 339.599 435.831 340.999C437.111 342.559 437.781 344.649 438.301 348.719C438.421 350.019 438.471 351.229 438.521 352.399V352.509C438.751 357.678 439.071 359.669 441.551 359.669H441.641C442.1 359.669 442.471 359.478 442.801 359.099C444.57 357.108 444.371 350.959 444.141 348.759C444.111 348.509 444.221 348.259 444.411 348.089C444.601 347.919 444.861 347.859 445.11 347.919C445.205 347.94 447.213 348.442 448.451 350.959C448.471 350.989 448.481 351.029 448.501 351.069C449.321 353.849 450.191 354.909 450.961 355.839V355.849C451.661 356.698 452.321 357.499 452.721 359.219C453.031 361.288 453.321 362.449 453.551 363.389C454.031 365.328 454.231 366.129 453.451 370.469C453.121 372.298 453.321 373.629 454.051 374.429C454.611 375.048 455.411 375.239 455.931 375.289C456.79 372.3 457.95 368.011 458.011 367.059V366.949C458.111 365.479 458.271 363.018 457.411 355.929C457.151 353.729 457.091 352.459 457.041 351.529C456.981 350.229 456.21 348.149 454.73 345.269L454.65 345.109C451.57 339.339 450.141 334.889 448.891 330.969L448.871 330.919C448.221 328.879 447.581 326.909 446.761 324.879ZM172.741 354.139C172.121 355.438 171.501 356.199 170.961 356.849C170.311 357.648 169.831 358.229 169.511 359.599C169.221 361.608 168.911 362.869 168.681 363.779C168.231 365.589 168.081 366.199 168.811 370.199C168.92 370.799 168.97 371.369 168.98 371.889C169.42 371.839 169.931 371.699 170.261 371.369C170.621 370.989 170.741 370.389 170.601 369.549C170.221 367.229 170.361 365.929 170.501 364.549C170.601 363.609 170.701 362.639 170.671 361.199C170.631 359.539 171.15 358.509 171.65 357.519C172.08 356.639 172.561 355.698 172.741 354.139ZM447.951 354.129C448.141 355.698 448.611 356.639 449.051 357.509C449.551 358.519 450.071 359.549 450.031 361.199C450.001 362.629 450.111 363.599 450.201 364.529V364.559C450.351 365.929 450.481 367.229 450.101 369.539C449.971 370.369 450.08 370.979 450.44 371.359C450.76 371.689 451.271 371.839 451.721 371.879C451.721 371.359 451.781 370.789 451.891 370.189C452.621 366.19 452.471 365.569 452.011 363.769L451.991 363.709C451.771 362.799 451.461 361.549 451.161 359.519C450.851 358.22 450.371 357.629 449.721 356.839C449.191 356.189 448.571 355.428 447.951 354.129ZM325.881 240.859C321.131 239.109 315.131 237.879 312.551 239.659C311.661 240.279 311.221 241.239 311.221 242.599C311.221 243.028 310.86 243.379 310.431 243.379H310.271C309.831 243.379 309.481 243.028 309.48 242.599C309.48 241.239 309.04 240.269 308.15 239.659C305.57 237.879 299.57 239.109 294.811 240.859C294.161 241.139 293.501 241.389 292.831 241.629C289.581 242.959 286.3 244.709 285.23 247.109C284.571 248.589 284.931 249.759 285.601 251.879C286.151 253.629 286.871 255.919 287.201 259.279C287.261 259.699 287.291 260.139 287.311 260.609C287.331 260.869 287.341 261.139 287.351 261.419C287.401 262.559 287.371 263.099 287.341 263.829V263.859C287.301 264.659 287.241 265.75 287.271 268.229C287.311 273.23 288.311 294.789 289.23 309.179C290.711 332.288 304.93 349.918 310.271 349.919H310.431C315.771 349.918 329.991 332.288 331.471 309.179C332.391 294.809 333.391 273.24 333.431 268.229V268.219C333.451 265.739 333.4 264.648 333.36 263.849V263.829C333.32 263.089 333.301 262.549 333.351 261.409C333.361 261.129 333.381 260.858 333.391 260.599C333.411 260.139 333.441 259.709 333.501 259.299C333.831 255.929 334.551 253.629 335.101 251.879C335.77 249.769 336.13 248.599 335.471 247.109C334.401 244.719 331.121 242.959 327.871 241.629C327.201 241.399 326.531 241.149 325.881 240.859ZM310.431 314.018C310.87 314.019 311.22 314.369 311.221 314.799V344.379C311.22 344.808 310.86 345.158 310.431 345.158H310.271C309.831 345.158 309.481 344.808 309.48 344.379V314.799C309.481 314.369 309.841 314.019 310.271 314.018H310.431ZM408.44 256.179C411.83 270.028 407.501 274.939 403.951 276.669C402.751 277.259 401.331 277.598 399.721 277.599C397.121 277.598 394.071 276.689 390.781 274.439C392.981 277.399 394.831 279.93 395.811 281.309C397.93 284.699 399.061 287.059 400.161 289.339C401.941 293.059 403.621 296.559 409.451 303.789C414.811 310.429 418.491 313.219 422.381 316.169C425.201 318.299 428.111 320.51 431.741 324.269L431.73 324.279C431.734 324.283 431.772 324.32 431.791 324.349C432.431 325.179 433.781 327.009 434.781 328.859C437.281 329.859 439.731 329.919 441.551 329.019C443.641 327.989 445.231 325.519 445.741 322.539C445.381 321.789 444.99 321.029 444.561 320.249C442.901 316.699 441.011 312.039 439.001 307.109L438.931 306.939C434.041 294.909 427.96 279.939 422.021 272.849C418.461 268.599 415.901 265.949 414.031 264.009L414.011 263.989C411.401 261.279 409.951 259.779 408.831 257.079C408.701 256.779 408.57 256.479 408.44 256.179ZM211.881 257.079C210.761 259.759 209.321 261.259 206.721 263.959L206.631 264.049C204.761 265.989 202.21 268.629 198.69 272.849C192.76 279.929 186.681 294.879 181.791 306.909V306.939C179.751 311.939 177.831 316.649 176.171 320.199C175.731 320.999 175.331 321.779 174.971 322.539C175.481 325.509 177.071 327.989 179.161 329.019C180.981 329.919 183.431 329.848 185.931 328.849C186.931 326.999 188.271 325.178 188.911 324.349C188.931 324.329 188.951 324.309 188.971 324.279C192.591 320.529 195.501 318.319 198.311 316.189L198.331 316.169C202.221 313.219 205.901 310.429 211.261 303.789C217.101 296.559 218.781 293.049 220.561 289.339L220.591 289.269V289.289C221.671 287.029 222.801 284.679 224.881 281.359C225.861 279.949 227.721 277.419 229.931 274.439C226.641 276.699 223.591 277.598 220.991 277.599C219.391 277.599 217.961 277.259 216.761 276.669C213.211 274.929 208.881 270.028 212.271 256.179C212.141 256.469 212.011 256.769 211.881 257.079ZM254.961 228.669C256.911 233.089 255.971 238.888 255.551 241.429C255.291 242.989 254.901 244.549 254.391 246.069C254.841 248.48 257.151 258.94 265.841 275.529C270.191 284.109 268.991 292.959 267.831 301.509L267.821 301.489C267.501 303.819 267.201 306.029 267.011 308.229C266.741 311.349 266.261 315.629 265.701 320.199C269.951 320.939 274.731 319.669 277.531 316.999C279.841 314.809 284.971 308.098 282.791 293.359C281.721 286.149 283.121 278.399 284.361 271.569V271.549C285.141 267.279 285.82 263.519 285.73 260.729C285.7 260.289 285.671 259.879 285.631 259.469C285.23 256.759 280.101 252.368 274.161 247.299C269.451 243.269 264.131 238.719 259.571 233.709C258.941 233.069 258.331 232.399 257.751 231.699C256.881 230.659 255.971 229.609 254.961 228.669ZM365.761 228.649C364.751 229.599 363.841 230.629 362.971 231.679C362.391 232.379 361.78 233.049 361.15 233.689C356.581 238.699 351.261 243.249 346.551 247.279L346.521 247.309C340.591 252.379 335.481 256.749 335.081 259.459C335.041 259.859 335 260.279 334.98 260.709C334.89 263.499 335.571 267.259 336.341 271.529C337.581 278.369 338.981 286.119 337.921 293.339C335.741 308.079 340.881 314.779 343.181 316.979C345.981 319.649 350.751 320.919 355.011 320.179C354.441 315.609 353.971 311.339 353.701 308.219C353.511 306.019 353.211 303.809 352.891 301.479V301.459H352.881C351.721 292.909 350.531 284.079 354.871 275.509C363.561 258.909 365.871 248.459 366.321 246.039C365.811 244.519 365.411 242.969 365.161 241.409C364.751 238.869 363.811 233.069 365.761 228.649ZM324.69 302.058H324.701C325.131 302.069 325.47 302.429 325.471 302.858C325.461 303.298 325.081 303.629 324.671 303.629C322.071 303.569 315.211 304.238 312.841 304.768C311.581 305.058 311.23 306.279 311.15 308.148C311.17 308.718 311.171 309.279 311.171 309.808V310.148C311.171 310.578 310.811 310.928 310.381 310.929H310.331C309.901 310.929 309.541 310.578 309.541 310.148V309.808C309.541 309.269 309.541 308.708 309.561 308.148C309.481 306.279 309.13 305.059 307.871 304.768C305.511 304.238 298.671 303.569 296.041 303.629C295.621 303.639 295.241 303.288 295.241 302.858C295.232 302.429 295.581 302.059 296.011 302.058C298.751 302.009 305.721 302.678 308.221 303.238C309.25 303.468 309.911 304.019 310.351 304.749C310.781 304.019 311.451 303.468 312.48 303.238C314.981 302.678 321.94 302.009 324.69 302.058ZM310.411 291.358C310.851 291.359 311.201 291.709 311.201 292.148C311.201 299.318 311.841 299.659 314.261 299.839C317.98 299.939 319.941 299.809 322.4 299.629H322.61L322.621 299.608C324.121 299.508 325.821 299.388 328.221 299.308C328.66 299.309 329.021 299.639 329.041 300.068C329.061 300.498 328.721 300.858 328.281 300.879C325.901 300.969 324.21 301.079 322.73 301.179H322.551C320.651 301.329 319.05 301.438 316.73 301.438C315.981 301.438 315.141 301.428 314.201 301.398C312.111 301.248 310.971 300.578 310.351 299.139C309.741 300.588 308.611 301.238 306.541 301.398C305.581 301.428 304.731 301.438 303.961 301.438C301.631 301.438 300.04 301.328 298.141 301.198C296.611 301.088 294.881 300.969 292.411 300.879C291.981 300.859 291.63 300.498 291.65 300.068C291.671 299.639 292.051 299.298 292.471 299.318C294.97 299.408 296.711 299.529 298.261 299.639C300.731 299.809 302.691 299.949 306.451 299.839C308.841 299.659 309.471 299.317 309.471 292.148C309.471 291.719 309.821 291.358 310.261 291.358H310.411ZM314.301 279.849C318.031 279.809 322.231 280.278 324.751 280.568C325.181 280.618 325.49 281.009 325.44 281.438C325.39 281.868 325.01 282.179 324.57 282.129H324.541C322.061 281.849 317.96 281.379 314.32 281.419C311.651 281.459 311.19 282.779 311.19 286.728C311.19 287.158 310.84 287.508 310.4 287.509H310.241C309.801 287.509 309.451 287.158 309.451 286.728C309.451 282.769 309 281.449 306.32 281.419H306.351C302.721 281.379 298.581 281.849 296.101 282.129C295.661 282.189 295.271 281.868 295.221 281.438C295.171 281.009 295.481 280.618 295.911 280.568C298.421 280.278 302.641 279.809 306.36 279.849C308.55 279.879 309.711 280.719 310.331 281.919C310.951 280.719 312.121 279.889 314.301 279.849ZM310.421 268.058C310.861 268.059 311.211 268.409 311.211 268.839C311.211 269.598 311.181 270.329 311.161 271.039L311.15 271.249V271.318C311.14 271.518 311.131 271.719 311.131 271.919C311.151 272.668 311.171 273.389 311.131 274.058C311.201 275.418 311.481 276.329 312.241 276.759C315.371 278.518 321.591 278.418 328.19 278.308H328.931L328.94 278.318C329.37 278.318 329.73 278.659 329.73 279.089C329.73 279.518 329.391 279.878 328.951 279.879L328.301 279.889H328.15C326.561 279.919 325.021 279.938 323.541 279.938C318.451 279.938 314.18 279.649 311.48 278.129C311.001 277.859 310.64 277.509 310.36 277.089C310.09 277.498 309.721 277.859 309.241 278.129C306.541 279.649 302.261 279.938 297.181 279.938C295.711 279.938 294.171 279.919 292.581 279.889L292.421 279.879H291.771C291.331 279.879 290.991 279.518 290.991 279.089C291.001 278.659 291.351 278.318 291.781 278.318H292.44C299.06 278.428 305.321 278.528 308.451 276.768C309.211 276.338 309.481 275.438 309.561 274.068C309.521 273.399 309.541 272.678 309.561 271.929C309.561 271.729 309.541 271.528 309.541 271.308V271.259C309.511 270.479 309.48 269.678 309.48 268.839C309.481 268.409 309.841 268.059 310.271 268.058H310.421ZM378.961 224.589C375.291 224.479 371.831 224.379 369.331 226.399C364.891 229.989 366.211 238.099 366.711 241.149C366.921 242.429 367.231 243.709 367.631 244.959C367.761 245.049 367.871 245.169 367.931 245.319C369.731 249.709 372.811 252.459 374.851 254.269C374.91 254.319 374.971 254.379 375.031 254.429C375.231 254.608 375.431 254.779 375.601 254.949C376.631 255.9 380.871 261.33 385.261 267.109C392.61 276.019 399.36 277.169 403.23 275.279C407.39 273.239 412.66 266.038 401.141 240.739C397.351 233.62 395.181 231.359 393.911 230.029C393.671 229.769 393.44 229.539 393.23 229.299C391.911 228.419 390.49 227.639 389.021 226.979C387.731 226.409 386.5 225.979 385.351 225.649C385.321 225.649 385.301 225.639 385.281 225.629C382.362 224.799 380.031 224.619 378.961 224.589ZM251.371 226.399C248.881 224.379 245.411 224.479 241.741 224.589C240.671 224.619 238.341 224.789 235.421 225.629C235.421 225.629 235.41 225.629 235.4 225.629C235.381 225.629 235.361 225.639 235.341 225.649C234.191 225.979 232.961 226.409 231.671 226.979C230.201 227.639 228.791 228.419 227.471 229.299C227.261 229.539 227.031 229.779 226.791 230.029C225.521 231.369 223.351 233.629 219.561 240.739C208.051 266.039 213.311 273.229 217.48 275.269C221.351 277.169 228.101 276.019 235.451 267.109C235.451 267.109 235.451 267.099 235.461 267.099C239.861 261.309 244.091 255.889 245.121 254.939C245.301 254.779 245.491 254.609 245.69 254.419C245.75 254.369 245.811 254.319 245.871 254.259L245.9 254.239C247.93 252.419 251.001 249.679 252.791 245.309L252.781 245.319C252.841 245.169 252.951 245.049 253.081 244.959C253.471 243.709 253.781 242.439 253.991 241.149C254.491 238.099 255.81 229.99 251.371 226.399ZM314.281 257.658C317.771 257.068 321.881 258.139 324.331 258.789L324.881 258.938C325.3 259.048 325.55 259.469 325.44 259.889C325.33 260.308 324.9 260.548 324.48 260.448L323.921 260.299C321.591 259.689 317.691 258.668 314.541 259.198C311.711 259.678 311.211 261.119 311.211 263.948C311.211 264.378 310.861 264.728 310.421 264.728H310.261C309.821 264.728 309.471 264.378 309.471 263.948C309.471 261.109 308.97 259.668 306.15 259.198C302.991 258.668 299.101 259.689 296.761 260.299L296.781 260.289L296.221 260.438H296.23C295.811 260.548 295.381 260.298 295.271 259.879C295.161 259.469 295.411 259.039 295.831 258.929L296.381 258.789C298.841 258.149 302.941 257.068 306.431 257.658C308.58 258.018 309.73 258.929 310.36 260.089C310.98 258.929 312.141 258.018 314.281 257.658ZM310.451 246.889C310.891 246.889 311.241 247.239 311.241 247.669C311.241 252.186 311.371 255.154 313.188 255.168C319.598 255.05 323.966 256.17 330.391 258.018C330.81 258.139 331.05 258.578 330.931 258.988C330.831 259.328 330.521 259.549 330.171 259.549C330.101 259.549 330.021 259.548 329.951 259.518C323.661 257.698 319.39 256.608 313.19 256.728C311.731 256.728 310.86 255.928 310.36 254.679C309.86 255.928 309.011 256.718 307.541 256.728C301.321 256.608 297.041 257.698 290.761 259.518C290.681 259.538 290.611 259.549 290.541 259.549C290.201 259.549 289.891 259.328 289.791 258.988C289.671 258.578 289.911 258.138 290.331 258.018C296.761 256.159 301.122 255.039 307.571 255.169C309.36 255.168 309.501 252.198 309.501 247.669C309.501 247.239 309.851 246.889 310.291 246.889H310.451ZM268.091 239.919C270.491 242.099 272.901 244.159 275.181 246.109C279.21 249.549 282.711 252.539 284.881 255.099C284.631 254.079 284.361 253.199 284.121 252.439L284.091 252.329C283.401 250.099 282.891 248.489 283.791 246.469C284.379 245.163 285.413 244.056 286.717 243.099C286.718 243.098 286.72 243.099 286.721 243.099L286.73 243.089C286.726 243.092 286.721 243.095 286.717 243.099C285.338 243.278 283.96 243.379 282.581 243.379C277.581 243.379 272.601 242.189 268.091 239.919ZM352.601 239.909C348.091 242.179 343.12 243.369 338.11 243.369C336.731 243.369 335.35 243.269 333.971 243.089C335.28 244.049 336.321 245.159 336.911 246.469L336.9 246.479C337.81 248.499 337.3 250.109 336.601 252.349L336.571 252.439C336.331 253.199 336.06 254.079 335.811 255.099C337.991 252.539 341.481 249.538 345.511 246.099C347.781 244.159 350.201 242.089 352.601 239.909ZM336.251 189.969C334.141 189.349 330.221 188.189 323.251 188.849C311.311 189.969 311.23 197.379 311.23 197.689V219.559C311.231 223.909 312.741 228.069 315.491 231.279C318.531 234.829 322.231 237.559 326.471 239.399L326.461 239.409C327.151 239.669 327.841 239.929 328.531 240.209C339.411 243.969 351.781 240.969 360.011 232.589C360.071 232.519 360.13 232.458 360.19 232.389C360.24 232.339 360.281 232.289 360.331 232.239C360.332 232.238 360.341 232.228 360.351 232.219C360.36 232.218 360.371 232.199 360.381 232.189C360.851 231.699 361.301 231.199 361.73 230.669C364.75 227.039 368.521 223.179 375.221 222.979C374.181 222.549 373.301 222.089 372.591 221.609C366.631 217.6 361.981 212.179 359.741 209.569C357.651 207.119 356.131 205.119 354.791 203.359L354.73 203.289C351.801 199.439 349.87 196.899 345.141 193.919C341.622 191.7 337.213 190.27 336.661 190.089C336.531 190.049 336.401 190.019 336.251 189.969ZM297.461 188.859C290.501 188.199 286.571 189.359 284.461 189.979C284.311 190.019 284.181 190.059 284.051 190.099C283.491 190.279 279.081 191.709 275.561 193.929C270.831 196.909 268.9 199.449 265.98 203.289C264.631 205.079 263.091 207.099 260.991 209.549C258.731 212.179 254.081 217.599 248.121 221.609C247.411 222.089 246.531 222.539 245.491 222.979C252.191 223.17 255.961 227.039 258.98 230.669C259.42 231.199 259.871 231.699 260.331 232.189C260.351 232.199 260.371 232.219 260.381 232.229L260.701 232.569C268.941 240.949 281.301 243.949 292.19 240.189C292.88 239.909 293.571 239.639 294.261 239.389C298.501 237.549 302.201 234.819 305.241 231.269L305.221 231.289C307.971 228.079 309.48 223.919 309.48 219.569V197.709C309.48 197.387 309.399 189.989 297.461 188.859ZM310.351 224.859C309.601 227.599 308.271 230.149 306.421 232.299C304.681 234.329 302.731 236.109 300.601 237.619C303.68 237.049 306.981 236.949 309.061 238.379C309.61 238.759 310.03 239.219 310.36 239.759C310.68 239.219 311.111 238.749 311.661 238.379C313.731 236.949 317.031 237.049 320.11 237.619C317.981 236.109 316.031 234.339 314.291 232.309H314.281C312.431 230.15 311.101 227.609 310.351 224.859ZM359.311 187.549C351.371 185.979 342.98 188.129 339.19 189.339C340.99 190.019 343.641 191.149 345.98 192.619C350.96 195.759 353.071 198.529 355.991 202.369L356.131 202.549C357.441 204.269 358.931 206.209 360.931 208.549C363.141 211.119 367.701 216.429 373.491 220.329C375.041 221.379 377.651 222.359 381.021 223.189C383.12 223.429 386.231 224.039 389.681 225.569C390.43 225.899 391.171 226.279 391.891 226.669C389.471 217.589 388.1 214.229 387.19 212.009C386.731 210.869 386.36 209.979 386.021 208.779C383.551 200.779 377.51 190.739 362.811 188.379H362.73C362.431 188.319 362.221 188.279 362.091 188.249C361.761 188.159 361.261 188.039 360.701 187.899C360.251 187.789 359.811 187.679 359.391 187.569L359.371 187.559H359.311V187.549ZM281.511 189.349C277.721 188.139 269.34 185.99 261.391 187.559H261.331C260.911 187.679 260.47 187.789 260.021 187.899C259.451 188.039 258.961 188.159 258.631 188.249C258.501 188.289 258.251 188.329 257.911 188.379C243.211 190.739 237.17 200.779 234.69 208.799V208.789C234.36 209.979 233.991 210.869 233.531 211.989C232.621 214.219 231.241 217.569 228.821 226.659C229.541 226.269 230.281 225.899 231.031 225.559C234.481 224.03 237.601 223.419 239.69 223.179C243.06 222.359 245.671 221.369 247.221 220.329C253.01 216.429 257.57 211.119 259.771 208.569C261.83 206.169 263.341 204.189 264.661 202.449L264.73 202.359C267.64 198.529 269.751 195.759 274.721 192.629C277.061 191.149 279.711 190.028 281.511 189.349ZM327.751 154.669C325.641 157.409 320.36 162.819 310.48 164.569H310.181C303.191 163.329 298.581 160.269 295.931 157.919C294.561 156.699 293.581 155.569 292.911 154.689C292.881 156.999 292.82 161.099 292.73 164.599L292.751 164.609V180.849C292.751 183.918 291.641 185.879 289.931 187.279C291.981 187.069 294.501 187.019 297.601 187.309C306 188.1 309.161 191.939 310.341 194.729C311.521 191.939 314.681 188.109 323.081 187.309C326.181 187.019 328.701 187.069 330.751 187.279C329.041 185.879 327.931 183.918 327.931 180.849V164.599C327.831 161.079 327.781 156.979 327.751 154.669ZM291.161 171.719C289.741 173.019 287.271 175.199 285.621 176.019C284.231 176.709 280.431 178.289 277.091 179.679C274.901 180.588 272.842 181.448 271.951 181.849V181.859C270.601 182.469 268.66 183.979 267.23 185.089C267.161 185.139 267.101 185.189 267.041 185.239C266.961 185.299 266.881 185.369 266.801 185.419C275.031 185.279 282.361 187.909 283.881 188.499C288.811 186.839 291.161 185.219 291.161 180.839V171.719ZM329.521 180.839C329.521 185.219 331.871 186.839 336.801 188.499C338.321 187.909 345.651 185.279 353.881 185.419C353.801 185.359 353.72 185.299 353.641 185.229C353.581 185.179 353.521 185.129 353.451 185.079L353.331 184.989C351.921 183.899 350.04 182.449 348.73 181.859C347.84 181.459 345.78 180.599 343.601 179.689C340.251 178.299 336.451 176.719 335.061 176.019V176.029C333.411 175.209 330.931 173.039 329.521 171.729V180.839ZM324.771 108.239C324.331 107.939 323.931 107.859 323.511 107.979C314.591 111.549 301.281 112.539 296.181 109.979C295.201 109.489 294.281 109.529 293.381 110.119C291.101 111.599 289.531 116.159 289.701 119.089C289.921 123.009 289.731 128.959 289.701 129.829V129.939C289.701 130.179 289.57 130.38 289.4 130.519C289.201 130.709 288.901 130.789 288.621 130.699C288.541 130.669 287.441 130.369 286.561 131.069C285.831 131.649 285.021 133.099 285.301 136.709C285.641 141.179 286.461 143.849 287.801 144.859C288.471 145.369 289.301 145.489 290.491 145.249H290.48C290.7 145.209 290.93 145.259 291.11 145.399C291.29 145.539 291.401 145.749 291.421 145.979C291.423 146.047 291.685 150.167 292.871 152.509C292.931 152.619 292.951 152.739 292.951 152.869V152.949C292.952 153.038 293.241 152.759 293.241 152.949C294.682 155.079 299.522 160.769 310.351 162.699C321.18 160.769 326.16 154.999 327.601 152.869C327.601 152.589 327.741 152.928 327.741 152.869C327.741 152.749 327.771 152.619 327.821 152.509C329.007 150.157 329.269 146.047 329.271 145.979C329.281 145.759 329.391 145.539 329.581 145.409C329.761 145.269 329.991 145.219 330.211 145.259C331.401 145.489 332.231 145.369 332.9 144.869C334.25 143.859 335.06 141.198 335.4 136.719C335.67 133.099 334.861 131.649 334.141 131.079C333.262 130.38 332.174 130.678 332.081 130.709C331.681 130.829 331.261 130.619 331.121 130.239C330.511 129.419 329.821 127.268 329.141 119.929C328.661 114.689 326.74 109.549 324.771 108.239Z" fill="black"/>
</svg>
